<svg width="1440" height="277" viewBox="0 0 1440 277" fill="none" xmlns="http://www.w3.org/2000/svg">
<path opacity="0.9" d="M80.4 86.3704L0 72V277H1440V158.222L1359.6 179.778C1280.4 201.333 1119.6 244.444 960 244.444C800.4 244.444 639.6 201.333 480 165.407C320.4 129.481 159.6 100.741 80.4 86.3704Z" fill="white"/>
<path opacity="0.5" d="M-2.521 39L78.0198 53.3704C157.358 67.7407 318.44 96.4815 478.319 132.407C638.199 168.333 799.28 211.444 959.16 211.444C1119.04 211.444 1280.12 168.333 1359.46 146.778L1440 125.222" stroke="white"/>
<path opacity="0.2" d="M-2.521 1L78.0198 15.3704C157.358 29.7407 318.44 58.4815 478.319 94.4074C638.199 130.333 799.28 173.444 959.16 173.444C1119.04 173.444 1280.12 130.333 1359.46 108.778L1440 87.2222" stroke="white"/>
</svg>
