<svg width="472" height="292" viewBox="0 0 472 292" fill="none" xmlns="http://www.w3.org/2000/svg">
<path d="M96.6641 7.3457H373.492C376.635 7.3457 379.65 8.58943 381.872 10.8033C384.095 13.0171 385.344 16.0197 385.344 19.1506V168.956H84.8125V19.1506C84.8125 16.0197 86.0611 13.0171 88.2838 10.8033C90.5064 8.58943 93.5209 7.3457 96.6641 7.3457Z" fill="#F5F5F5"/>
<path d="M472 284.654H0V292H472V284.654Z" fill="#5C4FC4"/>
<path d="M36.3366 213.031H433.82C434.166 213.031 434.498 213.168 434.743 213.412C434.987 213.656 435.125 213.987 435.125 214.331V230.094C435.125 230.439 434.987 230.77 434.743 231.013C434.498 231.257 434.166 231.394 433.82 231.394H36.3385C35.9918 231.394 35.6593 231.257 35.4141 231.013C35.169 230.769 35.0312 230.437 35.0312 230.092V214.33C35.0317 213.985 35.1695 213.655 35.4142 213.411C35.659 213.168 35.9907 213.031 36.3366 213.031Z" fill="#F0ECFF"/>
<path d="M433.818 235.069H36.3385C35.0146 235.068 33.7453 234.543 32.8089 233.611C31.8726 232.679 31.3457 231.415 31.3438 230.096V214.332C31.3457 213.013 31.8726 211.749 32.8089 210.817C33.7453 209.884 35.0146 209.36 36.3385 209.358H433.818C435.142 209.36 436.411 209.884 437.347 210.817C438.284 211.749 438.811 213.013 438.812 214.332V230.096C438.811 231.415 438.284 232.679 437.347 233.611C436.411 234.543 435.142 235.068 433.818 235.069ZM38.7188 227.723H431.438V216.704H38.7188V227.723Z" fill="#5C4FC4"/>
<path d="M86.468 123.771L117.812 88.1509L130.718 99.1697L158.562 63.9277V165.283H85.6162L86.468 123.771Z" fill="#F0ECFF"/>
<path d="M180.688 47.7485H173.312V86.3146H180.688V47.7485Z" fill="#AEA7E0"/>
<path d="M200.969 22.0376H193.594V86.3143H200.969V22.0376Z" fill="#AEA7E0"/>
<path d="M221.25 62.4404H213.875V86.3146H221.25V62.4404Z" fill="#AEA7E0"/>
<path d="M241.531 55.0942H234.156V86.3144H241.531V55.0942Z" fill="#AEA7E0"/>
<path d="M261.812 36.7295H254.438V86.3144H261.812V36.7295Z" fill="#AEA7E0"/>
<path d="M282.094 42.2388H274.719V86.3142H282.094V42.2388Z" fill="#AEA7E0"/>
<path d="M302.375 18.3647H295V86.3144H302.375V18.3647Z" fill="#AEA7E0"/>
<path d="M385.344 231.396H86.6562V288.327H385.344V231.396Z" fill="#F0ECFF"/>
<path d="M389.031 292H82.9688V227.723H389.031V292ZM90.3438 284.654H381.656V235.069H90.3438V284.654Z" fill="#5C4FC4"/>
<path d="M389.031 168.956H81.125V15.4778C81.1294 11.3742 82.7679 7.4399 85.6811 4.53819C88.5943 1.63648 92.5443 0.00437514 96.6641 0H373.492C377.612 0.00437514 381.562 1.63648 384.475 4.53819C387.388 7.4399 389.027 11.3742 389.031 15.4778V168.956ZM88.5 161.61H381.656V15.4778C381.654 13.3219 380.793 11.2549 379.262 9.73038C377.732 8.20588 375.657 7.34834 373.492 7.34591H96.6641C94.4996 7.34834 92.4245 8.20588 90.8939 9.73038C89.3634 11.2549 88.5024 13.3219 88.5 15.4778V161.61Z" fill="#5C4FC4"/>
<path d="M386.195 165.283H85.6642L37.6879 209.961C37.1297 210.519 36.7516 211.231 36.6022 212.004C36.4528 212.778 36.5389 213.579 36.8493 214.303C37.1598 215.028 37.6805 215.644 38.3447 216.072C39.0089 216.499 39.7862 216.72 40.5771 216.705H431.314C432.104 216.719 432.882 216.499 433.545 216.071C434.209 215.643 434.73 215.027 435.04 214.302C435.35 213.578 435.436 212.778 435.287 212.004C435.137 211.231 434.759 210.519 434.201 209.961L386.195 165.283Z" fill="#AEA7E0"/>
<path d="M431.314 220.377H40.5774C39.0443 220.384 37.5439 219.937 36.2672 219.091C34.9905 218.246 33.9955 217.041 33.4089 215.63C32.8336 214.242 32.6859 212.715 32.9847 211.243C33.2835 209.772 34.0152 208.422 35.0867 207.366L84.2098 161.61H387.65L436.718 207.278C437.818 208.334 438.573 209.695 438.888 211.184C439.202 212.673 439.06 214.222 438.481 215.63C437.895 217.041 436.9 218.245 435.623 219.091C434.347 219.936 432.847 220.384 431.314 220.377ZM40.2087 212.644C40.2087 212.644 40.1699 212.692 40.2252 212.827C40.252 212.896 40.3014 212.954 40.3653 212.991C40.4293 213.029 40.504 213.043 40.5774 213.033H431.314C431.387 213.043 431.461 213.029 431.525 212.992C431.589 212.955 431.638 212.898 431.664 212.829C431.69 212.786 431.698 212.734 431.685 212.685C431.673 212.636 431.643 212.594 431.6 212.567L384.741 168.956H87.1192L40.2087 212.644Z" fill="#5C4FC4"/>
<path d="M162.25 3.67285H154.875V165.283H162.25V3.67285Z" fill="#5C4FC4"/>
<path d="M385.344 82.6416H158.562V89.9875H385.344V82.6416Z" fill="#5C4FC4"/>
<path d="M320.812 3.67285H313.438V86.3144H320.812V3.67285Z" fill="#5C4FC4"/>
<path d="M276.562 86.3145H269.188V165.283H276.562V86.3145Z" fill="#5C4FC4"/>
<path d="M348.469 86.3145H341.094V165.283H348.469V86.3145Z" fill="#5C4FC4"/>
<path d="M88.4371 126.192L82.8911 121.349L116.639 82.9976L129.394 93.8879L154.862 61.6577L160.657 66.1993L130.434 104.451L117.377 93.3039L88.4371 126.192Z" fill="#5C4FC4"/>
<path d="M351.164 67.9496C344.807 67.9496 338.711 65.4343 334.216 60.957C329.721 56.4797 327.196 50.4072 327.196 44.0754C327.196 37.7436 329.721 31.671 334.216 27.1938C338.711 22.7165 344.807 20.2012 351.164 20.2012V27.5471C347.882 27.5471 344.674 28.5165 341.945 30.3326C339.217 32.1488 337.09 34.7301 335.834 37.7503C334.578 40.7704 334.249 44.0937 334.889 47.2999C335.53 50.5061 337.11 53.4511 339.431 55.7627C341.751 58.0742 344.708 59.6483 347.927 60.2861C351.146 60.9238 354.482 60.5965 357.514 59.3456C360.547 58.0946 363.138 55.9761 364.962 53.258C366.785 50.54 367.758 47.3444 367.758 44.0754H375.133C375.126 50.405 372.598 56.4733 368.105 60.949C363.611 65.4247 357.519 67.9423 351.164 67.9496Z" fill="#5C4FC4"/>
<path d="M376.125 20.2012H357.688V27.5471H376.125V20.2012Z" fill="#5C4FC4"/>
<path d="M368.75 31.2202H357.688V38.5661H368.75V31.2202Z" fill="#5C4FC4"/>
<path d="M307.906 143.245C317.071 143.245 324.5 135.845 324.5 126.717C324.5 117.588 317.071 110.188 307.906 110.188C298.742 110.188 291.312 117.588 291.312 126.717C291.312 135.845 298.742 143.245 307.906 143.245Z" fill="#AEA7E0"/>
<path d="M307.906 146.918C303.895 146.918 299.974 145.733 296.639 143.514C293.303 141.294 290.704 138.139 289.169 134.448C287.634 130.756 287.232 126.694 288.015 122.776C288.797 118.857 290.729 115.258 293.565 112.432C296.402 109.607 300.015 107.683 303.95 106.904C307.884 106.124 311.962 106.524 315.668 108.053C319.373 109.582 322.541 112.172 324.77 115.494C326.998 118.816 328.188 122.721 328.188 126.717C328.181 132.073 326.042 137.207 322.24 140.994C318.438 144.781 313.283 146.912 307.906 146.918ZM307.906 113.862C305.354 113.862 302.858 114.616 300.736 116.028C298.614 117.441 296.959 119.448 295.982 121.797C295.006 124.146 294.75 126.731 295.248 129.225C295.746 131.719 296.975 134.009 298.78 135.807C300.585 137.605 302.885 138.829 305.388 139.325C307.892 139.821 310.487 139.567 312.845 138.594C315.204 137.621 317.219 135.973 318.637 133.859C320.056 131.745 320.812 129.259 320.812 126.717C320.809 123.309 319.448 120.041 317.028 117.631C314.608 115.221 311.328 113.865 307.906 113.862Z" fill="#5C4FC4"/>
<path d="M307.283 131.543L298.039 122.335L303.255 117.142L307.283 121.154L328.276 100.246L333.49 105.44L307.283 131.543Z" fill="#5C4FC4"/>
<path d="M372.438 101.006H359.531V113.862H372.438V101.006Z" fill="#5C4FC4"/>
<path d="M372.438 123.044H359.531V135.899H372.438V123.044Z" fill="#5C4FC4"/>
<path d="M191.75 99.1699H171.469V119.371H191.75V99.1699Z" fill="#5C4FC4"/>
<path d="M224.938 99.1699H204.656V119.371H224.938V99.1699Z" fill="#AEA7E0"/>
<path d="M258.125 99.1699H237.844V119.371H258.125V99.1699Z" fill="#AEA7E0"/>
<path d="M191.75 128.553H171.469V148.755H191.75V128.553Z" fill="#5C4FC4"/>
<path d="M224.938 128.553H204.656V148.755H224.938V128.553Z" fill="#AEA7E0"/>
<path d="M258.125 128.553H237.844V148.755H258.125V128.553Z" fill="#5C4FC4"/>
<path d="M219.406 176.302H208.344V187.321H219.406V176.302Z" fill="#5C4FC4"/>
<path d="M239.688 176.302H228.625V187.321H239.688V176.302Z" fill="#5C4FC4"/>
<path d="M259.969 176.302H248.906V187.321H259.969V176.302Z" fill="#5C4FC4"/>
<path d="M219.406 194.667H208.344V205.685H219.406V194.667Z" fill="#5C4FC4"/>
<path d="M239.688 194.667H228.625V205.685H239.688V194.667Z" fill="#5C4FC4"/>
<path d="M259.969 194.667H248.906V205.685H259.969V194.667Z" fill="#5C4FC4"/>
<path d="M166.601 220.378H154.643C152.788 220.377 150.989 219.749 149.541 218.594C148.093 217.44 147.082 215.829 146.676 214.027L134.192 158.63C133.56 155.827 131.989 153.322 129.737 151.527C127.485 149.733 124.687 148.755 121.804 148.755H72.7599C71.8993 148.755 71.0498 148.948 70.2742 149.319C69.4985 149.69 68.8166 150.231 68.2788 150.9C67.741 151.569 67.3611 152.35 67.1672 153.185C66.9733 154.02 66.9703 154.888 67.1585 155.724L83.6435 228.868C84.2755 231.671 85.8469 234.176 88.0989 235.97C90.3509 237.765 93.1493 238.743 96.0335 238.742H166.996C168.283 238.743 169.556 238.474 170.733 237.955C171.909 237.436 172.964 236.677 173.828 235.727C174.693 234.777 175.348 233.657 175.752 232.44C176.155 231.222 176.299 229.934 176.172 228.658C175.883 226.345 174.746 224.22 172.979 222.692C171.213 221.163 168.941 220.339 166.601 220.378Z" fill="#5C4FC4"/>
<path d="M166.996 242.415H96.0338C92.308 242.432 88.6891 241.176 85.7802 238.857C82.8713 236.538 80.8483 233.296 80.0485 229.672L63.5654 156.528C63.2558 155.155 63.2602 153.73 63.5783 152.358C63.8964 150.987 64.5201 149.704 65.4031 148.605C66.2862 147.506 67.406 146.618 68.6798 146.008C69.9535 145.399 71.3487 145.082 72.762 145.082H121.806C125.531 145.065 129.15 146.32 132.059 148.639C134.967 150.958 136.99 154.2 137.789 157.825L150.277 213.222C150.494 214.214 151.046 215.102 151.841 215.737C152.636 216.372 153.626 216.716 154.645 216.712H166.601C169.856 216.683 173.007 217.852 175.45 219.993C177.894 222.134 179.459 225.098 179.845 228.316C180.019 230.101 179.817 231.903 179.25 233.605C178.683 235.307 177.766 236.872 176.556 238.2C175.345 239.528 173.87 240.589 172.223 241.315C170.577 242.041 168.796 242.415 166.996 242.415ZM72.762 152.428C72.4544 152.428 72.1509 152.497 71.8737 152.629C71.5965 152.762 71.3528 152.955 71.1606 153.194C70.9683 153.433 70.8325 153.712 70.7631 154.01C70.6937 154.309 70.6925 154.619 70.7597 154.918L87.2428 228.063C87.6833 230.056 88.796 231.838 90.3956 233.113C91.9953 234.388 93.9852 235.078 96.0338 235.069H166.996C167.769 235.069 168.534 234.908 169.241 234.596C169.947 234.284 170.581 233.827 171.099 233.256C171.618 232.685 172.011 232.012 172.252 231.281C172.494 230.549 172.579 229.775 172.501 229.009C172.301 227.605 171.589 226.323 170.501 225.409C169.413 224.494 168.025 224.01 166.601 224.05H154.645C151.949 224.062 149.331 223.154 147.227 221.476C145.123 219.799 143.659 217.453 143.081 214.831L130.595 159.434C130.155 157.441 129.042 155.658 127.443 154.383C125.843 153.108 123.853 152.418 121.804 152.428H72.762Z" fill="#5C4FC4"/>
<path d="M132.169 238.742H83.1256C80.2417 238.742 77.4438 237.765 75.1921 235.97C72.9405 234.175 71.3694 231.67 70.7374 228.868L54.2543 155.734C54.0645 154.896 54.0663 154.028 54.2595 153.191C54.4527 152.355 54.8323 151.573 55.3703 150.903C55.9082 150.232 56.5907 149.691 57.3672 149.32C58.1436 148.948 58.9941 148.755 59.8556 148.755H108.899C111.783 148.755 114.581 149.733 116.833 151.527C119.084 153.322 120.656 155.827 121.287 158.63L137.772 231.773C137.961 232.609 137.958 233.477 137.764 234.313C137.57 235.148 137.19 235.929 136.652 236.598C136.114 237.267 135.432 237.807 134.656 238.179C133.88 238.55 133.03 238.742 132.169 238.742Z" fill="#F5F5F5"/>
<path d="M132.169 242.415H83.1256C79.3998 242.432 75.7808 241.176 72.872 238.857C69.9631 236.538 67.9402 233.296 67.1403 229.672L50.6572 156.528C50.3476 155.155 50.352 153.729 50.6702 152.358C50.9884 150.986 51.6122 149.703 52.4955 148.604C53.3787 147.505 54.4988 146.618 55.7728 146.008C57.0469 145.398 58.4422 145.082 59.8556 145.082H108.899C112.625 145.065 116.244 146.321 119.153 148.64C122.062 150.959 124.084 154.202 124.883 157.827L141.37 230.968C141.68 232.342 141.675 233.768 141.357 235.14C141.039 236.512 140.415 237.795 139.532 238.894C138.648 239.993 137.528 240.881 136.253 241.49C134.979 242.1 133.583 242.416 132.169 242.415ZM59.8556 152.428C59.5481 152.428 59.2445 152.497 58.9673 152.629C58.6901 152.762 58.4464 152.955 58.2542 153.194C58.062 153.433 57.9261 153.712 57.8567 154.01C57.7873 154.309 57.7862 154.619 57.8533 154.918L74.3364 228.063C74.7769 230.056 75.8897 231.838 77.4893 233.113C79.0889 234.388 81.0788 235.078 83.1274 235.069H132.171C132.479 235.069 132.783 235.001 133.061 234.868C133.338 234.736 133.582 234.542 133.774 234.303C133.967 234.064 134.102 233.784 134.172 233.485C134.241 233.187 134.241 232.876 134.173 232.577L117.689 159.434C117.249 157.441 116.136 155.658 114.536 154.383C112.937 153.108 110.946 152.418 108.898 152.428H59.8556Z" fill="#5C4FC4"/>
<path d="M178.844 185.484H147.5C145.544 185.484 143.668 186.258 142.285 187.636C140.902 189.014 140.125 190.882 140.125 192.83C140.125 194.779 140.902 196.647 142.285 198.025C143.668 199.402 145.544 200.176 147.5 200.176H178.844C180.8 200.176 182.676 199.402 184.059 198.025C185.442 196.647 186.219 194.779 186.219 192.83C186.219 190.882 185.442 189.014 184.059 187.636C182.676 186.258 180.8 185.484 178.844 185.484Z" fill="#F5F5F5"/>
<path d="M178.844 203.849H147.5C144.566 203.849 141.752 202.688 139.678 200.622C137.603 198.555 136.438 195.753 136.438 192.83C136.438 189.908 137.603 187.105 139.678 185.039C141.752 182.972 144.566 181.812 147.5 181.812H178.844C181.778 181.812 184.591 182.972 186.666 185.039C188.741 187.105 189.906 189.908 189.906 192.83C189.906 195.753 188.741 198.555 186.666 200.622C184.591 202.688 181.778 203.849 178.844 203.849ZM147.5 189.157C146.522 189.157 145.584 189.544 144.893 190.233C144.201 190.922 143.812 191.856 143.812 192.83C143.812 193.805 144.201 194.739 144.893 195.428C145.584 196.116 146.522 196.503 147.5 196.503H178.844C179.822 196.503 180.76 196.116 181.451 195.428C182.143 194.739 182.531 193.805 182.531 192.83C182.531 191.856 182.143 190.922 181.451 190.233C180.76 189.544 179.822 189.157 178.844 189.157H147.5Z" fill="#5C4FC4"/>
<path d="M184.375 185.484H153.031C151.075 185.484 149.199 186.258 147.816 187.636C146.433 189.014 145.656 190.882 145.656 192.83C145.656 194.779 146.433 196.647 147.816 198.025C149.199 199.402 151.075 200.176 153.031 200.176H184.375C186.331 200.176 188.207 199.402 189.59 198.025C190.973 196.647 191.75 194.779 191.75 192.83C191.75 190.882 190.973 189.014 189.59 187.636C188.207 186.258 186.331 185.484 184.375 185.484Z" fill="#F0ECFF"/>
<path d="M184.375 203.849H153.031C150.097 203.849 147.284 202.688 145.209 200.622C143.134 198.555 141.969 195.753 141.969 192.83C141.969 189.908 143.134 187.105 145.209 185.039C147.284 182.972 150.097 181.812 153.031 181.812H184.375C187.309 181.812 190.123 182.972 192.197 185.039C194.272 187.105 195.438 189.908 195.438 192.83C195.438 195.753 194.272 198.555 192.197 200.622C190.123 202.688 187.309 203.849 184.375 203.849ZM153.031 189.157C152.053 189.157 151.115 189.544 150.424 190.233C149.732 190.922 149.344 191.856 149.344 192.83C149.344 193.805 149.732 194.739 150.424 195.428C151.115 196.116 152.053 196.503 153.031 196.503H184.375C185.353 196.503 186.291 196.116 186.982 195.428C187.674 194.739 188.062 193.805 188.062 192.83C188.062 191.856 187.674 190.922 186.982 190.233C186.291 189.544 185.353 189.157 184.375 189.157H153.031Z" fill="#5C4FC4"/>
<path d="M114.312 238.742H136.438V252.126C136.438 254.421 135.522 256.623 133.893 258.245C132.264 259.868 130.054 260.78 127.75 260.78H122.998C121.858 260.78 120.728 260.556 119.674 260.121C118.621 259.687 117.663 259.049 116.857 258.246C116.05 257.443 115.41 256.489 114.974 255.439C114.537 254.389 114.312 253.264 114.312 252.128V238.742Z" fill="#5C4FC4"/>
<path d="M127.75 264.453H123C119.72 264.45 116.574 263.15 114.254 260.84C111.934 258.529 110.629 255.396 110.625 252.128V235.069H140.125V252.128C140.121 255.396 138.816 258.529 136.496 260.84C134.176 263.15 131.031 264.45 127.75 264.453ZM118 242.415V252.128C118.002 253.449 118.529 254.714 119.467 255.647C120.404 256.581 121.675 257.106 123 257.107H127.75C129.075 257.106 130.346 256.581 131.283 255.647C132.221 254.714 132.748 253.449 132.75 252.128V242.415H118Z" fill="#5C4FC4"/>
<path d="M129.062 260.78H121.688V277.308H129.062V260.78Z" fill="#5C4FC4"/>
<path d="M101.327 277.308H151.267C152.713 277.308 154.099 277.88 155.122 278.899C156.144 279.917 156.719 281.298 156.719 282.739V288.327H95.875V282.739C95.875 281.298 96.4494 279.917 97.4718 278.899C98.4943 277.88 99.881 277.308 101.327 277.308Z" fill="#5C4FC4"/>
<path d="M160.406 292H92.1875V282.739C92.1904 280.325 93.1543 278.011 94.8676 276.305C96.5809 274.598 98.9039 273.638 101.327 273.635H151.267C153.69 273.638 156.013 274.598 157.726 276.305C159.439 278.011 160.403 280.325 160.406 282.739V292ZM99.5625 284.654H153.031V282.739C153.031 282.273 152.845 281.826 152.514 281.496C152.183 281.167 151.735 280.982 151.267 280.981H101.327C100.859 280.982 100.411 281.167 100.08 281.496C99.749 281.826 99.563 282.273 99.5625 282.739V284.654Z" fill="#5C4FC4"/>
<path d="M106.938 165.283H70.0625V172.629H106.938V165.283Z" fill="#5C4FC4"/>
<path d="M112.469 185.484H75.5938V192.83H112.469V185.484Z" fill="#5C4FC4"/>
<path d="M118 205.686H81.125V213.031H118V205.686Z" fill="#5C4FC4"/>
<path d="M305.259 220.378H317.217C319.072 220.377 320.871 219.749 322.319 218.594C323.767 217.44 324.777 215.829 325.184 214.027L337.668 158.63C338.3 155.827 339.871 153.323 342.122 151.528C344.373 149.733 347.171 148.755 350.054 148.755H399.098C399.96 148.754 400.811 148.947 401.588 149.318C402.365 149.69 403.048 150.231 403.586 150.901C404.124 151.571 404.504 152.354 404.698 153.19C404.891 154.027 404.893 154.896 404.703 155.734L388.218 228.877C387.584 231.678 386.012 234.182 383.76 235.975C381.507 237.768 378.709 238.744 375.826 238.742H304.862C303.575 238.742 302.302 238.474 301.126 237.954C299.949 237.435 298.895 236.676 298.031 235.726C297.166 234.776 296.512 233.656 296.108 232.439C295.704 231.222 295.561 229.934 295.688 228.658C295.977 226.345 297.114 224.22 298.88 222.692C300.647 221.163 302.919 220.339 305.259 220.378Z" fill="#5C4FC4"/>
<path d="M375.828 242.415H304.864C303.063 242.415 301.282 242.04 299.635 241.314C297.989 240.587 296.513 239.526 295.303 238.197C294.093 236.869 293.175 235.302 292.609 233.599C292.043 231.896 291.842 230.094 292.017 228.309C292.403 225.091 293.968 222.127 296.411 219.986C298.854 217.845 302.004 216.676 305.259 216.704H317.219C318.238 216.708 319.227 216.364 320.022 215.729C320.817 215.094 321.369 214.207 321.587 213.215L334.071 157.818C334.872 154.195 336.895 150.954 339.803 148.637C342.712 146.319 346.33 145.065 350.054 145.082H399.098C400.512 145.082 401.907 145.398 403.181 146.008C404.455 146.618 405.575 147.505 406.458 148.604C407.341 149.703 407.965 150.986 408.283 152.358C408.602 153.729 408.606 155.155 408.296 156.528L391.812 229.67C391.012 233.294 388.99 236.537 386.081 238.856C383.172 241.175 379.554 242.431 375.828 242.415ZM305.259 224.05C303.835 224.01 302.447 224.493 301.359 225.408C300.27 226.323 299.558 227.604 299.359 229.009C299.281 229.775 299.366 230.549 299.608 231.281C299.849 232.012 300.242 232.685 300.761 233.256C301.279 233.827 301.913 234.284 302.619 234.596C303.326 234.908 304.091 235.069 304.864 235.069H375.828C377.877 235.078 379.866 234.388 381.465 233.112C383.065 231.837 384.176 230.054 384.615 228.061L401.102 154.92C401.169 154.621 401.168 154.31 401.098 154.012C401.028 153.713 400.892 153.434 400.7 153.195C400.508 152.956 400.264 152.763 399.987 152.63C399.709 152.497 399.406 152.428 399.098 152.428H350.054C348.006 152.418 346.017 153.109 344.417 154.384C342.818 155.659 341.706 157.441 341.267 159.434L328.781 214.831C328.203 217.453 326.739 219.798 324.636 221.476C322.532 223.153 319.914 224.062 317.219 224.05H305.259Z" fill="#5C4FC4"/>
<path d="M339.691 238.742H388.734C391.618 238.742 394.416 237.765 396.668 235.97C398.919 234.175 400.491 231.67 401.122 228.868L417.609 155.734C417.799 154.896 417.797 154.027 417.604 153.19C417.411 152.354 417.031 151.571 416.492 150.901C415.954 150.231 415.271 149.69 414.494 149.318C413.717 148.947 412.866 148.754 412.004 148.755H362.961C360.077 148.755 357.279 149.733 355.027 151.527C352.775 153.322 351.204 155.827 350.572 158.63L334.087 231.773C333.899 232.609 333.902 233.477 334.096 234.313C334.29 235.148 334.67 235.929 335.208 236.598C335.746 237.267 336.428 237.807 337.204 238.179C337.98 238.55 338.83 238.742 339.691 238.742Z" fill="#F5F5F5"/>
<path d="M388.734 242.415H339.691C338.277 242.415 336.882 242.099 335.608 241.489C334.334 240.879 333.214 239.992 332.331 238.893C331.448 237.794 330.824 236.511 330.506 235.139C330.188 233.767 330.184 232.342 330.494 230.968L346.979 157.827C347.778 154.202 349.8 150.96 352.708 148.641C355.617 146.322 359.235 145.065 362.961 145.082H412.004C413.418 145.082 414.813 145.398 416.087 146.008C417.361 146.618 418.481 147.505 419.365 148.604C420.248 149.703 420.872 150.986 421.19 152.358C421.508 153.729 421.512 155.155 421.203 156.528L404.718 229.67C403.918 233.294 401.896 236.537 398.987 238.856C396.079 241.175 392.46 242.431 388.734 242.415ZM362.961 152.428C360.912 152.418 358.923 153.109 357.324 154.384C355.725 155.659 354.613 157.441 354.173 159.434L337.686 232.577C337.619 232.876 337.621 233.186 337.69 233.485C337.759 233.783 337.895 234.062 338.087 234.302C338.28 234.541 338.523 234.734 338.8 234.867C339.078 235 339.381 235.069 339.689 235.069H388.733C390.781 235.078 392.771 234.388 394.37 233.112C395.969 231.837 397.081 230.054 397.52 228.061L414.007 154.92C414.074 154.621 414.072 154.311 414.002 154.012C413.933 153.714 413.797 153.435 413.605 153.196C413.413 152.957 413.169 152.764 412.892 152.631C412.615 152.498 412.312 152.428 412.004 152.428H362.961Z" fill="#5C4FC4"/>
<path d="M295 185.484H326.344C328.3 185.484 330.176 186.258 331.559 187.636C332.942 189.014 333.719 190.882 333.719 192.83C333.719 194.779 332.942 196.647 331.559 198.025C330.176 199.402 328.3 200.176 326.344 200.176H295C293.044 200.176 291.168 199.402 289.785 198.025C288.402 196.647 287.625 194.779 287.625 192.83C287.625 190.882 288.402 189.014 289.785 187.636C291.168 186.258 293.044 185.484 295 185.484Z" fill="#F5F5F5"/>
<path d="M326.344 203.849H295C292.066 203.849 289.252 202.688 287.178 200.622C285.103 198.555 283.938 195.753 283.938 192.83C283.938 189.908 285.103 187.105 287.178 185.039C289.252 182.972 292.066 181.812 295 181.812H326.344C329.278 181.812 332.091 182.972 334.166 185.039C336.241 187.105 337.406 189.908 337.406 192.83C337.406 195.753 336.241 198.555 334.166 200.622C332.091 202.688 329.278 203.849 326.344 203.849ZM295 189.157C294.022 189.157 293.084 189.544 292.393 190.233C291.701 190.922 291.312 191.856 291.312 192.83C291.312 193.805 291.701 194.739 292.393 195.428C293.084 196.116 294.022 196.503 295 196.503H326.344C327.322 196.503 328.26 196.116 328.951 195.428C329.643 194.739 330.031 193.805 330.031 192.83C330.031 191.856 329.643 190.922 328.951 190.233C328.26 189.544 327.322 189.157 326.344 189.157H295Z" fill="#5C4FC4"/>
<path d="M287.625 185.484H318.969C320.925 185.484 322.801 186.258 324.184 187.636C325.567 189.014 326.344 190.882 326.344 192.83C326.344 194.779 325.567 196.647 324.184 198.025C322.801 199.402 320.925 200.176 318.969 200.176H287.625C285.669 200.176 283.793 199.402 282.41 198.025C281.027 196.647 280.25 194.779 280.25 192.83C280.25 190.882 281.027 189.014 282.41 187.636C283.793 186.258 285.669 185.484 287.625 185.484Z" fill="#F0ECFF"/>
<path d="M318.969 203.849H287.625C284.691 203.849 281.877 202.688 279.803 200.622C277.728 198.555 276.562 195.753 276.562 192.83C276.562 189.908 277.728 187.105 279.803 185.039C281.877 182.972 284.691 181.812 287.625 181.812H318.969C321.903 181.812 324.716 182.972 326.791 185.039C328.866 187.105 330.031 189.908 330.031 192.83C330.031 195.753 328.866 198.555 326.791 200.622C324.716 202.688 321.903 203.849 318.969 203.849ZM287.625 189.157C286.647 189.157 285.709 189.544 285.018 190.233C284.326 190.922 283.938 191.856 283.938 192.83C283.938 193.805 284.326 194.739 285.018 195.428C285.709 196.116 286.647 196.503 287.625 196.503H318.969C319.947 196.503 320.885 196.116 321.576 195.428C322.268 194.739 322.656 193.805 322.656 192.83C322.656 191.856 322.268 190.922 321.576 190.233C320.885 189.544 319.947 189.157 318.969 189.157H287.625Z" fill="#5C4FC4"/>
<path d="M349 260.78H344.248C341.945 260.779 339.735 259.867 338.106 258.245C336.478 256.622 335.562 254.421 335.562 252.126V238.742H357.688V252.126C357.688 254.421 356.772 256.622 355.143 258.245C353.514 259.868 351.304 260.78 349 260.78Z" fill="#5C4FC4"/>
<path d="M349 264.453H344.25C340.969 264.45 337.824 263.15 335.504 260.84C333.184 258.529 331.879 255.396 331.875 252.128V235.069H361.375V252.128C361.371 255.396 360.066 258.529 357.746 260.84C355.426 263.15 352.281 264.45 349 264.453ZM339.25 242.415V252.128C339.252 253.449 339.779 254.714 340.717 255.647C341.654 256.581 342.925 257.106 344.25 257.107H349C350.325 257.106 351.596 256.581 352.533 255.647C353.471 254.714 353.998 253.449 354 252.128V242.415H339.25Z" fill="#5C4FC4"/>
<path d="M350.312 260.78H342.938V277.308H350.312V260.78Z" fill="#5C4FC4"/>
<path d="M376.125 288.327H315.281V282.739C315.281 281.299 315.856 279.917 316.878 278.899C317.901 277.88 319.287 277.308 320.733 277.308H370.673C372.119 277.308 373.506 277.88 374.528 278.899C375.551 279.917 376.125 281.299 376.125 282.739V288.327Z" fill="#5C4FC4"/>
<path d="M379.812 292H311.594V282.739C311.597 280.325 312.561 278.011 314.274 276.305C315.987 274.598 318.31 273.638 320.733 273.635H370.673C373.096 273.638 375.419 274.598 377.132 276.305C378.846 278.011 379.81 280.325 379.812 282.739V292ZM318.969 284.654H372.438V282.739C372.437 282.273 372.251 281.826 371.92 281.496C371.589 281.167 371.141 280.982 370.673 280.981H320.733C320.265 280.982 319.817 281.167 319.486 281.496C319.155 281.826 318.969 282.273 318.969 282.739V284.654Z" fill="#5C4FC4"/>
<path d="M401.938 165.283H365.062V172.629H401.938V165.283Z" fill="#5C4FC4"/>
<path d="M396.406 185.484H359.531V192.83H396.406V185.484Z" fill="#5C4FC4"/>
<path d="M390.875 205.686H354V213.031H390.875V205.686Z" fill="#5C4FC4"/>
<path d="M136.438 18.3647H99.5625V25.7107H136.438V18.3647Z" fill="#5C4FC4"/>
<path d="M119.844 31.2202H99.5625V38.5661H119.844V31.2202Z" fill="#5C4FC4"/>
</svg>
