<svg width="130" height="130" viewBox="0 0 130 130" fill="none" xmlns="http://www.w3.org/2000/svg">
<g clip-path="url(#clip0)">
<path d="M72.0873 80.0443C72.0933 85.1439 71.014 90.1864 68.9212 94.8368C66.8284 99.4872 63.77 103.639 59.9492 107.017C59.4039 107.501 58.8453 107.967 58.2734 108.417C54.0942 111.702 49.2363 114.016 44.052 115.19C43.7303 115.267 43.4056 115.334 43.0808 115.399C37.9848 116.406 32.7317 116.308 27.6769 115.111C26.5188 114.835 25.3843 114.505 24.2732 114.121C19.4159 112.442 14.975 109.742 11.2497 106.202C10.5603 105.549 9.89962 104.87 9.26749 104.164C5.35372 99.8195 2.5559 94.5877 1.11545 88.9203C-0.324992 83.2528 -0.364796 77.32 0.999463 71.6337C2.36372 65.9475 5.09108 60.6786 8.94618 56.2817C12.8013 51.8847 17.6684 48.4919 23.1274 46.3959C28.5865 44.2998 34.4736 43.5636 40.2807 44.2506C46.0878 44.9377 51.6406 47.0274 56.4598 50.3395C61.279 53.6515 65.2199 58.0865 67.9426 63.2616C70.6652 68.4368 72.0877 74.1967 72.0873 80.0443Z" fill="url(#paint0_linear)"/>
<path d="M40.1926 57.5301C40.1926 57.5301 38.6626 53.8672 31.895 54.3577C31.895 54.3577 39.29 56.1202 36.9246 59.6422C36.3983 60.4259 40.1926 57.5301 40.1926 57.5301Z" fill="#A0261A"/>
<path d="M38.689 57.46C35.1827 55.2266 30.0848 54.7753 26.1229 55.8023C22.8727 56.6448 19.8614 58.8509 18.6451 61.9804C17.8437 64.0428 17.859 66.3206 17.4231 68.4897C16.2616 74.2668 11.7342 77.3191 8.41872 81.7831C6.36359 84.6302 5.50173 88.1674 6.01684 91.6407C6.68318 95.8501 9.77898 99.1074 13.1352 101.414C23.5822 108.595 34.0598 96.0912 37.765 87.2778C39.5965 82.8923 41.0563 78.3608 42.1292 73.731C43.5096 67.7134 44.0157 60.8533 38.689 57.46Z" fill="#A0261A"/>
<path d="M37.5347 62.0123C37.3053 61.4352 37.1995 60.8165 37.2242 60.196C37.2489 59.5755 37.4034 58.9671 37.6779 58.4101C37.9524 57.853 38.3406 57.3598 38.8176 56.9621C39.2946 56.5645 39.8496 56.2714 40.447 56.1016C44.8436 54.9209 50.4038 56.9855 53.2511 60.2084C55.8065 63.1002 56.873 67.1721 56.3004 70.9652C55.6644 75.1774 52.287 78.7918 52.7634 83.1934C53.1252 86.5327 55.2499 89.2287 57.2136 91.7676C59.3943 94.5861 59.6492 98.1896 58.0172 101.456C56.0871 105.316 51.0551 108.008 46.7593 107.587C41.7214 107.094 40.8281 102.042 40.9764 97.8575C41.3268 87.9665 43.68 77.7916 37.5347 62.0123Z" fill="url(#paint1_linear)"/>
<path d="M51.5935 87.9531C53.2479 90.6341 55.337 93.3451 55.56 96.6052C55.7926 100.003 53.7571 102.822 50.8184 104.352C50.5562 104.488 50.7878 104.885 51.0503 104.75C53.8193 103.31 55.897 100.729 56.0346 97.5325C56.1945 93.8145 53.8432 90.7245 51.9906 87.7227C51.8352 87.4715 51.4391 87.7019 51.5923 87.9547L51.5935 87.9531Z" fill="#A0261A"/>
<path d="M58.2735 108.416C55.8141 110.341 53.1174 111.942 50.2499 113.18C49.9772 113.297 49.7015 113.41 49.4227 113.52C47.6797 114.219 45.8838 114.777 44.0521 115.19C43.7304 115.266 43.4057 115.334 43.0809 115.398C42.8542 115.444 42.6275 115.487 42.4008 115.524C40.3029 115.901 38.1754 116.09 36.0438 116.087C33.2262 116.09 30.4181 115.762 27.677 115.11C27.3277 115.027 26.9785 114.939 26.6323 114.844C25.8327 114.629 25.0463 114.388 24.2733 114.121C23.7096 113.928 23.154 113.719 22.6066 113.496C21.948 113.232 21.2954 112.95 20.6582 112.644C20.3947 112.521 20.1343 112.396 19.8739 112.264C19.4511 112.05 19.0324 111.828 18.6178 111.599C16.1604 110.24 13.8706 108.598 11.7951 106.707C11.6113 106.541 11.4305 106.373 11.2497 106.201C10.5604 105.549 9.89971 104.869 9.26758 104.164C10.2937 103.308 11.3789 102.526 12.515 101.823C13.8431 101.003 15.2404 100.299 16.6908 99.7216C17.8306 99.2682 19.002 98.8985 20.1956 98.6156C21.6542 98.2655 23.1406 98.0431 24.6378 97.9508C25.8388 97.8742 26.9877 97.8252 28.0783 97.8007C39.1411 97.5249 44.5852 99.5132 44.5852 99.5132L48.2738 100.972L52.0421 102.46L52.2075 102.522C52.999 102.85 53.7513 103.266 54.4501 103.762C55.6592 104.598 56.6902 105.665 57.4831 106.903C57.789 107.384 58.0534 107.89 58.2735 108.416Z" fill="#FCD200"/>
<path d="M44.2725 107.396C41.2089 109.712 37.2476 111.348 33.3752 110.503C30.8446 109.951 28.553 108.606 26.629 106.897C26.1879 106.502 25.7904 106.062 25.4434 105.582C24.3375 104.081 23.6849 102.277 22.9986 100.512C22.5299 99.3081 22.9037 98.5054 24.1506 98.1225C25.7927 97.617 28.406 96.753 28.3631 94.6606C28.3202 92.5773 28.2467 90.494 28.2191 88.4108C28.213 87.9083 28.2099 87.4028 28.2099 86.9004C29.0555 87.0597 29.8152 87.2251 30.5015 87.3875C31.6258 87.6571 32.5572 87.9298 33.3629 88.1932C34.7691 88.6528 35.7893 89.0909 36.7911 89.4493C38.0013 89.8813 39.3523 90.0896 39.9283 91.312C40.489 92.4977 41.0496 92.0902 41.4356 93.334C41.7389 94.3083 41.3345 96.9583 41.5 98.1133C42.4323 98.6058 43.3906 99.0476 44.3706 99.4368C45.5041 99.8626 46.3773 99.8136 46.5917 100.999C47.0696 103.619 46.411 105.782 44.2725 107.396Z" fill="#E5A58F"/>
<path d="M26.1176 105.359C24.7451 105.536 23.2316 106.673 22.3616 107.736C21.804 108.419 21.8132 109.182 21.4792 109.917C21.1238 110.702 20.4652 111.388 19.9872 112.102C19.9505 112.157 19.9107 112.212 19.8739 112.264C19.4511 112.05 19.0324 111.828 18.6178 111.599C15.9427 110.12 13.4668 108.306 11.2497 106.201C10.5604 105.549 9.89971 104.87 9.26758 104.164C11.4918 102.3 13.9973 100.801 16.6908 99.7217C17.8306 99.2683 19.002 98.8987 20.1956 98.6157C21.6542 98.2656 23.1406 98.0432 24.6378 97.9509C25.8388 97.8743 26.9877 97.8253 28.0783 97.8008C29.0311 99.9882 28.976 101.734 26.1176 105.359Z" fill="#F5AF00"/>
<path d="M36.8922 94.4577C36.8044 95.7949 36.6315 97.1252 36.3745 98.4404C36.2795 98.9183 36.2703 99.7578 35.9303 100.128C35.5228 100.573 34.4658 100.714 33.9113 100.965C30.7435 102.396 29.4935 105.766 25.6334 105.594C25.569 105.591 25.5047 105.588 25.4434 105.582C24.3374 104.081 23.6849 102.276 22.9986 100.511C22.5299 99.3074 22.9037 98.5047 24.1506 98.1218C25.7927 97.6163 28.406 96.7523 28.3631 94.6599C28.3202 92.5766 28.2466 90.4933 28.2191 88.41C28.8726 87.8677 29.6618 87.5139 30.5015 87.3868C31.1775 87.312 31.861 87.4243 32.4775 87.7115C32.7837 87.8506 33.0796 88.0113 33.3629 88.1925C34.1442 88.6766 34.8702 89.2801 35.6423 89.7642C36.5215 90.3126 37.5264 90.717 36.8922 94.4577Z" fill="#D18371"/>
<path d="M48.9354 83.7259C47.857 87.8863 45.3816 95.913 39.7506 95.5821C38.8683 95.5267 37.9932 95.3872 37.1373 95.1655C35.3249 94.6903 33.6042 93.9168 32.0456 92.8769C29.3649 91.097 27.0181 88.6889 26.4238 85.42C25.9612 82.8742 26.1419 79.9943 26.0163 77.4025C26.0071 77.2371 26.001 77.0747 25.998 76.9123C25.9949 76.7867 25.9918 76.6611 25.9918 76.5355C25.9888 76.4987 25.9888 76.4589 25.9888 76.4221C25.9888 76.2536 25.9918 76.0882 25.9949 75.9258C26.0562 73.1808 26.7424 70.592 28.7123 68.4597C29.132 68.0063 29.5365 67.5131 29.9562 67.0321C30.3395 66.578 30.7497 66.1473 31.1847 65.7423C31.3317 65.6075 31.4788 65.4788 31.635 65.3593C31.8666 65.1743 32.1113 65.0063 32.3673 64.8569C34.831 63.4871 37.7083 63.0582 40.4645 63.6498C41.522 63.8609 42.5498 64.2005 43.525 64.6608C45.1947 65.4513 46.9042 66.6399 47.9275 68.2024C49.0825 69.9671 49.1529 72.13 48.9078 74.1612C48.7301 75.6317 48.4391 77.1115 48.5279 78.5973C48.6321 80.3436 49.3919 81.9581 48.9354 83.7259Z" fill="#F4C3AB"/>
<path d="M36.8441 95.0883C36.8288 95.0944 36.8595 95.0852 36.8441 95.0883C35.1274 94.6384 33.5032 93.8902 32.0456 92.8779C29.3649 91.0979 27.0181 88.6899 26.4238 85.421C25.9612 82.8751 26.1419 79.9953 26.0163 77.4034C26.0071 77.238 26.001 77.0756 25.998 76.9132C25.9949 76.7876 25.9918 76.662 25.9918 76.5364C25.9888 76.4997 25.9888 76.4598 25.9888 76.4231C25.9888 76.2546 25.9918 76.0891 25.9949 75.9268C25.9979 75.7644 26.0102 75.6112 26.0194 75.455C26.1904 74.8088 26.4001 74.1734 26.6474 73.5524C26.7669 73.243 26.8956 72.9367 27.0335 72.6364C27.4379 71.7817 27.8606 70.9882 28.2957 70.2192C28.4427 69.9619 28.5898 69.7076 28.7338 69.4472C29.0477 68.5984 29.4578 67.7884 29.9562 67.033C30.4678 66.2702 31.0499 65.6421 31.635 65.3603C31.9152 65.2063 32.2426 65.1621 32.5535 65.2363C32.8644 65.3105 33.1366 65.4978 33.317 65.7616C34.8611 67.6151 35.0265 71.1751 34.1289 73.3564C33.5345 74.7963 32.3366 75.8839 31.73 77.3177C31.0683 78.877 31.0928 80.6448 31.4083 82.2838C31.6841 83.7268 32.1957 85.0962 32.6307 86.4932C33.0474 87.829 33.3354 89.1923 33.9266 90.4729C34.343 91.4156 34.931 92.2727 35.6607 93.0004C36.2856 93.6009 37.0004 94.0558 36.8441 95.0883Z" fill="#E5A58F"/>
<path d="M27.8026 78.0158C27.2996 77.1537 26.6164 75.9788 25.7656 75.2539C24.4697 74.151 22.5224 74.0119 22.0801 75.9111C21.7844 77.1809 22.6876 78.7501 23.4075 79.7133C24.0987 80.6379 25.4096 82.3174 26.5232 82.6633C28.6574 83.3275 28.8372 80.0914 27.8026 78.0158Z" fill="#E5A58F"/>
<path d="M37.1497 67.8631C33.7062 69.2969 30.3852 70.121 28.2621 73.4726C27.6221 74.5397 27.2023 75.7241 27.0275 76.956C26.9601 77.3451 26.9049 77.7403 26.8529 78.1386C26.7732 77.967 26.6997 77.7924 26.6323 77.6177C24.0312 71.0432 28.5847 58.296 39.4576 56.5068C42.7225 58.9394 40.3972 66.5121 37.1497 67.8631Z" fill="url(#paint2_linear)"/>
<path d="M25.1602 84.6572C26.2124 84.6572 27.0654 83.8042 27.0654 82.752C27.0654 81.6997 26.2124 80.8467 25.1602 80.8467C24.1079 80.8467 23.2549 81.6997 23.2549 82.752C23.2549 83.8042 24.1079 84.6572 25.1602 84.6572Z" fill="#FCD200"/>
<path d="M43.1716 79.4648C43.4311 80.6421 44.3171 81.548 44.8811 82.5823C45.326 83.3976 45.5459 84.12 44.6869 84.7538C44.0545 85.1512 43.3668 85.4527 42.6462 85.6487C42.2283 85.7903 42.4076 86.4563 42.83 86.3135C43.974 85.9263 45.9421 85.3806 46.0162 83.9129C46.1063 82.1556 44.1955 80.9133 43.8361 79.2816C43.7405 78.8484 43.076 79.0316 43.1713 79.4654L43.1716 79.4648Z" fill="#E5A58F"/>
<path d="M35.0787 82.7638H35.1553C35.2772 82.7638 35.394 82.7154 35.4802 82.6292C35.5664 82.543 35.6148 82.4262 35.6148 82.3043C35.6148 82.1824 35.5664 82.0655 35.4802 81.9793C35.394 81.8931 35.2772 81.8447 35.1553 81.8447H35.0787C34.9568 81.8447 34.8399 81.8931 34.7537 81.9793C34.6676 82.0655 34.6191 82.1824 34.6191 82.3043C34.6191 82.4262 34.6676 82.543 34.7537 82.6292C34.8399 82.7154 34.9568 82.7638 35.0787 82.7638Z" fill="#E5A58F"/>
<path d="M31.5299 82.5343H31.6064C31.7283 82.5343 31.8452 82.4859 31.9314 82.3997C32.0176 82.3135 32.066 82.1967 32.066 82.0748C32.066 81.9529 32.0176 81.836 31.9314 81.7498C31.8452 81.6637 31.7283 81.6152 31.6064 81.6152H31.5299C31.408 81.6152 31.2911 81.6637 31.2049 81.7498C31.1187 81.836 31.0703 81.9529 31.0703 82.0748C31.0703 82.1967 31.1187 82.3135 31.2049 82.3997C31.2911 82.4859 31.408 82.5343 31.5299 82.5343Z" fill="#E5A58F"/>
<path d="M34.0065 84.6787V84.6021C34.0065 84.4802 33.9581 84.3634 33.8719 84.2772C33.7857 84.191 33.6688 84.1426 33.5469 84.1426C33.4251 84.1426 33.3082 84.191 33.222 84.2772C33.1358 84.3634 33.0874 84.4802 33.0874 84.6021V84.6787C33.0874 84.8006 33.1358 84.9175 33.222 85.0037C33.3082 85.0898 33.4251 85.1383 33.5469 85.1383C33.6688 85.1383 33.7857 85.0898 33.8719 85.0037C33.9581 84.9175 34.0065 84.8006 34.0065 84.6787Z" fill="#E5A58F"/>
<path d="M48.4053 81.1553H48.3287C48.2068 81.1553 48.0899 81.2037 48.0037 81.2899C47.9176 81.3761 47.8691 81.4929 47.8691 81.6148C47.8691 81.7367 47.9176 81.8536 48.0037 81.9398C48.0899 82.0259 48.2068 82.0744 48.3287 82.0744H48.4053C48.5272 82.0744 48.644 82.0259 48.7302 81.9398C48.8164 81.8536 48.8648 81.7367 48.8648 81.6148C48.8648 81.4929 48.8164 81.3761 48.7302 81.2899C48.644 81.2037 48.5272 81.1553 48.4053 81.1553Z" fill="#E5A58F"/>
<path d="M47.5631 84.755H47.6396C47.7615 84.755 47.8784 84.7066 47.9646 84.6204C48.0508 84.5342 48.0992 84.4174 48.0992 84.2955C48.0992 84.1736 48.0508 84.0567 47.9646 83.9705C47.8784 83.8844 47.7615 83.8359 47.6396 83.8359H47.5631C47.4412 83.8359 47.3243 83.8844 47.2381 83.9705C47.1519 84.0567 47.1035 84.1736 47.1035 84.2955C47.1035 84.4174 47.1519 84.5342 47.2381 84.6204C47.3243 84.7066 47.4412 84.755 47.5631 84.755Z" fill="#E5A58F"/>
<path d="M53.6598 111.492C52.5541 112.115 51.4159 112.679 50.25 113.18L48.2739 100.972L52.0422 102.461L52.2076 102.522L53.6598 111.492Z" fill="white"/>
<path d="M49.4226 113.52C47.6796 114.219 45.8837 114.777 44.052 115.19C43.7303 115.266 43.4056 115.334 43.0809 115.398C42.8541 115.444 42.6274 115.487 42.4007 115.524C42.3456 114.697 42.4406 113.891 43.1728 113.306C43.7916 112.816 44.2512 113.058 44.9099 112.831C45.5471 112.607 45.6941 112.062 46.2333 111.749C47.3608 111.094 48.577 112.258 49.2234 113.153C49.3074 113.265 49.3745 113.389 49.4226 113.52Z" fill="#1C9CD7"/>
<path d="M57.4831 106.902C57.445 106.913 57.4061 106.921 57.3667 106.926C55.4489 107.205 54.1529 105.425 54.4501 103.762C55.6592 104.597 56.6902 105.665 57.4831 106.902Z" fill="#1C9CD7"/>
<path d="M34.3984 110.668C34.2163 111.013 33.9469 111.305 33.6171 111.513C32.358 112.292 31.5277 111.768 30.5045 111.06C29.5823 110.423 28.3078 110.558 27.9525 109.363C27.8195 108.924 27.8533 108.451 28.0474 108.036C29.6341 109.217 31.4481 110.057 33.3751 110.502C33.713 110.576 34.0546 110.631 34.3984 110.668Z" fill="#1C9CD7"/>
<path d="M26.6321 114.843C25.8325 114.629 25.0462 114.388 24.2731 114.12C23.7094 113.927 23.1539 113.719 22.6065 113.495C21.9478 113.232 21.2953 112.95 20.658 112.644C20.4957 111.691 20.6642 110.588 20.4497 109.47C21.9111 108.738 22.6617 109.969 23.5685 110.882C24.5703 111.89 26.1389 111.483 26.6689 113.103C26.8486 113.671 26.8357 114.283 26.6321 114.843Z" fill="#1C9CD7"/>
<path d="M13.2013 104.749C13.1783 105.176 13.0337 105.587 12.7845 105.934C12.5353 106.28 12.192 106.549 11.7951 106.707C11.6113 106.541 11.4305 106.373 11.2497 106.201C10.5604 105.549 9.89971 104.87 9.26758 104.164C10.2937 103.308 11.3789 102.526 12.515 101.823C12.572 102.301 12.6621 102.774 12.7846 103.239C12.9899 103.79 13.2534 104.051 13.2013 104.749Z" fill="#013B82"/>
<path d="M22.6068 113.496C21.238 112.95 19.9057 112.317 18.618 111.6L16.6909 99.7222C17.8307 99.2688 19.0021 98.8992 20.1957 98.6162L22.6068 113.496Z" fill="white"/>
</g>
<g clip-path="url(#clip1)">
<path d="M130 33.9994C130.006 38.5008 129.115 42.9582 127.379 47.1114C125.642 51.2645 123.096 55.03 119.888 58.1881C119.455 58.6187 119.01 59.0349 118.55 59.4423L118.478 59.5059C118.198 59.7544 117.915 59.9972 117.626 60.2342C113.543 63.6127 108.723 65.9827 103.555 67.1527C103.251 67.2249 102.945 67.2885 102.639 67.3492C100.452 67.7833 98.229 68.0011 96.0003 67.9994C95.3039 67.9994 94.6132 67.9792 93.9283 67.9387C91.967 67.8197 90.0196 67.5316 88.108 67.0775C87.0156 66.8174 85.9453 66.5063 84.8972 66.1441C82.9363 65.4678 81.042 64.6116 79.2388 63.5865C76.839 62.2235 74.6138 60.5737 72.6122 58.6736C72.0342 58.1245 71.4735 57.5552 70.9418 56.9686C70.6152 56.6218 70.306 56.2663 70.0026 55.9051C69.7367 55.5901 69.4776 55.2702 69.2252 54.9456C65.8877 50.6796 63.6179 45.6779 62.6046 40.3571C61.5913 35.0363 61.864 29.5504 63.3999 24.3563C64.9358 19.1622 67.6905 14.4103 71.4346 10.4963C75.1786 6.58222 79.8036 3.61937 84.9244 1.85448C90.0452 0.0895932 95.5136 -0.426258 100.874 0.349892C106.235 1.12604 111.332 3.17173 115.742 6.31657C120.152 9.46142 123.747 13.6144 126.227 18.4296C128.707 23.2449 130.001 28.583 130 33.9994Z" fill="url(#paint3_linear)"/>
<path d="M117.625 60.2354C113.543 63.6139 108.723 65.984 103.554 67.1539C103.251 67.2261 102.944 67.2897 102.638 67.3504C100.452 67.7845 98.2287 68.0023 96 68.0006C95.3035 68.0006 94.6128 67.9804 93.9279 67.9399C91.9666 67.821 90.0193 67.5328 88.1076 67.0788C87.0152 66.8187 85.945 66.5075 84.8969 66.1453C82.9359 65.469 81.0417 64.6129 79.2384 63.5877C78.0679 62.9221 76.9379 62.1878 75.8543 61.3885C74.7173 60.5532 73.6343 59.6469 72.6118 58.6748C72.0338 58.1258 71.4732 57.5564 70.9414 56.9698C72.3546 56.4207 74.0741 55.7965 76.0248 55.1809C77.1056 54.8399 78.2587 54.5018 79.4696 54.1781C79.6343 54.1348 79.8019 54.0914 79.9695 54.0481C80.9236 53.9629 81.8602 53.739 82.7497 53.3834C82.9144 53.3458 83.082 53.3111 83.2496 53.2765C84.394 53.0366 85.5731 52.817 86.7753 52.632C88.385 52.3777 90.0409 52.187 91.72 52.0742C95.9306 51.7824 100.297 51.9875 104.493 53.025C105.02 53.267 105.582 53.4222 106.158 53.4845C106.967 53.7302 107.767 54.0105 108.557 54.3255C109.655 54.7632 110.723 55.2709 111.756 55.8456C113.905 57.0326 115.88 58.5097 117.625 60.2354Z" fill="#80D5E0"/>
<path d="M86.0991 58.1748C85.209 58.7932 84.3478 58.8915 83.3161 58.9637C82.1428 59.0447 80.8596 59.4406 79.721 59.7787C78.5188 60.1371 77.1692 60.5734 76.0913 61.241C76.019 61.2872 75.9381 61.3364 75.8543 61.3884C74.7173 60.5531 73.6343 59.6468 72.6118 58.6747C72.0338 58.1257 71.4732 57.5563 70.9414 56.9697C72.3546 56.4206 74.0741 55.7964 76.0248 55.1808C77.1056 54.8398 78.2587 54.5017 79.4696 54.178C79.6343 54.1347 79.8019 54.0913 79.9695 54.048C80.9236 53.9628 81.8602 53.7389 82.7497 53.3833C82.9144 53.3457 83.082 53.311 83.2496 53.2764C85.131 54.4728 87.966 56.8772 86.0991 58.1748Z" fill="#3EBABA"/>
<path d="M111.756 55.8456L97.5485 65.5884C96.9506 65.9983 96.2474 66.2275 95.5227 66.2485C94.7981 66.2695 94.0828 66.0815 93.4621 65.7069L76.0249 55.1809C77.1387 54.8295 78.329 54.4813 79.5795 54.1486L80.3456 54.0082C81.1697 53.9012 81.9771 53.6913 82.7489 53.3834C84.0494 53.1002 85.3961 52.843 86.7746 52.632L91.7192 52.0742C95.9299 51.7824 100.297 51.9875 104.493 53.025C105.019 53.267 105.581 53.4222 106.157 53.4845C106.966 53.7302 107.766 54.0105 108.556 54.3255C109.654 54.7631 110.723 55.2709 111.756 55.8456Z" fill="white"/>
<path d="M92.3646 9.64402C92.2383 7.88549 94.686 5.60419 96.1455 4.94529C97.0702 4.52798 98.5892 4.3358 99.4926 4.84905C100.572 5.462 100.826 6.8142 101.764 7.5731C102.993 8.56752 104.712 8.14906 106.142 8.00918C107.616 7.86469 109.119 7.79851 110.524 8.39066C111.171 8.66318 111.781 9.03656 112.02 9.74054C112.262 10.4503 111.844 10.8644 111.824 11.5144C111.784 12.7787 113.216 13.2067 114.231 13.6873C115.318 14.2017 116.556 14.7907 116.93 16.0493C117.234 17.0758 116.785 17.9008 116.635 18.8892C116.212 21.6742 120.119 21.7502 119.916 24.1419C119.821 25.2658 118.277 25.9048 117.868 26.9859C117.449 28.0919 117.644 28.7216 118.527 29.529C119.278 30.2157 120.478 30.9607 120.396 32.186C120.316 33.3917 118.828 33.7466 118.856 35.0997C118.885 36.5013 120.014 36.729 120.974 37.444C122.64 38.6849 121.147 39.3143 120.298 40.2732C119.087 41.6399 120.302 42.1228 120.934 43.2128C121.56 44.2888 120.769 45.2829 120.111 46.1542C119.984 46.3221 119.846 46.4857 119.703 46.6472C119.635 46.7237 119.551 46.7848 119.457 46.8262C119.363 46.8677 119.261 46.8887 119.158 46.8878C119.056 46.8868 118.954 46.864 118.861 46.8209C118.768 46.7777 118.685 46.7151 118.618 46.6374C118.159 46.1854 117.618 45.8253 117.024 45.5768C116.03 45.1413 115.195 45.2953 114.254 45.7907C113.409 46.2357 112.848 46.8461 111.82 46.5394C110.89 46.262 110.31 45.304 109.484 44.8248C107.536 43.6955 106.586 45.3788 104.693 45.6808C104.105 45.7879 103.499 45.7343 102.939 45.5258C102.379 45.3173 101.885 44.9615 101.51 44.496C100.843 43.6729 100.768 42.795 99.4833 42.7828C97.9086 42.7681 95.2984 44.7159 94.3343 42.532C93.2035 39.9695 97.0679 37.0501 97.5211 34.6485C98.0548 31.8207 94.9112 30.0923 94.8644 27.4272C94.8386 25.973 96.0359 25.0439 96.435 23.7298C96.7893 22.5634 96.5035 21.6077 96.1657 20.4807C95.0829 16.8064 93.8142 13.1896 92.3646 9.64402Z" fill="url(#paint4_linear)"/>
<path d="M108.556 54.324C108.146 54.1636 107.195 55.5468 106.963 55.7918C106.151 56.6524 105.247 57.4417 104.367 58.2327C102.522 59.8895 100.612 61.4703 98.6363 62.975C96.5134 64.5908 94.6326 64.4648 92.5097 62.8568C90.2012 61.1087 87.7182 59.7372 85.2649 58.1879C83.9604 57.3639 82.5672 56.6065 81.321 55.6976C80.9979 55.4618 79.8281 54.0827 79.4697 54.1769C79.6345 54.1336 79.8021 54.0902 79.9697 54.0469C80.9238 53.9617 81.8603 53.7378 82.7498 53.3822C84.2179 52.7984 85.5357 51.8448 86.1079 50.5327C86.4541 49.6384 86.6974 48.7077 86.8333 47.7584C87.3506 44.9841 87.865 42.0537 88.8129 39.3892C88.9665 38.8713 89.2112 38.3849 89.5353 37.9529C90.0931 37.294 90.8185 37.3807 92.197 37.765C94.6072 38.4355 97.8092 39.421 100.456 41.337C99.6819 43.7183 100.06 47.3654 101.323 49.5733C102.057 50.8535 103.213 52.3158 104.47 53.0123C104.479 53.0152 104.485 53.021 104.494 53.0238C105.02 53.2659 105.582 53.421 106.158 53.4833C106.967 53.729 107.766 54.0092 108.556 54.324Z" fill="#8E4230"/>
<path d="M97.3468 48.4001C97.2457 49.244 97.3497 50.2121 97.0463 51.0155C96.6908 51.9576 95.8874 52.2697 95.0407 52.6599C93.2345 53.4864 91.3069 53.995 90.1971 55.755C89.0758 57.5381 88.0095 58.4455 86.131 58.7143C83.9376 57.3387 81.3019 55.9313 79.4697 54.1771C79.6345 54.1337 79.8021 54.0904 79.9697 54.047C80.9238 53.9618 81.8603 53.7379 82.7498 53.3823C84.2179 52.7986 85.5357 51.8449 86.1079 50.5329C86.4541 49.6386 86.6974 48.7078 86.8333 47.7585C87.3506 44.9842 87.865 42.0538 88.8129 39.3893C88.9665 38.8715 89.2112 38.3851 89.5353 37.953C90.3762 37.8142 91.2393 37.9682 91.9802 38.3894C92.7403 38.8662 93.3154 39.5627 94.0985 40.0193C95.058 40.5829 95.6331 40.7678 96.318 41.7013C96.529 41.9874 97.4283 42.0952 97.7289 43.3774C97.6682 44.1288 97.448 44.9958 97.4942 45.761C97.5253 46.6434 97.476 47.5267 97.3468 48.4001Z" fill="#7A2B1E"/>
<path d="M109.415 27.7518C109.4 27.824 109.389 27.8934 109.377 27.9656C109.083 29.6244 109.088 31.3555 109.109 33.0779C109.117 33.6674 109.126 34.257 109.126 34.8408C109.126 38.063 108.166 41.083 105.528 43.1233C102.84 45.1983 100.115 45.4034 97.5778 44.5538C96.5133 44.1882 95.5025 43.6818 94.5723 43.0482C93.2436 42.14 92.022 41.0842 90.931 39.901C88.9803 37.8174 87.5989 35.9043 87.307 32.9565C87.2877 32.7456 87.2675 32.5317 87.2463 32.315C87.0484 30.4925 86.9577 28.66 86.9746 26.827C86.9746 26.7836 86.9746 26.7403 86.9775 26.6969C86.9844 24.773 87.3116 22.8636 87.9457 21.0471C88.2613 20.191 88.6857 19.379 89.2086 18.6312C89.8287 17.7577 90.5883 16.9923 91.4569 16.3654C94.1272 14.4292 97.6038 14.4783 100.601 15.4725C103.493 16.429 107.311 18.2988 109.704 20.2408C110.109 22.9458 109.944 25.0237 109.415 27.7518Z" fill="url(#paint5_linear)"/>
<path d="M97.5778 44.5544C96.5133 44.1888 95.5025 43.6824 94.5723 43.0487C93.2436 42.1405 92.022 41.0847 90.931 39.9016C88.9803 37.8179 87.5989 35.9048 87.307 32.9571C87.2877 32.7461 87.2675 32.5323 87.2463 32.3155C87.0484 30.4931 86.9577 28.6606 86.9746 26.8275C86.9746 26.7842 86.9746 26.7408 86.9775 26.6975C86.9844 24.7735 87.3116 22.8642 87.9457 21.0477C88.2202 20.802 88.5005 20.568 88.7866 20.3368C89.6144 19.6664 90.4862 19.0524 91.3962 18.4988C92.1361 18.0508 93.2805 17.1723 94.1677 17.1289C94.3526 17.1203 94.5549 18.6404 94.5694 18.8109C94.62 19.4318 94.5967 20.0566 94.5 20.672C94.318 21.9031 93.8151 23.0475 93.5348 24.2555C93.1417 25.9577 94.0752 27.7783 93.3527 29.4198C92.9741 30.2752 92.3846 30.7636 92.3644 31.8011C92.359 32.7537 92.6181 33.6891 93.1129 34.5032C93.6128 35.3124 94.237 35.636 94.2341 36.6273C94.2313 37.7226 93.7486 38.5577 94.0954 39.6993C94.3827 40.6168 94.7919 41.4916 95.3121 42.3002C95.9161 43.251 96.6559 43.566 97.3755 44.3232C97.4468 44.3968 97.5143 44.4739 97.5778 44.5544Z" fill="url(#paint6_linear)"/>
<path d="M104.683 30.1389C104.784 31.1408 105.046 32.1199 105.459 33.0381C105.681 33.5872 106.733 35.4428 105.983 35.7963C105.583 35.985 104.78 35.7188 104.351 35.7029C103.847 35.6529 103.338 35.7562 102.893 35.9994C102.823 36.0449 102.772 36.1158 102.753 36.1973C102.734 36.2789 102.746 36.3648 102.789 36.4372C102.831 36.5095 102.9 36.5628 102.98 36.5858C103.061 36.6088 103.147 36.5998 103.221 36.5606C104.206 35.967 105.991 37.0759 106.739 36.0693C107.074 35.6177 106.885 34.9755 106.73 34.4941C106.259 33.0318 105.437 31.7056 105.333 30.1398C105.304 29.7245 104.655 29.7213 104.683 30.1398V30.1389Z" fill="#8E4230"/>
<path d="M93.817 10.7896C93.552 9.94185 93.0209 9.20209 92.3024 8.6799C91.7366 8.3367 91.1052 8.11579 90.4488 8.03141C88.6929 7.76483 86.8993 7.90321 85.205 8.43599C81.6715 9.25933 77.9146 12.7272 79.6197 16.357C79.7417 16.6853 79.8342 17.0238 79.8959 17.3685C79.9553 17.7102 79.9429 18.0606 79.8595 18.3973C79.754 18.7826 79.5597 19.1379 79.2922 19.4348C77.3366 20.2411 74.4467 20.819 74.7357 23.709C74.8197 23.9974 74.9661 24.2638 75.1646 24.4893C75.2617 24.6089 75.3669 24.7254 75.4706 24.8407C75.7214 25.2586 75.8288 25.747 75.7766 26.2316C75.7614 26.388 75.7324 26.5427 75.6899 26.694C75.0247 28.0439 73.5797 28.6219 72.1816 29.0496C72.0426 29.088 71.905 29.1285 71.7689 29.1724C71.4979 29.2578 71.2338 29.3636 70.9788 29.4888C70.648 29.6823 70.3736 29.9589 70.1829 30.2912C69.9921 30.6236 69.8916 31 69.8913 31.3832C69.8909 31.5317 69.9043 31.6799 69.9312 31.8259C70.9788 33.5347 69.8228 35.2687 68.6403 36.4333C68.5344 36.5411 68.4356 36.6556 68.3443 36.7761L68.3307 36.794C68.2372 36.9278 68.1876 37.0874 68.189 37.2506C68.1904 37.4139 68.2426 37.5726 68.3385 37.7048C68.4343 37.8369 68.569 37.9359 68.7237 37.9879C68.8784 38.04 69.0456 38.0424 69.2018 37.9951C70.945 37.5246 73.4231 38.621 74.2262 39.9582C74.3889 40.2295 74.4996 40.5289 74.6528 40.8055C75.3611 42.0829 77.1208 41.8881 78.3426 41.7358C80.1214 41.5141 81.7472 41.7098 83.0124 43.1001C83.1569 43.2157 83.3052 43.3215 83.4552 43.4197C84.0744 43.8488 84.8069 44.0847 85.5602 44.0974C86.4272 44.0914 87.2479 43.7093 88.1198 43.666C88.919 43.6229 89.7123 43.8245 90.3939 44.2439C90.6124 44.3833 90.8222 44.5359 91.0222 44.7008C91.0926 44.7572 91.1808 44.7865 91.2709 44.7837C91.361 44.7809 91.4472 44.7461 91.5139 44.6854C91.5807 44.6248 91.6236 44.5424 91.6351 44.4529C91.6466 44.3635 91.6258 44.2729 91.5765 44.1974C90.9985 43.314 90.4185 42.4256 90.2219 41.3809C90.024 40.6043 90.0871 39.7842 90.4014 39.047C90.54 38.7818 90.6936 38.5247 90.8615 38.2771C90.9193 34.6907 86.5844 33.8237 88.6073 30.3558C87.8017 29.8387 87.1166 29.1544 86.5986 28.3493C86.554 28.2035 86.5529 28.0479 86.5954 27.9014C86.8672 27.5291 87.2048 27.2096 87.5915 26.9587C87.7758 26.8369 87.9662 26.7246 88.162 26.6223C89.7633 26.0209 92.3643 25.4429 92.3643 23.131C92.3628 22.9215 92.2994 22.7171 92.1822 22.5435C92.0654 22.3999 91.94 22.2636 91.8065 22.1354C90.9233 21.365 90.5398 20.0344 91.3892 19.2796C91.7036 19.0001 92.0305 18.9692 92.4264 18.877C93.7303 18.5739 94.1147 17.1777 94.3522 16.0336C94.6802 14.4531 94.3811 12.707 93.9387 11.1719C93.9031 11.0439 93.8621 10.9161 93.817 10.7896Z" fill="#090F1F"/>
<path d="M94.6764 13.0163C94.1181 14.0856 93.7912 15.9163 95.1295 16.6865C96.5025 17.4763 98.5685 15.6536 98.7009 18.2211C98.7367 18.9233 98.5255 19.5819 99.25 20.0897C100.094 20.6827 100.977 19.9206 101.846 19.9044C104.105 19.8625 102.451 22.8568 104.768 23.0426C105.548 23.105 106.381 22.736 107.126 23.2475C108.037 23.874 107.429 24.622 107.798 25.5398C108.244 26.6504 108.899 26.0845 109.801 26.3056C110.94 26.5842 110.588 27.3552 111.198 27.9879C112.24 29.0698 113.421 25.3179 113.464 24.3624C113.567 22.1063 112.246 19.8909 110.885 18.1974C109.153 16.0423 107.221 13.8365 104.508 12.9932C102.15 12.26 98.9775 12.6224 94.6764 13.0163Z" fill="url(#paint7_linear)"/>
<path d="M96.7458 14.6661C98.1908 15.3352 100.088 13.9671 100.214 16.3605C100.282 17.6699 100.855 18.5675 102.323 18.2222C102.913 18.0835 103.65 17.6685 104.243 18.0505C104.667 18.3239 104.696 18.8135 104.803 19.2383C104.915 19.6813 104.986 20.1428 105.294 20.5C105.448 20.6672 105.633 20.802 105.839 20.8968C106.045 20.9915 106.268 21.0442 106.494 21.0517C107.542 21.1563 108.656 20.3899 109.175 22.2418C109.274 22.5949 109.212 23.0154 109.315 23.39C109.332 23.4438 109.369 23.4891 109.418 23.5161C109.468 23.5431 109.526 23.5499 109.58 23.5348C109.634 23.5198 109.681 23.4842 109.709 23.4356C109.738 23.387 109.746 23.3292 109.733 23.2744C109.517 22.4895 109.796 21.6352 109.158 21.0246C108.503 20.398 107.708 20.609 106.889 20.62C104.638 20.6489 105.843 18.2283 104.25 17.5827C103.626 17.3301 102.998 17.6023 102.394 17.7546C100.191 18.31 101.023 16.0241 100.411 14.9803C99.6964 13.7596 98.0385 14.7884 96.9663 14.2925C96.7146 14.1769 96.4941 14.5497 96.7475 14.6667L96.7458 14.6661Z" fill="#090F1F"/>
<path d="M99.0357 33.6854C98.2848 33.6924 97.5401 33.5484 96.846 33.2618C96.1519 32.9753 95.5225 32.552 94.9953 32.0173C94.4606 31.4731 94.0511 30.8188 93.7952 30.1001C93.5393 29.3813 93.4432 28.6155 93.5136 27.8558L93.5303 27.583L114.784 27.7099L114.823 27.9515C114.838 28.0489 115.192 30.357 113.84 31.9771C113.037 32.9398 111.812 33.4441 110.199 33.4759C109.638 33.4904 109.08 33.4013 108.552 33.2132C107.714 32.9261 106.956 32.4467 106.337 31.8135C105.718 31.1802 105.257 30.4108 104.989 29.5669C104.565 30.8018 103.526 32.5436 100.988 33.3707C100.358 33.5778 99.6988 33.6841 99.0357 33.6854ZM94.0794 28.1656C94.0529 28.801 94.1572 29.435 94.3859 30.0284C94.6145 30.6218 94.9627 31.1618 95.4088 31.615C96.1043 32.303 96.9796 32.7812 97.9343 32.9947C98.889 33.2082 99.8845 33.1485 100.807 32.8224C104.343 31.6682 104.669 28.6835 104.698 28.2275L94.0794 28.1656ZM105.287 28.2324C105.631 30.9885 107.354 32.1673 108.747 32.6707C109.209 32.8355 109.697 32.9129 110.187 32.899C111.624 32.8701 112.702 32.4366 113.394 31.611C114.342 30.4781 114.324 28.8864 114.278 28.2876L105.287 28.2324Z" fill="white"/>
<path d="M86.3459 26.4365L86.2583 27.0078L93.7578 28.1582L93.8454 27.5869L86.3459 26.4365Z" fill="white"/>
<path d="M87.2463 32.3148C87.0059 32.4002 86.7609 32.4717 86.5122 32.5287C84.4748 32.9766 84.0182 31.0953 83.6975 29.4191C83.3853 27.7719 83.5385 25.5235 85.7175 26.0524C86.1745 26.1855 86.6021 26.4041 86.9775 26.6968C87.0498 26.7517 87.122 26.8066 87.1943 26.8587C87.851 27.4016 88.4681 27.9907 89.0409 28.6215C90.6015 30.604 88.6739 31.8091 87.2463 32.3148Z" fill="url(#paint8_linear)"/>
<path d="M83.7055 50.997C85.1555 53.3301 86.9183 55.4536 88.9447 57.3083C90.6497 58.8891 92.4967 60.4993 94.8231 61.0241L94.9387 60.1725L94.6765 60.1705C94.5616 60.1705 94.4513 60.2161 94.37 60.2974C94.2887 60.3787 94.2431 60.489 94.2431 60.6039C94.2431 60.7189 94.2887 60.8292 94.37 60.9105C94.4513 60.9918 94.5616 61.0374 94.6765 61.0374L94.9387 61.0395C95.419 61.0438 95.5386 60.2973 95.0543 60.1881C92.7377 59.6656 90.9393 57.9917 89.2562 56.4141C87.4019 54.6853 85.787 52.7163 84.4546 50.5594C84.1627 50.0849 83.4125 50.5201 83.7061 50.997H83.7055Z" fill="#FCE158"/>
<path d="M95.6592 61.1182C98.1304 60.2639 100.041 58.0135 101.714 56.1019C102.887 54.7604 104.927 52.3265 104.632 50.374C104.549 49.8249 103.714 50.0579 103.797 50.6052C103.922 51.4375 103.197 52.4279 102.803 53.1194C102.129 54.2479 101.33 55.2964 100.42 56.2449C99.017 57.7783 97.4449 59.5851 95.4295 60.2821C94.9055 60.4633 95.1306 61.3011 95.6607 61.1179L95.6592 61.1182Z" fill="#FCE158"/>
<path d="M96.1559 12.0758C95.1482 12.7544 94.422 13.4954 94.044 14.675C93.8128 15.3958 93.5403 16.4755 94.2174 17.048C94.7124 17.4664 97.0611 17.3505 97.1033 17.9678C97.1212 18.2299 95.4629 18.8285 95.2317 19.0209C94.8295 19.3553 94.5162 19.8518 94.7982 20.3792C94.9896 20.737 95.3811 20.8416 95.7409 20.9375C96.0299 21.0144 96.3955 20.9086 96.5085 21.2496C96.6307 21.6178 96.3325 21.5508 95.9851 21.7455C95.4563 22.0423 94.9274 22.4495 95.3887 23.046C95.8115 23.5928 96.5342 23.4087 96.2204 24.4572C96.0802 24.9253 95.8323 25.1005 95.8447 25.6475C95.8574 26.2047 96.7244 26.2067 96.7117 25.6475C96.6917 24.7727 97.7026 24.3881 97.2541 23.4596C97.0567 23.1425 96.7827 22.8802 96.4573 22.6969C95.9635 22.3617 96.2345 22.588 96.2279 22.6001C96.3299 22.4143 97.1238 22.1733 97.2076 22.1288C97.7674 21.8348 98.1653 21.4846 97.7624 20.8595C97.5151 20.5524 97.1708 20.3384 96.7859 20.2526C96.5732 20.1864 96.1501 20.2347 95.9713 20.1018C95.4106 19.6885 95.769 19.7743 96.0438 19.5267C96.631 18.9984 98.7057 18.7157 97.8304 17.4815C97.3538 16.8095 96.3423 16.6685 95.6002 16.5604C93.3842 16.2376 95.6464 13.4627 96.5932 12.8252C97.0538 12.5151 96.6203 11.7637 96.1556 12.0767L96.1559 12.0758Z" fill="url(#paint9_linear)"/>
<path d="M95.1583 62.6388C96.2418 62.6388 97.1202 61.7604 97.1202 60.6768C97.1202 59.5932 96.2418 58.7148 95.1583 58.7148C94.0747 58.7148 93.1963 59.5932 93.1963 60.6768C93.1963 61.7604 94.0747 62.6388 95.1583 62.6388Z" fill="#FCD200"/>
<path d="M79.4698 54.1778L78.3968 53.4756L73.4839 56.0285L76.025 55.1806L79.4698 54.1778Z" fill="white"/>
<path d="M108.556 54.3241L109.93 54.0527L113.736 57.0533L111.582 55.8951L109.93 56.0757L108.556 54.3241Z" fill="white"/>
</g>
<g clip-path="url(#clip2)">
<path d="M130 102C130.01 109.322 127.14 116.355 122.01 121.579C121.522 122.079 121.016 122.56 120.491 123.021C115.11 127.757 108.119 130.248 100.957 129.981C93.7943 129.714 87.0073 126.71 81.9942 121.587C81.6377 121.223 81.2925 120.85 80.9591 120.467C77.9732 117.064 75.857 112.987 74.7918 108.587C73.7267 104.187 73.7444 99.5937 74.8434 95.2018C75.9425 90.8098 78.0901 86.7499 81.1022 83.3701C84.1142 79.9902 87.9009 77.3912 92.1376 75.7959C96.3744 74.2006 100.935 73.6565 105.428 74.2103C109.921 74.7641 114.213 76.3992 117.935 78.9756C121.658 81.5519 124.7 84.9926 126.802 89.0027C128.903 93.0128 130.001 97.4727 130 102Z" fill="url(#paint10_linear)"/>
<path d="M122.01 121.579C121.522 122.079 121.015 122.56 120.49 123.021C115.111 127.759 108.119 130.251 100.956 129.984C93.7928 129.717 87.0054 126.712 81.9936 121.587C81.6371 121.222 81.2919 120.85 80.9585 120.466C84.6837 118.173 88.7418 116.472 92.9882 115.422C94.3414 115.094 95.7121 114.843 97.0937 114.67C100.736 114.209 104.43 114.36 108.022 115.116C112.508 116.066 117.23 118.058 122.01 121.579Z" fill="#80D5E0"/>
<path d="M100.164 122.052C98.9121 122.816 95.9733 123.106 94.5894 123.669C92.5335 124.507 90.5374 125.485 88.6151 126.596C86.1708 125.265 83.9389 123.577 81.9936 121.587C81.6371 121.222 81.2919 120.85 80.9585 120.466C84.3507 118.384 90.0808 115.535 97.0937 114.67C97.5015 115.118 97.8785 115.594 98.2219 116.093C99.5362 117.872 102.626 120.547 100.164 122.052Z" fill="#3EBABA"/>
<path d="M114.877 98.9154C114.662 99.7298 114.363 100.524 114.212 101.46C114.008 102.733 114.553 103.936 114.644 105.189C114.696 106.4 114.525 107.609 114.14 108.758C113.822 109.782 113.756 111.139 113.105 111.953C112.396 112.84 111.271 113.24 110.162 113.41C108.321 113.689 106.456 113.317 104.716 112.67C104.572 112.616 104.433 112.561 104.293 112.503C103.979 112.383 103.673 112.251 103.371 112.111C101.638 111.317 99.1449 110.255 98.5323 108.269C97.99 106.524 97.9858 104.614 97.8268 102.822C97.7827 102.251 97.7076 101.683 97.6019 101.12C97.1096 98.6352 98.6292 96.7394 97.8141 94.3628C97.2638 92.7499 96.7326 91.1408 98.3531 89.9507C98.9868 89.5197 99.6858 89.1937 100.423 88.9853C101.327 88.7024 102.28 88.5045 103.064 88.3223C104.866 87.9492 106.71 87.8227 108.546 87.9462C110.062 88.0468 111.326 89.9778 113.392 90.536C113.945 92.4891 114.772 94.4184 115.07 96.4333C115.183 97.265 115.117 98.1111 114.877 98.9154Z" fill="#F4C3AB"/>
<path d="M108.659 120.044C108.532 120.441 108.32 120.806 108.039 121.114C107.197 122.057 105.799 122.637 104.732 123.04C103.179 123.597 101.521 123.792 99.8818 123.61C99.7886 123.602 99.6957 123.591 99.5948 123.579C96.7687 123.215 93.6363 120.904 92.0351 118.368C91.8473 118.073 91.7625 117.724 91.7941 117.375C91.8256 117.026 91.9717 116.698 92.2096 116.441C92.2882 116.355 92.3661 116.266 92.4435 116.173C92.853 115.669 93.4217 115.318 94.0563 115.179C95.0387 114.972 96.0514 114.802 97.0943 114.669C100.418 114.25 103.786 114.338 107.084 114.931C107.344 114.976 107.582 115.106 107.762 115.301C107.941 115.495 108.052 115.743 108.076 116.006C108.193 117.361 109.073 118.671 108.659 120.044Z" fill="#90EDF4"/>
<path d="M106.666 120.273C105.976 121.048 104.825 121.527 103.948 121.856C102.671 122.315 101.307 122.476 99.9588 122.328C99.8812 122.32 99.8037 122.312 99.723 122.301C97.397 122.002 94.8227 120.102 93.5047 118.016C93.35 117.773 93.2801 117.486 93.3061 117.199C93.332 116.912 93.4523 116.642 93.648 116.431C95.8462 114.039 96.8349 108.414 96.0401 105.439C96.0129 105.342 95.9858 105.249 95.9547 105.156C98.4165 105.029 100.266 105.284 102.486 106.308C103.575 106.808 104.413 107.258 105.25 108.115C106.122 109.006 106.677 110.305 106.929 111.988C107.013 112.551 106.71 113.373 106.673 113.96C106.629 114.666 106.637 115.375 106.697 116.08C106.793 117.188 107.518 118.265 107.175 119.394C107.072 119.721 106.898 120.021 106.666 120.273Z" fill="#F4C3AB"/>
<path d="M113.686 112.181C113.694 112.63 113.33 113.557 113.121 113.984C113.117 113.995 113.109 114.007 113.105 114.018C112.686 114.852 112.353 114.856 111.45 114.895C110.256 114.949 108.736 115.05 107.67 114.437C106.952 114.026 106.697 113.355 106.631 112.568C106.546 111.537 106.84 111.588 108.061 111.212C108.269 111.121 108.459 110.995 108.623 110.839C109.425 110.137 110.135 108.87 111.167 109.099C111.957 109.273 113.671 111.448 113.686 112.181Z" fill="url(#paint11_linear)"/>
<path d="M115.819 84.8135C115.656 86.1743 114.985 87.5042 115.277 88.9193C115.575 90.3577 116.176 92.2535 114.3 93.374C113.552 91.61 113.978 90.9198 112.191 90.6562C110.679 90.4312 109.372 91.1749 107.888 91.2457C106.438 91.3117 105.166 90.9512 103.798 90.5168C102.398 90.0709 101.456 90.1601 100.13 90.1796C100.029 90.1796 99.9248 90.1834 99.8201 90.1834C98.2887 90.1872 96.5016 89.5321 93.718 88.7257C93.1757 88.5667 92.4037 88.3923 92.0472 87.9115C91.5353 87.2213 92.2021 86.6902 92.5895 86.1512C93.008 85.5697 93.0429 84.7633 93.509 84.2205C93.9085 83.7515 94.5441 83.5692 95.1374 83.3952C96.2403 83.0954 97.3207 82.7184 98.3707 82.2669C99.336 81.829 100.116 81.3093 101.212 81.1659C101.329 81.1504 101.448 81.1388 101.566 81.131C102.447 81.0748 103.332 81.106 104.207 81.2239C105.917 81.414 107.646 81.7191 109.367 81.542C110.91 81.3831 112.728 80.5533 114.263 81.0419C116.067 81.6189 116.013 83.1969 115.819 84.8135Z" fill="url(#paint12_linear)"/>
<path d="M104.293 112.503C104.003 113.504 103.049 115.562 102.824 117.729C102.661 119.315 102.219 120.152 100.959 121.222C100.575 121.548 100.161 121.939 99.7225 122.3C97.3965 122.001 94.8222 120.102 93.5042 118.016C93.3495 117.773 93.2797 117.485 93.3056 117.198C93.3315 116.912 93.4518 116.641 93.6475 116.43C95.8458 114.038 96.8344 108.413 96.0396 105.439C96.865 105.136 97.7743 105.155 98.586 105.493C100.754 106.458 101.777 110.142 104.293 112.503Z" fill="#D18371"/>
<path d="M104.293 112.503C103.979 112.383 103.673 112.251 103.371 112.111C101.638 111.317 99.1449 110.255 98.5324 108.269C97.9901 106.524 97.9858 104.614 97.8269 102.822C97.7827 102.251 97.7077 101.683 97.602 101.12C97.1096 98.6353 98.6293 96.7394 97.8142 94.3628C97.2638 92.7499 95.997 90.6912 97.6175 89.5008C98.1834 89.0861 100.23 90.3228 101.001 90.0826C101.648 90.7772 101.543 90.8607 102.052 91.8852C102.57 92.9322 103.381 94.0914 103.505 95.2621C103.684 96.8866 103.618 98.5306 102.892 99.9649C102.287 101.159 101.698 102.218 101.632 103.571C101.558 105.033 101.861 106.444 102.148 107.855C102.431 109.243 103.33 110.293 103.881 111.588C103.964 111.783 104.127 112.119 104.293 112.503Z" fill="#E5A58F"/>
<path d="M92.0764 89.3453C91.5954 89.8029 90.843 89.8819 90.2741 90.2625C89.6002 90.7134 89.5938 90.4698 89.3227 91.2272C88.779 92.745 88.393 95.194 89.3104 96.4695C90.2684 97.8011 90.4028 99.4642 91.2281 100.879C91.6525 101.609 92.0019 102.155 92.0769 103.009C92.1394 103.727 91.9729 104.453 92.1948 105.144C92.6838 106.663 94.0811 107.789 95.5604 108.146C97.6277 108.645 98.113 107.551 98.1823 105.626C98.2377 104.087 97.5968 102.679 97.6009 101.122C97.6049 99.5028 97.478 97.939 97.4068 96.3459C97.3311 94.6496 97.9232 92.5616 97.4042 91.0168C96.7626 89.1078 94.1214 88.5622 92.0764 89.3453Z" fill="#111726"/>
<path d="M98.9184 101.002C97.6516 99.4014 93.3603 97.6121 94.3893 101.419C94.6682 102.451 96.533 103.973 97.6261 104.143C99.4735 104.43 99.9135 102.341 98.9184 101.002Z" fill="#E5A58F"/>
<path d="M92.2312 88.2408C92.654 88.0562 93.2337 88.1465 93.6751 88.1864C94.4506 88.2571 95.2209 88.3889 95.9858 88.5344C97.4274 88.7869 98.851 89.1329 100.248 89.5703C100.429 89.613 100.599 89.6943 100.746 89.8087C100.893 89.923 101.014 90.0677 101.1 90.2329C101.263 90.6105 101.356 91.0149 101.373 91.426C101.439 92.0759 101.503 92.7265 101.57 93.3763C101.626 93.9187 101.753 94.5266 101.482 95.0328C101.223 95.5183 100.723 95.6987 100.284 95.9716C99.8 96.2781 99.4261 96.7303 99.2158 97.263C98.7037 98.5599 99.4316 99.8483 99.6167 101.13C99.6414 101.301 99.8112 102.475 99.7445 102.592C99.4297 103.137 98.8317 102.9 98.5596 102.531C98.3017 102.18 98.4113 101.386 98.3309 100.979C98.2053 100.345 97.658 100.227 97.4291 99.6232C97.0146 98.5307 96.9214 96.8582 96.0646 96.0206C95.5447 95.5124 94.7116 95.4195 94.594 94.5865C94.5049 93.9545 89.1002 91.8083 89.3247 91.2289C89.6781 90.3086 90.4869 88.7254 92.2312 88.2408Z" fill="#111726"/>
<path d="M109.696 104.708C110.275 104.883 110.896 104.849 111.452 104.612C112.008 104.375 112.463 103.95 112.738 103.411C112.914 103.081 112.412 102.787 112.235 103.118C112.026 103.546 111.671 103.885 111.233 104.074C110.796 104.262 110.305 104.289 109.85 104.147C109.493 104.031 109.34 104.592 109.695 104.708L109.696 104.708Z" fill="#E5A58F"/>
<path d="M100.807 89.8614L100.129 90.1795C100.028 90.1795 99.9233 90.1832 99.8186 90.1832C98.2872 90.187 96.5002 89.532 93.7165 88.7255C93.1742 88.5666 92.4022 88.3921 92.0457 87.9113C91.5338 87.2211 92.2007 86.6901 92.588 86.151C93.0066 85.5696 93.0415 84.7631 93.5076 84.2203C93.907 83.7513 94.5427 83.569 95.1359 83.395C96.2388 83.0953 97.3193 82.7183 98.3692 82.2667C99.3345 81.8288 100.114 81.3091 101.211 81.1658C101.327 81.1502 101.447 81.1386 101.565 81.1309C94.4463 85.1626 100.807 89.8614 100.807 89.8614Z" fill="#111726"/>
<path d="M101.821 90.1826L101.581 90.8572L101.503 91.0744L101.375 91.4281L97.8887 90.0883C97.8445 90.0719 97.8077 90.04 97.7855 89.9984C97.7632 89.9568 97.757 89.9085 97.768 89.8626C97.779 89.8167 97.8064 89.7765 97.8451 89.7495C97.8838 89.7225 97.931 89.7107 97.9778 89.7162L101.002 90.0807C101.025 90.0854 101.821 90.1826 101.821 90.1826Z" fill="#F4C3AB"/>
<path d="M101.579 90.857L101.502 91.0741L101.374 91.4278L97.8887 90.0883C97.8445 90.0719 97.8077 90.04 97.7855 89.9984C97.7632 89.9568 97.757 89.9085 97.768 89.8626C97.779 89.8167 97.8064 89.7765 97.8451 89.7495C97.8838 89.7225 97.931 89.7107 97.9778 89.7162L101.002 90.0807C101.025 90.0854 101.579 90.857 101.579 90.857Z" fill="#E5A58F"/>
<path d="M112.804 82.2384C115.008 82.5303 114.594 85.3826 114.115 86.8403C114.057 87.0183 114.337 87.0947 114.396 86.9174C114.954 85.2163 115.206 82.266 112.804 81.9477C112.619 81.9241 112.621 82.2141 112.804 82.2384Z" fill="#1A1F2D"/>
<path d="M113.586 121.809C113.593 122.477 113.666 123.143 113.651 123.813C113.635 124.562 114.798 124.562 114.814 123.813C114.829 123.144 114.756 122.478 114.749 121.809C114.742 121.061 113.579 121.059 113.586 121.809Z" fill="#90EDF4"/>
<path d="M111.712 124.911V125.815C111.712 125.969 111.773 126.117 111.882 126.226C111.991 126.335 112.139 126.397 112.293 126.397C112.448 126.397 112.595 126.335 112.705 126.226C112.814 126.117 112.875 125.969 112.875 125.815V124.911C112.875 124.756 112.814 124.608 112.705 124.499C112.595 124.39 112.448 124.329 112.293 124.329C112.139 124.329 111.991 124.39 111.882 124.499C111.773 124.608 111.712 124.756 111.712 124.911Z" fill="#90EDF4"/>
<path d="M87.8052 119.838V121.389C87.8052 122.137 88.9683 122.139 88.9683 121.389V119.838C88.9683 119.09 87.8052 119.089 87.8052 119.838Z" fill="#59C5C9"/>
<path d="M89.5599 121.68C89.554 122.132 89.5488 122.585 89.5488 123.037C89.5488 123.785 90.7119 123.786 90.7119 123.037C90.7119 122.585 90.7171 122.132 90.7228 121.68C90.7325 120.931 89.5693 120.931 89.5599 121.68Z" fill="#59C5C9"/>
</g>
<defs>
<linearGradient id="paint0_linear" x1="39.9614" y1="19.5341" x2="34.4469" y2="104.703" gradientUnits="userSpaceOnUse">
<stop stop-color="#FEBBC1"/>
<stop offset="1" stop-color="#A6DEF7"/>
</linearGradient>
<linearGradient id="paint1_linear" x1="49.0925" y1="59.0133" x2="47.8671" y2="84.7479" gradientUnits="userSpaceOnUse">
<stop stop-color="#E65935"/>
<stop offset="1" stop-color="#E33B1B"/>
</linearGradient>
<linearGradient id="paint2_linear" x1="13656.2" y1="3586.96" x2="12768.1" y2="4619.27" gradientUnits="userSpaceOnUse">
<stop stop-color="#E65935"/>
<stop offset="1" stop-color="#E33B1B"/>
</linearGradient>
<linearGradient id="paint3_linear" x1="62.0004" y1="33.9994" x2="130" y2="33.9994" gradientUnits="userSpaceOnUse">
<stop stop-color="#DBF186"/>
<stop offset="1" stop-color="#FCE158"/>
</linearGradient>
<linearGradient id="paint4_linear" x1="105.122" y1="8.85998" x2="108.397" y2="45.2731" gradientUnits="userSpaceOnUse">
<stop stop-color="#4C505D"/>
<stop offset="1" stop-color="#363944"/>
</linearGradient>
<linearGradient id="paint5_linear" x1="99.1216" y1="18.2601" x2="97.5804" y2="36.3701" gradientUnits="userSpaceOnUse">
<stop stop-color="#CA7F60"/>
<stop offset="1" stop-color="#C2785B"/>
</linearGradient>
<linearGradient id="paint6_linear" x1="86.9677" y1="30.8416" x2="97.5778" y2="30.8416" gradientUnits="userSpaceOnUse">
<stop stop-color="#8E4230"/>
<stop offset="1" stop-color="#8E4230"/>
</linearGradient>
<linearGradient id="paint7_linear" x1="5712.93" y1="2374.81" x2="5856.61" y2="4347.32" gradientUnits="userSpaceOnUse">
<stop stop-color="#4C505D"/>
<stop offset="1" stop-color="#363944"/>
</linearGradient>
<linearGradient id="paint8_linear" x1="1441.47" y1="1491.42" x2="1567.97" y2="1491.42" gradientUnits="userSpaceOnUse">
<stop stop-color="#8E4230"/>
<stop offset="1" stop-color="#8E4230"/>
</linearGradient>
<linearGradient id="paint9_linear" x1="1217.91" y1="2055.55" x2="1706" y2="3696.82" gradientUnits="userSpaceOnUse">
<stop stop-color="#4C505D"/>
<stop offset="1" stop-color="#363944"/>
</linearGradient>
<linearGradient id="paint10_linear" x1="74.0004" y1="102" x2="130" y2="102" gradientUnits="userSpaceOnUse">
<stop stop-color="#FEBBC1"/>
<stop offset="1" stop-color="#B3A2D6"/>
</linearGradient>
<linearGradient id="paint11_linear" x1="110.152" y1="108.497" x2="110.152" y2="113.409" gradientUnits="userSpaceOnUse">
<stop stop-color="#4C505D"/>
<stop offset="1" stop-color="#363944"/>
</linearGradient>
<linearGradient id="paint12_linear" x1="14160.6" y1="1934.39" x2="14193.7" y2="2641.82" gradientUnits="userSpaceOnUse">
<stop stop-color="#4C505D"/>
<stop offset="1" stop-color="#363944"/>
</linearGradient>
<clipPath id="clip0">
<rect width="72.0874" height="72.0874" fill="white" transform="translate(0 44)"/>
</clipPath>
<clipPath id="clip1">
<rect width="68" height="68" fill="white" transform="translate(62)"/>
</clipPath>
<clipPath id="clip2">
<rect width="56" height="56" fill="white" transform="translate(74 74)"/>
</clipPath>
</defs>
</svg>
