<svg width="211" height="50" viewBox="0 0 211 50" fill="none" xmlns="http://www.w3.org/2000/svg">
<path d="M16 9C7.15556 9 0 16.1556 0 25C0 33.8444 7.15556 41 16 41C24.8444 41 32 33.8444 32 25C32 16.1556 24.8444 9 16 9ZM11.4667 34.1556C10.2222 34.1556 9.2 33.1333 9.2 31.8889C9.2 30.6444 10.2222 29.6222 11.4667 29.6222C12.7111 29.6222 13.7333 30.6444 13.7333 31.8889C13.7333 33.1333 12.7111 34.1556 11.4667 34.1556ZM20.5778 27.0889L22.5778 30.5111C22.9778 31.1778 23.0667 31.5333 23.0667 32.0667C23.0667 33.2667 22.1333 34.1556 20.8 34.1556C19.6889 34.1556 19.2 33.7556 18.4444 32.3778L15.7778 27.5778L14.3111 25C14.1778 24.7333 14.3556 24.4222 14.6667 24.4222H15.8222C17.5111 24.4222 18.4889 23.4444 18.4889 21.8889C18.4889 20.3333 17.4222 19.3111 15.7778 19.3111H13.8222H13.1111H11.3333C11.2 19.3111 11.0667 19.2222 10.9778 19.1333L9.46667 16.4667C9.33333 16.2 9.51111 15.8889 9.82222 15.8889H10.8H16.2222C20.7111 15.8889 23.1556 18.1111 23.1556 21.8444C23.1556 23.8444 22.3111 25.6222 20.6667 26.6C20.5333 26.6444 20.4889 26.9111 20.5778 27.0889Z" fill="white"/>
<rect x="46" width="1" height="50" fill="#C4C4C4"/>
<path fill-rule="evenodd" clip-rule="evenodd" d="M99.3001 30.5999L99.6001 29.6999H94.4001L94.2001 29.9999C93.4001 31.3999 91.9001 32.2999 89.9001 32.2999C88.6001 32.2999 87.5001 31.8999 86.7001 31.1999C86.1001 30.5999 85.6001 29.8999 85.3001 28.8999H99.5001L99.6001 28.2999C99.7001 27.8999 99.7001 27.3999 99.7001 26.9999C99.7001 21.4999 95.8001 16.8999 89.9001 16.8999C84.3001 16.8999 80.1001 21.1999 80.1001 26.8999C80.1001 32.5999 84.3001 36.8999 89.9001 36.8999C94.2001 37.0999 97.7001 34.6999 99.3001 30.5999ZM89.9001 21.6999C91.1001 21.6999 92.2001 22.0999 93.0001 22.6999C93.6001 23.1999 94.1001 23.7999 94.4001 24.6999H85.4001C86.2001 22.8999 87.8001 21.6999 89.9001 21.6999Z" fill="white"/>
<path fill-rule="evenodd" clip-rule="evenodd" d="M111.161 21.953L111 21.9C109.6 21.6 108.4 21.3 107.6 20.8C107.2 20.6 106.9 20.3 106.7 20.1C106.5 19.9 106.4 19.6 106.4 19.1C106.4 18.4 106.7 17.9 107.3 17.5C107.9 17.1 108.8 16.8 109.9 16.8C111 16.8 111.9 17.1 112.6 17.6C113.2 18.1 113.6 18.8 113.6 19.7V20.4H118.7V19.8C118.7 17.5 117.9 15.5 116.4 14.1C114.8 12.7 112.7 12 110 12C107.4 12 105.2 12.6 103.7 13.9C102.1 15.2 101.3 17 101.3 19.3C101.3 20.6 101.6 21.7 102.1 22.5C102.6 23.4 103.3 24.1 104.1 24.6C105.7 25.6 107.7 26.1 109.4 26.5H109.5C110.9 26.8 112.1 27.1 113 27.6C113.4 27.8 113.7 28.1 113.9 28.4C114.1 28.7 114.2 29 114.2 29.5C114.2 30.3 113.8 31 113.1 31.5C112.4 32 111.4 32.3 110.3 32.3C109.1 32.3 108 32 107.3 31.4C106.6 30.8 106.2 30 106.2 28.9V28.2H101V28.9C101 31.4 102 33.5 103.6 35C105.3 36.4 107.6 37.2 110.3 37.2C112.8 37.2 115 36.6 116.7 35.3C118.4 34 119.4 32 119.4 29.5C119.4 26.8 118.2 25.1 116.5 24C114.9 23 112.961 22.453 111.161 21.953ZM108.2 32.6C108.8 32.8 109.5 32.9 110.3 32.9C112.8 32.9 114.9 31.6 114.9 29.5C114.9 28 113.8 27.2 112.3 26.7C113.8 27.2 114.9 28 114.9 29.5C114.9 31.6 112.8 32.9 110.3 32.9C109.5 32.9 108.8 32.8 108.2 32.6Z" fill="white"/>
<path fill-rule="evenodd" clip-rule="evenodd" d="M130.1 37.1001C135.9 37.1001 140.3 32.8001 140.3 27.1001C140.3 21.4001 135.9 17.1001 130.1 17.1001C124.3 17.1001 119.9 21.3001 119.9 27.1001C119.9 32.9001 124.3 37.1001 130.1 37.1001ZM130.1 32.3001C127.1 32.3001 124.9 30.2001 124.9 27.1001C124.9 24.1001 127 21.9001 130.1 21.9001C133.1 21.9001 135.2 24.0001 135.2 27.1001C135.2 30.2001 133.1 32.3001 130.1 32.3001Z" fill="white"/>
<path fill-rule="evenodd" clip-rule="evenodd" d="M158.6 28.5V17.5H153.6V28C153.6 29.4 153.2 30.5 152.6 31.2C152 31.9 151.1 32.3 149.8 32.3C148.6 32.3 147.6 31.9 147 31.2C146.4 30.5 146 29.4 146 28V17.5H141V28.5C141 31.1 141.9 33.2 143.4 34.8C145 36.3 147.2 37.2 149.8 37.2C152.4 37.2 154.6 36.4 156.2 34.8C157.7 33.2 158.6 31 158.6 28.5Z" fill="white"/>
<path fill-rule="evenodd" clip-rule="evenodd" d="M168.9 17.3999C166.8 17.3999 165.1 17.9999 163.8 19.1999L163.4 17.4999H159.7V36.6999H164.7V26.4999C164.7 24.9999 165.1 23.8999 165.7 23.1999C166.3 22.4999 167.2 22.0999 168.6 22.0999H171.2V17.3999H168.9Z" fill="white"/>
<path fill-rule="evenodd" clip-rule="evenodd" d="M190.5 29.7001L190.7 28.9001H185.7L185.5 29.3001C184.6 31.2001 183 32.3001 180.9 32.3001C178.1 32.3001 175.9 30.0001 175.9 27.1001C175.9 24.1001 178 21.9001 180.9 21.9001C183 21.9001 184.7 23.0001 185.5 24.8001L185.7 25.2001H190.6L190.4 24.4001C189.3 20.0001 185.6 17.1001 180.9 17.1001C175.2 17.1001 170.9 21.4001 170.9 27.1001C170.9 32.8001 175.2 37.1001 180.9 37.1001C185.6 37.1001 189.4 34.2001 190.5 29.7001Z" fill="white"/>
<path fill-rule="evenodd" clip-rule="evenodd" d="M210.5 30.5999L210.8 29.6999H205.6L205.4 29.9999C204.6 31.3999 203.1 32.2999 201.1 32.2999C199.8 32.2999 198.7 31.8999 197.9 31.1999C197.3 30.5999 196.8 29.8999 196.5 28.8999H210.7L210.8 28.2999C210.9 27.8999 210.9 27.3999 210.9 26.9999C210.9 21.4999 207 16.8999 201.1 16.8999C195.5 16.8999 191.3 21.1999 191.3 26.8999C191.3 32.5999 195.5 36.8999 201.1 36.8999C205.5 37.0999 209 34.6999 210.5 30.5999ZM201.2 21.6999C202.4 21.6999 203.5 22.0999 204.3 22.6999C204.9 23.1999 205.4 23.7999 205.7 24.6999H196.7C197.5 22.8999 199.1 21.6999 201.2 21.6999Z" fill="white"/>
<path d="M76.4001 27.5001C76.3001 27.2001 76.3001 26.9001 76.6001 26.8001C78.8001 25.5001 79.9001 23.0001 79.9001 20.3001C79.9001 15.2001 76.6001 12.1001 70.6001 12.1001H61.9001C61.5001 12.1001 61.2001 12.5001 61.4001 12.9001L63.4001 16.6001C63.5001 16.8001 63.7001 16.9001 63.9001 16.9001H69.9001C72.1001 16.9001 73.5001 18.3001 73.5001 20.4001C73.5001 22.5001 72.2001 23.9001 69.9001 23.9001H68.4001C68.0001 23.9001 67.8001 24.3001 67.9001 24.7001L69.8001 28.2001L73.4001 34.8001C74.4001 36.7001 75.1001 37.2001 76.6001 37.2001C78.4001 37.2001 79.7001 36.0001 79.7001 34.3001C79.7001 33.6001 79.6001 33.0001 79.0001 32.1001L76.4001 27.5001Z" fill="white"/>
<path d="M64 37.2C65.7 37.2 67 35.8 67 34.1C67 32.4 65.6 31 64 31C62.3 31 61 32.4 61 34.1C61 35.8 62.4 37.2 64 37.2Z" fill="white"/>
</svg>
