<?xml version="1.0" encoding="utf-8"?>
<!-- Generator: Adobe Illustrator 25.4.1, SVG Export Plug-In . SVG Version: 6.00 Build 0)  -->
<svg version="1.1" id="Layer_1" xmlns="http://www.w3.org/2000/svg" xmlns:xlink="http://www.w3.org/1999/xlink" x="0px" y="0px"
	 viewBox="0 0 2076.433 1382.074" style="enable-background:new 0 0 2076.433 1382.074;" xml:space="preserve">
<style type="text/css">
	.st0{fill-rule:evenodd;clip-rule:evenodd;fill:#F0F0F0;}
	.st1{fill-rule:evenodd;clip-rule:evenodd;fill:#1A1A1A;}
	.st2{fill-rule:evenodd;clip-rule:evenodd;fill:#E6ADA1;}
	.st3{fill-rule:evenodd;clip-rule:evenodd;fill:#FFC7BB;}
	.st4{fill-rule:evenodd;clip-rule:evenodd;fill:#FFFFFF;}
	.st5{fill-rule:evenodd;clip-rule:evenodd;fill:#FF6666;}
	.st6{fill-rule:evenodd;clip-rule:evenodd;fill:#5A78ED;}
	.st7{fill-rule:evenodd;clip-rule:evenodd;fill:#FFD940;}
	.st8{fill-rule:evenodd;clip-rule:evenodd;}
	.st9{fill-rule:evenodd;clip-rule:evenodd;fill:#333333;}
	.st10{fill-rule:evenodd;clip-rule:evenodd;fill:#EB4171;}
</style>
<g>
	<path class="st0" d="M1292.862,955.113l0.035,0.036c20.268,20.308,20.268,53.439,0,73.711l-51.749,51.754
		c-23.599,23.602-23.635,62.141-0.036,85.745l51.785,51.789c20.268,20.272,20.268,53.4,0,73.673l-0.035,0.035
		c-20.27,20.308-53.397,20.273-73.667,0l-51.783-51.789c-23.602-23.602-62.135-23.602-85.735,0l-51.783,51.789
		c-20.269,20.273-53.396,20.308-73.667,0l-0.035-0.035c-20.27-20.273-20.27-53.401,0-73.673l51.785-51.789
		c23.599-23.641,23.599-62.143-0.036-85.745l-51.749-51.754c-20.27-20.272-20.27-53.403,0-73.711l0.035-0.036
		c20.27-20.272,53.397-20.272,73.667,0l51.783,51.792c23.599,23.602,62.133,23.602,85.735,0l51.783-51.792
		C1239.465,934.841,1272.591,934.841,1292.862,955.113z"/>
	<path class="st0" d="M503.53,365.509l0.035,0.036c20.268,20.308,20.268,53.439,0,73.711l-51.749,51.754
		c-23.599,23.602-23.635,62.14-0.036,85.744l51.785,51.79c20.268,20.272,20.268,53.4,0,73.672l-0.035,0.036
		c-20.27,20.308-53.397,20.272-73.667,0l-51.783-51.789c-23.602-23.602-62.135-23.602-85.735,0l-51.783,51.789
		c-20.27,20.272-53.396,20.308-73.667,0l-0.035-0.036c-20.27-20.272-20.27-53.4,0-73.672l51.785-51.79
		c23.599-23.64,23.599-62.142-0.036-85.744l-51.749-51.754c-20.27-20.272-20.27-53.403,0-73.711l0.035-0.036
		c20.27-20.272,53.397-20.272,73.667,0l51.783,51.792c23.599,23.602,62.133,23.602,85.735,0l51.783-51.792
		C450.133,345.237,483.26,345.237,503.53,365.509z"/>
	<path class="st0" d="M1187.8,322.834l0.01,0.01c6.01,6.024,6.01,15.848,0,21.859l-15.344,15.346
		c-6.998,6.998-7.008,18.426-0.011,25.425l15.355,15.356c6.01,6.011,6.01,15.835,0,21.846l-0.01,0.011
		c-6.01,6.02-15.833,6.01-21.844,0l-15.354-15.357c-7-6.998-18.424-6.998-25.422,0l-15.356,15.357c-6.01,6.01-15.831,6.02-21.843,0
		l-0.011-0.011c-6.009-6.01-6.009-15.835,0-21.846l15.355-15.356c7-7.012,7-18.427-0.01-25.425l-15.345-15.346
		c-6.009-6.011-6.009-15.835,0-21.859l0.011-0.01c6.012-6.011,15.832-6.011,21.843,0l15.356,15.357
		c6.998,7.001,18.422,7.001,25.422,0l15.354-15.357C1171.966,316.823,1181.789,316.823,1187.8,322.834z"/>
	<path class="st1" d="M881.023,326.37c0.035,0.087,0.076,0.181,0.114,0.27c9.258,22.23-1.252,47.754-23.477,57.016
		c-8.565,3.566-17.617,4.201-26.037,2.357c-5.498-1.201-9.418-5.644-9.923-11.252c-0.506-5.608,2.556-10.679,7.754-12.846
		l8.817-3.674c11.284-4.702,18.182-15.623,18.399-27.153c0.109-6.051,4.327-11.064,10.268-12.215
		C872.877,317.722,878.66,320.797,881.023,326.37z"/>
	<path class="st2" d="M854.134,339.229L854.134,339.229c-12.579,6.184-17.815,21.533-11.633,34.112l14.896,30.322l6.038,12.292
		l0.021,0.043l14.873,30.279c6.183,12.579,21.529,17.816,34.107,11.635l0,0c12.583-6.182,17.816-21.53,11.635-34.112l-14.863-30.254
		l-0.033-0.065l-6.038-12.294l-14.896-30.321C882.061,338.285,866.714,333.048,854.134,339.229z"/>
	<path class="st1" d="M931.565,305.877c0.021,0.066,0.041,0.142,0.064,0.214c5.206,17.703-4.923,36.274-22.624,41.483
		c-6.822,2.006-13.771,1.736-20.033-0.369c-4.088-1.372-6.704-5.084-6.623-9.399c0.081-4.313,2.835-7.923,6.975-9.14l7.022-2.066
		c8.988-2.643,15.151-10.39,16.273-19.155c0.588-4.601,4.218-8.07,8.838-8.452C926.078,298.61,930.229,301.434,931.565,305.877z"/>
	<path class="st1" d="M885.312,387.973c24.623-8.645,48.189-5.387,52.633,7.278c4.447,12.666-11.91,29.942-36.533,38.587
		c-24.622,8.646-48.188,5.387-52.636-7.278C844.332,413.895,860.69,396.619,885.312,387.973z"/>
	<path class="st3" d="M870.82,303.863c24.34-4.839,47.993,10.973,52.832,35.316c4.836,24.338-10.972,47.998-35.312,52.835
		c-24.337,4.839-47.992-10.973-52.831-35.315C830.671,332.356,846.481,308.7,870.82,303.863z"/>
	<path class="st1" d="M920.21,275.386c0.025,0.089,0.056,0.189,0.084,0.283c6.791,23.1-6.425,47.336-29.523,54.131
		c-8.901,2.617-17.97,2.266-26.141-0.481c-5.336-1.793-8.749-6.634-8.642-12.263c0.104-5.628,3.701-10.341,9.1-11.93l9.166-2.696
		c11.728-3.45,19.771-13.556,21.235-24.994c0.766-6.006,5.504-10.529,11.534-11.029C913.05,265.905,918.466,269.591,920.21,275.386z
		"/>
	<path class="st1" d="M893.266,276.363c0.036,0.084,0.076,0.179,0.115,0.27c9.258,22.227-1.253,47.754-23.477,57.013
		c-8.566,3.569-17.619,4.203-26.04,2.36c-5.498-1.202-9.416-5.647-9.923-11.255c-0.504-5.606,2.558-10.68,7.756-12.844l8.818-3.676
		c11.281-4.7,18.182-15.622,18.396-27.151c0.111-6.051,4.329-11.064,10.27-12.215C885.121,267.715,890.904,270.79,893.266,276.363z"
		/>
	<path class="st1" d="M864.64,314.898c-0.061-0.015-0.128-0.031-0.193-0.048c-15.763-4-31.781,5.539-35.78,21.303
		c-1.543,6.074-1.074,12.186,0.988,17.632c1.343,3.557,4.698,5.738,8.497,5.524c3.792-0.214,6.883-2.762,7.817-6.446l1.586-6.255
		c2.031-8.004,8.649-13.692,16.332-14.97c4.032-0.669,6.965-3.981,7.15-8.065C871.221,319.491,868.596,315.93,864.64,314.898z"/>
	<path class="st3" d="M834.392,346.362c6.987-1.388,13.776,3.149,15.169,10.14c1.387,6.986-3.149,13.778-10.136,15.165
		c-6.987,1.388-13.776-3.149-15.166-10.137C822.871,354.542,827.408,347.753,834.392,346.362z"/>
	<path class="st1" d="M835.71,323.794c-0.015-0.013-0.031-0.026-0.043-0.039c-3.578-3.185-9.062-2.867-12.246,0.713
		c-1.228,1.377-1.935,3.039-2.134,4.743c-0.132,1.113,0.448,2.138,1.472,2.596c1.02,0.461,2.173,0.214,2.917-0.623l1.265-1.421
		c1.616-1.815,4.118-2.403,6.3-1.696c1.145,0.372,2.362-0.097,2.962-1.138C836.808,325.887,836.604,324.601,835.71,323.794z"/>
	<path class="st1" d="M834.12,327.091c-0.021,0-0.041-0.003-0.059-0.003c-4.788-0.179-8.525-4.203-8.346-8.989
		c0.068-1.846,0.708-3.534,1.74-4.904c0.677-0.894,1.805-1.232,2.862-0.855c1.053,0.374,1.715,1.352,1.675,2.469l-0.072,1.902
		c-0.089,2.428,1.308,4.585,3.376,5.585c1.082,0.522,1.637,1.703,1.351,2.871C836.36,326.337,835.322,327.126,834.12,327.091z"/>
	<path class="st1" d="M880.63,358.363c14.273-2.838,28.143,6.434,30.982,20.708c2.838,14.275-6.432,28.146-20.705,30.98
		c-14.273,2.839-28.143-6.433-30.982-20.707C857.092,375.071,866.358,361.202,880.63,358.363z"/>
	<path class="st4" d="M892.009,367.103c-0.779,3.895-4.009,7.016-8.171,7.467c-4.157,0.45-7.983-1.902-9.581-5.542
		c-0.229-0.52-0.198-1.067,0.087-1.558c0.282-0.494,0.743-0.792,1.308-0.856l14.478-1.57c0.565-0.062,1.077,0.132,1.461,0.552
		C891.976,366.016,892.121,366.545,892.009,367.103z"/>
	<path class="st1" d="M877.23,246.198c23.76,0,45.279,9.636,60.847,25.208c15.571,15.573,25.206,37.092,25.206,60.858
		c0,23.759-9.635,45.284-25.206,60.854c-15.568,15.573-37.087,25.209-60.847,25.209c-23.762,0-45.279-9.636-60.847-25.209
		c-15.574-15.57-25.208-37.095-25.208-60.854c0-23.766,9.634-45.285,25.208-60.858C831.951,255.834,853.468,246.198,877.23,246.198
		L877.23,246.198z M936.68,272.804c-15.212-15.214-36.235-24.626-59.45-24.626c-23.22,0-44.24,9.412-59.45,24.626
		c-15.215,15.213-24.625,36.237-24.625,59.46c0,23.218,9.41,44.243,24.625,59.457c15.209,15.214,36.229,24.625,59.45,24.625
		c23.215,0,44.238-9.411,59.45-24.625c15.212-15.214,24.623-36.239,24.623-59.457C961.302,309.041,951.891,288.017,936.68,272.804z"
		/>
	<path class="st1" d="M809.034,425.481h0.003c28.534-8.882,59.147,7.199,68.025,35.735l39.794,127.868
		c8.878,28.535-7.198,59.152-35.734,68.034h-0.003c-28.532,8.882-59.144-7.2-68.025-35.736l-39.791-127.871
		C764.422,464.979,780.502,434.363,809.034,425.481z"/>
	<path class="st0" d="M1228.509,1221.178c333.285,26.596,603.471,74.816,603.471,107.7c0,32.884-270.185,37.978-603.471,11.382
		c-333.285-26.595-603.471-74.815-603.471-107.697C625.038,1199.678,895.224,1194.581,1228.509,1221.178z"/>
	<path class="st1" d="M1600.825,178.798c42.287,9.651,70.983,48.197,66.704,94.296c-4.956,53.367-52.228,96.626-105.587,96.626
		c-17.884,0-34.173-4.868-47.753-13.335c6.669,1.522,13.677,2.334,20.947,2.334c53.358,0,100.631-43.258,105.587-96.626
		C1644.016,226.608,1627.768,195.597,1600.825,178.798z"/>
	<path class="st5" d="M1579.885,176.469c8.891,0,17.388,1.209,25.357,3.457c27.179,16.744,43.599,47.887,40.29,83.543
		c-4.956,53.368-52.228,96.626-105.587,96.626c-8.891,0-17.393-1.209-25.36-3.46c-27.181-16.744-43.599-47.881-40.287-83.54
		C1479.252,219.727,1526.527,176.469,1579.885,176.469z"/>
	<path class="st6" d="M885.297,395.265c24.623-8.646,48.189-5.388,52.633,7.278c4.447,12.665-11.91,29.941-36.533,38.587
		c-24.625,8.645-48.188,5.387-52.636-7.279C844.317,421.183,860.674,403.91,885.297,395.265z"/>
	<path class="st1" d="M537.319,701.279c-0.624-0.127-1.194,0.262-1.268,0.874c-0.074,0.611,0.369,1.214,0.99,1.341
		c4.899,1.014,9.599,2.51,14.026,4.415c4.564,1.96,8.853,4.366,12.788,7.117c0.532,0.372,1.235,0.268,1.562-0.233
		c0.329-0.502,0.163-1.21-0.371-1.584c-4.076-2.848-8.513-5.336-13.239-7.367C547.231,703.871,542.371,702.321,537.319,701.279
		L537.319,701.279z M580.302,727.685c-0.395-0.514-1.113-0.647-1.597-0.297c-0.483,0.349-0.555,1.056-0.16,1.571
		c4.309,5.585,7.555,11.744,9.484,18.164c1.85,6.176,2.489,12.617,1.695,19.05c-1.725,13.929-9.861,25.181-21.614,32.121
		c-11.803,6.966-27.257,9.593-43.563,6.227c-1.644-0.341-3.182-0.685-4.625-1.026c-1.525-0.366-3.037-0.758-4.516-1.163
		c-0.611-0.168-1.207,0.183-1.324,0.781c-0.117,0.598,0.287,1.225,0.902,1.393c1.532,0.419,3.069,0.815,4.589,1.181
		c1.622,0.382,3.174,0.735,4.643,1.039l0.099,0.017c16.846,3.473,32.837,0.738,45.068-6.482
		c12.269-7.242,20.771-19.004,22.591-33.558l0.011-0.104c0.827-6.723,0.153-13.467-1.79-19.944
		C588.178,739.93,584.79,733.502,580.302,727.685L580.302,727.685z M488.417,794.408c0.581,0.285,1.245,0.066,1.482-0.49
		c0.234-0.555-0.043-1.239-0.621-1.525c-3.011-1.486-5.948-3.067-8.791-4.722c-2.872-1.672-5.68-3.441-8.401-5.29
		c-0.537-0.362-1.235-0.25-1.555,0.257c-0.318,0.504-0.145,1.214,0.392,1.576c2.769,1.881,5.625,3.683,8.55,5.384
		C482.393,791.302,485.381,792.908,488.417,794.408L488.417,794.408z M446.883,763.634c0.444,0.476,1.161,0.537,1.604,0.136
		c0.441-0.4,0.438-1.116-0.005-1.591c-11.244-12.097-19.875-25.924-25.132-40.575c-5.053-14.08-6.997-28.943-5.16-43.78
		c2.268-18.345,10.04-34.404,21.744-47.24c12.147-13.322,28.545-23.2,47.445-28.592c0.585-0.165,0.883-0.791,0.665-1.392
		c-0.216-0.598-0.874-0.95-1.459-0.784c-19.264,5.496-35.988,15.572-48.386,29.169c-11.985,13.144-19.939,29.587-22.266,48.37
		c-1.879,15.191,0.112,30.41,5.289,44.839C426.592,737.163,435.405,751.284,446.883,763.634L446.883,763.634z M498.852,596.994
		c-0.604,0.104-0.965,0.69-0.81,1.3c0.155,0.614,0.777,1.027,1.38,0.924c3.326-0.583,6.725-1.044,10.166-1.356
		c3.388-0.311,6.858-0.492,10.388-0.533c0.624-0.007,1.079-0.519,1.018-1.146c-0.064-0.623-0.619-1.124-1.242-1.117
		c-3.544,0.04-7.072,0.226-10.564,0.548C505.694,595.935,502.237,596.398,498.852,596.994L498.852,596.994z M562.557,601.001
		c46.936,12.533,86.979,39.638,113.939,73.945c26.809,34.108,40.694,75.348,35.606,116.49c-1.174,9.481-3.314,18.575-6.323,27.221
		c-3.083,8.841-7.08,17.217-11.89,25.053c-0.313,0.509-1.009,0.634-1.548,0.277c-0.539-0.354-0.723-1.062-0.412-1.571
		c4.73-7.706,8.665-15.947,11.702-24.664c2.955-8.482,5.058-17.433,6.213-26.784c5.01-40.501-8.677-81.122-35.092-114.732
		c-26.631-33.89-66.201-60.667-112.599-73.054c-0.616-0.161-1.024-0.784-0.914-1.388
		C561.349,601.194,561.941,600.84,562.557,601.001L562.557,601.001z M644.193,891.425c0.519-0.298,0.659-0.985,0.313-1.532
		c-0.347-0.545-1.052-0.746-1.571-0.445c-3.567,2.064-7.255,4.009-11.05,5.821c-3.783,1.805-7.663,3.478-11.623,5.005
		c-0.566,0.216-0.807,0.868-0.54,1.454c0.267,0.583,0.944,0.878,1.51,0.662c4.021-1.548,7.954-3.243,11.773-5.066
		C636.827,895.501,640.561,893.528,644.193,891.425L644.193,891.425z M613.243,905.246c-15.431,5.087-32.076,8.167-49.487,8.977
		c-16.836,0.782-34.389-0.558-52.256-4.246c-54.29-11.207-102.502-36.98-139.604-71.336
		c-38.027-35.208-64.398-79.443-73.725-126.263c-0.119-0.622,0.277-1.179,0.891-1.247c0.613-0.066,1.211,0.379,1.331,0.998
		c9.222,46.308,35.324,90.075,72.967,124.925c36.769,34.044,84.568,59.592,138.418,70.709c17.689,3.651,35.049,4.977,51.681,4.206
		c17.204-0.799,33.658-3.845,48.916-8.875c0.578-0.186,1.242,0.143,1.482,0.735C614.095,904.425,613.821,905.06,613.243,905.246
		L613.243,905.246z M295.096,690.7c-0.535-6.35-0.743-12.748-0.624-19.167c0.119-6.334,0.562-12.671,1.342-18.974
		c4.678-37.831,20.842-70.88,45.185-97.186c25.19-27.22,59.157-47.227,98.237-57.848c0.588-0.161,1.24,0.198,1.451,0.799
		c0.208,0.601-0.094,1.221-0.682,1.38c-38.702,10.519-72.335,30.328-97.28,57.281c-24.055,25.995-40.028,58.655-44.654,96.042
		c-0.776,6.266-1.214,12.52-1.331,18.737c-0.12,6.312,0.092,12.635,0.621,18.934c0.054,0.626-0.41,1.133-1.035,1.133
		C295.701,691.832,295.152,691.323,295.096,690.7L295.096,690.7z M453.173,494.192c-0.598,0.122-0.945,0.723-0.766,1.334
		c0.175,0.612,0.809,1.006,1.41,0.884c3.355-0.7,6.75-1.339,10.174-1.901c3.416-0.563,6.825-1.06,10.207-1.475
		c0.613-0.071,1.006-0.636,0.881-1.255c-0.125-0.619-0.728-1.059-1.342-0.988c-3.503,0.43-6.944,0.93-10.302,1.482
		C459.984,492.843,456.558,493.487,453.173,494.192L453.173,494.192z M505.416,488.869c-0.623,0.003-1.087,0.512-1.028,1.135
		c0.058,0.624,0.608,1.131,1.235,1.128c9.347-0.013,18.836,0.468,28.418,1.458c9.398,0.97,18.928,2.439,28.544,4.422
		c0.621,0.128,1.194-0.265,1.268-0.876c0.074-0.609-0.369-1.214-0.992-1.342c-9.655-1.991-19.267-3.473-28.782-4.453
		C524.388,489.342,514.819,488.856,505.416,488.869z"/>
	<path class="st1" d="M463.098,855.634c18.068,27.202,27.145,61.089,23.734,97.837c-8.321,89.597-87.689,162.231-177.275,162.231
		c-71.484,0-127.872-46.25-143.514-110.458c25.984,39.121,70.568,64.398,123.412,64.398c89.585,0,168.957-72.631,177.275-162.228
		C468.413,889.308,467.061,871.894,463.098,855.634z"/>
	<path class="st7" d="M339.685,791.24c54.198,0,99.716,26.594,125.38,67.438c4.04,16.372,5.422,33.92,3.727,52.173
		c-8.318,89.597-87.687,162.231-177.272,162.231c-54.201,0-99.717-26.594-125.38-67.438c-4.04-16.371-5.425-33.92-3.729-52.173
		C170.731,863.874,250.099,791.24,339.685,791.24z"/>
	<path class="st1" d="M464.602,935.666c-0.496,2.017-1.035,4.015-1.606,6.006c-23.101,29.424-49.83,60.713-60.384,62.564
		c-3.658,0.638-5.383-0.504-5.605-3.108c-0.43-5.056,6.949-16.732,16.23-31.41c12.257-19.378,27.896-44.114,32.812-64.559
		c1.219-5.066,0.54-7.452-1.625-7.772c-7.705-1.153-30.647,15.797-57.166,35.389c-31.635,23.373-68.301,50.468-91.714,55.637
		c-6.865,1.514-10.105,0.552-10.495-2.393c-0.942-7.12,21.186-27.75,47.015-51.82c36.307-33.841,80.074-74.633,75.805-90.977
		c-1.647-6.304-9.938-5.975-22.337-1.721c-16.642,5.705-40.331,18.454-65.56,32.031c-46.211,24.867-97.591,52.517-121.72,45.435
		c-30.861-9.057,41.8-74.76,100.447-122.623c1.737-0.438,3.488-0.838,5.242-1.22c-58.236,46.993-133.055,113.041-104.744,121.348
		c23.111,6.785,73.966-20.583,119.706-45.195c25.346-13.64,49.141-26.444,65.992-32.225c13.956-4.783,23.388-4.789,25.501,3.31
		c4.663,17.859-39.784,59.286-76.658,93.655c-25.243,23.526-46.872,43.688-46.114,49.437c0.175,1.316,2.51,1.553,7.588,0.433
		c22.803-5.033,59.208-31.935,90.616-55.143c27.026-19.969,50.409-37.24,59.208-35.926c3.79,0.57,5.19,3.865,3.543,10.715
		c-5.022,20.885-20.809,45.853-33.178,65.411c-8.998,14.234-16.153,25.553-15.799,29.735c0.081,0.949,0.944,1.327,2.8,1
		C412.812,999.853,441.127,965.949,464.602,935.666z"/>
	<path class="st1" d="M354.754,1009.935c3.195-2.406,6.596-3.924,9.505-4.43c3.173-0.562,5.844,0.069,7.237,2.012
		c1.395,1.94,1.184,4.743-0.283,7.683c-1.347,2.691-3.775,5.565-6.967,7.971c-3.194,2.406-6.595,3.923-9.504,4.43
		c-3.174,0.563-5.844-0.066-7.237-2.008c-1.393-1.943-1.181-4.746,0.285-7.683C349.134,1015.215,351.562,1012.34,354.754,1009.935
		L354.754,1009.935z M364.483,1008.051c-2.489,0.433-5.447,1.769-8.28,3.902c-2.833,2.134-4.961,4.631-6.106,6.935
		c-1.026,2.057-1.247,3.918-0.423,5.069c0.827,1.15,2.625,1.486,4.844,1.097c2.49-0.43,5.448-1.767,8.281-3.903
		c2.833-2.133,4.96-4.628,6.106-6.932c1.026-2.059,1.247-3.917,0.422-5.068C368.503,1008,366.706,1007.661,364.483,1008.051z"/>
	<path class="st1" d="M369.356,1021.972c1.41-1.062,2.926-1.736,4.23-1.97c1.578-0.286,2.922,0.056,3.655,1.079
		c0.734,1.02,0.649,2.438-0.081,3.895c-0.611,1.206-1.693,2.492-3.103,3.554c-1.407,1.059-2.927,1.733-4.228,1.97
		c-1.579,0.283-2.925-0.058-3.658-1.079c-0.73-1.024-0.648-2.441,0.084-3.898C366.865,1024.317,367.947,1023.033,369.356,1021.972
		L369.356,1021.972z M373.815,1022.549c-0.886,0.158-1.965,0.652-3.011,1.442c-1.047,0.787-1.828,1.697-2.243,2.515
		c-0.285,0.576-0.382,1.052-0.219,1.278c0.163,0.229,0.634,0.275,1.255,0.166c0.885-0.158,1.967-0.652,3.014-1.439
		c1.046-0.789,1.827-1.698,2.241-2.517c0.285-0.576,0.384-1.049,0.218-1.278C374.907,1022.485,374.436,1022.44,373.815,1022.549z"/>
	<path class="st7" d="M617.387,428.617c22.46-7.461,44.852-0.906,50.016,14.643c5.168,15.55-8.852,34.203-31.312,41.665
		c-22.459,7.461-44.851,0.906-50.015-14.644C580.908,454.732,594.928,436.079,617.387,428.617z"/>
	<path class="st1" d="M327.762,770.651c45.062,0,84.169,18.271,110.957,47.807c26.791,29.531,41.27,70.344,37.085,115.411
		c-4.185,45.069-26.245,85.88-58.518,115.411c-32.274,29.537-74.774,47.808-119.836,47.808c-45.066,0-84.175-18.271-110.96-47.808
		c-26.789-29.531-41.271-70.343-37.085-115.411c4.187-45.068,26.247-85.88,58.52-115.411
		C240.195,788.922,282.699,770.651,327.762,770.651L327.762,770.651z M437.192,819.856c-26.463-29.177-65.094-47.228-109.614-47.228
		c-44.521,0-86.505,18.05-118.385,47.228c-31.882,29.172-53.675,69.487-57.808,114.013c-4.134,44.526,10.169,84.842,36.632,114.014
		c26.463,29.177,65.096,47.227,109.617,47.227s86.502-18.049,118.385-47.227c31.882-29.172,53.672-69.488,57.808-114.014
		C477.961,889.343,463.658,849.028,437.192,819.856z"/>
	<path class="st1" d="M302.024,809.995c3.195-2.403,6.596-3.923,9.505-4.429c3.174-0.563,5.844,0.068,7.237,2.011
		c1.392,1.942,1.181,4.743-0.286,7.683c-1.343,2.693-3.772,5.567-6.964,7.973c-3.195,2.403-6.596,3.923-9.505,4.43
		c-3.174,0.563-5.844-0.068-7.237-2.011c-1.392-1.943-1.184-4.743,0.283-7.683C296.405,815.275,298.833,812.402,302.024,809.995
		L302.024,809.995z M311.753,808.111c-2.489,0.433-5.447,1.769-8.28,3.903c-2.833,2.136-4.961,4.631-6.106,6.934
		c-1.026,2.06-1.247,3.918-0.423,5.069c0.825,1.151,2.622,1.49,4.842,1.098c2.492-0.43,5.45-1.767,8.283-3.903
		c2.833-2.133,4.961-4.628,6.106-6.932c1.026-2.059,1.247-3.918,0.423-5.069C315.77,808.061,313.976,807.722,311.753,808.111z"/>
	<path class="st1" d="M715.905,866.049c34.453,0,62.384,28.622,62.384,63.928c0,35.305-27.931,63.928-62.384,63.928
		c-34.453,0-62.385-28.622-62.385-63.928C653.52,894.671,681.452,866.049,715.905,866.049z"/>
	<path class="st3" d="M1127.525,671.738c0.855,16.901-13.511,31.362-32.086,32.301c-18.569,0.939-34.323-12.003-35.173-28.904
		c-0.855-16.902,13.514-31.364,32.086-32.301C1110.925,641.896,1126.674,654.837,1127.525,671.738z"/>
	<path class="st3" d="M1055.455,733.064c-3.076,3.358-8.296,3.587-11.656,0.509c-3.358-3.078-3.584-8.299-0.509-11.657
		c0.051-0.058,19.473-20.588,18.71-36.407c-0.227-4.552,3.289-8.43,7.839-8.653c4.552-0.224,8.429,3.289,8.652,7.841
		C1079.598,707.665,1055.52,732.993,1055.455,733.064z"/>
	<path class="st3" d="M1073.382,748.372c-2.869,4.002-8.446,4.921-12.447,2.051c-4.001-2.868-4.921-8.444-2.052-12.449
		c0.048-0.069,18.244-24.615,15.383-41.499c-0.83-4.857,2.441-9.472,7.3-10.302c4.857-0.828,9.472,2.444,10.302,7.301
		C1096.021,717.988,1073.443,748.285,1073.382,748.372z"/>
	<path class="st3" d="M1090.526,746.659c-2.634,4.163-8.147,5.399-12.307,2.764c-4.162-2.635-5.399-8.148-2.765-12.308
		c0.044-0.072,16.801-25.624,12.972-42.317c-1.107-4.801,1.894-9.597,6.697-10.705c4.801-1.107,9.596,1.894,10.701,6.698
		C1111.382,715.025,1090.582,746.57,1090.526,746.659z"/>
	<path class="st3" d="M1122.175,725.707c-1.398,4.066-5.83,6.232-9.895,4.834c-4.067-1.397-6.231-5.83-4.834-9.898
		c0.023-0.069,9.096-25.158,2.472-38.562c-1.909-3.857-0.329-8.536,3.526-10.445c3.856-1.912,8.535-0.331,10.444,3.526
		C1133.502,694.623,1122.205,725.62,1122.175,725.707z"/>
	<path class="st3" d="M1038.634,675.791c-2.922,3.493-2.459,8.699,1.034,11.621c3.492,2.922,8.695,2.462,11.62-1.031
		c0.051-0.058,17.839-22.019,33.619-23.348c4.543-0.376,7.921-4.371,7.544-8.913c-0.379-4.544-4.371-7.922-8.914-7.546
		C1060.627,648.505,1038.697,675.718,1038.634,675.791z"/>
	<path class="st7" d="M1076.496,630.624c6.783-9.015,33.178-49.147-4.386-85.598c-54.721-53.1-126.732-58.512-126.938-58.528
		c-18.529-1.487-29.802-18.195-25.185-37.327c4.615-19.131,23.38-33.444,41.901-31.962c0.267,0.021,93.717,7.06,162.559,73.866
		c63.601,61.718,34.491,133.548,18.957,161.694c3.413,6.54,4.332,13.475,2.026,19.796c-5.611,15.394-28.183,21.304-50.419,13.193
		c-22.232-8.106-35.708-27.154-30.095-42.551C1066.901,637.754,1071.021,633.495,1076.496,630.624z"/>
	<path class="st7" d="M938.314,518.88c48.369-22.013,96.759-19.692,108.079,5.188c11.323,24.88-18.712,62.894-67.081,84.91
		c-48.369,22.014-96.759,19.695-108.081-5.188C859.91,578.91,889.945,540.897,938.314,518.88z"/>
	<path class="st7" d="M904.503,410.465H904.5c-43.147,14.035-67.568,61.011-54.275,104.403l7.331,23.925
		c11.827,38.602,52.91,59.972,91.291,47.487l17.314-5.632c38.384-12.484,60.114-54.281,48.286-92.883l-7.331-23.925
		C993.82,420.448,947.651,396.433,904.503,410.465z"/>
	<path class="st1" d="M769.767,843.104c-5.075-46.117,14.399-62.874,3.251-72.281c-11.147-9.407-29.214,7.151-40.354,36.988
		c-4.691,12.561-7.408,25.473-8.146,36.916c-1.562,24.218,10.811,48.602,21.372,51.219
		C759.89,899.414,773.094,873.335,769.767,843.104z"/>
	<path class="st4" d="M776.831,845.374c-4.745-47.008,14.932-64.299,3.813-73.787c-11.116-9.488-29.377,7.589-40.786,38.143
		c-4.803,12.864-7.629,26.067-8.456,37.749c-1.754,24.73,10.479,49.488,21.061,52.052
		C766.489,902.933,779.939,876.189,776.831,845.374z"/>
	<path class="st7" d="M782.568,841.54c-10.039-44.977,7.265-63.675-4.719-71.733c-11.986-8.057-27.929,10.29-35.612,40.98
		c-3.233,12.922-4.487,25.972-3.961,37.352c1.118,24.088,15.948,46.799,26.614,48.217
		C779.03,898.236,789.149,871.023,782.568,841.54z"/>
	<path class="st6" d="M738.962,855c3.233,21.379,16.283,40.073,25.929,41.357c9.797,1.303,17.665-11.367,19.381-29.083
		c-2.195-1.815-4.544-3.516-7.038-5.069C764.071,854.015,749.913,851.762,738.962,855z"/>
	<path class="st1" d="M765.453,826.019c-16.466-8.083-24.908-26.367-18.849-40.832c6.055-14.465,22.283-25.387,38.747-17.304
		c0.127,0.061,46.229,28.307,76.492-14.997c38.907-55.676,33.427-119.78,33.411-119.96c-1.328-16.507,11.76-28.798,29.238-27.457
		c17.48,1.337,32.73,15.805,34.061,32.306c0.021,0.237,7.12,83.424-41.832,153.471C859.126,873.658,765.72,826.151,765.453,826.019z
		"/>
	<path class="st1" d="M1427.1,661.99c2.418,29.101-15.655,55.58-40.364,59.129c-24.709,3.548-52.892-9.692-55.309-38.795
		c-0.02-0.225,0.874-86.298-83.013-92.245c-107.849-7.645-190.926,52.243-191.161,52.413c-21.458,15.307-48.948,7.474-61.403-17.502
		c-12.46-24.974-5.167-57.632,16.287-72.94c0.308-0.224,108.124-77.922,243.813-68.302
		C1415.597,495.067,1427.062,661.512,1427.1,661.99z"/>
	<path class="st1" d="M1008.221,580.278c35.445,0,57.546,24.5,49.362,54.729c-8.183,30.227-43.551,54.729-78.996,54.729
		c-35.445,0-57.548-24.503-49.364-54.729C937.408,604.778,972.775,580.278,1008.221,580.278z"/>
	<path class="st7" d="M1436.877,575.604c-44.332,96.852-107.264,107.777-94.099,139.044c13.163,31.265,72.768,19.13,133.126-27.11
		c25.414-19.468,46.911-41.881,62.298-63.638c32.573-46.051,34.731-108.29,14.683-125.477
		C1526.31,475.635,1465.939,512.112,1436.877,575.604z"/>
	<path class="st6" d="M1436.875,575.609c-0.832,1.822-1.677,3.6-2.522,5.364c1.033,4.107,2.557,8.098,4.617,11.917
		c17.332,32.131,65.421,39.86,107.725,17.449c24.286-43.946,24.327-96.366,6.193-111.92
		C1526.308,475.633,1465.939,512.112,1436.875,575.609z"/>
	<path class="st4" d="M1450.134,586.803c-54.175,91.707-117.902,96.017-108.066,128.484c9.836,32.469,70.38,26.608,135.227-13.096
		c27.302-16.716,51.017-36.764,68.586-56.799c37.189-42.408,45.818-104.085,27.672-123.267
		C1549.495,496.695,1485.651,526.681,1450.134,586.803z"/>
	<path class="st1" d="M1458.855,605.254c-56.67,86.431-122.079,87.181-112.383,119.352c9.696,32.169,71.859,29.735,138.844-5.443
		c28.201-14.812,52.765-33.065,71.026-51.636c38.653-39.313,48.247-98.946,29.866-118.619
		C1561.843,522.827,1496.006,548.593,1458.855,605.254z"/>
	<path class="st1" d="M957.787,545.653c47.226-24.373,95.669-24.44,108.203-0.148c12.534,24.292-15.591,63.742-62.814,88.115
		c-47.226,24.371-95.672,24.44-108.206,0.147C882.435,609.476,910.56,570.026,957.787,545.653z"/>
	<path class="st7" d="M596.58,475.707c-6.42-19.567,1.644-40.688,18.012-47.166c16.368-6.476,37.866-2.008,44.284,17.559
		c0.051,0.15,13.522,59.338,72.038,49.688c75.226-12.405,122.415-67.079,122.547-67.236c12.216-14.012,32.351-13.137,44.981,1.957
		c12.634,15.092,12.974,38.687,0.764,52.699c-0.176,0.203-61.418,71.145-156.066,86.75
		C631.781,588.323,596.684,476.028,596.58,475.707z"/>
	<path class="st6" d="M774.22,482.534c22.724-9.407,41.224-21.695,54.59-32.247c3.525,5.119,5.59,11.319,5.59,18.001
		c0,17.548-14.224,31.777-31.773,31.777C790.202,500.065,779.442,492.929,774.22,482.534z"/>
	<path class="st1" d="M196.324,985.737c-0.505-3.724-1.836-6.932-3.571-9.099c-1.887-2.37-4.312-3.561-6.801-3.006
		c-2.487,0.557-4.46,2.728-5.618,5.778c-1.062,2.793-1.472,6.39-0.968,10.117c0.505,3.724,1.833,6.932,3.571,9.099
		c1.887,2.37,4.312,3.562,6.802,3.007c2.487-0.558,4.457-2.729,5.618-5.779C196.418,993.062,196.827,989.464,196.324,985.737
		L196.324,985.737z M190.657,978.357c1.489,1.85,2.632,4.653,3.08,7.958c0.445,3.307,0.104,6.44-0.807,8.828
		c-0.814,2.134-2.062,3.626-3.535,3.956c-1.474,0.329-3.04-0.534-4.363-2.191c-1.489-1.851-2.632-4.654-3.08-7.958
		c-0.445-3.308-0.104-6.441,0.805-8.829c0.814-2.133,2.064-3.625,3.538-3.956C187.768,975.836,189.334,976.699,190.657,978.357z"/>
	<path class="st1" d="M182.522,961.407c-0.221-1.643-0.817-3.073-1.589-4.048c-0.934-1.185-2.176-1.765-3.484-1.472
		c-1.308,0.293-2.324,1.378-2.894,2.889c-0.469,1.261-0.655,2.864-0.433,4.509c0.224,1.642,0.82,3.072,1.591,4.048
		c0.934,1.184,2.173,1.764,3.484,1.471c1.308-0.293,2.321-1.377,2.894-2.889C182.56,964.656,182.746,963.052,182.522,961.407
		L182.522,961.407z M178.833,959.075c0.524,0.662,0.939,1.69,1.102,2.91c0.166,1.222,0.046,2.367-0.272,3.221
		c-0.229,0.595-0.516,1.003-0.809,1.067c-0.293,0.066-0.673-0.191-1.042-0.655c-0.524-0.662-0.939-1.69-1.105-2.91
		c-0.165-1.222-0.046-2.367,0.275-3.221c0.229-0.595,0.517-1,0.81-1.066C178.085,958.355,178.462,958.611,178.833,959.075z"/>
	<path class="st1" d="M626.62,529.545c-0.242-0.487-0.046-1.079,0.44-1.321c0.484-0.243,1.079-0.046,1.321,0.437
		c0,0,0.973,1.403,3.015,3.801l-1.502,1.281C627.734,531.205,626.62,529.548,626.62,529.545L626.62,529.545z M639.204,543.232
		c-0.407-0.362-0.44-0.988-0.079-1.393c0.362-0.407,0.988-0.44,1.393-0.079l2.517,2.192l2.762,2.256
		c0.425,0.336,0.499,0.959,0.163,1.385c-0.336,0.425-0.959,0.499-1.385,0.163l-2.812-2.296L639.204,543.232L639.204,543.232z
		 M654.105,554.52c-0.455-0.293-0.59-0.904-0.3-1.362c0.29-0.458,0.903-0.593,1.361-0.3c14.099,8.978,33.929,17.265,59.885,18.403
		c19.811,0.866,43.205-2.423,70.349-12.744c0.509-0.191,1.079,0.069,1.273,0.578c0.19,0.508-0.069,1.079-0.578,1.273
		c-27.417,10.42-51.072,13.747-71.126,12.869C688.604,572.08,668.447,563.652,654.105,554.52L654.105,554.52z M800.929,554.199
		c-0.496,0.224-1.082,0-1.306-0.497c-0.224-0.497,0-1.082,0.497-1.306c3.012-1.362,6.059-2.803,9.125-4.323
		c3.07-1.52,6.201-3.139,9.375-4.844c0.481-0.26,1.082-0.079,1.339,0.402c0.258,0.479,0.076,1.08-0.401,1.336
		c-3.185,1.711-6.331,3.34-9.439,4.878C807.003,551.388,803.938,552.842,800.929,554.199z"/>
	<path class="st4" d="M1058.27,580.138c-0.021-0.545,0.405-1.008,0.949-1.028c0.548-0.021,1.009,0.404,1.028,0.949
		c0,0.007,0.502,2.217,1.042,6.054c0.071,0.537-0.305,1.038-0.845,1.112c-0.538,0.075-1.039-0.305-1.11-0.842
		C1058.784,582.467,1058.27,580.143,1058.27,580.138L1058.27,580.138z M1059.981,591.821c-0.051-0.542,0.349-1.028,0.888-1.082
		c0.542-0.051,1.028,0.349,1.082,0.888c0.296,2.974,0.54,6.434,0.644,10.242c0.104,3.791,0.064,7.926-0.211,12.261
		c-0.033,0.542-0.507,0.957-1.049,0.924c-0.542-0.033-0.955-0.507-0.921-1.049c0.269-4.272,0.312-8.345,0.208-12.079
		C1060.518,598.201,1060.275,594.782,1059.981,591.821L1059.981,591.821z M1059.441,623.427c0.074-0.537,0.575-0.914,1.115-0.84
		c0.54,0.076,0.914,0.578,0.84,1.117c-1.415,9.801-4.236,20.132-9.362,29.712c-5.142,9.603-12.608,18.447-23.309,25.229
		c-0.458,0.29-1.071,0.153-1.364-0.306c-0.29-0.461-0.153-1.074,0.305-1.364c10.393-6.586,17.643-15.171,22.632-24.488
		C1055.297,643.144,1058.054,633.029,1059.441,623.427z"/>
	<path class="st1" d="M619.019,424.348c19.918-6.619,39.778-0.805,44.357,12.986c4.581,13.79-7.853,30.333-27.769,36.95
		c-19.918,6.619-39.776,0.805-44.358-12.986C586.668,447.507,599.103,430.964,619.019,424.348z"/>
	<path class="st3" d="M583.707,433.136c-0.244-4.132,0.27-8.149,1.429-11.938c-6.217-23.083,4.454-53.143,4.487-53.24
		c1.647-4.921,6.972-7.576,11.892-5.932c4.918,1.645,7.575,6.974,5.931,11.894c-0.015,0.053-4.5,12.785-5.463,26.13
		c2.049-1.247,4.233-2.337,6.527-3.239c0.909-26.365,19.036-54.36,19.094-54.454c3.138-5.043,9.777-6.594,14.822-3.457
		c1.685,1.048,2.98,2.49,3.841,4.131c1.232-1.851,1.994-2.892,2.006-2.91c3.421-4.86,10.138-6.024,14.998-2.602
		c4.859,3.422,6.023,10.141,2.599,15c-0.046,0.068-15.541,21.339-18.173,40.208c7.883-18.829,22.304-34.254,22.363-34.315
		c3.678-4.084,9.973-4.411,14.059-0.73c4.082,3.679,4.408,9.974,0.727,14.06c-0.058,0.069-23.288,25.038-22.206,44.122
		c0.04,0.708,0.004,1.405-0.097,2.079c1.044,2.661,1.765,5.469,2.113,8.396c6.517-6.14,10.872-11.603,10.9-11.639
		c3.492-4.241,9.767-4.852,14.013-1.36c4.24,3.494,4.851,9.771,1.359,14.012c-0.064,0.079-19.72,24.88-42.932,33.185
		c-6.099,4.063-13.491,6.65-21.555,7.125C604.034,468.978,584.902,453.523,583.707,433.136z"/>
	<path class="st1" d="M583.707,433.136c-0.244-4.132,0.27-8.149,1.429-11.938c-6.217-23.083,4.454-53.143,4.487-53.24
		c1.647-4.921,6.972-7.576,11.892-5.932c4.918,1.645,7.575,6.974,5.931,11.894c-0.015,0.053-4.5,12.785-5.463,26.13
		c2.049-1.247,4.233-2.337,6.527-3.239c0.909-26.365,19.036-54.36,19.094-54.454c3.138-5.043,9.777-6.594,14.822-3.457
		c1.685,1.048,2.98,2.49,3.841,4.131c1.232-1.851,1.994-2.892,2.006-2.91c3.421-4.86,10.138-6.024,14.998-2.602
		c4.859,3.422,6.023,10.141,2.599,15c-0.046,0.068-15.541,21.339-18.173,40.208c7.883-18.829,22.304-34.254,22.363-34.315
		c3.678-4.084,9.973-4.411,14.059-0.73c4.082,3.679,4.408,9.974,0.727,14.06c-0.043,0.051-13.379,14.389-19.379,29.638
		c-20.849,21.856-47.742,37.886-77.991,45.432C585.319,442.647,583.996,438.036,583.707,433.136z"/>
	<path class="st1" d="M621.991,196.575c27.624,17.558,44.931,49.656,42.778,86.356c-3.262,55.531-49.833,100.546-104.024,100.546
		c-30.156,0-56.314-13.946-73.025-35.883c14.176,9.004,31.062,14.177,49.432,14.177c54.191,0,100.766-45.015,104.024-100.546
		C642.625,236.606,635.302,214.055,621.991,196.575z"/>
	<path class="st6" d="M572.551,182.385c18.582,0,35.645,5.293,49.917,14.487c14.53,17.798,22.629,41.314,21.115,67.102
		c-3.259,55.529-49.833,100.546-104.024,100.546c-18.582,0-35.644-5.293-49.917-14.488c-14.529-17.798-22.627-41.315-21.115-67.102
		C471.786,227.4,518.36,182.385,572.551,182.385z"/>
	<path class="st8" d="M638.097,209.625c14.099-7.55,27.25-14.065,39.083-19.373c33.203-14.891,56.291-20.222,61.385-12.462
		c2.996,4.562-0.634,13.037-9.591,24.239c-1.393,8.795-13.669,23.79-33.702,42.107c-8.781,8.029-19.055,16.725-30.55,25.842
		l-0.003-0.036v-0.035l-0.005-0.039l-0.003-0.035l-0.002-0.036l-0.003-0.036v-0.038l-0.005-0.036l-0.003-0.036l-0.003-0.035
		l-0.137-1.739v-0.036l-0.004-0.039l-0.003-0.035l-0.005-0.036v-0.036l-0.005-0.035h0.003c11.051-8.799,20.942-17.19,29.431-24.949
		c17.365-15.878,28.838-28.992,32.251-37.359c-6.022,7.077-13.947,15.104-23.484,23.826c-10.979,10.035-24.098,21.031-38.91,32.579
		l-0.146-0.924l-0.007-0.038l-0.005-0.036l-0.005-0.039l-0.004-0.038l-0.008-0.036l-0.005-0.038l-0.007-0.036l-0.005-0.039
		l-0.117-0.7l-0.008-0.036l-0.005-0.038l-0.008-0.036l-0.005-0.036l-0.007-0.038l-0.005-0.036l-0.007-0.038l-0.005-0.036
		l-0.007-0.039l-0.005-0.035l-0.008-0.039l-0.005-0.035c14.402-11.258,27.17-21.976,37.882-31.77
		c10.964-10.023,19.771-19.035,25.964-26.616c0.033-1.166-0.208-2.166-0.745-2.983c-4.075-6.209-24.396-1.118-53.944,12.133
		c-7.573,3.396-15.736,7.334-24.378,11.762c-0.367-0.535-0.738-1.067-1.118-1.594c8.759-4.488,17.035-8.483,24.706-11.924
		c30.48-13.669,51.674-18.562,56.347-11.438c0.384,0.583,0.647,1.237,0.797,1.957c7.306-9.371,10.246-16.326,7.85-19.974
		c-4.439-6.764-26.574-1.22-58.763,13.217c-11.642,5.222-24.571,11.62-38.434,19.033
		C639.11,210.667,638.606,210.142,638.097,209.625L638.097,209.625z M478.877,333.537c-6.6,5.488-12.679,10.774-18.17,15.791
		c-23.902,21.853-36.644,38.477-32.566,44.687l0.208,0.29c10.314-2.072,24.763-7.274,42.144-15.068
		c9.97-4.471,20.883-9.806,32.516-15.899l0.453,0.359l0.025,0.023l0.059,0.044l0.025,0.023l0.03,0.021l0.028,0.025l0.028,0.021
		l0.029,0.022l0.028,0.023l0.028,0.021l0.028,0.022l0.031,0.023l0.028,0.022l0.026,0.021l0.03,0.022l0.168,0.133l0.031,0.022
		l0.025,0.023l0.031,0.022l0.028,0.021l0.028,0.022l0.029,0.023l0.031,0.022l0.028,0.021l0.028,0.023l0.028,0.02l0.028,0.023
		l0.029,0.022l0.03,0.021l0.028,0.023l0.028,0.02l0.028,0.023l0.028,0.022l0.028,0.023l0.031,0.02l0.028,0.021l0.028,0.023
		l0.028,0.022l0.031,0.023l0.025,0.02l0.084,0.069c-11.985,6.29-23.215,11.792-33.463,16.389
		c-16.454,7.378-30.424,12.411-40.949,14.664c7.012,3.011,25.808-2.332,51.676-13.933c8.561-3.839,17.882-8.373,27.792-13.521
		l0.031,0.021l0.025,0.018l0.03,0.02l0.03,0.018l0.025,0.018l0.031,0.021l0.03,0.017l0.029,0.021l0.028,0.018l0.031,0.021
		l0.028,0.017l0.031,0.021l0.025,0.018l0.03,0.018l0.03,0.021l0.028,0.017l0.029,0.021l0.03,0.018l0.697,0.451l0.029,0.02
		l0.031,0.018l0.028,0.021l0.03,0.018l0.028,0.018l0.031,0.017l0.03,0.021l0.025,0.018l0.031,0.021l0.03,0.015l0.029,0.02
		l0.031,0.018l0.028,0.021l0.031,0.018l0.175,0.109l0.029,0.021l0.03,0.018c-10.307,5.374-19.99,10.094-28.864,14.073
		c-28.435,12.755-48.786,17.866-55.186,12.711c-9.209,1.637-15.372,0.838-17.719-2.734c-5.096-7.76,8.968-26.833,35.825-51.389
		c7.972-7.286,17.072-15.079,27.127-23.221c0.226,0.718,0.461,1.428,0.702,2.136c-9.779,7.933-18.641,15.527-26.414,22.638
		c-26.037,23.803-39.92,41.913-35.479,48.678c1.876,2.864,6.926,3.521,14.563,2.233c-3.983-7.357,8.902-24.64,33.117-46.781
		c5.61-5.13,11.831-10.532,18.587-16.143C478.284,332.357,478.579,332.948,478.877,333.537z"/>
	<path class="st4" d="M638.097,209.625c0.509,0.517,1.013,1.042,1.51,1.574c-24.997,13.365-53.027,30.033-82.031,49.086
		c-31.811,20.893-60.526,41.848-83.953,60.854c-0.242-0.708-0.476-1.418-0.702-2.136c23.376-18.926,51.925-39.743,83.5-60.481
		C585.266,239.576,613.167,222.975,638.097,209.625L638.097,209.625z M647.103,220.327c-25.572,13.111-55.268,30.463-86.144,50.743
		c-31.892,20.947-60.419,41.975-82.962,60.692c0.288,0.595,0.583,1.186,0.881,1.775c22.528-18.73,51.129-39.822,83.143-60.847
		c30.93-20.315,60.651-37.681,86.201-50.768C647.854,221.386,647.48,220.855,647.103,220.327L647.103,220.327z M504.818,364.761
		l-0.084-0.069l0.087,0.066L504.818,364.761L504.818,364.761z M503.461,363.697l-0.453-0.359l0.002-0.003L503.461,363.697z"/>
	<path class="st1" d="M533.534,197.476c2.408-1.95,5.052-3.182,7.374-3.591c2.532-0.456,4.747,0.056,6.022,1.629
		c1.275,1.575,1.316,3.849,0.349,6.232c-0.889,2.184-2.643,4.516-5.05,6.466c-2.411,1.952-5.053,3.182-7.374,3.595
		c-2.533,0.455-4.748-0.057-6.023-1.632c-1.275-1.576-1.316-3.847-0.349-6.233C529.372,201.758,531.126,199.429,533.534,197.476
		L533.534,197.476z M541.282,195.949c-1.985,0.351-4.286,1.435-6.422,3.167c-2.135,1.729-3.675,3.755-4.432,5.621
		c-0.674,1.67-0.715,3.179,0.041,4.111c0.756,0.934,2.24,1.209,4.009,0.891c1.988-0.349,4.287-1.433,6.425-3.165
		c2.136-1.731,3.673-3.755,4.429-5.623c0.677-1.67,0.718-3.177-0.038-4.111C544.538,195.908,543.054,195.633,541.282,195.949z"/>
	<path class="st1" d="M546.282,207.239c1.063-0.86,2.245-1.407,3.283-1.599c1.258-0.232,2.375,0.046,3.044,0.876
		c0.673,0.827,0.713,1.979,0.23,3.16c-0.408,0.98-1.186,2.022-2.25,2.882c-1.062,0.86-2.243,1.407-3.281,1.599
		c-1.257,0.229-2.375-0.049-3.047-0.876c-0.67-0.83-0.71-1.978-0.226-3.16C544.438,209.142,545.22,208.1,546.282,207.239
		L546.282,207.239z M549.942,207.708c-0.705,0.129-1.545,0.529-2.335,1.168c-0.788,0.639-1.354,1.377-1.626,2.039
		c-0.189,0.469-0.234,0.853-0.084,1.039c0.151,0.186,0.538,0.222,1.032,0.132c0.708-0.127,1.544-0.526,2.334-1.166
		c0.789-0.639,1.357-1.377,1.629-2.041c0.189-0.466,0.232-0.853,0.082-1.036C550.823,207.657,550.438,207.619,549.942,207.708z"/>
	<path class="st1" d="M531.037,319.527c1.061-0.86,2.242-1.408,3.281-1.599c1.26-0.232,2.374,0.046,3.047,0.876
		c0.672,0.827,0.71,1.978,0.226,3.16c-0.405,0.98-1.186,2.021-2.248,2.881c-1.061,0.861-2.242,1.408-3.281,1.599
		c-1.26,0.229-2.377-0.048-3.047-0.876c-0.672-0.83-0.71-1.978-0.226-3.159C529.194,321.428,529.973,320.388,531.037,319.527
		L531.037,319.527z M534.697,319.995c-0.708,0.13-1.545,0.53-2.334,1.169c-0.789,0.639-1.357,1.377-1.63,2.039
		c-0.188,0.469-0.231,0.853-0.081,1.039c0.15,0.186,0.534,0.221,1.031,0.132c0.705-0.128,1.544-0.527,2.334-1.166
		c0.789-0.639,1.354-1.378,1.629-2.042c0.189-0.465,0.232-0.85,0.082-1.035C535.578,319.945,535.194,319.906,534.697,319.995z"/>
	<path class="st1" d="M608.038,306.862c2.407-1.953,5.053-3.183,7.374-3.595c2.532-0.455,4.747,0.056,6.023,1.632
		c1.275,1.576,1.316,3.846,0.348,6.232c-0.888,2.182-2.642,4.514-5.05,6.466c-2.408,1.951-5.053,3.183-7.374,3.592
		c-2.532,0.455-4.748-0.056-6.023-1.629c-1.275-1.576-1.316-3.849-0.348-6.232C603.875,311.143,605.629,308.812,608.038,306.862
		L608.038,306.862z M615.786,305.334c-1.986,0.348-4.284,1.433-6.422,3.164c-2.136,1.732-3.674,3.755-4.432,5.624
		c-0.675,1.669-0.716,3.177,0.04,4.112c0.756,0.931,2.24,1.207,4.009,0.888c1.988-0.348,4.287-1.433,6.425-3.164
		c2.135-1.729,3.675-3.755,4.432-5.621c0.674-1.671,0.716-3.18-0.04-4.112C619.042,305.291,617.557,305.016,615.786,305.334z"/>
	<path class="st1" d="M995.439,505.042c0.548,0,0.991,0.444,0.991,0.988c0,0.548-0.443,0.991-0.991,0.991
		c-0.003,0-1.41,0.277-4.075,0.894l-0.44-1.927C993.744,505.334,995.435,505.042,995.439,505.042L995.439,505.042z M984.362,507.639
		c0.527-0.14,1.069,0.175,1.209,0.702c0.14,0.527-0.172,1.07-0.699,1.21l-4.569,1.285l-5.18,1.591
		c-0.516,0.165-1.077-0.122-1.242-0.639c-0.165-0.516,0.122-1.077,0.639-1.242l5.226-1.607L984.362,507.639L984.362,507.639z
		 M967.877,512.781c0.516-0.183,1.081,0.086,1.263,0.603c0.183,0.515-0.087,1.079-0.601,1.263
		c-8.294,2.93-17.803,6.831-27.494,11.889c-7.815,4.078-15.777,8.931-23.363,14.653c-0.435,0.329-1.059,0.24-1.385-0.193
		c-0.328-0.436-0.239-1.056,0.194-1.385c7.656-5.777,15.716-10.687,23.64-14.821C949.954,519.66,959.541,515.726,967.877,512.781z"
		/>
	<path class="st1" d="M976.781,973.286h0.003c0,15.275,12.495,27.772,27.768,27.772v0.003c-15.273,0-27.768,12.5-27.768,27.775
		h-0.003c0-15.275-12.498-27.775-27.771-27.775v-0.003C964.283,1001.058,976.781,988.56,976.781,973.286z"/>
	<path class="st1" d="M658.871,83.524L658.871,83.524c0,9.593,7.85,17.446,17.444,17.446l0,0c-9.594,0-17.444,7.851-17.444,17.446
		l0,0c0-9.594-7.85-17.446-17.444-17.446l0,0C651.021,100.971,658.871,93.117,658.871,83.524z"/>
	<path class="st1" d="M480.051,429.526h0.003c0,7.829,6.404,14.234,14.234,14.234v0.003c-7.83,0-14.234,6.405-14.234,14.236h-0.003
		c0-7.831-6.405-14.236-14.232-14.236v-0.003C473.646,443.76,480.051,437.354,480.051,429.526z"/>
	<path class="st1" d="M1367.182,373.208h0.003c0,17.147,14.027,31.173,31.169,31.173v0.003c-17.142,0-31.169,14.03-31.169,31.174
		h-0.003c0-17.144-14.026-31.174-31.169-31.174v-0.003C1353.156,404.381,1367.182,390.354,1367.182,373.208z"/>
	<path class="st1" d="M551.337,696.42c28.304,19.649,43.182,47.199,33.234,61.532c-9.95,14.333-40.959,10.023-69.262-9.628
		c-28.301-19.651-43.182-47.2-33.232-61.532C492.025,672.458,523.034,676.768,551.337,696.42z"/>
	<path class="st1" d="M565.424,680.727c14.443,10.031,26.185,21.647,34.321,33.179c-7.499-8.824-16.999-17.466-28.094-25.173
		c-36.627-25.427-76.752-31.01-89.627-12.459c-7.8,11.232-3.808,28.737,8.687,46.451c-17.25-20.294-23.887-41.529-14.914-54.457
		C488.672,649.719,528.799,655.3,565.424,680.727z"/>
	<path class="st1" d="M495.774,758.456c-14.442-10.028-26.185-21.645-34.32-33.177c7.496,8.823,16.996,17.466,28.094,25.173
		c36.624,25.427,76.751,31.008,89.627,12.459c7.799-11.232,3.807-28.739-8.688-46.451c17.249,20.295,23.885,41.53,14.912,54.457
		C572.523,789.466,532.398,783.883,495.774,758.456z"/>
	<path class="st4" d="M546.404,701.955c6.555,4.549,11.885,9.822,15.576,15.056c-3.401-4.005-7.713-7.928-12.751-11.423
		c-16.622-11.543-34.832-14.076-40.677-5.657c-3.541,5.099-1.728,13.045,3.943,21.082c-7.829-9.208-10.841-18.847-6.768-24.715
		C511.568,687.879,529.781,690.412,546.404,701.955z"/>
	<path class="st4" d="M514.791,737.231c-6.554-4.552-11.882-9.824-15.576-15.058c3.403,4.005,7.715,7.928,12.75,11.426
		c16.625,11.541,34.835,14.073,40.679,5.654c3.538-5.099,1.729-13.045-3.943-21.082c7.828,9.211,10.841,18.847,6.769,24.715
		C549.626,751.305,531.416,748.772,514.791,737.231z"/>
	<path class="st1" d="M1710.382,550.275L1710.382,550.275c0,10.28,8.41,18.689,18.686,18.689v0.003
		c-10.277,0-18.686,8.412-18.686,18.689l0,0c0-10.277-8.411-18.689-18.686-18.689v-0.003
		C1701.972,568.964,1710.382,560.556,1710.382,550.275z"/>
	<path class="st1" d="M1629.273,263.581c0.641-0.313,1.42-0.043,1.733,0.598c0.311,0.641,0.043,1.421-0.598,1.733
		c-0.054,0.026-18.957,8.943-8.077,8.969c21.586,0.05-2.276,14.111-2.341,14.151c-0.609,0.37-1.408,0.179-1.777-0.43
		c-0.372-0.608-0.178-1.407,0.43-1.776c0.04-0.028,15.724-9.315,3.684-9.346C1599.582,277.427,1629.188,263.619,1629.273,263.581z"
		/>
	<path class="st1" d="M1470.225,241.012c0.506-0.507,1.332-0.507,1.838,0c0.506,0.507,0.506,1.334,0,1.84
		c-0.005,0.005-2.408,2.94-5.379,7.207c-0.41,0.586-1.219,0.73-1.807,0.323c-0.586-0.408-0.731-1.217-0.323-1.805
		C1467.637,244.154,1470.221,241.017,1470.225,241.012L1470.225,241.012z M1459.838,255.877c0.364-0.616,1.163-0.823,1.779-0.458
		c0.614,0.364,0.82,1.16,0.456,1.776c-0.692,1.171-1.342,2.322-1.906,3.404c-0.542,1.036-1.067,2.103-1.543,3.168
		c-0.29,0.651-1.057,0.947-1.711,0.654c-0.652-0.29-0.945-1.056-0.655-1.708c0.481-1.077,1.029-2.19,1.616-3.307
		C1458.526,258.155,1459.191,256.972,1459.838,255.877L1459.838,255.877z M1454.675,266.803c0.212-0.679,0.942-1.056,1.622-0.845
		c0.682,0.214,1.059,0.945,0.845,1.625c-0.69,2.164-1.041,4.175-0.876,5.848c0.15,1.53,0.761,2.782,1.976,3.605
		c1.339,0.906,3.451,1.379,6.511,1.252c5.485-0.229,13.773-2.39,25.836-7.311l0.859-0.348c0.664-0.268,1.425,0.054,1.693,0.716
		c0.267,0.662-0.054,1.423-0.716,1.69l-0.86,0.349c-12.34,5.036-20.927,7.25-26.707,7.492c-3.65,0.151-6.272-0.486-8.067-1.697
		c-1.922-1.301-2.874-3.211-3.101-5.492C1453.484,271.636,1453.884,269.283,1454.675,266.803L1454.675,266.803z M1516.785,263.624
		c-0.674,0.244-1.421-0.1-1.665-0.771c-0.244-0.674,0.097-1.421,0.771-1.665c40.228-14.88,92.833-31.566,132.538-41.021
		c32.257-7.678,56.26-10.435,58.989-3.454c6.532,16.695-49.69,64.556-49.848,64.696c-0.54,0.465-1.359,0.407-1.825-0.136
		c-0.469-0.539-0.41-1.356,0.132-1.825c0.153-0.132,54.96-46.873,49.125-61.791c-2.138-5.466-25.002-2.34-55.978,5.035
		C1609.426,232.125,1556.937,248.772,1516.785,263.624z"/>
	<path class="st1" d="M428.532,1204.872c90.709,0,164.242,12.172,164.242,27.186c0,15.018-73.534,27.189-164.242,27.189
		c-90.708,0-164.241-12.171-164.241-27.189C264.291,1217.044,337.824,1204.872,428.532,1204.872z"/>
	<path class="st1" d="M347.688,235.38c-0.715,0-1.298-0.583-1.298-1.3c0-0.716,0.584-1.299,1.298-1.299h68.733
		c0.718,0,1.298,0.583,1.298,1.299c0,0.718-0.58,1.3-1.298,1.3H347.688z"/>
	<path class="st1" d="M424.668,235.38c-0.715,0-1.298-0.583-1.298-1.3c0-0.716,0.583-1.299,1.298-1.299h13.746
		c0.717,0,1.298,0.583,1.298,1.299c0,0.718-0.58,1.3-1.298,1.3H424.668z"/>
	<path class="st1" d="M347.688,245.518c-0.715,0-1.298-0.583-1.298-1.301c0-0.715,0.584-1.298,1.298-1.298h10.991
		c0.717,0,1.301,0.583,1.301,1.298c0,0.718-0.584,1.301-1.301,1.301H347.688z"/>
	<path class="st1" d="M347.688,255.655c-0.715,0-1.298-0.583-1.298-1.298c0-0.718,0.584-1.301,1.298-1.301h90.727
		c0.717,0,1.298,0.583,1.298,1.301c0,0.715-0.58,1.298-1.298,1.298H347.688z"/>
	<path class="st1" d="M347.688,265.793c-0.715,0-1.298-0.583-1.298-1.299c0-0.718,0.584-1.298,1.298-1.298h28.519
		c0.718,0,1.299,0.58,1.299,1.298c0,0.716-0.58,1.299-1.299,1.299H347.688z"/>
	<path class="st1" d="M368.311,245.518c-0.717,0-1.3-0.583-1.3-1.301c0-0.715,0.583-1.298,1.3-1.298h53.947
		c0.717,0,1.299,0.583,1.299,1.298c0,0.718-0.581,1.301-1.299,1.301H368.311z"/>
	<path class="st1" d="M382.745,265.793c-0.718,0-1.301-0.583-1.301-1.299c0-0.718,0.583-1.298,1.301-1.298h8.242
		c0.718,0,1.298,0.58,1.298,1.298c0,0.716-0.58,1.299-1.298,1.299H382.745z"/>
	<path class="st1" d="M382.745,215.615c-0.718,0-1.301-0.58-1.301-1.299c0-0.718,0.583-1.298,1.301-1.298h15.115
		c0.717,0,1.298,0.58,1.298,1.298c0,0.719-0.581,1.299-1.298,1.299H382.745z"/>
	<path class="st1" d="M696.984,287.186c-0.716,0-1.299-0.581-1.299-1.299c0-0.718,0.583-1.299,1.299-1.299h8.245
		c0.716,0,1.299,0.581,1.299,1.299c0,0.717-0.583,1.299-1.299,1.299H696.984z"/>
	<path class="st1" d="M696.984,278.764c-0.716,0-1.299-0.584-1.299-1.301c0-0.716,0.583-1.299,1.299-1.299h36.421
		c0.717,0,1.3,0.583,1.3,1.299c0,0.718-0.583,1.301-1.3,1.301H696.984z"/>
	<path class="st1" d="M233.187,755.918c-0.717,0-1.298-0.584-1.298-1.299c0-0.719,0.581-1.299,1.298-1.299h8.243
		c0.717,0,1.3,0.58,1.3,1.299c0,0.715-0.583,1.299-1.3,1.299H233.187z"/>
	<path class="st1" d="M233.187,747.494c-0.717,0-1.298-0.581-1.298-1.299c0-0.716,0.581-1.299,1.298-1.299h36.421
		c0.718,0,1.298,0.583,1.298,1.299c0,0.718-0.58,1.299-1.298,1.299H233.187z"/>
	<path class="st1" d="M499.348,1018.153c-0.718,0-1.3-0.58-1.3-1.299c0-0.718,0.583-1.298,1.3-1.298h10.991
		c0.716,0,1.298,0.58,1.298,1.298c0,0.719-0.583,1.299-1.298,1.299H499.348z"/>
	<path class="st1" d="M499.348,1028.292c-0.718,0-1.3-0.583-1.3-1.301c0-0.716,0.583-1.299,1.3-1.299h90.724
		c0.717,0,1.298,0.583,1.298,1.299c0,0.718-0.581,1.301-1.298,1.301H499.348z"/>
	<path class="st1" d="M499.348,1038.43c-0.718,0-1.3-0.583-1.3-1.302c0-0.715,0.583-1.298,1.3-1.298h28.517
		c0.717,0,1.298,0.583,1.298,1.298c0,0.719-0.581,1.302-1.298,1.302H499.348z"/>
	<path class="st1" d="M519.969,1018.153c-0.718,0-1.301-0.58-1.301-1.299c0-0.718,0.583-1.298,1.301-1.298h53.946
		c0.718,0,1.301,0.58,1.301,1.298c0,0.719-0.583,1.299-1.301,1.299H519.969z"/>
	<path class="st1" d="M534.402,1038.43c-0.718,0-1.298-0.583-1.298-1.302c0-0.715,0.58-1.298,1.298-1.298h8.243
		c0.718,0,1.298,0.583,1.298,1.298c0,0.719-0.58,1.302-1.298,1.302H534.402z"/>
	<path class="st1" d="M693.731,681.919c5.929,0,10.735,4.923,10.735,11c0,6.075-4.806,11.001-10.735,11.001
		c-5.928,0-10.734-4.926-10.734-11.001C682.996,686.842,687.802,681.919,693.731,681.919z"/>
	<path class="st1" d="M368.665,515.584c10.396,0,18.822,8.633,18.822,19.284c0,10.652-8.426,19.287-18.822,19.287
		c-10.392,0-18.818-8.635-18.818-19.287C349.847,524.217,358.273,515.584,368.665,515.584z"/>
	<path class="st1" d="M1239.327,903.546c-0.717,0-1.297-0.581-1.297-1.299c0-0.718,0.58-1.299,1.297-1.299h10.991
		c0.716,0,1.298,0.581,1.298,1.299c0,0.718-0.583,1.299-1.298,1.299H1239.327z"/>
	<path class="st1" d="M1239.327,913.683c-0.717,0-1.297-0.58-1.297-1.298c0-0.719,0.58-1.299,1.297-1.299h90.724
		c0.717,0,1.298,0.58,1.298,1.299c0,0.718-0.581,1.298-1.298,1.298H1239.327z"/>
	<path class="st1" d="M1239.327,923.824c-0.717,0-1.297-0.583-1.297-1.301c0-0.715,0.58-1.298,1.297-1.298h28.517
		c0.718,0,1.3,0.583,1.3,1.298c0,0.719-0.583,1.301-1.3,1.301H1239.327z"/>
	<path class="st1" d="M1259.949,903.546c-0.718,0-1.298-0.581-1.298-1.299c0-0.718,0.58-1.299,1.298-1.299h53.946
		c0.718,0,1.301,0.581,1.301,1.299c0,0.718-0.583,1.299-1.301,1.299H1259.949z"/>
	<path class="st1" d="M1274.381,923.824c-0.718,0-1.298-0.583-1.298-1.301c0-0.715,0.58-1.298,1.298-1.298h8.243
		c0.718,0,1.298,0.583,1.298,1.298c0,0.719-0.58,1.301-1.298,1.301H1274.381z"/>
	<path class="st7" d="M905.503,414.732c-0.677,0.222-1.411-0.147-1.634-0.824c-0.222-0.677,0.145-1.411,0.824-1.635
		c0.005,0,2.828-0.841,7.405-1.625c0.705-0.12,1.378,0.357,1.497,1.061c0.12,0.703-0.357,1.378-1.059,1.497
		C908.096,413.966,905.508,414.732,905.503,414.732L905.503,414.732z M920.671,412.169c-0.713,0.058-1.342-0.471-1.4-1.186
		c-0.056-0.716,0.473-1.345,1.186-1.4l3.528-0.24c1.202-0.056,2.461-0.101,3.778-0.114c0.715-0.005,1.3,0.57,1.306,1.283
		c0.004,0.716-0.57,1.299-1.286,1.306c-1.221,0.011-2.456,0.054-3.66,0.112L920.671,412.169L920.671,412.169z M931.696,411.853
		c-0.713-0.018-1.275-0.616-1.257-1.331c0.02-0.713,0.616-1.276,1.331-1.258c7.461,0.227,15.8,1.38,24.078,4.305
		c8.316,2.935,16.587,7.655,23.889,15.002c0.505,0.507,0.502,1.332-0.005,1.836c-0.507,0.501-1.329,0.499-1.833-0.007
		c-7.001-7.039-14.932-11.566-22.912-14.381C946.974,413.187,938.909,412.072,931.696,411.853z"/>
	<path class="st1" d="M199.712,646.718h0.002c0,13.063,10.689,23.752,23.75,23.752v0.003c-13.061,0-23.75,10.69-23.75,23.753h-0.002
		c0-13.063-10.689-23.753-23.75-23.753v-0.003C189.023,670.47,199.712,659.781,199.712,646.718z"/>
	<path class="st1" d="M463.94,1130.962L463.94,1130.962c0,9.099,7.446,16.545,16.544,16.545l0,0
		c-9.098,0-16.544,7.446-16.544,16.545l0,0c0-9.099-7.445-16.545-16.543-16.545l0,0
		C456.495,1147.507,463.94,1140.061,463.94,1130.962z"/>
	<path class="st1" d="M851.505,525.729c-0.43,0.333-1.052,0.251-1.385-0.179c-0.33-0.433-0.251-1.053,0.18-1.385
		c0.057-0.046,20.848-16.542,29.311-0.715c0.255,0.481,0.075,1.081-0.407,1.336c-0.481,0.254-1.079,0.074-1.334-0.405
		C870.53,510.656,851.559,525.691,851.505,525.729z"/>
	<path class="st1" d="M651.254,1143.917c3.21,0,5.812,2.602,5.812,5.812c0,3.21-2.602,5.812-5.812,5.812
		c-3.209,0-5.811-2.602-5.811-5.812C645.443,1146.519,648.045,1143.917,651.254,1143.917z"/>
	<path class="st1" d="M651.254,1160.87c3.21,0,5.812,2.602,5.812,5.814c0,3.211-2.602,5.812-5.812,5.812
		c-3.209,0-5.811-2.602-5.811-5.812C645.443,1163.472,648.045,1160.87,651.254,1160.87z"/>
	<path class="st1" d="M669.659,1143.917c3.212,0,5.814,2.602,5.814,5.812c0,3.21-2.601,5.812-5.814,5.812
		c-3.21,0-5.812-2.602-5.812-5.812C663.847,1146.519,666.448,1143.917,669.659,1143.917z"/>
	<path class="st1" d="M669.659,1160.87c3.212,0,5.814,2.602,5.814,5.814c0,3.211-2.601,5.812-5.814,5.812
		c-3.21,0-5.812-2.602-5.812-5.812C663.847,1163.472,666.448,1160.87,669.659,1160.87z"/>
	<path class="st1" d="M688.065,1143.917c3.21,0,5.812,2.602,5.812,5.812c0,3.21-2.602,5.812-5.812,5.812
		c-3.209,0-5.811-2.602-5.811-5.812C682.254,1146.519,684.855,1143.917,688.065,1143.917z"/>
	<path class="st1" d="M688.065,1160.87c3.21,0,5.812,2.602,5.812,5.814c0,3.211-2.602,5.812-5.812,5.812
		c-3.209,0-5.811-2.602-5.811-5.812C682.254,1163.472,684.855,1160.87,688.065,1160.87z"/>
	<path class="st1" d="M706.469,1160.87c3.212,0,5.811,2.602,5.811,5.814c0,3.211-2.599,5.812-5.811,5.812
		c-3.21,0-5.812-2.602-5.812-5.812C700.657,1163.472,703.259,1160.87,706.469,1160.87z"/>
	<path class="st1" d="M724.875,1160.87c3.21,0,5.812,2.602,5.812,5.814c0,3.211-2.602,5.812-5.812,5.812
		c-3.209,0-5.811-2.602-5.811-5.812C719.064,1163.472,721.666,1160.87,724.875,1160.87z"/>
	<path class="st1" d="M1318.82,200.468c3.21,0,5.812,2.602,5.812,5.812c0,3.21-2.602,5.812-5.812,5.812
		c-3.212,0-5.814-2.602-5.814-5.812C1313.006,203.07,1315.608,200.468,1318.82,200.468z"/>
	<path class="st1" d="M1318.82,217.42c3.21,0,5.812,2.602,5.812,5.812c0,3.213-2.602,5.815-5.812,5.815
		c-3.212,0-5.814-2.602-5.814-5.815C1313.006,220.022,1315.608,217.42,1318.82,217.42z"/>
	<path class="st1" d="M1337.224,200.468c3.209,0,5.811,2.602,5.811,5.812c0,3.21-2.602,5.812-5.811,5.812
		c-3.21,0-5.812-2.602-5.812-5.812C1331.412,203.07,1334.014,200.468,1337.224,200.468z"/>
	<path class="st1" d="M1337.224,217.42c3.209,0,5.811,2.602,5.811,5.812c0,3.213-2.602,5.815-5.811,5.815
		c-3.21,0-5.812-2.602-5.812-5.815C1331.412,220.022,1334.014,217.42,1337.224,217.42z"/>
	<path class="st1" d="M1355.628,200.468c3.213,0,5.815,2.602,5.815,5.812c0,3.21-2.602,5.812-5.815,5.812
		c-3.209,0-5.811-2.602-5.811-5.812C1349.817,203.07,1352.418,200.468,1355.628,200.468z"/>
	<path class="st1" d="M1355.628,217.42c3.213,0,5.815,2.602,5.815,5.812c0,3.213-2.602,5.815-5.815,5.815
		c-3.209,0-5.811-2.602-5.811-5.815C1349.817,220.022,1352.418,217.42,1355.628,217.42z"/>
	<path class="st1" d="M1374.035,217.42c3.209,0,5.811,2.602,5.811,5.812c0,3.213-2.601,5.815-5.811,5.815
		c-3.21,0-5.812-2.602-5.812-5.815C1368.223,220.022,1370.824,217.42,1374.035,217.42z"/>
	<path class="st1" d="M1392.438,217.42c3.213,0,5.812,2.602,5.812,5.812c0,3.213-2.599,5.815-5.812,5.815
		c-3.209,0-5.811-2.602-5.811-5.815C1386.627,220.022,1389.229,217.42,1392.438,217.42z"/>
	<path class="st4" d="M909.417,634.837c0-0.548,0.445-0.991,0.99-0.991c0.545,0,0.99,0.443,0.99,0.991
		c0,0.025-0.13,8.615-1.426,21.84c-0.051,0.542-0.537,0.939-1.077,0.891c-0.54-0.05-0.937-0.537-0.888-1.077
		C909.29,643.411,909.417,634.859,909.417,634.837L909.417,634.837z M906.165,671.942c0.074-0.54,0.575-0.917,1.114-0.845
		c0.542,0.074,0.919,0.575,0.845,1.115c-3.721,26.423-11.663,61.652-28.553,87.682c-17.006,26.216-43.034,43.116-82.825,32.527
		c-0.526-0.137-0.84-0.682-0.702-1.209c0.137-0.527,0.68-0.843,1.207-0.702c38.752,10.313,64.1-6.154,80.668-31.693
		C894.605,733.097,902.471,698.161,906.165,671.942L906.165,671.942z M784.37,786.253c0.506,0.194,0.759,0.769,0.566,1.275
		c-0.197,0.507-0.769,0.759-1.276,0.563c-2.803-1.141-5.439-2.256-8.208-3.477c-0.494-0.227-0.713-0.813-0.487-1.307
		c0.227-0.493,0.812-0.712,1.306-0.486C779.002,784.023,781.611,785.128,784.37,786.253z"/>
	<path class="st8" d="M976.847,427.171c-0.384-0.384-0.384-1.013,0-1.397c0.384-0.384,1.013-0.384,1.397,0
		c0.003,0.003,1.894,1.547,5.083,4.506c0.397,0.369,0.42,0.996,0.049,1.396c-0.372,0.397-0.998,0.419-1.396,0.048
		C978.764,428.739,976.85,427.174,976.847,427.171L976.847,427.171z M989.031,438.566c-0.38-0.387-0.375-1.016,0.013-1.395
		c0.387-0.38,1.016-0.375,1.395,0.013c1.405,1.425,2.904,2.981,4.459,4.641c1.405,1.497,2.89,3.116,4.43,4.842
		c0.361,0.405,0.328,1.031-0.076,1.392c-0.408,0.362-1.034,0.329-1.396-0.078c-1.496-1.678-2.973-3.29-4.396-4.807
		C991.896,441.509,990.412,439.969,989.031,438.566L989.031,438.566z M1009.664,462.193c-0.333-0.432-0.251-1.051,0.179-1.385
		c0.433-0.333,1.053-0.251,1.385,0.179c6.208,8.032,12.628,17.289,18.582,27.601c5.969,10.328,11.483,21.731,15.884,34.027
		c0.18,0.515-0.087,1.082-0.601,1.266c-0.515,0.18-1.085-0.087-1.265-0.601c-4.363-12.19-9.823-23.48-15.726-33.701
		C1022.188,479.34,1015.821,470.157,1009.664,462.193z"/>
	<path class="st6" d="M972.495,437.237c8.438-1.023,18.137,4.741,21.662,12.877c3.523,8.137-0.461,15.562-8.899,16.589
		c-8.438,1.023-18.137-4.741-21.662-12.877C960.073,445.689,964.057,438.263,972.495,437.237z"/>
	<path class="st1" d="M844.38,445.32c0.753,1.688,1.413,3.427,1.965,5.209c0.932,2.994,1.569,6.12,1.881,9.336h-1.986
		c-0.308-3.017-0.911-5.947-1.779-8.75c-0.54-1.729-1.179-3.416-1.914-5.051C843.164,445.826,843.795,445.572,844.38,445.32
		L844.38,445.32z M848.448,464.334v0.1c0,12.938-5.249,24.655-13.726,33.138c-8.483,8.481-20.2,13.73-33.137,13.73
		c-9.003,0-17.421-2.546-24.569-6.956c-5.554-3.429-10.34-7.989-14.038-13.352l1.884-0.738c3.505,4.972,7.998,9.206,13.188,12.413
		c6.84,4.218,14.901,6.652,23.535,6.652c12.397,0,23.62-5.025,31.739-13.144c8.118-8.121,13.142-19.345,13.142-31.743v-0.1H848.448z
		"/>
	<path class="st1" d="M827.601,272.687c3.192-2.406,6.596-3.923,9.505-4.43c3.172-0.563,5.844,0.068,7.237,2.011
		c1.392,1.943,1.181,4.743-0.286,7.683c-1.344,2.692-3.772,5.568-6.967,7.972c-3.192,2.405-6.593,3.926-9.503,4.432
		c-3.174,0.562-5.847-0.069-7.24-2.012c-1.392-1.943-1.181-4.743,0.285-7.683C821.98,277.967,824.408,275.093,827.601,272.687
		L827.601,272.687z M837.33,270.803c-2.489,0.432-5.447,1.769-8.28,3.902c-2.833,2.136-4.961,4.631-6.109,6.935
		c-1.024,2.059-1.245,3.918-0.42,5.068c0.825,1.151,2.622,1.487,4.842,1.098c2.489-0.43,5.45-1.767,8.283-3.902
		c2.831-2.134,4.961-4.629,6.106-6.932c1.023-2.059,1.247-3.918,0.42-5.069C841.346,270.752,839.549,270.414,837.33,270.803z"/>
	<path class="st1" d="M973.106,438.905L973.106,438.905c3.324,6.986,12,11.978,19.282,11.094l0,0
		c-7.282,0.884-10.52,7.325-7.198,14.31l0,0c-3.324-6.985-11.999-11.978-19.282-11.092v-0.002
		C973.19,452.331,976.427,445.89,973.106,438.905z"/>
	
		<rect x="900.115" y="582.243" transform="matrix(0.6156 -0.788 0.788 0.6156 -120.9684 946.2361)" class="st6" width="18.745" height="29.755"/>
	<path class="st6" d="M1186.193,481.313c0.15,0.312,52.179,111.483,157.41,13.706l1.766,1.897
		c-107.831,100.195-161.356-14.152-161.511-14.476L1186.193,481.313z"/>
	<path class="st6" d="M1223.418,512.519c-0.12,0.702-0.792,1.178-1.497,1.059c-0.702-0.12-1.178-0.792-1.059-1.497
		c0.02-0.122,7.484-43.688,31.459-29.732c0.616,0.359,0.83,1.153,0.471,1.772c-0.359,0.619-1.154,0.833-1.772,0.473
		C1230.278,472.517,1223.436,512.407,1223.418,512.519z"/>
	<path class="st6" d="M1249.848,519.881c-0.198,0.685-0.919,1.08-1.607,0.884c-0.684-0.198-1.079-0.919-0.883-1.607
		c0.043-0.145,15.198-51.857,33.335-33.321c0.502,0.509,0.497,1.328-0.013,1.83c-0.509,0.501-1.332,0.497-1.833-0.012
		C1263.789,472.265,1249.886,519.749,1249.848,519.881z"/>
	<path class="st6" d="M1276.563,520.111c-0.323,0.636-1.108,0.891-1.747,0.565c-0.637-0.323-0.891-1.11-0.565-1.747
		c0.068-0.135,24.192-48.144,41.155-23.047c0.402,0.594,0.241,1.4-0.349,1.8c-0.594,0.402-1.4,0.242-1.802-0.348
		C1298.788,475.926,1276.626,519.986,1276.563,520.111z"/>
	<path class="st6" d="M843.805,845.487c-0.007-0.252-3.597-89.322,96.922-61.438l0.505-1.812
		c-103.003-28.571-99.315,63.041-99.307,63.304L843.805,845.487z"/>
	<path class="st6" d="M857.383,812.926c-0.31-0.412-0.903-0.494-1.318-0.183c-0.412,0.313-0.494,0.906-0.183,1.318
		c0.053,0.074,19.422,25.672,30.217,8.66c0.28-0.437,0.15-1.02-0.287-1.3c-0.435-0.278-1.021-0.15-1.298,0.287
		C875.171,836.426,857.434,812.992,857.383,812.926z"/>
	<path class="st6" d="M871.966,799.347c-0.357-0.375-0.955-0.39-1.329-0.033c-0.376,0.357-0.389,0.955-0.032,1.331
		c0.074,0.079,27.122,28.36,32.625,10.349c0.153-0.497-0.125-1.023-0.62-1.176c-0.497-0.153-1.024,0.125-1.176,0.618
		C896.864,825.393,872.035,799.42,871.966,799.347z"/>
	<path class="st6" d="M889.117,790.273c-0.423-0.303-1.013-0.204-1.316,0.219c-0.303,0.42-0.203,1.013,0.219,1.314
		c0.089,0.066,31.684,22.96,34.237,1.109c0.061-0.517-0.312-0.985-0.827-1.044c-0.517-0.061-0.985,0.311-1.044,0.827
		C918.207,811.337,889.199,790.332,889.117,790.273z"/>
	<path class="st6" d="M1460.586,619.626c-1.677,2.23-3.393,4.438-5.124,6.596c-1.743,2.172-3.487,4.282-5.225,6.316l33.343,27.164
		l45.903,37.25c2.731-1.894,5.386-3.801,7.952-5.71c2.467-1.833,4.885-3.691,7.248-5.57L1460.586,619.626L1460.586,619.626z
		 M1453.924,624.985c1.863-2.33,3.765-4.783,5.687-7.355l0.604-0.813c29.217,22.94,58.459,45.858,87.643,68.839l-0.967,0.777
		c-2.675,2.146-5.442,4.282-8.283,6.392c-2.823,2.103-5.702,4.168-8.612,6.174l-0.611,0.42l-47.053-38.182l-34.922-28.449
		l0.667-0.774C1450.03,629.756,1451.979,627.403,1453.924,624.985L1453.924,624.985z M1401.444,704.034
		c6.85-1.097,13.303-0.656,18.185,0.938c5.096,1.664,8.563,4.62,9.177,8.459c0.616,3.842-1.751,7.729-6.069,10.909
		c-4.116,3.034-10.083,5.463-16.905,6.568l-0.076,0.013c-6.85,1.097-13.306,0.659-18.185-0.937
		c-5.096-1.665-8.565-4.623-9.181-8.462c-0.613-3.839,1.754-7.729,6.073-10.909C1388.602,707.571,1394.594,705.131,1401.444,704.034
		L1401.444,704.034z M1419.016,706.852c-4.613-1.507-10.732-1.917-17.261-0.87c-6.527,1.049-12.214,3.353-16.121,6.225
		c-3.721,2.739-5.783,5.962-5.295,9.004c0.489,3.039,3.452,5.458,7.846,6.891c4.597,1.504,10.703,1.915,17.212,0.878l0.054-0.01
		c6.529-1.046,12.214-3.348,16.118-6.225c3.717-2.739,5.779-5.96,5.289-9.002C1426.372,710.701,1423.404,708.288,1419.016,706.852
		L1419.016,706.852z M1539.157,565.976c-6.774,0-13.916,2.935-19.995,7.66c-6.045,4.707-11.062,11.234-13.597,18.442
		c-1.149,3.269-1.695,6.408-1.695,9.305c0,3.902,0.988,7.388,2.822,10.201c1.851,2.834,4.547,4.977,7.945,6.171
		c1.981,0.695,4.203,1.072,6.624,1.072c6.776,0,13.922-2.928,19.995-7.661c6.053-4.714,11.068-11.234,13.601-18.439
		c1.148-3.269,1.695-6.408,1.695-9.302c0-3.905-0.993-7.391-2.826-10.201c-1.851-2.839-4.548-4.983-7.942-6.174
		C1543.803,566.35,1541.578,565.976,1539.157,565.976L1539.157,565.976z M1545.124,568.916c-1.769-0.624-3.772-0.96-5.967-0.96
		c-6.325,0-13.042,2.77-18.781,7.238c-5.765,4.496-10.543,10.7-12.946,17.533c-1.071,3.047-1.583,5.97-1.583,8.656
		c0,3.521,0.873,6.637,2.497,9.124c1.608,2.464,3.968,4.336,6.947,5.382c1.769,0.621,3.772,0.959,5.969,0.959
		c6.318,0,13.035-2.77,18.781-7.242c5.771-4.489,10.546-10.693,12.949-17.528c1.074-3.047,1.583-5.967,1.583-8.653
		c0-3.523-0.878-6.64-2.5-9.126C1550.464,571.833,1548.099,569.963,1545.124,568.916L1545.124,568.916z M1558.455,616.214
		c1.265,0,2.436,0.197,3.474,0.563c1.802,0.634,3.241,1.775,4.223,3.284c0.97,1.484,1.494,3.322,1.494,5.369
		c0,1.5-0.283,3.126-0.875,4.814c-1.296,3.691-3.87,7.037-6.962,9.445c-3.121,2.431-6.804,3.938-10.299,3.938
		c-1.271,0-2.439-0.196-3.48-0.565c-1.8-0.634-3.235-1.775-4.218-3.282c-0.97-1.485-1.494-3.322-1.494-5.372
		c0-1.5,0.283-3.126,0.875-4.815c1.296-3.691,3.864-7.031,6.959-9.442C1551.276,617.719,1554.963,616.214,1558.455,616.214
		L1558.455,616.214z M1561.28,618.643c1.383,0.486,2.477,1.352,3.22,2.492c0.756,1.16,1.166,2.63,1.166,4.295
		c0,1.29-0.247,2.696-0.761,4.164c-1.168,3.327-3.498,6.352-6.313,8.542c-2.782,2.169-6.033,3.512-9.082,3.512
		c-1.043,0-1.988-0.16-2.826-0.453c-1.382-0.484-2.474-1.352-3.219-2.492c-0.756-1.159-1.168-2.628-1.168-4.295
		c0-1.291,0.246-2.696,0.763-4.165c1.168-3.328,3.498-6.349,6.307-8.538c2.785-2.166,6.038-3.513,9.088-3.513
		C1559.504,618.193,1560.45,618.351,1561.28,618.643L1561.28,618.643z M1433.876,649.948l75.892,59.605
		c-1.958,1.151-3.954,2.296-5.985,3.429c-2.443,1.367-4.91,2.701-7.379,3.997l-3.299,1.706l-35.922-29.15l-35.26-28.699
		c1.904-1.629,3.833-3.322,5.776-5.089C1429.727,653.905,1431.794,651.97,1433.876,649.948L1433.876,649.948z M1426.37,654.289
		c2.242-2.039,4.501-4.159,6.751-6.357l0.618-0.601c26.537,20.767,53.059,41.583,79.516,62.448l-1.239,0.736
		c-2.408,1.429-4.837,2.833-7.27,4.19c-2.428,1.357-4.906,2.704-7.426,4.025l-4.462,2.296l-36.92-29.959l-37.105-30.199l0.906-0.769
		C1421.93,658.245,1424.147,656.308,1426.37,654.289L1426.37,654.289z M1402.709,675.875l67.763,53.221
		c-7.81,3.192-15.477,5.916-22.899,8.151c-22.016,6.637-41.838,9-57.256,6.999c-15.197-1.971-26.076-8.183-30.457-18.712
		c-0.33-0.797-0.633-1.64-0.895-2.516c-4.369-14.495,7.57-22.525,27.269-35.776C1391.28,683.849,1396.827,680.117,1402.709,675.875
		L1402.709,675.875z M1385.14,685.6c5.185-3.486,10.905-7.335,17.014-11.761l0.603-0.436c23.886,18.709,47.741,37.469,71.589,56.224
		l-1.555,0.647c-8.437,3.511-16.694,6.474-24.651,8.87c-22.273,6.713-42.38,9.093-58.073,7.059
		c-15.92-2.062-27.359-8.67-32.03-19.91c-0.366-0.884-0.695-1.793-0.97-2.709C1352.283,707.7,1364.679,699.36,1385.14,685.6
		L1385.14,685.6z M1561.624,670.987l-43.93-35.636c-15.592-12.671-31.236-25.403-43.403-35.362
		c6.904-9.822,14.672-18.637,22.886-26.311c16.801-15.697,35.495-26.67,52.613-31.868c16.97-5.152,32.365-4.633,42.743,2.581
		c1.629,1.131,3.139,2.429,4.495,3.885c9.436,10.095,11.279,31.142,5.399,54.498c-5.338,21.201-17.052,44.251-35.247,62.754
		l-3.022,3.015L1561.624,670.987L1561.624,670.987z M1565.539,669.954l-3.818,3.656l-45.274-36.726
		c-16.289-13.235-32.384-26.334-44.118-35.942l-0.708-0.58l0.522-0.751c7.109-10.232,15.158-19.404,23.688-27.375
		c17.019-15.901,35.993-27.026,53.386-32.311c17.546-5.329,33.544-4.733,44.444,2.841c1.73,1.202,3.345,2.592,4.813,4.167
		c9.894,10.589,11.91,32.334,5.87,56.321c-5.414,21.505-17.297,44.885-35.756,63.658L1565.539,669.954z"/>
	<ellipse class="st6" cx="1575.535" cy="872.835" rx="217.155" ry="222.524"/>
	<path class="st1" d="M1783.654,809.166c5.87,20.176,9.036,41.54,9.036,63.67c0,122.896-97.227,222.523-217.155,222.523
		c-119.93,0-217.155-99.627-217.155-222.523c0-44.508,12.76-85.961,34.725-120.739c2.953-0.448,5.506,0.379,7.539,2.803
		c23.141,27.591-21.343,262.576,68.983,238.101c90.326-24.479,200.686-309.307,223.824-256.792
		c23.138,52.515-22.247,199.392,5.863,218.638C1727.424,974.09,1782.87,926.015,1783.654,809.166z"/>
	<path class="st7" d="M1853.265,582.121c95.682,14.863,67.114,156.172-62.338,319.174c1.16-9.32,1.764-18.816,1.764-28.46
		c0-22.145-3.164-43.536-9.044-63.721c32.867-67.038,29.512-116.654-15.69-123.675c-65.363-10.152-193.452,72.568-286.092,184.766
		c-92.64,112.193-114.745,211.378-49.382,221.53c17.786,2.763,40.221-1.364,65.31-11.076c24.139,9.488,50.344,14.699,77.743,14.699
		c5.216,0,10.391-0.201,15.515-0.57c-93.971,69.289-185.504,109.335-243.877,100.264c-98.612-15.313-65.256-164.94,74.498-334.2
		C1561.431,691.595,1754.657,566.803,1853.265,582.121z"/>
	<path class="st1" d="M1870.243,585.599c14.265,2.215,25.85,7.197,34.815,14.6c10.181,8.413,16.976,19.928,20.473,34.042
		c3.466,13.979,3.701,30.527,0.809,49.159c-9.647,62.123-54.17,147.824-129.563,239.127c-4.554,5.514-9.166,10.98-13.826,16.398
		c0.773-2.549,1.484-5.122,2.169-7.708c3.044-3.59,6.07-7.2,9.07-10.827c75.007-90.842,119.283-175.948,128.839-237.5
		c2.823-18.19,2.607-34.299-0.754-47.848c-3.322-13.409-9.744-24.318-19.353-32.251c-8.512-7.029-19.554-11.763-33.191-13.882
		c-48.876-7.589-121.427,19.682-199.199,69.907c-77.965,50.351-161.075,123.747-230.844,208.242
		c-33.847,40.995-61.435,80.811-82.4,117.827l-2.938-1.586c21.067-37.223,48.769-77.235,82.746-118.382
		c69.988-84.76,153.378-158.4,231.619-208.926C1747.141,605.344,1820.52,577.878,1870.243,585.599L1870.243,585.599z
		 M1624.029,1089.781c-19.753,15.191-39.47,29.144-58.872,41.673c-78.421,50.646-151.797,78.112-201.521,70.389
		c-14.259-2.215-25.844-7.197-34.811-14.6c-10.185-8.409-16.977-19.921-20.481-34.04c-3.464-13.971-3.699-30.519-0.807-49.151
		c3.182-20.512,10.172-43.589,20.815-68.592l2.951,1.591c-10.457,24.616-17.322,47.329-20.455,67.51
		c-2.821,18.187-2.607,34.299,0.753,47.843c3.326,13.406,9.751,24.312,19.358,32.248c8.507,7.029,19.555,11.763,33.191,13.879
		c48.876,7.594,121.422-19.677,199.192-69.903c17.482-11.29,35.222-23.74,53.009-37.209
		C1618.925,1090.917,1621.486,1090.377,1624.029,1089.781L1624.029,1089.781z M1333.752,1023.283
		c2.663-5.767,5.509-11.62,8.533-17.564l2.943,1.589c-3.029,5.945-5.87,11.805-8.527,17.566L1333.752,1023.283L1333.752,1023.283z
		 M1784.931,688.917c-33.102-5.14-81.886,13.101-133.979,46.746c-7.512,4.85-15.094,10.026-22.708,15.491l1.899,2.77
		c7.585-5.448,15.143-10.603,22.624-15.435c51.442-33.221,99.397-51.27,131.652-46.26c8.935,1.385,16.167,4.489,21.731,9.079
		c6.266,5.175,10.464,12.308,12.638,21.077c2.209,8.905,2.346,19.516,0.486,31.499c-3.431,22.105-13.647,48.815-30.215,78.243
		c0.313,1.728,0.605,3.467,0.878,5.214c17.973-31.214,29.02-59.585,32.648-82.945c1.93-12.428,1.772-23.48-0.542-32.81
		c-2.349-9.475-6.916-17.209-13.769-22.866C1802.256,693.747,1794.484,690.402,1784.931,688.917L1784.931,688.917z
		 M1516.187,1086.94c-1.739-0.506-3.47-1.036-5.19-1.586c-23.627,8.811-44.717,12.472-61.54,9.86
		c-8.927-1.385-16.161-4.486-21.728-9.079c-6.27-5.178-10.464-12.308-12.638-21.079c-2.21-8.905-2.347-19.516-0.491-31.496
		c5.9-38.014,31.859-89.638,75.705-145.279l-2.55-2.194c-44.258,56.147-70.474,108.382-76.464,146.961
		c-1.927,12.426-1.769,23.477,0.544,32.808c2.347,9.473,6.914,17.208,13.761,22.869c6.017,4.969,13.794,8.317,23.352,9.801
		C1467.26,1101.367,1490.371,1097.055,1516.187,1086.94L1516.187,1086.94z M1586.714,783.669l1.985,2.719
		c7.003-5.949,14.033-11.677,21.064-17.174l-1.905-2.773C1600.801,771.956,1593.745,777.704,1586.714,783.669z"/>
	<path class="st1" d="M1468.573,717.601c3.844-3.116,8.067-5.081,11.773-5.735c4.042-0.731,7.576,0.086,9.611,2.602
		c2.039,2.515,2.103,6.143,0.558,9.949c-1.418,3.485-4.218,7.206-8.064,10.323c-3.844,3.114-8.067,5.079-11.773,5.736
		c-4.043,0.728-7.575-0.087-9.612-2.602c-2.038-2.516-2.102-6.143-0.558-9.949C1461.927,724.436,1464.727,720.714,1468.573,717.601
		L1468.573,717.601z M1480.942,715.16c-3.169,0.56-6.842,2.291-10.253,5.055c-3.411,2.763-5.867,5.993-7.073,8.977
		c-1.079,2.666-1.143,5.074,0.063,6.563c1.207,1.489,3.574,1.927,6.403,1.421c3.172-0.558,6.844-2.289,10.255-5.051
		c3.411-2.763,5.867-5.996,7.074-8.979c1.079-2.666,1.143-5.072-0.064-6.561C1486.14,715.093,1483.773,714.656,1480.942,715.16z"/>
	<path class="st1" d="M1488.924,733.184c1.695-1.375,3.582-2.248,5.242-2.551c2.009-0.369,3.79,0.074,4.862,1.398
		c1.072,1.324,1.135,3.159,0.365,5.043c-0.649,1.564-1.894,3.229-3.592,4.603c-1.695,1.372-3.581,2.246-5.239,2.552
		c-2.008,0.366-3.792-0.076-4.865-1.398c-1.071-1.324-1.132-3.159-0.361-5.046C1485.983,736.221,1487.23,734.559,1488.924,733.184
		L1488.924,733.184z M1494.767,733.933c-1.125,0.206-2.464,0.845-3.724,1.865c-1.26,1.021-2.164,2.2-2.602,3.259
		c-0.301,0.745-0.369,1.359-0.13,1.654c0.24,0.296,0.856,0.357,1.645,0.214c1.13-0.203,2.469-0.842,3.729-1.864
		c1.26-1.02,2.164-2.199,2.599-3.258c0.301-0.746,0.369-1.36,0.13-1.655C1496.175,733.854,1495.561,733.793,1494.767,733.933z"/>
	<path class="st1" d="M1491.814,949.656c1.698-1.372,3.581-2.248,5.241-2.551c2.009-0.369,3.793,0.076,4.863,1.398
		c1.071,1.324,1.135,3.159,0.364,5.045c-0.646,1.564-1.894,3.226-3.589,4.6c-1.698,1.372-3.584,2.248-5.242,2.552
		c-2.008,0.369-3.792-0.074-4.864-1.398c-1.071-1.324-1.132-3.159-0.361-5.043C1488.871,952.693,1490.119,951.031,1491.814,949.656
		L1491.814,949.656z M1497.658,950.404c-1.128,0.206-2.467,0.845-3.727,1.866c-1.26,1.021-2.163,2.199-2.599,3.258
		c-0.302,0.746-0.372,1.36-0.132,1.655c0.239,0.296,0.855,0.357,1.644,0.214c1.13-0.204,2.469-0.842,3.729-1.864
		c1.26-1.021,2.163-2.199,2.599-3.258c0.3-0.746,0.369-1.36,0.129-1.655C1499.066,950.325,1498.45,950.264,1497.658,950.404z"/>
	<path class="st1" d="M1773.833,797.261c-1.245-4.789-3.474-8.877-6.066-11.609c-2.818-2.986-6.148-4.429-9.278-3.618
		c-3.134,0.815-5.34,3.694-6.356,7.676c-0.932,3.645-0.889,8.304,0.354,13.093c1.245,4.791,3.472,8.88,6.065,11.609
		c2.818,2.986,6.148,4.429,9.279,3.618c3.133-0.815,5.338-3.694,6.356-7.672C1775.116,806.709,1775.075,802.053,1773.833,797.261
		L1773.833,797.261z M1765.328,787.952c2.22,2.331,4.144,5.906,5.249,10.155c1.103,4.249,1.158,8.31,0.359,11.426
		c-0.715,2.785-2.095,4.761-3.95,5.242c-1.856,0.481-4.019-0.573-5.992-2.661c-2.222-2.331-4.147-5.906-5.251-10.155
		c-1.102-4.249-1.158-8.306-0.359-11.426c0.716-2.785,2.095-4.758,3.951-5.241C1761.189,784.81,1763.354,785.864,1765.328,787.952z"
		/>
	<path class="st7" d="M1574.313,1021.844c1.695-1.375,3.581-2.248,5.238-2.551c2.012-0.369,3.793,0.074,4.865,1.397
		c1.072,1.321,1.136,3.16,0.365,5.043c-0.649,1.564-1.894,3.226-3.592,4.601c-1.695,1.374-3.581,2.248-5.239,2.553
		c-2.011,0.366-3.792-0.076-4.865-1.398c-1.071-1.324-1.135-3.159-0.361-5.046
		C1571.371,1024.881,1572.615,1023.219,1574.313,1021.844L1574.313,1021.844z M1580.155,1022.592
		c-1.125,0.207-2.464,0.846-3.724,1.866c-1.26,1.021-2.163,2.198-2.601,3.256c-0.3,0.745-0.369,1.361-0.129,1.657
		c0.239,0.296,0.855,0.354,1.644,0.214c1.13-0.206,2.469-0.845,3.728-1.866c1.261-1.02,2.161-2.197,2.6-3.256
		c0.3-0.746,0.369-1.362,0.129-1.657C1581.563,1022.511,1580.947,1022.453,1580.155,1022.592z"/>
	<path class="st7" d="M1622.537,1018.081c2.716-4.137,4.248-8.536,4.531-12.288c0.321-4.096-0.845-7.533-3.552-9.308
		c-2.706-1.775-6.32-1.476-9.952,0.441c-3.327,1.761-6.751,4.918-9.464,9.055c-2.716,4.137-4.248,8.536-4.531,12.289
		c-0.321,4.096,0.845,7.533,3.551,9.308c2.707,1.774,6.321,1.477,9.953-0.441C1616.4,1025.375,1619.823,1022.219,1622.537,1018.081
		L1622.537,1018.081z M1623.729,1005.528c-0.24,3.21-1.597,7.037-4.004,10.707c-2.408,3.671-5.376,6.436-8.225,7.938
		c-2.543,1.339-4.933,1.642-6.535,0.59c-1.603-1.051-2.276-3.362-2.054-6.227c0.237-3.213,1.593-7.039,4.001-10.71
		c2.408-3.672,5.376-6.439,8.225-7.938c2.543-1.339,4.93-1.642,6.534-0.591C1623.275,1000.35,1623.947,1002.662,1623.729,1005.528z"
		/>
	<path class="st1" d="M1868.698,635.537c25.325,25.51,18.603,77.826-12.745,141.771c-15.436,31.489-36.848,65.85-63.333,101.247
		c0.046-1.897,0.071-3.798,0.071-5.707c25.088-33.918,45.447-66.802,60.257-97.013c30.693-62.617,37.579-113.545,13.371-137.929
		c-24.21-24.384-75.186-17.861-138.009,12.4c-63.329,30.501-138.494,85.117-210.468,156.595
		c-71.999,71.507-127.131,146.294-158.067,209.402c-30.688,62.611-37.567,113.54-13.361,137.921l0.094,0.094
		c24.246,24.269,75.153,17.731,137.886-12.484c24.933-12.007,51.701-27.755,79.383-46.797c1.848,0.102,3.696,0.179,5.557,0.234
		c-29.131,20.277-57.306,36.978-83.482,49.582c-64.143,30.899-116.489,37.248-141.819,11.742l-0.491-0.494
		c-24.742-25.713-17.91-77.749,13.226-141.269c31.096-63.439,86.452-138.553,158.68-210.286
		c72.261-71.768,147.758-126.608,211.403-157.261C1791.01,616.38,1843.371,610.023,1868.698,635.537z"/>
	<path class="st1" d="M1821.714,1150.216L1821.714,1150.216c0,17.146,14.027,31.176,31.169,31.176l0,0
		c-17.142,0-31.169,14.03-31.169,31.176l0,0c0-17.146-14.028-31.176-31.173-31.176l0,0
		C1807.686,1181.392,1821.714,1167.362,1821.714,1150.216z"/>
	<path class="st7" d="M1001.151,523.695c-0.407-0.588-0.257-1.396,0.329-1.8c0.588-0.405,1.395-0.258,1.8,0.328
		c0.074,0.107,26.837,37.55,24.118,82.619c-0.04,0.713-0.654,1.26-1.37,1.217c-0.713-0.04-1.26-0.654-1.217-1.37
		C1027.474,560.53,1001.223,523.802,1001.151,523.695L1001.151,523.695z M1024.13,611.82c0.092-0.708,0.743-1.21,1.45-1.118
		c0.705,0.093,1.207,0.744,1.118,1.449c-0.204,1.546-0.448,3.111-0.731,4.687c-0.285,1.593-0.611,3.169-0.967,4.72
		c-0.158,0.695-0.855,1.133-1.55,0.975c-0.698-0.161-1.133-0.855-0.975-1.553c0.359-1.561,0.68-3.099,0.946-4.597
		C1023.692,614.868,1023.931,613.34,1024.13,611.82z"/>
	<path class="st7" d="M995.149,536.202c1.841-0.425,3.65-0.278,5.081,0.304c1.54,0.626,2.672,1.758,3.016,3.248
		c0.344,1.489-0.173,3.004-1.285,4.243c-1.031,1.151-2.592,2.077-4.432,2.503c-1.84,0.425-3.649,0.279-5.08-0.303
		c-1.543-0.626-2.673-1.759-3.017-3.248c-0.343-1.492,0.176-3.006,1.286-4.244C991.749,537.555,993.309,536.628,995.149,536.202
		L995.149,536.202z M999.484,538.336c-1.066-0.433-2.451-0.537-3.889-0.204c-1.438,0.331-2.635,1.034-3.406,1.891
		c-0.684,0.766-1.017,1.658-0.827,2.48c0.189,0.823,0.878,1.477,1.833,1.864c1.067,0.433,2.452,0.537,3.889,0.204
		c1.439-0.331,2.635-1.031,3.406-1.889c0.685-0.769,1.018-1.658,0.827-2.48C1001.129,539.377,1000.438,538.726,999.484,538.336z"/>
	<path class="st7" d="M958.854,634.15c0-0.716,0.583-1.299,1.298-1.299c0.718,0,1.3,0.583,1.3,1.299c0,0.004,0.04,1.917-0.04,6.896
		c-0.011,0.715-0.598,1.282-1.314,1.273c-0.716-0.01-1.283-0.601-1.272-1.314C958.881,637.353,958.854,634.157,958.854,634.15
		L958.854,634.15z M958.475,652.663c0.028-0.715,0.633-1.268,1.349-1.239c0.713,0.028,1.268,0.633,1.239,1.349
		c-0.394,8.994-1.168,20.356-2.685,31.97c-1.519,11.639-3.79,23.549-7.166,33.6c-0.226,0.677-0.962,1.044-1.639,0.817
		c-0.68-0.224-1.046-0.96-0.82-1.637c3.322-9.887,5.559-21.624,7.058-33.11C957.316,672.894,958.085,661.606,958.475,652.663z"/>
	<path class="st1" d="M905.595,388.141c-0.445-0.308-0.553-0.927-0.245-1.37c0.308-0.445,0.927-0.555,1.372-0.244
		c0.023,0.015,9.607,6.448,5.57,21.67c1.432,1.01,5.21,3.752,10.355,7.978c0.417,0.347,0.481,0.97,0.135,1.388
		c-0.346,0.418-0.97,0.481-1.387,0.135c-6.237-5.125-10.378-7.993-10.724-8.23c-0.39-0.219-0.595-0.683-0.469-1.133
		C914.32,393.991,905.617,388.156,905.595,388.141L905.595,388.141z M927.042,422.492c-0.409-0.359-0.453-0.985-0.094-1.392
		c0.359-0.408,0.985-0.454,1.393-0.094c6.965,6.089,15.37,14.126,23.666,23.734c8.308,9.618,16.522,20.83,23.093,33.261
		c0.251,0.48,0.065,1.079-0.415,1.331c-0.481,0.252-1.079,0.069-1.332-0.412c-6.493-12.281-14.617-23.365-22.838-32.887
		C942.285,436.501,933.949,428.531,927.042,422.492L927.042,422.492z M977.039,486.427c-0.224-0.494,0-1.081,0.496-1.306
		c0.497-0.224,1.082,0,1.307,0.497c1.089,2.409,2.117,4.858,3.059,7.332c0.931,2.446,1.805,4.972,2.593,7.566
		c0.155,0.52-0.137,1.072-0.656,1.23c-0.519,0.155-1.074-0.139-1.229-0.659c-0.756-2.474-1.616-4.961-2.556-7.434
		C979.118,491.203,978.105,488.79,977.039,486.427z"/>
	<path class="st8" d="M887.985,471.45c-0.446,0.555-1.263,0.647-1.82,0.204c-0.555-0.445-0.646-1.263-0.201-1.82
		c0.028-0.035,10.9-13.492,36.93-17.777c0.702-0.115,1.372,0.367,1.484,1.069c0.115,0.706-0.364,1.372-1.069,1.487
		C898.258,458.734,888.013,471.415,887.985,471.45L887.985,471.45z M927.544,454.019c-0.71,0.082-1.357-0.43-1.439-1.141
		c-0.079-0.708,0.433-1.356,1.141-1.435c1.51-0.179,3.088-0.326,4.706-0.438c1.522-0.102,3.134-0.178,4.819-0.216
		c0.716-0.015,1.311,0.548,1.326,1.263c0.015,0.713-0.547,1.309-1.263,1.324c-1.573,0.036-3.151,0.112-4.709,0.219
		C930.561,453.703,929.03,453.846,927.544,454.019z"/>
	<path class="st8" d="M892.121,473.525l1.509,13.997c0.023,0.201,0.083,0.383,0.175,0.525c0.087,0.146,0.227,0.278,0.393,0.38
		c0.168,0.104,0.348,0.171,0.522,0.186c0.168,0.015,0.356-0.013,0.54-0.084l2.346-0.884c0.304-0.114,0.542-0.349,0.67-0.621
		c0.125-0.275,0.15-0.606,0.043-0.912l-4.21-12.039c-0.059-0.173-0.148-0.321-0.255-0.436c-0.104-0.112-0.247-0.206-0.412-0.277
		c-0.168-0.068-0.339-0.107-0.488-0.104c-0.163,0-0.334,0.043-0.491,0.115L892.121,473.525L892.121,473.525z M891.668,487.738
		l-1.66-15.41l1.634-0.751c0.415-0.189,0.845-0.293,1.281-0.296c0.435-0.005,0.875,0.076,1.296,0.259
		c0.417,0.176,0.784,0.43,1.081,0.751c0.293,0.316,0.524,0.695,0.674,1.131l4.211,12.039c0.283,0.81,0.219,1.668-0.12,2.395
		c-0.341,0.731-0.954,1.332-1.764,1.637l-2.339,0.884c-0.465,0.175-0.955,0.242-1.431,0.196c-0.476-0.043-0.937-0.204-1.361-0.463
		c-0.426-0.257-0.774-0.604-1.029-1.006C891.881,488.701,891.722,488.24,891.668,487.738z"/>
	<path class="st1" d="M1516.487,210.16c2.653-2.149,5.565-3.503,8.12-3.957c2.786-0.501,5.225,0.061,6.628,1.795
		c1.405,1.736,1.451,4.236,0.384,6.861c-0.978,2.406-2.909,4.972-5.559,7.121c-2.653,2.148-5.564,3.503-8.12,3.956
		c-2.787,0.501-5.226-0.061-6.632-1.795c-1.404-1.733-1.448-4.235-0.382-6.861C1511.906,214.874,1513.835,212.308,1516.487,210.16
		L1516.487,210.16z M1525.017,208.477c-2.187,0.387-4.717,1.581-7.069,3.485c-2.354,1.908-4.047,4.135-4.88,6.191
		c-0.744,1.841-0.789,3.501,0.043,4.526c0.832,1.028,2.467,1.332,4.416,0.981c2.187-0.384,4.72-1.579,7.072-3.483
		c2.352-1.907,4.047-4.135,4.88-6.192c0.744-1.838,0.787-3.498-0.046-4.526C1528.601,208.431,1526.969,208.13,1525.017,208.477z"/>
	<path class="st1" d="M1530.523,220.908c1.171-0.946,2.472-1.55,3.614-1.758c1.386-0.255,2.615,0.05,3.356,0.962
		c0.738,0.914,0.781,2.18,0.249,3.48c-0.448,1.077-1.306,2.225-2.477,3.172c-1.168,0.947-2.469,1.55-3.614,1.759
		c-1.385,0.254-2.614-0.051-3.352-0.963c-0.738-0.913-0.784-2.179-0.25-3.48C1528.494,223.003,1529.352,221.855,1530.523,220.908
		L1530.523,220.908z M1534.553,221.422c-0.777,0.145-1.701,0.585-2.569,1.288c-0.87,0.706-1.491,1.518-1.794,2.248
		c-0.206,0.515-0.255,0.937-0.089,1.141c0.165,0.204,0.59,0.244,1.135,0.148c0.777-0.14,1.701-0.584,2.571-1.286
		c0.868-0.705,1.492-1.517,1.792-2.245c0.206-0.516,0.254-0.939,0.089-1.143C1535.525,221.368,1535.1,221.328,1534.553,221.422z"/>
	<path class="st1" d="M1426.632,105.275L1426.632,105.275c0,9.593,7.85,17.447,17.444,17.447l0,0
		c-9.594,0-17.444,7.851-17.444,17.447l0,0c0-9.595-7.85-17.447-17.444-17.447l0,0
		C1418.781,122.722,1426.632,114.868,1426.632,105.275z"/>
	<path class="st1" d="M1098.458,239.785h0.003c0,8.249,6.75,15,14.998,15l0,0c-8.248,0-14.998,6.751-14.998,15.003h-0.003
		c0-8.252-6.747-15.003-14.998-15.003l0,0C1091.71,254.785,1098.458,248.034,1098.458,239.785z"/>
	<polygon class="st1" points="971.794,134.475 970.906,144.061 980.505,144.924 980.238,147.806 970.639,146.943 969.753,156.522 
		966.866,156.262 967.753,146.68 958.156,145.82 958.423,142.938 968.019,143.801 968.908,134.216 	"/>
	<polygon class="st1" points="1304.451,1260.594 1303.563,1270.179 1313.162,1271.042 1312.894,1273.924 1303.296,1273.061 
		1302.409,1282.641 1299.523,1282.381 1300.408,1272.799 1290.812,1271.938 1291.079,1269.056 1300.676,1269.919 1301.564,1260.335 
			"/>
	<polygon class="st1" points="135.889,1070.369 135,1079.955 144.599,1080.818 144.332,1083.699 134.733,1082.837 133.847,1092.416 
		130.961,1092.156 131.846,1082.575 122.25,1081.713 122.517,1078.832 132.114,1079.695 133.002,1070.11 	"/>
	<path class="st9" d="M911.411,352.743h-0.003c-1.329-0.102-2.495,0.898-2.594,2.232l-0.247,3.259
		c-0.099,1.329,0.902,2.498,2.232,2.596l0.003,0.003c1.332,0.1,2.5-0.906,2.599-2.238l0.247-3.253
		C913.747,354.007,912.744,352.841,911.411,352.743z"/>
	<path class="st9" d="M875.853,351.741h-0.005c-1.332-0.102-2.495,0.904-2.594,2.235l-0.247,3.257
		c-0.099,1.331,0.902,2.498,2.231,2.599h0.002c1.334,0.1,2.5-0.903,2.6-2.233l0.249-3.257
		C878.187,353.007,877.181,351.841,875.853,351.741z"/>
	<path class="st1" d="M896.532,354.343c3.793,5.787,10.119,9.83,17.549,10.451c7.431,0.621,14.339-2.32,19.038-7.393
		c2.362-2.551,3.016-6,1.761-9.241c-1.257-3.239-4.07-5.341-7.534-5.631l-22.655-1.891c-3.462-0.29-6.585,1.318-8.362,4.302
		C894.552,347.928,894.626,351.439,896.532,354.343z"/>
	<polygon class="st4" points="911.103,341.561 913.607,348.34 914.768,351.482 913.498,351.515 908.626,351.65 916.002,358.295 
		923.382,364.941 920.88,358.162 919.719,355.021 920.99,354.985 925.861,354.852 918.482,348.208 	"/>
	<path class="st10" d="M894.046,343.551L894.046,343.551c-2.991-0.259-5.646,1.969-5.911,4.962l-0.629,7.225
		c-0.262,2.992,1.967,5.649,4.958,5.909l0,0c2.994,0.262,5.651-1.965,5.912-4.959l0.631-7.225
		C899.268,346.472,897.039,343.814,894.046,343.551z"/>
	<path class="st10" d="M901.211,355.191l-8.214-0.717c-2.266-0.198-4.276,1.489-4.473,3.752l0,0
		c-0.199,2.263,1.49,4.272,3.753,4.471l8.214,0.72c2.266,0.196,4.273-1.489,4.47-3.755l0,0
		C905.159,357.401,903.471,355.39,901.211,355.191z"/>
	<path class="st1" d="M852.883,350.698c3.792,5.785,10.116,9.83,17.546,10.451c7.43,0.621,14.339-2.32,19.037-7.396
		c2.363-2.549,3.019-5.998,1.762-9.239c-1.257-3.238-4.071-5.341-7.532-5.631l-22.654-1.891c-3.462-0.291-6.585,1.316-8.365,4.302
		C850.902,344.28,850.976,347.79,852.883,350.698z"/>
	<polygon class="st4" points="864.714,337.548 867.218,344.328 868.379,347.47 867.109,347.506 862.237,347.638 869.617,354.282 
		876.994,360.93 874.491,354.15 873.33,351.008 874.601,350.975 879.472,350.84 872.093,344.196 	"/>
	<path class="st2" d="M904.953,340.061c0.657-0.366,0.896-1.202,0.53-1.858c-0.364-0.657-1.199-0.896-1.856-0.53
		c-0.025,0.013-10.12,5.547-16.281-2.889c-0.445-0.609-1.303-0.744-1.912-0.301c-0.611,0.444-0.745,1.304-0.3,1.912
		C892.709,346.772,904.922,340.077,904.953,340.061z"/>
</g>
</svg>
