<svg width="150" height="90" viewBox="0 0 150 90" fill="none" xmlns="http://www.w3.org/2000/svg">
<g clip-path="url(#clip0)">
<path d="M61.0803 30.4727C60.1329 30.4723 59.1922 30.6307 58.2971 30.9414L58.0094 30.9355C58.0428 30.5119 58.0681 30.0854 58.0681 29.6529C58.0681 20.8142 54.2648 13.6318 45.4612 13.4854C45.3698 13.4854 41.9895 13.4854 41.8981 13.4854C37.9421 13.486 34.1236 14.9368 31.1651 17.563C28.2066 20.1893 26.3133 23.8089 25.8436 27.7369L26.4483 27.9075C25.0993 27.6547 23.7124 27.6862 22.3763 27.9999C21.0401 28.3137 19.7842 28.9027 18.6887 29.7295C17.5931 30.5563 16.6822 31.6025 16.014 32.8014C15.3459 34.0002 14.9353 35.3253 14.8084 36.6919C14.6815 38.0585 14.8411 39.4365 15.2771 40.7379C15.7131 42.0393 16.4158 43.2354 17.3404 44.2497C18.265 45.2641 19.391 46.0743 20.6465 46.6287C21.902 47.1831 23.2594 47.4694 24.6319 47.4693H61.0826C63.3359 47.4693 65.4969 46.5742 67.0902 44.9809C68.6835 43.3876 69.5786 41.2266 69.5786 38.9733C69.5786 36.7201 68.6835 34.5591 67.0902 32.9658C65.4969 31.3724 63.3359 30.4773 61.0826 30.4773L61.0803 30.4727Z" fill="#5C4FC4"/>
<path d="M61.0805 48.6368H24.6297C23.1719 48.6366 21.7286 48.3476 20.3831 47.7865C19.0376 47.2255 17.8166 46.4035 16.7905 45.3679C15.7644 44.3324 14.9535 43.1039 14.4048 41.7533C13.8561 40.4028 13.5803 38.9568 13.5935 37.4991C13.6066 36.0414 13.9083 34.6007 14.4812 33.2602C15.0542 31.9197 15.887 30.706 16.9315 29.6891C17.9761 28.6722 19.2117 27.8723 20.5671 27.3355C21.9225 26.7988 23.3708 26.5358 24.8283 26.5619C25.5526 22.5629 27.6581 18.9453 30.7775 16.3404C33.8968 13.7355 37.8319 12.3087 41.8959 12.3091C41.9879 12.3091 45.3886 12.3091 45.4806 12.3091C54.0469 12.4515 59.1815 18.8645 59.2371 29.4768C60.5596 29.2212 61.9209 29.2447 63.2338 29.5458C64.5467 29.847 65.7822 30.4191 66.861 31.2257C67.9398 32.0322 68.8382 33.0552 69.4986 34.2292C70.159 35.4033 70.5667 36.7023 70.6957 38.0431C70.8247 39.3839 70.6721 40.7368 70.2477 42.0152C69.8232 43.2936 69.1364 44.4691 68.2311 45.4665C67.3258 46.4639 66.2221 47.2612 64.9907 47.8071C63.7593 48.3531 62.4274 48.6356 61.0805 48.6368ZM24.6297 28.9038C22.3238 28.9038 20.1122 29.8198 18.4817 31.4504C16.8511 33.081 15.9351 35.2925 15.9351 37.5984C15.9351 39.9044 16.8511 42.1159 18.4817 43.7465C20.1122 45.377 22.3238 46.2931 24.6297 46.2931H61.0805C62.1444 46.2915 63.1952 46.0581 64.1598 45.6091C65.1244 45.1602 65.9796 44.5065 66.6659 43.6935C67.3522 42.8805 67.8532 41.9278 68.1339 40.9016C68.4147 39.8753 68.4685 38.8003 68.2916 37.7511C68.1147 36.702 67.7113 35.704 67.1096 34.8266C66.5078 33.9491 65.7221 33.2134 64.8072 32.6704C63.8922 32.1274 62.8699 31.7903 61.8115 31.6825C60.753 31.5747 59.6838 31.6988 58.6782 32.0462L58.4813 32.1153L56.7428 32.0801L56.8395 30.8421C56.8752 30.3845 56.8922 30.0059 56.8922 29.6509C56.8922 16.2881 48.882 14.7096 45.4379 14.6551C45.2791 14.6551 41.9844 14.6551 41.8942 14.6551C38.2242 14.6533 34.6811 15.9977 31.9362 18.4337C29.1913 20.8696 27.4353 24.2279 27.001 27.872L26.5176 27.8134L26.2246 29.0556C25.6987 28.9564 25.1649 28.9056 24.6297 28.9038Z" fill="#5C4FC4"/>
<path d="M132.422 80.2768H68.5557L84.8135 39.6314C85.2032 38.6574 85.8758 37.8225 86.7445 37.2344C87.6132 36.6463 88.6382 36.332 89.6873 36.332H146.022C146.461 36.3326 146.894 36.4408 147.282 36.6471C147.671 36.8534 148.003 37.1516 148.249 37.5156C148.496 37.8796 148.65 38.2985 148.697 38.7356C148.745 39.1727 148.685 39.6148 148.522 40.0234L132.422 80.2768Z" fill="#F5F5F5"/>
<path d="M83.7899 42.1914L68.5557 80.2769H132.422L147.656 42.1914H83.7899Z" fill="#AEA7E0"/>
<path d="M150 89.0659H0H0.00175779H0V86.7222H150V89.0659Z" fill="#5C4FC4"/>
<path d="M101.368 89.0658H35.1577V79.105H101.368V89.0658ZM37.5014 86.7221H99.0242V81.4487H37.5014V86.7221Z" fill="#5C4FC4"/>
<path d="M133.215 81.4487H66.8247L83.7253 39.1961C84.1986 38.0023 85.0205 36.9788 86.084 36.2589C87.1474 35.539 88.403 35.1562 89.6871 35.1602H146.021C146.653 35.1606 147.275 35.3157 147.833 35.6119C148.391 35.9081 148.867 36.3365 149.221 36.8595C149.575 37.3825 149.796 37.9843 149.864 38.6122C149.932 39.2402 149.845 39.8752 149.61 40.4617L133.215 81.4487ZM70.2864 79.105H131.628L147.434 39.5904C147.526 39.3595 147.56 39.1097 147.533 38.8627C147.506 38.6157 147.419 38.379 147.28 38.1732C147.141 37.9675 146.953 37.7989 146.734 37.6823C146.514 37.5656 146.27 37.5044 146.021 37.5039H89.6871C88.8716 37.5015 88.0743 37.7447 87.399 38.2018C86.7236 38.6589 86.2016 39.3088 85.9009 40.0668L70.2864 79.105Z" fill="#5C4FC4"/>
<path d="M100.196 87.894H132.422V80.2769H100.196V87.894Z" fill="#5C4FC4"/>
<path d="M133.594 89.0658H99.0239V79.105H133.594V89.0658ZM101.368 86.7221H131.25V81.4487H101.368V86.7221Z" fill="#5C4FC4"/>
<path d="M33.1163 13.481H12.004C11.2002 13.481 10.5486 14.1326 10.5486 14.9364V29.6034C10.5486 30.4073 11.2002 31.0589 12.004 31.0589H33.1163C33.9201 31.0589 34.5717 30.4073 34.5717 29.6034V14.9364C34.5717 14.1326 33.9201 13.481 33.1163 13.481Z" fill="#AEA7E0"/>
<path d="M33.1163 32.2307H12.004C11.3075 32.2298 10.6398 31.9527 10.1473 31.4602C9.65475 30.9677 9.37764 30.2999 9.37671 29.6034V14.9364C9.37764 14.2399 9.65475 13.5722 10.1473 13.0796C10.6398 12.5871 11.3075 12.31 12.004 12.3091H33.1163C33.8128 12.31 34.4805 12.5871 34.973 13.0796C35.4656 13.5722 35.7427 14.2399 35.7436 14.9364V29.6034C35.7427 30.2999 35.4656 30.9677 34.973 31.4602C34.4805 31.9527 33.8128 32.2298 33.1163 32.2307ZM12.004 14.6528C11.9289 14.6531 11.8569 14.6831 11.8038 14.7362C11.7507 14.7893 11.7207 14.8613 11.7204 14.9364V29.6034C11.7207 29.6785 11.7507 29.7505 11.8038 29.8036C11.8569 29.8567 11.9289 29.8867 12.004 29.887H33.1163C33.1914 29.8867 33.2634 29.8567 33.3165 29.8036C33.3696 29.7505 33.3996 29.6785 33.3999 29.6034V14.9364C33.3996 14.8613 33.3696 14.7893 33.3165 14.7362C33.2634 14.6831 33.1914 14.6531 33.1163 14.6528H12.004Z" fill="#5C4FC4"/>
<path d="M12.0134 13.481C11.6249 13.481 11.2523 13.6353 10.9776 13.91C10.7029 14.1847 10.5486 14.5573 10.5486 14.9458V19.4346C10.5568 19.4487 10.5597 19.4604 10.5486 19.4662C11.4679 19.895 12.4871 20.0634 13.4955 19.9532C14.5038 19.8431 15.4627 19.4585 16.2677 18.8414C17.0727 18.2243 17.6932 17.3983 18.0615 16.4532C18.4298 15.5081 18.5319 14.4801 18.3567 13.481H12.0134Z" fill="#F0ECFF"/>
<path d="M12.87 21.1519C11.8987 21.1527 10.939 20.9417 10.0575 20.5338L10.5486 19.3402V18.7543L9.96262 15.2387C9.93589 14.9242 9.97817 14.6076 10.0865 14.3111C10.1948 14.0146 10.3666 13.7454 10.5898 13.5222C10.813 13.299 11.0823 13.1272 11.3788 13.0189C11.6752 12.9105 11.9918 12.8683 12.3063 12.895H19.3375L19.5133 13.2864C19.6818 14.2534 19.6362 15.2457 19.3797 16.1932C19.1232 17.1407 18.662 18.0204 18.0287 18.7704C17.3953 19.5203 16.6052 20.1222 15.714 20.5337C14.8228 20.9452 13.8522 21.1562 12.8706 21.1519H12.87ZM11.7204 18.6535C12.095 18.7563 12.4816 18.8083 12.87 18.8082C13.9946 18.8076 15.0763 18.3768 15.8934 17.6042C16.7105 16.8315 17.2011 15.7756 17.2645 14.6528H12.0192C11.9418 14.6537 11.8678 14.6849 11.8131 14.7396C11.7583 14.7943 11.7272 14.8683 11.7263 14.9458L11.7204 18.6535Z" fill="#5C4FC4"/>
<path d="M34.5717 29.594V29.0081C34.4809 29.0133 34.3924 29.0163 34.2999 29.0233C30.2898 30.0721 25.566 26.969 22.2748 24.9253C20.5108 23.8863 18.5175 23.2988 16.4719 23.215C14.4264 23.1312 12.3917 23.5536 10.5486 24.4449V29.594C10.5486 29.9814 10.702 30.353 10.9753 30.6275C11.2487 30.902 11.6196 31.0571 12.007 31.0588H33.1133C33.5007 31.0571 33.8717 30.902 34.145 30.6275C34.4183 30.353 34.5717 29.9814 34.5717 29.594Z" fill="#F0ECFF"/>
<path d="M33.1133 32.2304H12.007C11.3088 32.2287 10.6398 31.9502 10.1467 31.4559C9.65361 30.9616 9.37671 30.2919 9.37671 29.5937V23.7344L10.0054 23.4057C12.0287 22.4193 14.2651 21.9503 16.5143 22.0408C18.7634 22.1313 20.9549 22.7785 22.8924 23.9243L23.3277 24.195C26.4197 26.1221 30.6519 28.7594 34.0034 27.8863L34.2055 27.8518C34.2799 27.8459 34.3526 27.8424 34.4252 27.8383L35.7436 27.7645V29.5937C35.7436 30.2919 35.4667 30.9616 34.9736 31.4559C34.4805 31.9502 33.8115 32.2287 33.1133 32.2304ZM11.7204 25.1864V29.5937C11.7204 29.6703 11.7504 29.7439 11.804 29.7987C11.8575 29.8534 11.9304 29.885 12.007 29.8867H29.3915C26.7378 29.0822 24.1767 27.4844 22.0873 26.1848L21.6566 25.9164C20.1636 25.051 18.4936 24.5357 16.7725 24.4092C15.0513 24.2827 13.324 24.5485 11.7204 25.1864Z" fill="#5C4FC4"/>
<path d="M23.6059 25.9857L22.3643 23.9976C26.5496 21.382 30.456 20.4422 34.6612 21.0428L34.3307 23.3625C30.7044 22.8469 27.2966 23.6789 23.6059 25.9857Z" fill="#5C4FC4"/>
<path d="M64.917 30.473C63.9696 30.4727 63.0289 30.6311 62.1338 30.9417L61.8462 30.9358C61.8796 30.5122 61.9047 30.0857 61.9047 29.6532C61.8984 25.5349 60.3211 21.5741 57.4945 18.5789C54.6679 15.5836 50.8051 13.7797 46.694 13.5349C42.583 13.2902 38.5334 14.6232 35.3714 17.2619C32.2095 19.9007 30.1734 23.6464 29.6785 27.7349L30.2832 27.9054C28.9335 27.6507 27.5455 27.6807 26.208 27.9934C24.8706 28.3061 23.6132 28.8946 22.5163 29.7213C21.4194 30.548 20.5072 31.5946 19.8382 32.7942C19.1691 33.9937 18.7579 35.3198 18.6309 36.6874C18.5039 38.0551 18.6639 39.4342 19.1006 40.7364C19.5373 42.0387 20.2412 43.2354 21.1671 44.2499C22.093 45.2644 23.2205 46.0744 24.4775 46.6281C25.7345 47.1817 27.0933 47.4667 28.4668 47.4649H64.917C67.1703 47.4649 69.3313 46.5698 70.9246 44.9765C72.5179 43.3832 73.413 41.2222 73.413 38.9689C73.413 36.7157 72.5179 34.5547 70.9246 32.9614C69.3313 31.3681 67.1703 30.473 64.917 30.473Z" fill="#F0ECFF"/>
<path d="M26.2743 37.5984C26.2727 36.1487 26.5909 34.7165 27.2064 33.4038C27.8218 32.0912 28.7192 30.9305 29.8347 30.0046C30.9502 29.0786 32.2563 28.4102 33.6598 28.0469C35.0633 27.6837 36.5296 27.6345 37.9543 27.903L37.3496 27.7325C37.7413 24.4642 39.1206 21.3932 41.3032 18.9292C43.4858 16.4651 46.3679 14.7254 49.5651 13.9421C47.3428 13.4 45.0309 13.3356 42.7819 13.753C40.533 14.1704 38.3981 15.0601 36.5184 16.3634C34.6386 17.6668 33.0568 19.354 31.8772 21.3138C30.6977 23.2736 29.9473 25.4613 29.6757 27.7325L30.2803 27.903C28.9312 27.6503 27.5442 27.6818 26.2079 27.9956C24.8717 28.3094 23.6157 28.8986 22.5201 29.7255C21.4246 30.5524 20.5136 31.5989 19.8455 32.7979C19.1775 33.997 18.767 35.3222 18.6403 36.689C18.5136 38.0557 18.6735 39.4338 19.1097 40.7352C19.546 42.0367 20.2491 43.2327 21.1739 44.2469C22.0988 45.2612 23.2251 46.0712 24.4809 46.6253C25.7367 47.1794 27.0943 47.4654 28.4669 47.4649H36.1426C34.8467 47.4651 33.5636 47.2101 32.3663 46.7144C31.169 46.2186 30.0811 45.4919 29.1648 44.5757C28.2484 43.6595 27.5215 42.5718 27.0255 41.3746C26.5296 40.1774 26.2743 38.8943 26.2743 37.5984Z" fill="#F5F5F5"/>
<path d="M64.9171 48.6368H28.4669C26.6662 48.637 24.8928 48.1967 23.3014 47.3542C21.7099 46.5118 20.3487 45.2928 19.3364 43.8035C18.3242 42.3143 17.6916 40.6 17.494 38.8102C17.2963 37.0204 17.5395 35.2094 18.2023 33.5351C18.8652 31.8609 19.9275 30.3742 21.2968 29.2048C22.6661 28.0353 24.3006 27.2186 26.058 26.8258C27.8153 26.4331 29.6421 26.4762 31.3789 26.9515C33.1157 27.4267 34.71 28.3196 36.0225 29.5524L34.4176 31.2598C33.3837 30.289 32.1279 29.5859 30.7599 29.2118C29.3918 28.8376 27.953 28.8038 26.5689 29.1133C25.1848 29.4228 23.8975 30.0662 22.8191 30.9874C21.7407 31.9086 20.904 33.0796 20.382 34.3983C19.86 35.7171 19.6685 37.1435 19.8242 38.5532C19.98 39.9629 20.4782 41.3131 21.2755 42.4861C22.0728 43.659 23.1449 44.6192 24.3984 45.2827C25.6519 45.9463 27.0486 46.2931 28.4669 46.293H64.9171C65.981 46.2914 67.0318 46.058 67.9964 45.6091C68.961 45.1602 69.8162 44.5065 70.5026 43.6935C71.1889 42.8805 71.6898 41.9278 71.9706 40.9016C72.2513 39.8753 72.3051 38.8002 72.1282 37.7511C71.9513 36.702 71.548 35.704 70.9462 34.8265C70.3445 33.9491 69.5588 33.2133 68.6438 32.6704C67.7289 32.1274 66.7066 31.7903 65.6481 31.6825C64.5897 31.5747 63.5204 31.6988 62.5148 32.0461L61.7484 29.8319C63.076 29.3728 64.4877 29.2086 65.8853 29.3506C67.2829 29.4926 68.6327 29.9375 69.8409 30.6543C71.049 31.371 72.0864 32.3425 72.8809 33.501C73.6754 34.6595 74.2079 35.9772 74.4413 37.3625C74.6748 38.7477 74.6035 40.1672 74.2325 41.5221C73.8615 42.877 73.1997 44.1348 72.2932 45.2079C71.3867 46.281 70.2572 47.1436 68.9833 47.7358C67.7095 48.328 66.3218 48.6354 64.9171 48.6368Z" fill="#5C4FC4"/>
<path d="M61.4894 36.9021L59.3613 35.9212C60.2661 33.9527 60.7338 31.8115 60.7322 29.645C60.7305 27.4785 60.2595 25.338 59.3516 23.3709C58.4438 21.4037 57.1205 19.6566 55.473 18.2497C53.8254 16.8428 51.8926 15.8095 49.8076 15.2209C47.7226 14.6323 45.5347 14.5023 43.3947 14.84C41.2546 15.1776 39.2131 15.9749 37.4106 17.1768C35.6081 18.3788 34.0873 19.957 32.9529 21.8028C31.8186 23.6486 31.0975 25.7183 30.8394 27.8694L28.5115 27.5946C28.8093 25.107 29.6425 22.7134 30.9538 20.5786C32.265 18.4438 34.0233 16.6184 36.1075 15.2281C38.1917 13.8377 40.5524 12.9155 43.0271 12.5247C45.5018 12.134 48.0318 12.284 50.443 12.9646C52.8542 13.6451 55.0893 14.8399 56.9945 16.4668C58.8998 18.0938 60.4299 20.1141 61.4797 22.389C62.5295 24.6638 63.0739 27.1391 63.0756 29.6445C63.0773 32.1498 62.5361 34.6258 61.4894 36.9021Z" fill="#5C4FC4"/>
<path d="M45.7323 13.6509C43.7303 13.6486 41.7453 14.0192 39.8789 14.7436C39.9752 15.1166 40.0926 15.4838 40.2305 15.8434C41.7158 19.6655 45.4253 22.908 49.3036 24.1092C50.4298 26.5455 50.7268 28.8183 49.9739 30.361C49.9153 30.4853 50.0542 30.6821 50.2265 30.705C55.3182 31.3899 57.4135 28.1802 56.7133 24.6113H60.3168C60.4004 24.6113 60.4826 24.5906 60.5563 24.5511C60.63 24.5117 60.6928 24.4546 60.7392 24.3851C60.7855 24.3155 60.814 24.2356 60.8221 24.1525C60.8302 24.0693 60.8176 23.9854 60.7855 23.9082C59.5972 20.8841 57.5255 18.2881 54.8405 16.4585C52.1554 14.6289 48.9815 13.6505 45.7323 13.6509Z" fill="#5C4FC4"/>
<path d="M51.5683 31.9716C51.0672 31.9698 50.5667 31.9348 50.0701 31.8667C49.8358 31.8335 49.6127 31.7452 49.4192 31.609C49.2257 31.4728 49.0672 31.2926 48.9569 31.0833C48.8527 30.8947 48.7953 30.6838 48.7895 30.4684C48.7837 30.2529 48.8296 30.0392 48.9235 29.8452C49.4508 28.763 49.275 27.0357 48.443 25.057C44.338 23.6045 40.6413 20.1323 39.1402 16.2681C38.9858 15.8658 38.8548 15.455 38.7476 15.0376L38.4822 14.0263L39.4572 13.6478C43.7354 11.9909 48.4956 12.0956 52.6968 13.9389C56.8981 15.7823 60.1984 19.2143 61.876 23.4844C61.9774 23.739 62.0149 24.0146 61.9852 24.2871C61.9556 24.5596 61.8598 24.8207 61.7061 25.0476C61.5523 25.2745 61.3455 25.4604 61.1034 25.589C60.8614 25.7175 60.5915 25.785 60.3175 25.7853H58.0148C58.0837 27.3671 57.5276 28.9125 56.4667 30.0878C55.6159 30.9907 54.1078 31.9716 51.5683 31.9716ZM51.0305 30.8695V30.8747V30.8695ZM51.4406 29.6261C52.0431 29.6776 52.6496 29.6024 53.2212 29.4052C53.7928 29.208 54.3168 28.8932 54.7593 28.4812C55.1726 27.9815 55.461 27.3906 55.6007 26.7574C55.7403 26.1242 55.7273 25.4668 55.5626 24.8396L55.289 23.4416H59.3068C57.7696 20.1771 55.1084 17.5751 51.8101 16.1118C48.5118 14.6485 44.7968 14.4217 41.345 15.473C42.1172 17.2429 43.2571 18.8284 44.689 20.1241C46.1208 21.4198 47.8119 22.3961 49.65 22.9881L50.1487 23.1422L50.3672 23.6162C51.4078 25.8691 51.7728 27.9492 51.4412 29.6261H51.4406Z" fill="#5C4FC4"/>
<path d="M95.4535 1.76221H57.4782C54.8364 1.76221 52.3028 2.81165 50.4348 4.67967C48.5668 6.54768 47.5173 9.08125 47.5173 11.723C47.5186 13.7843 48.1595 15.7944 49.3518 17.4759C50.544 19.1575 52.2287 20.4275 54.1735 21.1108C54.3768 23.8782 53.7106 26.4598 52.1749 28.2117C52.1461 28.2428 52.1262 28.2812 52.1174 28.3227C52.1087 28.3643 52.1113 28.4074 52.1252 28.4475C52.139 28.4876 52.1634 28.5232 52.1959 28.5505C52.2284 28.5778 52.2678 28.5958 52.3097 28.6025C54.5587 29.0011 56.8742 28.4988 58.756 27.2042C60.6378 25.9096 61.9347 23.9267 62.3666 21.6838H95.4535C98.0953 21.6838 100.629 20.6344 102.497 18.7664C104.365 16.8984 105.414 14.3648 105.414 11.723C105.414 9.08125 104.365 6.54768 102.497 4.67967C100.629 2.81165 98.0953 1.76221 95.4535 1.76221Z" fill="#F5F5F5"/>
<path d="M53.6068 29.8646C53.1168 29.8651 52.6273 29.831 52.142 29.7626C51.8908 29.7261 51.6542 29.6223 51.4573 29.4622C51.2603 29.3021 51.1104 29.0917 51.0233 28.8533C50.9363 28.6149 50.9154 28.3573 50.9629 28.108C51.0104 27.8587 51.1244 27.6268 51.293 27.4371C52.5221 25.8702 53.1405 23.9103 53.0332 21.9217C50.6867 20.9018 48.7635 19.1045 47.5873 16.8323C46.4111 14.5602 46.0539 11.9521 46.5758 9.44739C47.0977 6.94266 48.4668 4.69433 50.4526 3.08106C52.4384 1.46779 54.9196 0.588162 57.4781 0.590336H95.4534C98.406 0.590336 101.238 1.76324 103.325 3.85102C105.413 5.93881 106.586 8.77045 106.586 11.723C106.586 14.6756 105.413 17.5072 103.325 19.595C101.238 21.6828 98.406 22.8557 95.4534 22.8557H63.2905C61.9265 27.5818 57.6375 29.8646 53.6068 29.8646ZM53.0602 28.9798L53.0561 28.9845L53.0602 28.9798ZM57.4781 2.93406C55.4041 2.9329 53.3965 3.66568 51.811 5.00266C50.2254 6.33964 49.164 8.19457 48.8149 10.239C48.4657 12.2834 48.8512 14.3854 49.9032 16.1729C50.9551 17.9603 52.6056 19.3179 54.5625 20.0052L55.2855 20.2594L55.3441 21.0247C55.5658 23.2705 55.1261 25.5322 54.0791 27.5314C55.7854 27.4946 57.427 26.8709 58.7273 25.7655C60.0277 24.6601 60.9075 23.1405 61.2187 21.4624L61.4009 20.512H95.4557C97.7867 20.512 100.022 19.586 101.671 17.9377C103.319 16.2895 104.245 14.054 104.245 11.723C104.245 9.39204 103.319 7.15654 101.671 5.50829C100.022 3.86004 97.7867 2.93406 95.4557 2.93406H57.4781Z" fill="#5C4FC4"/>
<path d="M87.8913 7.62158H58.5947V9.96531H87.8913V7.62158Z" fill="#5C4FC4"/>
<path d="M73.243 12.3091H58.5947V14.6528H73.243V12.3091Z" fill="#5C4FC4"/>
<path d="M24.4701 64.8206C25.1967 62.113 28.4679 58.8705 31.056 60.9412C33.9856 63.2849 31.3917 70.0161 24.7783 69.8731C21.5135 67.2434 22.5717 65.7704 24.4701 64.8206Z" fill="#F0ECFF"/>
<path d="M24.9923 71.0475C24.9132 71.0475 24.8341 71.0475 24.7533 71.0475L24.3537 71.0381L24.0431 70.7885C22.2033 69.3061 21.3783 67.9374 21.5236 66.605C21.6332 65.5913 22.2965 64.723 23.497 64.0193C24.1691 62.1285 25.8162 60.0285 27.929 59.3353C28.5782 59.1099 29.2744 59.0554 29.9507 59.1769C30.6271 59.2984 31.2608 59.5918 31.7909 60.0291C33.3624 61.2859 33.8487 63.5558 33.0296 65.8116C32.143 68.245 29.5134 71.0475 24.9923 71.0475ZM29.2696 61.4547C29.0619 61.457 28.856 61.4928 28.6597 61.5607C27.3911 61.9767 26.023 63.5751 25.6046 65.1249L25.4681 65.6335L24.9994 65.8679C24.3138 66.2106 23.8861 66.5786 23.8574 66.8523C23.8457 66.9624 23.8627 67.5419 25.205 68.6997C28.3866 68.6171 30.2177 66.6888 30.83 65.0083C31.2987 63.7128 31.1042 62.4753 30.3302 61.8554C30.034 61.6006 29.6574 61.4587 29.2667 61.4547H29.2696Z" fill="#5C4FC4"/>
<path d="M11.1326 79.105H27.5386V82.9135C27.5386 84.2344 27.0139 85.5012 26.0799 86.4352C25.1459 87.3692 23.8791 87.8939 22.5582 87.8939H16.113C14.7921 87.8939 13.5253 87.3692 12.5913 86.4352C11.6573 85.5012 11.1326 84.2344 11.1326 82.9135V79.105Z" fill="#AEA7E0"/>
<path d="M23.4389 79.105V82.9135C23.4389 84.2344 22.9142 85.5012 21.9802 86.4352C21.0462 87.3692 19.7794 87.8939 18.4585 87.8939H23.1459C24.4668 87.8939 25.7336 87.3692 26.6676 86.4352C27.6016 85.5012 28.1264 84.2344 28.1264 82.9135V79.105H23.4389Z" fill="#5C4FC4"/>
<path d="M22.5602 89.0658H16.1149C14.4837 89.0644 12.9196 88.4158 11.7661 87.2623C10.6127 86.1088 9.96404 84.5448 9.96265 82.9135V77.9331H28.7124V82.9135C28.711 84.5448 28.0624 86.1088 26.9089 87.2623C25.7555 88.4158 24.1914 89.0644 22.5602 89.0658ZM12.3064 80.2768V82.9135C12.3071 83.9234 12.7087 84.8916 13.4227 85.6057C14.1368 86.3198 15.1051 86.7213 16.1149 86.7221H22.5602C23.57 86.7213 24.5383 86.3198 25.2523 85.6057C25.9664 84.8916 26.3679 83.9234 26.3687 82.9135V80.2768H12.3064Z" fill="#5C4FC4"/>
<path d="M15.1874 79.1049C12.8923 72.6596 12.0134 66.5841 14.6501 63.2847C16.9939 60.3551 20.8452 60.4723 23.4391 62.6988C27.5406 66.2144 25.1969 74.4174 23.4391 79.1049H15.1874Z" fill="#F0ECFF"/>
<path d="M24.251 80.2767H14.3605L14.0833 79.498C11.2416 71.5171 11.1238 65.8159 13.7318 62.5529C14.3087 61.813 15.0297 61.1979 15.8513 60.7447C16.6728 60.2915 17.5776 60.0096 18.5112 59.9162C19.5377 59.8375 20.5695 59.9645 21.5462 60.2899C22.5229 60.6153 23.4247 61.1325 24.1988 61.8111C27.6517 64.7712 27.7677 70.893 24.5334 79.5185L24.251 80.2767ZM16.0204 77.933H22.6186C24.2006 73.4916 25.9877 66.4282 22.6772 63.5888C22.1423 63.1142 21.518 62.751 20.841 62.5206C20.164 62.2902 19.4479 62.1972 18.7345 62.247C18.1132 62.3092 17.5114 62.4983 16.9663 62.8027C16.4212 63.1071 15.9445 63.5203 15.5657 64.0165C13.6005 66.4722 13.7599 71.2739 16.0204 77.933Z" fill="#5C4FC4"/>
<path d="M100.266 52.9275C102.444 55.6099 101.293 60.0606 97.6946 62.869C94.0964 65.6773 89.4131 65.7781 87.2352 63.0957C85.0573 60.4133 86.2086 55.9626 89.8068 53.1542C93.405 50.3459 98.0866 50.2451 100.266 52.9275Z" fill="#F5F5F5"/>
<path d="M96.8426 55.2262C97.6799 56.2322 97.2375 57.9016 95.8535 58.9545C94.4696 60.0074 92.6684 60.0449 91.8306 59.0394C90.9927 58.034 91.4356 56.3641 92.8196 55.3111C94.2036 54.2582 96.0047 54.2207 96.8426 55.2262Z" fill="#5C4FC4"/>
<path d="M97.8217 63.0465C97.9237 62.9656 98.0156 62.8789 98.1147 62.7951C97.9683 62.0572 97.65 61.3642 97.1854 60.7725C95.1053 58.1592 90.6329 58.2582 87.1965 60.9934C86.9621 61.1814 86.7371 61.3783 86.5232 61.5793C86.7019 62.1961 86.9993 62.7721 87.3986 63.275C89.5683 66.0042 94.2352 65.9011 97.8217 63.0465Z" fill="#5C4FC4"/>
<path d="M91.7698 66.1992C90.743 66.2388 89.7204 66.0468 88.7779 65.6375C87.8354 65.2281 86.9972 64.6118 86.3253 63.8343C85.7942 63.1584 85.4041 62.3828 85.1783 61.5533C84.9524 60.7239 84.8954 59.8576 85.0105 59.0057C85.211 57.6639 85.6741 56.3748 86.3735 55.2122C87.0729 54.0496 87.9947 53.0364 89.0862 52.2306C93.1783 49.0379 98.6011 49.0179 101.176 52.1884C101.707 52.8644 102.097 53.6401 102.323 54.4695C102.549 55.2989 102.606 56.1652 102.491 57.0171C102.29 58.3589 101.827 59.6479 101.128 60.8105C100.429 61.973 99.5068 62.9862 98.4154 63.7922C96.5262 65.3055 94.1898 66.1517 91.7698 66.1992ZM95.7453 52.1368C93.8417 52.1948 92.0097 52.876 90.5305 54.0757C88.8309 55.324 87.6866 57.1872 87.3419 59.2676C87.2601 59.8098 87.2894 60.3629 87.4279 60.8934C87.5663 61.4239 87.8112 61.9207 88.1475 62.3537C89.9217 64.5398 93.8826 64.3547 96.9758 61.9436C98.6754 60.6953 99.8197 58.832 100.164 56.7516C100.246 56.2095 100.217 55.6564 100.078 55.1259C99.9399 54.5954 99.6951 54.0985 99.3587 53.6655C98.9096 53.1556 98.3513 52.7536 97.7252 52.4894C97.0992 52.2252 96.4216 52.1057 95.743 52.1398L95.7453 52.1368Z" fill="#5C4FC4"/>
<path d="M147.656 41.0195H83.7898V43.3633H147.656V41.0195Z" fill="#5C4FC4"/>
<path d="M132.422 53.3242H110.157V55.6679H132.422V53.3242Z" fill="#5C4FC4"/>
<path d="M117.774 57.4258H108.399V59.7695H117.774V57.4258Z" fill="#5C4FC4"/>
<path d="M122.461 61.5273H106.055V63.8711H122.461V61.5273Z" fill="#5C4FC4"/>
</g>
<defs>
<clipPath id="clip0">
<rect width="150" height="88.4755" fill="white" transform="translate(0 0.590332)"/>
</clipPath>
</defs>
</svg>
