<svg width="150" height="87" viewBox="0 0 150 87" fill="none" xmlns="http://www.w3.org/2000/svg">
<g clip-path="url(#clip0)">
<path fill-rule="evenodd" clip-rule="evenodd" d="M25.4485 44.1526H10.2476V40.9268H25.4485V44.1526Z" fill="#F0ECFF"/>
<path fill-rule="evenodd" clip-rule="evenodd" d="M8.63452 64.2279V55.9658H11.8604V64.2279H8.63452Z" fill="#F0ECFF"/>
<path fill-rule="evenodd" clip-rule="evenodd" d="M8.63452 49.7694V41.5073H11.8604V49.7694H8.63452Z" fill="#F0ECFF"/>
<path fill-rule="evenodd" clip-rule="evenodd" d="M30.0286 42.0233V33.7612H33.2544V42.0233H30.0286Z" fill="#F0ECFF"/>
<path fill-rule="evenodd" clip-rule="evenodd" d="M30.0286 28.081V19.8188H33.2544V28.081H30.0286Z" fill="#F0ECFF"/>
<path fill-rule="evenodd" clip-rule="evenodd" d="M124.612 51.1623V40.4746H127.838V51.1623H124.612Z" fill="#F0ECFF"/>
<path fill-rule="evenodd" clip-rule="evenodd" d="M124.612 34.7938V26.5322H127.838V34.7938H124.612Z" fill="#F0ECFF"/>
<path fill-rule="evenodd" clip-rule="evenodd" d="M144.317 84.3666V76.1045H147.543V84.3666H144.317Z" fill="#F0ECFF"/>
<path fill-rule="evenodd" clip-rule="evenodd" d="M144.317 70.4242V62.1621H147.543V70.4242H144.317Z" fill="#F0ECFF"/>
<path fill-rule="evenodd" clip-rule="evenodd" d="M42.3386 38.9886H31.6416V35.7627H42.3386V38.9886Z" fill="#F0ECFF"/>
<path fill-rule="evenodd" clip-rule="evenodd" d="M118.906 44.6687H109.335V41.4429H118.906V44.6687Z" fill="#F0ECFF"/>
<path fill-rule="evenodd" clip-rule="evenodd" d="M138.611 44.6687H126.788V41.4429H138.611V44.6687Z" fill="#F0ECFF"/>
<path d="M5.23413 84.8827C11.2759 84.8827 15.1544 80.817 17.9247 74.2107C20.695 67.6044 24.5734 50.8348 32.3297 47.2773C40.0861 43.7198 46.1813 51.3429 50.0621 51.3429C53.9429 51.3429 61.6951 16.2788 74.4386 16.2788C85.5198 16.2788 93.1843 43.5512 97.1546 50.8348C101.125 58.1185 111.56 52.3592 115.439 50.8348C119.317 49.3104 123.196 48.2941 125.412 50.3267C127.628 52.3592 130.398 60.4899 132.061 66.0823C133.723 71.6747 139.21 84.8827 143.115 84.8827H5.23413Z" fill="#F5F5F5"/>
<path d="M134.905 73.6861C124.475 76.5053 122.133 55.6631 112.392 55.6631C105.743 55.6631 97.9232 73.4489 88.5041 73.4489C81.185 73.4489 77.7449 62.7775 73.8665 62.7775C65.5526 62.7775 64.7422 73.9571 52.5534 73.9571C43.1349 73.9571 39.8099 64.3019 34.2693 64.3019C24.2961 64.3019 16.5369 79.5471 12.5393 82.2523L12.5335 82.2477C10.5031 83.9867 7.90715 84.9238 5.23413 84.8825H143.115C140.551 84.8825 137.303 79.1849 134.905 73.6861Z" fill="#AEA7E0"/>
<path fill-rule="evenodd" clip-rule="evenodd" d="M51.387 52.5051C51.0828 52.7255 50.6308 52.9559 50.0621 52.9559C48.6446 52.9559 47.2113 52.2828 45.9872 51.6313C45.4395 51.3398 44.9258 51.0486 44.4132 50.758C43.6257 50.3116 42.8408 49.8666 41.9389 49.4241C39.1314 48.0469 36.2288 47.2635 33.0022 48.7434C31.438 49.4608 29.9437 50.9109 28.5249 52.972C27.1167 55.0178 25.868 57.5401 24.7454 60.2232C23.6253 62.9006 22.6533 65.6828 21.7796 68.2375C21.6736 68.5475 21.5688 68.8549 21.4651 69.1591C20.7252 71.3294 20.0434 73.3291 19.4121 74.8345C17.9771 78.2565 16.1979 81.1659 13.8782 83.2292C13.8629 83.2428 13.8477 83.2563 13.8324 83.2698H138.344C137.285 81.8839 136.256 80.1431 135.314 78.3202C133.197 74.2241 131.373 69.4293 130.515 66.5419C130.219 65.5488 129.933 64.5189 129.644 63.477C129.085 61.4637 128.514 59.4057 127.84 57.4824C127.336 56.0465 126.801 54.7716 126.219 53.744C125.627 52.7004 125.049 52.0269 124.511 51.6644L124.51 51.6642C122.183 50.0958 120.049 50.7557 116.029 52.336C115.643 52.4877 115.149 52.7031 114.572 52.9547C112.572 53.8264 109.578 55.1317 106.648 55.7193C104.723 56.1054 102.637 56.2321 100.694 55.6718C98.6897 55.0938 96.9406 53.8122 95.7384 51.6068C95.153 50.5328 94.5943 48.928 94.0416 47.0689C93.4792 45.1768 92.8872 42.8942 92.2588 40.394C92.0248 39.463 91.7855 38.5008 91.5402 37.5144C90.4617 33.1784 89.2674 28.3766 87.9027 23.7211C86.2234 17.9921 84.3205 12.6095 82.1288 8.68637C81.0331 6.72495 79.9102 5.21169 78.7755 4.20481C77.654 3.20973 76.6012 2.77566 75.5822 2.77566C74.5486 2.77566 73.3906 3.28113 72.0864 4.49816C70.7834 5.71408 69.4694 7.51896 68.1649 9.80328C65.5582 14.3676 63.1703 20.5183 61.0243 26.7761C59.7737 30.4229 58.649 33.9685 57.6091 37.2465C56.8398 39.6718 56.1169 41.9506 55.4239 44.0155C54.6332 46.3714 53.8933 48.4068 53.2121 49.8682C52.8755 50.5905 52.5165 51.2538 52.1288 51.7601C51.9345 52.0138 51.69 52.2856 51.387 52.5051ZM143.115 83.2698V86.4956H5.23413V83.2698C7.84963 83.2698 9.95072 82.4053 11.7342 80.8189C13.5567 79.1979 15.1019 76.7713 16.4372 73.587C17.0222 72.192 17.6635 70.3119 18.4121 68.117C18.5151 67.815 18.6201 67.5071 18.7273 67.1937C19.6024 64.635 20.6042 61.7637 21.7695 58.9782C22.9324 56.1985 24.2807 53.4485 25.8678 51.1429C27.4442 48.8527 29.3434 46.8725 31.6573 45.8112C36.187 43.7336 40.2102 44.983 43.3596 46.528C44.3118 46.9951 45.2952 47.5502 46.1649 48.0411C46.6557 48.3181 47.1104 48.5748 47.5028 48.7836C48.4632 49.2948 49.1481 49.5785 49.6511 49.683C49.817 49.4402 50.0308 49.0577 50.2883 48.5054C50.8862 47.2225 51.5775 45.3376 52.3657 42.9891C53.0066 41.0792 53.7225 38.8255 54.4944 36.3948C55.5628 33.0312 56.7387 29.3288 57.9729 25.7296C60.129 19.4424 62.597 13.048 65.3636 8.20351C66.7457 5.78344 68.2478 3.66798 69.8856 2.13967C71.5222 0.612465 73.4299 -0.450195 75.5822 -0.450195C77.6104 -0.450195 79.3933 0.44038 80.9164 1.79186C82.4263 3.13156 83.7572 4.9868 84.945 7.1131C87.3206 11.3654 89.3045 17.0352 90.9983 22.8137C92.3837 27.5398 93.5979 32.4221 94.6768 36.7603C94.9204 37.7398 95.1571 38.6916 95.3873 39.6076C96.0152 42.1055 96.5927 44.3295 97.1338 46.1497C97.6847 48.0028 98.1636 49.3159 98.5708 50.0629C99.3538 51.4993 100.398 52.2291 101.588 52.5722C102.839 52.933 104.35 52.8902 106.014 52.5564C108.561 52.0456 111.037 50.9689 113.024 50.1044C113.693 49.8137 114.306 49.5469 114.849 49.3337L114.929 49.3023C118.639 47.8437 122.412 46.3603 126.313 48.989C127.44 49.748 128.317 50.9056 129.025 52.1527C129.741 53.4157 130.349 54.891 130.883 56.4146C131.592 58.4332 132.219 60.6903 132.796 62.7676C133.077 63.7779 133.346 64.7458 133.607 65.6228C134.411 68.3277 136.161 72.9331 138.18 76.8391C139.192 78.7971 140.235 80.5088 141.22 81.7074C141.713 82.3072 142.151 82.7276 142.518 82.9866C142.893 83.2516 143.082 83.2698 143.115 83.2698Z" fill="#5C4FC4"/>
<path fill-rule="evenodd" clip-rule="evenodd" d="M150 86.4959H1.16455V83.27H150V86.4959Z" fill="#5C4FC4"/>
<path d="M76.4306 6.02393H76.3167C74.6335 6.02393 73.269 7.3884 73.269 9.07156V68.7959C73.269 70.479 74.6335 71.8435 76.3167 71.8435H76.4306C78.1138 71.8435 79.4783 70.479 79.4783 68.7959V9.07156C79.4783 7.3884 78.1138 6.02393 76.4306 6.02393Z" fill="#5C4FC4"/>
<path d="M61.5377 83.7704C61.0639 83.2953 60.7981 82.6514 60.7988 81.9804C60.7996 81.3093 61.0668 80.6661 61.5418 80.192L72.8114 68.9491C73.0467 68.7144 73.3258 68.5283 73.633 68.4015C73.9401 68.2747 74.2692 68.2096 74.6015 68.21C74.9338 68.2103 75.2628 68.2762 75.5696 68.4037C75.8765 68.5312 76.1552 68.7179 76.3899 68.9532C76.8637 69.4282 77.1295 70.072 77.1287 70.7429C77.128 71.4139 76.8607 72.0571 76.3858 72.531L65.1173 83.7745C64.8821 84.0094 64.6029 84.1956 64.2956 84.3226C63.9884 84.4495 63.6591 84.5146 63.3267 84.5142C62.9943 84.5139 62.6652 84.448 62.3582 84.3204C62.0512 84.1927 61.7724 84.0059 61.5377 83.7704Z" fill="#5C4FC4"/>
<path d="M91.2752 83.8051C91.5104 83.5704 91.6971 83.2917 91.8246 82.9849C91.9521 82.6781 92.018 82.3492 92.0184 82.017C92.0187 81.6847 91.9537 81.3557 91.8268 81.0486C91.7 80.7415 91.5139 80.4624 91.2793 80.2272L80.0358 68.9576C79.8011 68.7223 79.5224 68.5356 79.2155 68.4081C78.9087 68.2806 78.5797 68.2147 78.2474 68.2144C77.9151 68.214 77.586 68.2791 77.2789 68.4059C76.9717 68.5327 76.6926 68.7188 76.4573 68.9535C75.9824 69.4276 75.7151 70.0708 75.7144 70.7419C75.7136 71.4129 75.9794 72.0568 76.4533 72.532L87.6967 83.801C87.9314 84.0362 88.2102 84.2229 88.517 84.3505C88.8239 84.478 89.1528 84.5438 89.4851 84.5442C89.8174 84.5446 90.1465 84.4795 90.4537 84.3527C90.7608 84.2258 91.04 84.0398 91.2752 83.8051Z" fill="#5C4FC4"/>
<path d="M109.092 65.0126H44.2756C43.4015 65.0126 42.5632 64.6654 41.9451 64.0473C41.327 63.4292 40.9797 62.5908 40.9797 61.7167V15.9614H112.388V61.7167C112.388 62.5908 112.04 63.4292 111.422 64.0473C110.804 64.6654 109.966 65.0126 109.092 65.0126Z" fill="#5C4FC4"/>
<path fill-rule="evenodd" clip-rule="evenodd" d="M39.3669 14.3486H114.001V61.7168C114.001 63.0187 113.484 64.2673 112.563 65.1879C111.642 66.1085 110.394 66.6257 109.092 66.6257H44.2758C42.9739 66.6257 41.7253 66.1085 40.8047 65.1879C39.8841 64.2673 39.3669 63.0187 39.3669 61.7168V14.3486ZM42.5928 17.5745V61.7168C42.5928 62.1632 42.7701 62.5913 43.0857 62.9069C43.4013 63.2225 43.8294 63.3998 44.2758 63.3998H109.092C109.538 63.3998 109.966 63.2225 110.282 62.9069C110.598 62.5913 110.775 62.1632 110.775 61.7168V17.5745H42.5928Z" fill="#5C4FC4"/>
<path d="M112.196 65.6337H47.3804C46.5062 65.6337 45.6679 65.2865 45.0498 64.6684C44.4317 64.0503 44.0845 63.2119 44.0845 62.3378V16.5825H115.492V62.3378C115.492 62.7706 115.407 63.1992 115.241 63.5991C115.076 63.999 114.833 64.3623 114.527 64.6684C114.221 64.9744 113.858 65.2172 113.458 65.3828C113.058 65.5484 112.629 65.6337 112.196 65.6337Z" fill="#F5F5F5"/>
<path fill-rule="evenodd" clip-rule="evenodd" d="M42.4714 14.9692H117.105V62.3374C117.105 62.9821 116.978 63.6204 116.732 64.216C116.485 64.8115 116.123 65.3527 115.667 65.8085C115.212 66.2644 114.67 66.6259 114.075 66.8726C113.479 67.1193 112.841 67.2463 112.196 67.2463H47.3803C46.0784 67.2463 44.8298 66.7291 43.9092 65.8085C42.9886 64.8879 42.4714 63.6393 42.4714 62.3374V14.9692ZM45.6973 18.1951V62.3374C45.6973 62.7838 45.8746 63.2119 46.1902 63.5275C46.5058 63.8431 46.9339 64.0204 47.3803 64.0204H112.196C112.417 64.0204 112.636 63.9769 112.84 63.8923C113.045 63.8077 113.23 63.6838 113.386 63.5275C113.543 63.3712 113.667 63.1857 113.751 62.9815C113.836 62.7773 113.879 62.5585 113.879 62.3374V18.1951H45.6973Z" fill="#5C4FC4"/>
<path d="M114.25 10.9912H39.117C38.4583 10.9912 37.8265 11.2529 37.3608 11.7187C36.895 12.1845 36.6333 12.8162 36.6333 13.4749C36.6333 14.1336 36.895 14.7654 37.3608 15.2311C37.8265 15.6969 38.4583 15.9586 39.117 15.9586H114.25C114.909 15.9586 115.541 15.6969 116.007 15.2311C116.472 14.7654 116.734 14.1336 116.734 13.4749C116.734 12.8162 116.472 12.1845 116.007 11.7187C115.541 11.2529 114.909 10.9912 114.25 10.9912Z" fill="#5C4FC4"/>
<path fill-rule="evenodd" clip-rule="evenodd" d="M36.2201 10.5783C36.9884 9.81004 38.0304 9.37842 39.1169 9.37842H114.25C115.337 9.37842 116.379 9.81004 117.147 10.5783C117.915 11.3466 118.347 12.3885 118.347 13.475C118.347 14.5615 117.915 15.6035 117.147 16.3718C116.379 17.14 115.337 17.5717 114.25 17.5717H39.1169C38.0304 17.5717 36.9884 17.14 36.2201 16.3718C35.4519 15.6035 35.0203 14.5615 35.0203 13.475C35.0203 12.3885 35.4519 11.3466 36.2201 10.5783ZM39.1169 12.6043C38.886 12.6043 38.6645 12.696 38.5012 12.8593C38.3379 13.0226 38.2461 13.2441 38.2461 13.475C38.2461 13.706 38.3379 13.9275 38.5012 14.0908C38.6645 14.2541 38.886 14.3458 39.1169 14.3458H114.25C114.481 14.3458 114.703 14.2541 114.866 14.0908C115.029 13.9274 115.121 13.706 115.121 13.475C115.121 13.2441 115.029 13.0226 114.866 12.8593C114.703 12.696 114.481 12.6043 114.25 12.6043H39.1169Z" fill="#5C4FC4"/>
<path d="M117.252 10.9912H42.1182C41.4595 10.9912 40.8278 11.2529 40.362 11.7187C39.8962 12.1845 39.6345 12.8162 39.6345 13.4749C39.6345 14.1336 39.8962 14.7654 40.362 15.2311C40.8278 15.6969 41.4595 15.9586 42.1182 15.9586H117.252C117.91 15.9586 118.542 15.6969 119.008 15.2311C119.474 14.7654 119.735 14.1336 119.735 13.4749C119.735 12.8162 119.474 12.1845 119.008 11.7187C118.542 11.2529 117.91 10.9912 117.252 10.9912Z" fill="#F0ECFF"/>
<path fill-rule="evenodd" clip-rule="evenodd" d="M39.2214 10.5783C39.9896 9.81004 41.0316 9.37842 42.1181 9.37842H117.252C118.338 9.37842 119.38 9.81004 120.148 10.5783C120.917 11.3466 121.348 12.3885 121.348 13.475C121.348 14.5615 120.917 15.6035 120.148 16.3718C119.38 17.14 118.338 17.5717 117.252 17.5717H42.1181C41.0316 17.5717 39.9896 17.14 39.2214 16.3718C38.4531 15.6035 38.0215 14.5615 38.0215 13.475C38.0215 12.3885 38.4531 11.3466 39.2214 10.5783ZM42.1181 12.6043C41.8872 12.6043 41.6657 12.696 41.5024 12.8593C41.3391 13.0226 41.2473 13.2441 41.2473 13.475C41.2473 13.706 41.3391 13.9275 41.5024 14.0908C41.6657 14.2541 41.8872 14.3458 42.1181 14.3458H117.252C117.482 14.3458 117.704 14.2541 117.867 14.0908C118.031 13.9274 118.122 13.706 118.122 13.475C118.122 13.2441 118.031 13.0226 117.867 12.8593C117.704 12.696 117.482 12.6043 117.252 12.6043H42.1181Z" fill="#5C4FC4"/>
<path d="M98.1063 26.4629C96.6223 26.4623 95.1714 26.9019 93.9372 27.7259C92.703 28.55 91.7409 29.7216 91.1725 31.0925C90.6042 32.4634 90.4552 33.9721 90.7444 35.4277C91.0336 36.8833 91.7479 38.2204 92.7971 39.27C93.8463 40.3196 95.1831 41.0344 96.6386 41.3242C98.0941 41.6139 99.6028 41.4655 100.974 40.8977C102.345 40.3299 103.517 39.3683 104.342 38.1344C105.166 36.9005 105.606 35.4498 105.606 33.9657H98.1063V26.4629Z" fill="#AEA7E0"/>
<path fill-rule="evenodd" clip-rule="evenodd" d="M93.0417 26.3847C94.5412 25.3834 96.304 24.8494 98.1071 24.8501L99.7194 24.8507V32.3529H107.219V33.9658C107.219 35.7689 106.685 37.5315 105.683 39.0307C104.681 40.5298 103.257 41.6982 101.591 42.3881C99.9253 43.0779 98.0922 43.2582 96.3239 42.9062C94.5555 42.5542 92.9312 41.6856 91.6565 40.4104C90.3818 39.1352 89.5139 37.5106 89.1625 35.7421C88.8112 33.9736 88.9922 32.1406 89.6827 30.475C90.3732 28.8093 91.5421 27.3859 93.0417 26.3847ZM96.4935 28.3003C95.9066 28.4671 95.3459 28.725 94.833 29.0675C93.8641 29.7144 93.1088 30.6341 92.6626 31.7103C92.2165 32.7865 92.0995 33.9708 92.3266 35.1135C92.5536 36.2562 93.1143 37.3059 93.938 38.1298C94.7616 38.9538 95.8111 39.515 96.9536 39.7424C98.0962 39.9699 99.2806 39.8534 100.357 39.4076C101.433 38.9619 102.353 38.207 103.001 37.2383C103.343 36.7257 103.601 36.1654 103.768 35.5788H96.4935V28.3003Z" fill="#5C4FC4"/>
<path fill-rule="evenodd" clip-rule="evenodd" d="M102.453 21.2275C104.514 21.2277 106.49 22.0465 107.947 23.5039C109.405 24.9612 110.223 26.9377 110.223 28.9985V30.6115H100.84V22.8405H102.453L102.453 21.2275ZM104.066 24.7494V27.3856H106.702C106.476 26.7904 106.125 26.2436 105.666 25.7848C105.208 25.326 104.661 24.9754 104.066 24.7494Z" fill="#5C4FC4"/>
<path fill-rule="evenodd" clip-rule="evenodd" d="M90.0339 50.9814H96.8647V54.2073H90.0339V50.9814Z" fill="#5C4FC4"/>
<path fill-rule="evenodd" clip-rule="evenodd" d="M106.178 49.8606H90.0339V46.6348H106.178V49.8606Z" fill="#5C4FC4"/>
<path fill-rule="evenodd" clip-rule="evenodd" d="M104.316 58.5535H90.0339V55.3276H104.316V58.5535Z" fill="#5C4FC4"/>
<path fill-rule="evenodd" clip-rule="evenodd" d="M84.671 28.2807L75.2571 45.6719L62.5531 41.6297L54.0711 54.3532L51.387 52.5639L61.2164 37.8191L73.6911 41.7884L81.834 26.7451L84.671 28.2807Z" fill="#5C4FC4"/>
<path d="M55.59 53.4588C55.5898 54.0246 55.4219 54.5777 55.1075 55.0481C54.7931 55.5185 54.3462 55.8851 53.8234 56.1016C53.3006 56.318 52.7254 56.3746 52.1704 56.2642C51.6155 56.1537 51.1058 55.8812 50.7057 55.481C50.3056 55.0809 50.0332 54.5711 49.9229 54.0161C49.8125 53.4611 49.8692 52.8859 50.0858 52.3632C50.3023 51.8404 50.669 51.3936 51.1395 51.0793C51.61 50.7649 52.1631 50.5972 52.7289 50.5972C53.1047 50.5972 53.4768 50.6712 53.8239 50.815C54.1711 50.9588 54.4865 51.1696 54.7522 51.4353C55.0179 51.7011 55.2286 52.0165 55.3723 52.3637C55.5161 52.7109 55.59 53.083 55.59 53.4588Z" fill="#F5F5F5"/>
<path fill-rule="evenodd" clip-rule="evenodd" d="M52.7291 52.2102C52.4822 52.2102 52.2409 52.2834 52.0357 52.4205C51.8305 52.5577 51.6705 52.7526 51.576 52.9806C51.4815 53.2087 51.4568 53.4596 51.5049 53.7017C51.5531 53.9438 51.6719 54.1662 51.8465 54.3408C52.021 54.5153 52.2434 54.6342 52.4854 54.6824C52.7275 54.7306 52.9784 54.7059 53.2065 54.6115C53.4346 54.517 53.6295 54.3571 53.7667 54.1519C53.9039 53.9467 53.9771 53.7054 53.9772 53.4586C53.9772 53.2947 53.9449 53.1323 53.8822 52.9809C53.8195 52.8294 53.7276 52.6918 53.6117 52.5759C53.4958 52.4599 53.3582 52.368 53.2067 52.3053C53.0553 52.2425 52.893 52.2102 52.7291 52.2102ZM50.2436 49.7383C50.9793 49.2467 51.8443 48.9844 52.7291 48.9844C53.3166 48.9844 53.8985 49.1001 54.4414 49.325C54.9843 49.5499 55.4775 49.8796 55.893 50.2951C56.3084 50.7106 56.6379 51.2039 56.8627 51.7468C57.0875 52.2897 57.2031 52.8716 57.203 53.4592C57.2028 54.3441 56.9403 55.209 56.4486 55.9446C55.9569 56.6802 55.2581 57.2535 54.4405 57.592C53.623 57.9304 52.7235 58.0189 51.8557 57.8462C50.9879 57.6735 50.1908 57.2473 49.5652 56.6215C48.9396 55.9958 48.5136 55.1986 48.341 54.3308C48.1685 53.4629 48.2571 52.5634 48.5958 51.746C48.9344 50.9285 49.5079 50.2299 50.2436 49.7383Z" fill="#5C4FC4"/>
<path d="M61.8847 42.5853C63.4648 42.5853 64.7457 41.3044 64.7457 39.7243C64.7457 38.1442 63.4648 36.8633 61.8847 36.8633C60.3046 36.8633 59.0237 38.1442 59.0237 39.7243C59.0237 41.3044 60.3046 42.5853 61.8847 42.5853Z" fill="#F5F5F5"/>
<path fill-rule="evenodd" clip-rule="evenodd" d="M61.8848 38.4763C61.1955 38.4763 60.6367 39.0351 60.6367 39.7244C60.6367 40.4137 61.1955 40.9725 61.8848 40.9725C62.5741 40.9725 63.1329 40.4137 63.1329 39.7244C63.1329 39.0351 62.5741 38.4763 61.8848 38.4763ZM57.4109 39.7244C57.4109 37.2535 59.4139 35.2505 61.8848 35.2505C64.3557 35.2505 66.3588 37.2535 66.3588 39.7244C66.3588 42.1953 64.3557 44.1984 61.8848 44.1984C59.4139 44.1984 57.4109 42.1953 57.4109 39.7244Z" fill="#5C4FC4"/>
<path d="M74.474 46.5912C76.0541 46.5912 77.3351 45.3103 77.3351 43.7302C77.3351 42.1501 76.0541 40.8691 74.474 40.8691C72.894 40.8691 71.613 42.1501 71.613 43.7302C71.613 45.3103 72.894 46.5912 74.474 46.5912Z" fill="#F5F5F5"/>
<path fill-rule="evenodd" clip-rule="evenodd" d="M74.4742 42.4822C73.7849 42.4822 73.2261 43.041 73.2261 43.7303C73.2261 44.4196 73.7849 44.9784 74.4742 44.9784C75.1635 44.9784 75.7223 44.4196 75.7223 43.7303C75.7223 43.041 75.1635 42.4822 74.4742 42.4822ZM70.0002 43.7303C70.0002 41.2594 72.0033 39.2563 74.4742 39.2563C76.9451 39.2563 78.9481 41.2594 78.9481 43.7303C78.9481 46.2012 76.9451 48.2042 74.4742 48.2042C72.0033 48.2042 70.0002 46.2012 70.0002 43.7303Z" fill="#5C4FC4"/>
<path d="M83.2526 30.3739C84.8327 30.3739 86.1136 29.093 86.1136 27.5129C86.1136 25.9328 84.8327 24.6519 83.2526 24.6519C81.6725 24.6519 80.3916 25.9328 80.3916 27.5129C80.3916 29.093 81.6725 30.3739 83.2526 30.3739Z" fill="#F5F5F5"/>
<path fill-rule="evenodd" clip-rule="evenodd" d="M83.2525 26.2649C82.5632 26.2649 82.0044 26.8237 82.0044 27.513C82.0044 28.2023 82.5632 28.7611 83.2525 28.7611C83.9418 28.7611 84.5006 28.2023 84.5006 27.513C84.5006 26.8237 83.9418 26.2649 83.2525 26.2649ZM78.7786 27.513C78.7786 25.0421 80.7816 23.0391 83.2525 23.0391C85.7234 23.0391 87.7265 25.0421 87.7265 27.513C87.7265 29.9839 85.7234 31.9869 83.2525 31.9869C80.7816 31.9869 78.7786 29.9839 78.7786 27.513Z" fill="#5C4FC4"/>
<path fill-rule="evenodd" clip-rule="evenodd" d="M63.9546 25.0227H49.6733V21.7969H63.9546V25.0227Z" fill="#5C4FC4"/>
<path fill-rule="evenodd" clip-rule="evenodd" d="M56.3378 29.3694H49.6733V26.1436H56.3378V29.3694Z" fill="#5C4FC4"/>
</g>
<defs>
<clipPath id="clip0">
<rect width="150" height="86.0455" fill="white"/>
</clipPath>
</defs>
</svg>
