<svg width="150" height="93" viewBox="0 0 150 93" fill="none" xmlns="http://www.w3.org/2000/svg">
<g clip-path="url(#clip0)">
<path d="M13.7109 53.9189H47.8121C48.962 53.9189 50.0648 54.3758 50.878 55.1889C51.6911 56.002 52.1479 57.1049 52.1479 58.2548V91.4185H9.375V58.2548C9.375 57.1049 9.83182 56.002 10.645 55.1889C11.4581 54.3758 12.5609 53.9189 13.7109 53.9189Z" fill="#F5F5F5"/>
<path d="M13.7109 53.9189H47.8179C48.9664 53.9193 50.0678 54.3757 50.8798 55.1879C51.6918 56.0002 52.1479 57.1016 52.1479 58.2501V64.4657H9.375V58.2501C9.375 57.681 9.48718 57.1174 9.70514 56.5916C9.9231 56.0658 10.2426 55.5881 10.6452 55.1859C11.0479 54.7836 11.5259 54.4647 12.052 54.2473C12.578 54.0299 13.1417 53.9183 13.7109 53.9189Z" fill="#F0ECFF"/>
<path d="M53.3213 92.5904H8.20459V58.2548C8.2063 56.7946 8.78712 55.3947 9.81965 54.3621C10.8522 53.3296 12.2521 52.7488 13.7123 52.7471H47.8135C49.2737 52.7488 50.6737 53.3296 51.7062 54.3621C52.7387 55.3947 53.3195 56.7946 53.3213 58.2548V92.5904ZM10.5483 90.2466H50.9775V58.2548C50.9766 57.4159 50.6429 56.6117 50.0498 56.0185C49.4566 55.4254 48.6524 55.0917 47.8135 55.0908H13.7123C12.8735 55.0917 12.0692 55.4254 11.4761 56.0185C10.8829 56.6117 10.5492 57.4159 10.5483 58.2548V90.2466Z" fill="#5C4FC4"/>
<path d="M52.1494 63.2939H9.37646V65.6377H52.1494V63.2939Z" fill="#5C4FC4"/>
<path d="M18.1655 53.9189H15.8218V59.1923H18.1655V53.9189Z" fill="#5C4FC4"/>
<path d="M25.1967 53.9189H22.853V59.1923H25.1967V53.9189Z" fill="#5C4FC4"/>
<path d="M31.6421 53.9189H29.2983V59.1923H31.6421V53.9189Z" fill="#5C4FC4"/>
<path d="M22.8529 75.5986H15.8218V69.7393H18.1655V73.2548H22.8529V75.5986Z" fill="#5C4FC4"/>
<path d="M22.8529 84.3876H15.8218V78.5283H18.1655V82.0439H22.8529V84.3876Z" fill="#5C4FC4"/>
<path d="M33.3998 75.5986H26.3687V69.7393H28.7124V73.2548H33.3998V75.5986Z" fill="#5C4FC4"/>
<path d="M33.3998 84.3876H26.3687V78.5283H28.7124V82.0439H33.3998V84.3876Z" fill="#5C4FC4"/>
<path d="M65.7633 32.8257H108.849C109.972 32.8263 111.05 33.2731 111.844 34.068C112.639 34.8628 113.085 35.9406 113.085 37.0643V75.5986H61.5229V37.0643C61.5229 36.5075 61.6326 35.9562 61.8458 35.4419C62.0589 34.9275 62.3713 34.4601 62.765 34.0665C63.1588 33.6729 63.6263 33.3607 64.1407 33.1478C64.6552 32.9349 65.2066 32.8255 65.7633 32.8257Z" fill="#5C4FC4"/>
<path d="M114.258 76.7705H60.3525V37.0643C60.3541 35.6298 60.9246 34.2545 61.9389 33.2402C62.9533 32.2259 64.3285 31.6554 65.763 31.6538H108.848C110.282 31.6554 111.657 32.2259 112.672 33.2402C113.686 34.2545 114.257 35.6298 114.258 37.0643V76.7705ZM62.6963 74.4267H111.914V37.0643C111.914 36.2512 111.59 35.4717 111.015 34.8968C110.44 34.3219 109.661 33.9985 108.848 33.9975H65.763C64.9499 33.9985 64.1705 34.3219 63.5955 34.8968C63.0206 35.4717 62.6972 36.2512 62.6963 37.0643V74.4267Z" fill="#5C4FC4"/>
<path d="M64.0055 32.8257H107.091C108.215 32.8263 109.292 33.2731 110.086 34.068C110.881 34.8628 111.327 35.9406 111.327 37.0643V75.5986H59.7651V37.0643C59.7651 36.5075 59.8748 35.9562 60.088 35.4419C60.3011 34.9275 60.6134 34.4601 61.0072 34.0665C61.401 33.6729 61.8685 33.3607 62.3829 33.1478C62.8974 32.9349 63.4487 32.8255 64.0055 32.8257Z" fill="#F5F5F5"/>
<path d="M111.328 39.8569V37.0643C111.328 35.9402 110.882 34.862 110.087 34.0671C109.292 33.2723 108.214 32.8257 107.09 32.8257H64.0052C62.8811 32.8257 61.803 33.2723 61.0081 34.0671C60.2132 34.862 59.7666 35.9402 59.7666 37.0643V39.8569H111.328Z" fill="#AEA7E0"/>
<path d="M112.5 76.7705H58.5947V37.0643C58.5963 35.6298 59.1668 34.2545 60.1811 33.2402C61.1955 32.2259 62.5707 31.6554 64.0052 31.6538H107.09C108.524 31.6554 109.9 32.2259 110.914 33.2402C111.928 34.2545 112.499 35.6298 112.5 37.0643V76.7705ZM60.9384 74.4267H110.157V37.0643C110.156 36.2512 109.832 35.4717 109.257 34.8968C108.682 34.3219 107.903 33.9985 107.09 33.9975H64.0052C63.1921 33.9985 62.4126 34.3219 61.8377 34.8968C61.2628 35.4717 60.9394 36.2512 60.9384 37.0643V74.4267Z" fill="#5C4FC4"/>
<path d="M111.329 39.8569H59.7666V42.2007H111.329V39.8569Z" fill="#5C4FC4"/>
<path d="M74.4595 44.5444H64.9955C64.3729 44.5444 63.8682 45.0492 63.8682 45.6718V54.5498C63.8682 55.1724 64.3729 55.6771 64.9955 55.6771H74.4595C75.0821 55.6771 75.5868 55.1724 75.5868 54.5498V45.6718C75.5868 45.0492 75.0821 44.5444 74.4595 44.5444Z" fill="#AEA7E0"/>
<path d="M90.2798 44.5444H80.8158C80.1932 44.5444 79.6885 45.0492 79.6885 45.6718V54.5498C79.6885 55.1724 80.1932 55.6771 80.8158 55.6771H90.2798C90.9024 55.6771 91.4071 55.1724 91.4071 54.5498V45.6718C91.4071 45.0492 90.9024 44.5444 90.2798 44.5444Z" fill="#AEA7E0"/>
<path d="M106.1 44.5444H96.6356C96.013 44.5444 95.5083 45.0492 95.5083 45.6718V54.5498C95.5083 55.1724 96.013 55.6771 96.6356 55.6771H106.1C106.722 55.6771 107.227 55.1724 107.227 54.5498V45.6718C107.227 45.0492 106.722 44.5444 106.1 44.5444Z" fill="#AEA7E0"/>
<path d="M150 92.5903H0H0.00175779H0V90.2466H150V92.5903Z" fill="#5C4FC4"/>
<path d="M122.168 13.4541C120.387 13.4514 118.649 14.0047 117.197 15.0368C115.745 16.0688 114.651 17.5283 114.067 19.2116C113.484 20.895 113.441 22.7184 113.943 24.4276C114.445 26.1369 115.469 27.6468 116.87 28.7469C117.335 29.1152 117.711 29.5842 117.969 30.1188C118.227 30.6533 118.361 31.2394 118.36 31.833V35.0767C118.345 35.9567 118.631 36.8154 119.17 37.5111C119.709 38.2069 120.47 38.6982 121.325 38.904C121.883 39.0299 122.461 39.0288 123.018 38.9009C123.575 38.7729 124.096 38.5214 124.543 38.1649C124.99 37.8084 125.35 37.356 125.599 36.8412C125.847 36.3264 125.976 35.7624 125.977 35.191V31.833C125.975 31.2389 126.109 30.6522 126.367 30.1172C126.625 29.5821 127.001 29.1126 127.467 28.744C128.867 27.6435 129.889 26.1338 130.391 24.4251C130.892 22.7164 130.849 20.8938 130.266 19.2111C129.682 17.5285 128.589 16.0696 127.138 15.0377C125.686 14.0058 123.949 13.4522 122.168 13.4541Z" fill="#F0ECFF"/>
<path d="M122.162 40.1648C121.798 40.1638 121.436 40.1245 121.081 40.0476C119.963 39.7851 118.969 39.1495 118.261 38.2457C117.553 37.3419 117.175 36.2238 117.188 35.076V31.8329C117.19 31.416 117.098 31.004 116.917 30.6283C116.736 30.2527 116.472 29.9232 116.145 29.6649C114.553 28.414 113.391 26.6977 112.821 24.7551C112.251 22.8126 112.3 20.7406 112.963 18.8276C113.626 16.9147 114.869 15.2562 116.519 14.083C118.169 12.9099 120.144 12.2806 122.168 12.2827C124.192 12.2815 126.166 12.9112 127.815 14.0842C129.464 15.2571 130.706 16.915 131.369 18.8271C132.031 20.7391 132.082 22.8102 131.512 24.7521C130.943 26.694 129.782 28.4101 128.192 29.6614C127.864 29.9196 127.6 30.2491 127.42 30.6248C127.239 31.0005 127.146 31.4125 127.149 31.8294V35.1873C127.148 35.8415 127.019 36.4893 126.768 37.0935C126.518 37.6977 126.15 38.2465 125.687 38.7085C125.224 39.1705 124.674 39.5366 124.069 39.7859C123.464 40.0352 122.816 40.1628 122.162 40.1613V40.1648ZM122.168 14.6259C120.631 14.6237 119.131 15.1011 117.878 15.9917C116.625 16.8823 115.681 18.1416 115.178 19.5941C114.674 21.0466 114.637 22.6201 115.07 24.0951C115.503 25.5701 116.386 26.8732 117.595 27.8228C118.201 28.2997 118.691 28.9088 119.027 29.6038C119.363 30.2987 119.535 31.0611 119.532 31.8329V35.076C119.516 35.688 119.71 36.287 120.08 36.7744C120.45 37.2619 120.976 37.6087 121.569 37.7578C121.956 37.8473 122.358 37.8485 122.745 37.7612C123.132 37.674 123.495 37.5006 123.806 37.2539C124.117 37.0073 124.368 36.6937 124.541 36.3365C124.714 35.9793 124.804 35.5877 124.805 35.1908V31.8329C124.801 31.0612 124.974 30.2989 125.31 29.604C125.645 28.9092 126.135 28.3001 126.742 27.8234C127.951 26.8736 128.833 25.5705 129.267 24.0955C129.7 22.6205 129.662 21.0471 129.159 19.5946C128.655 18.1421 127.711 16.8828 126.458 15.9921C125.205 15.1015 123.706 14.6239 122.168 14.6259Z" fill="#5C4FC4"/>
<path d="M118.342 31.6538C118.35 31.7569 118.36 31.8595 118.36 31.9638V35.3903C118.345 36.2725 118.631 37.1336 119.169 37.8329C119.707 38.5322 120.466 39.0284 121.322 39.2404C121.888 39.3632 122.474 39.3567 123.037 39.2212C123.599 39.0857 124.124 38.8248 124.571 38.458C125.019 38.0912 125.378 37.6279 125.621 37.1029C125.865 36.5779 125.986 36.0047 125.977 35.426V31.9638C125.977 31.8595 125.987 31.7569 125.995 31.6538H118.342Z" fill="#F5F5F5"/>
<path d="M122.159 40.5014C121.494 40.5025 120.836 40.37 120.223 40.1118C119.61 39.8536 119.055 39.4749 118.592 38.9982C118.128 38.5215 117.765 37.9565 117.524 37.3367C117.282 36.7169 117.168 36.055 117.188 35.3903V31.9638C117.188 31.9087 117.182 31.8548 117.178 31.8003L117.075 30.5335L118.341 30.4819H127.261L127.163 31.7446C127.154 31.8548 127.149 31.9087 127.149 31.9638V35.4266C127.152 36.1915 126.984 36.9473 126.655 37.638C126.326 38.3288 125.846 38.9365 125.251 39.4162C124.374 40.1203 123.283 40.5033 122.159 40.5014ZM119.531 32.8257V35.3903C119.516 36.0061 119.709 36.609 120.08 37.1009C120.451 37.5928 120.977 37.9446 121.573 38.099C121.956 38.1883 122.353 38.1891 122.736 38.1012C123.119 38.0134 123.477 37.8393 123.782 37.5922C124.104 37.3316 124.364 37.0014 124.541 36.6264C124.718 36.2515 124.808 35.8413 124.805 35.4266V32.8257H119.531Z" fill="#5C4FC4"/>
<path d="M123.633 22.2788H121.29V31.6537H123.633V22.2788Z" fill="#5C4FC4"/>
<path d="M125.391 21.1069H119.532V23.4507H125.391V21.1069Z" fill="#5C4FC4"/>
<path d="M110.157 20.521H104.883V22.8647H110.157V20.521Z" fill="#5C4FC4"/>
<path d="M139.453 20.521H134.18V22.8647H139.453V20.521Z" fill="#5C4FC4"/>
<path d="M110.362 9.2466L108.705 10.9038L112.46 14.6593L114.118 13.0021L110.362 9.2466Z" fill="#5C4FC4"/>
<path d="M133.383 9.24758L129.628 13.0029L131.285 14.6602L135.041 10.9048L133.383 9.24758Z" fill="#5C4FC4"/>
<path d="M123.633 4.70068H121.29V9.38813H123.633V4.70068Z" fill="#5C4FC4"/>
<path d="M68.5558 86.1452V91.3079C62.3449 91.3079 49.806 91.4186 46.2904 90.2467C42.36 88.9366 38.6733 84.9734 38.0874 80.8718C37.2191 75.0544 37.0225 69.1563 37.5015 63.2939C38.0874 55.0909 40.4311 52.7472 42.1889 50.9894C43.9467 49.2316 46.8764 48.0597 49.806 45.716C52.7357 43.3723 53.3216 39.8567 53.3216 35.7552C53.3216 31.6537 52.7357 29.31 51.5638 24.6225C52.7357 17.0054 53.9075 9.38832 59.7668 7.63052C65.6262 5.87273 75.001 7.04459 76.1729 13.4898C77.3448 19.9351 76.7588 29.8959 75.587 34.5833C75.001 36.9271 73.8292 36.9271 72.0714 36.9271C70.3136 36.9271 67.9699 36.3411 66.2121 36.3411C64.4543 36.3411 63.8684 36.9271 63.8684 39.2708C63.8684 41.6145 64.4543 43.9582 67.3839 45.1301C70.3136 46.3019 75.6919 47.0976 77.9307 51.5753C79.6885 55.0909 83.79 69.7392 86.1337 75.5985C87.7157 79.5588 90.3214 82.4152 94.9227 84.3874C98.6305 85.952 102.617 86.7493 106.641 86.7312V91.3079C98.4383 91.3079 96.3055 91.3506 91.2196 91.3846C86.1337 91.4186 83.1812 89.9198 80.2744 85.5593C77.5519 81.365 75.3854 76.835 73.8292 72.0829C73.0549 77.0837 72.0296 82.0425 70.7572 86.9403C69.8695 87.1079 68.5558 86.7312 68.5558 86.1452Z" fill="#F0ECFF"/>
<path d="M51.9291 43.1739C55.4951 45.9922 61.5542 46.6561 65.5051 43.9573C64.1868 42.701 63.868 40.9872 63.868 39.2698C63.868 36.9261 64.454 36.3402 66.2117 36.3402C67.9695 36.3402 70.3133 36.9261 72.0711 36.9261C73.8288 36.9261 75.0007 36.9261 75.5866 34.5824C76.7585 29.8949 77.3444 19.9341 76.1726 13.4889C75.0007 7.04362 65.6258 5.87176 59.7665 7.62955C53.9072 9.38734 52.7353 17.0044 51.5635 24.6215C52.7353 29.309 53.3213 31.6527 53.3213 35.7542C53.3213 38.5679 53.0453 41.102 51.9291 43.1739Z" fill="#F5F5F5"/>
<path d="M94.9227 84.3877C90.3214 82.4155 87.7157 79.5591 86.1337 75.5988C83.79 69.7395 79.6885 55.0912 77.9307 51.5756C76.1266 47.968 72.2864 46.7511 69.3298 45.8013C69.1417 47.5491 69.1417 49.9725 69.1417 51.5756L64.4543 49.8178L62.1106 54.5053C57.8619 51.3241 53.1873 48.7554 48.224 46.8747C45.8563 48.4936 43.6286 49.5501 42.1889 50.9897C40.4311 52.7475 38.0874 55.0912 37.5015 63.2942C37.0225 69.1566 37.2191 75.0547 38.0874 80.8722C38.6733 84.9737 42.36 88.9369 46.2904 90.247C49.806 91.4189 62.3449 91.3082 68.5558 91.3082V86.1455C68.5558 86.7315 69.8695 87.1082 70.7572 86.9406C72.0296 82.0428 73.0549 77.084 73.8292 72.0832C75.3854 76.8353 77.5519 81.3653 80.2744 85.5596C83.1812 89.9201 86.1337 91.4189 91.2196 91.3849C96.3055 91.3509 98.4383 91.3082 106.641 91.3082V86.7315C102.617 86.7496 98.6305 85.9523 94.9227 84.3877Z" fill="#AEA7E0"/>
<path d="M42.7749 82.6298C41.9065 76.8123 41.7099 70.9142 42.1889 65.0518C42.7749 56.8488 45.1186 54.5051 46.8764 52.7473C48.2685 51.3551 50.3996 50.3169 52.68 48.7858C51.2439 48.0909 49.7422 47.4382 48.2269 46.8745C45.8592 48.4934 43.6315 49.5499 42.1919 50.9895C40.4341 52.7473 38.0903 55.091 37.5044 63.294C37.0254 69.1564 37.222 75.0545 38.0903 80.872C38.6763 84.9735 42.3629 88.9367 46.2934 90.2469C46.9462 90.4436 47.6143 90.5853 48.2908 90.6705C45.4889 88.8207 43.2231 85.768 42.7749 82.6298Z" fill="#F5F5F5"/>
<path d="M91.0617 92.5572C85.6453 92.5572 82.3378 90.7678 79.2991 86.2092C76.5217 81.9264 74.3089 77.3029 72.7156 72.4534L74.9392 71.7127C76.4657 76.3648 78.5861 80.8004 81.2479 84.9097C83.8846 88.8606 86.369 90.2135 91.0459 90.2135H91.2099C92.5529 90.2047 93.6896 90.1953 94.787 90.186C97.6962 90.1613 100.236 90.1397 105.468 90.1367V87.8833C101.68 87.7678 97.947 86.9478 94.4595 85.4651C89.8131 83.473 86.8213 80.4771 85.0442 76.0346C83.9403 73.2742 82.4573 68.6108 81.0241 64.1015C79.4298 59.0865 77.7816 53.9016 76.881 52.1005C75.3072 48.9528 71.8191 47.8325 69.016 46.932C68.2707 46.6929 67.567 46.4667 66.9471 46.2189C62.6962 44.5173 62.6962 40.5688 62.6962 39.2709C62.6962 37.1405 63.1222 35.1694 66.2118 35.1694C67.2493 35.201 68.2835 35.3028 69.3073 35.4741C70.2215 35.6276 71.1447 35.7216 72.0711 35.7553C73.7785 35.7553 74.0855 35.7553 74.45 34.2993C75.6289 29.582 76.1234 19.7682 75.0195 13.6997C74.8621 12.8768 74.5262 12.0983 74.0354 11.4193C73.5446 10.7402 72.9109 10.177 72.1789 9.76931C68.8391 7.725 63.578 7.71094 60.1035 8.75331C55.0059 10.282 53.8926 17.1966 52.7576 24.5676C53.9131 29.1929 54.4932 31.5782 54.4932 35.7553C54.4932 39.5686 54.0244 43.8412 50.5375 46.6308C49.2134 47.6577 47.8238 48.5972 46.3774 49.4433C45.1729 50.1065 44.0462 50.9023 43.0183 51.8157C41.3291 53.5055 39.2262 55.6084 38.6713 63.3755C38.2012 69.1547 38.3948 74.9687 39.2484 80.7038C39.7494 84.2118 43.006 87.9143 46.6616 89.1325C49.7337 90.1567 61.0064 90.1438 67.0643 90.1356H67.3836V87.3114C60.8107 87.2446 56.2222 86.5573 51.5284 83.6235C48.4464 81.6976 47.8675 78.9156 47.4714 75.7439C46.7745 70.5366 46.9791 65.2481 48.0761 60.1101L50.3612 60.6187C49.323 65.4945 49.1312 70.5125 49.794 75.4533C50.1374 78.2002 50.5516 80.2509 52.7682 81.6361C57.257 84.4415 61.7792 84.9759 68.5532 84.9759H69.725V92.4822H67.0631C58.1025 92.4969 49.0862 92.4154 45.9175 91.3596C41.417 89.859 37.551 85.4223 36.9246 81.0384C36.0462 75.1381 35.8467 69.1566 36.3299 63.2109C36.9469 54.5719 39.4939 52.0231 41.3578 50.1616C42.514 49.1133 43.7875 48.202 45.1528 47.4458C46.515 46.6507 47.8238 45.7676 49.071 44.8021C51.7745 42.6394 52.1471 39.1772 52.1471 35.7559C52.1471 31.7986 51.5717 29.4958 50.4245 24.9074L50.3659 24.6783L50.4016 24.444C51.6092 16.5925 52.8578 8.47792 59.4249 6.50744C63.2769 5.35198 69.2926 5.25413 73.3982 7.7707C74.4109 8.35121 75.2859 9.14408 75.963 10.0948C76.6402 11.0456 77.1035 12.1317 77.321 13.2785C78.5105 19.8221 77.9585 29.9077 76.7187 34.8659C75.9154 38.0991 73.8734 38.0991 72.0711 38.0991C71.0336 38.0674 69.9994 37.9656 68.9756 37.7944C68.0614 37.6408 67.1382 37.5469 66.2118 37.5131C65.2186 37.5131 65.0399 37.5131 65.0399 39.2709C65.0399 41.8701 65.845 43.2523 67.819 44.0422C68.3627 44.2601 69.0289 44.4734 69.7338 44.7002C72.7853 45.6804 76.9642 47.0222 78.9786 51.0511C79.9612 53.0163 81.5632 58.0559 83.2588 63.3908C84.6797 67.8602 86.1487 72.4821 87.2215 75.1633C88.7736 79.0433 91.2908 81.5564 95.3841 83.3107C98.9443 84.8185 102.775 85.5837 106.641 85.5594H107.813V92.4799H106.641C100.61 92.4799 97.9212 92.5027 94.8081 92.5291C93.7095 92.5385 92.571 92.5478 91.2269 92.5566L91.0617 92.5572Z" fill="#5C4FC4"/>
<path d="M70.1461 91.9459L68.001 91.0019C72.6064 80.5407 73.7912 72.5762 72.0914 63.5101L74.3953 63.0776C76.1665 72.524 74.8956 81.1577 70.1461 91.9459Z" fill="#5C4FC4"/>
<path d="M51.5637 24.6227C50.3122 19.6405 50.1127 14.4521 50.9778 9.38849C51.5637 6.45884 53.3215 5.87291 54.4934 5.87291C56.2512 5.87291 57.423 5.87291 58.009 4.11512C58.5949 2.35733 59.7726 1.01848 62.1105 1.18547C70.3135 1.7714 77.3447 1.7714 81.4462 1.7714C84.3759 1.7714 86.2631 3.57489 84.9618 7.04477C83.204 11.7322 79.1025 14.6619 72.6572 14.0759C68.6709 13.7696 64.7362 12.9826 60.9386 11.7322C59.7668 17.5915 58.5949 22.279 51.5637 24.6227Z" fill="#F0ECFF"/>
<path d="M50.7734 26.1213L50.4371 24.9441C49.128 19.7834 48.9208 14.4048 49.8289 9.15859C50.6563 5.0225 53.6082 4.70083 54.4935 4.70083C56.3837 4.70083 56.6081 4.61176 56.8958 3.74459C57.7583 1.1577 59.6356 -0.164156 62.1932 0.0163107C70.3541 0.602241 77.2968 0.602241 81.4452 0.602241C83.4027 0.602241 84.9607 1.2913 85.8262 2.54285C86.4402 3.42936 86.9793 5.00375 86.0605 7.4588C83.9828 12.9994 79.061 15.8376 72.5525 15.2458C68.9184 14.956 65.3246 14.2863 61.8299 13.2478C60.7753 18.3014 59.2454 23.3012 51.9365 25.7375L50.7734 26.1213ZM61.7145 2.34246C60.4015 2.34246 59.6163 2.99812 59.1206 4.48521C58.2675 7.04455 56.2624 7.04455 54.4935 7.04455C53.2631 7.04455 52.4685 7.90997 52.1269 9.61796C51.3773 14.0783 51.4634 18.6391 52.3806 23.068C57.5439 20.917 58.6501 17.1858 59.7897 11.5023L60.0499 10.2004L61.3091 10.6199C65.0204 11.844 68.8667 12.6125 72.7634 12.9085C78.2167 13.4042 82.1606 11.1759 83.8645 6.63322C84.1768 5.8012 84.4357 4.64751 83.9008 3.87525C83.4842 3.27409 82.6129 2.94304 81.4463 2.94304C77.2669 2.94304 70.272 2.94304 62.0268 2.35711C61.9196 2.34656 61.8176 2.34246 61.7145 2.34246Z" fill="#5C4FC4"/>
<path d="M62.2933 54.3943L61.378 53.6619C59.5681 52.214 55.456 50.7322 51.1026 49.1672C50.0291 48.7811 48.927 48.3844 47.8173 47.9742L45.6909 47.1873L47.5618 45.9077C47.976 45.6241 48.5227 45.242 49.0735 44.8014C49.8246 44.2059 50.4456 43.4627 50.8981 42.6177L51.5608 41.3872L52.6559 42.2532C56.0467 44.9327 61.514 45.2631 64.8432 42.9886L65.626 42.4536L66.3127 43.1075C66.7493 43.5129 67.2603 43.8299 67.8174 44.0409C68.3407 44.2495 68.9893 44.4452 69.6631 44.6444L70.6006 44.9215L70.4945 45.8954C70.3135 47.5834 70.3135 49.9857 70.3135 51.5754V53.2664L64.8385 51.2156L62.2933 54.3943ZM50.6725 46.5211L51.8959 46.9623C55.9974 48.4377 59.6115 49.7385 61.8813 51.1582L64.0698 48.4219L67.975 49.8867C67.985 48.8285 68.0114 47.6655 68.0828 46.6155C67.6838 46.4895 67.3018 46.3594 66.9491 46.2182C66.406 46.0038 65.8899 45.7263 65.4116 45.3915C61.5831 47.5301 56.1861 47.2893 52.2615 44.8378C51.8029 45.4619 51.2692 46.0273 50.6725 46.5211Z" fill="#5C4FC4"/>
<path d="M65.8867 44.2856L65.8939 44.291L65.8867 44.2856Z" fill="#F5F5F5"/>
<path d="M66.7588 44.8403C66.7857 44.8544 66.8103 44.8702 66.8379 44.8837C66.8103 44.8702 66.7857 44.8544 66.7588 44.8403Z" fill="#F5F5F5"/>
<path d="M66.2988 44.5752C66.3129 44.5846 66.3252 44.594 66.3399 44.6027C66.3252 44.594 66.3129 44.584 66.2988 44.5752Z" fill="#F5F5F5"/>
<path d="M68.5557 87.3172C72.6572 85.5594 80.1372 83.8872 82.0321 86.7313C82.5465 87.4043 82.8252 88.2279 82.8252 89.075C82.8252 89.9221 82.5465 90.7457 82.0321 91.4187H68.5557V87.3172Z" fill="#F5F5F5"/>
<path d="M82.6145 92.5905H67.3838V86.546L68.0939 86.2413C70.6181 85.1776 73.2772 84.4677 75.9958 84.132C79.5342 83.7523 81.892 84.4068 83.007 86.0796C83.6555 86.9559 84.0021 88.0189 83.9947 89.109C83.9873 90.1991 83.6263 91.2573 82.966 92.1247L82.6145 92.5905ZM69.7275 90.2468H81.3875C81.6048 89.7859 81.6893 89.2735 81.6314 88.7673C81.5736 88.261 81.3757 87.7809 81.06 87.381C79.8881 85.6267 74.289 86.3146 69.7304 88.104L69.7275 90.2468Z" fill="#5C4FC4"/>
<path d="M107.813 87.3172C111.915 85.5594 119.394 83.8872 121.289 86.7313C121.804 87.4043 122.082 88.2279 122.082 89.075C122.082 89.9221 121.804 90.7457 121.289 91.4187H107.813V87.3172Z" fill="#5C4FC4"/>
<path d="M121.872 92.5905H106.641V86.546L107.351 86.2413C109.875 85.1776 112.535 84.4677 115.253 84.132C118.791 83.7523 121.149 84.4068 122.264 86.0796C122.913 86.9559 123.259 88.0189 123.252 89.109C123.245 90.1991 122.884 91.2573 122.223 92.1247L121.872 92.5905ZM108.985 90.2468H120.645C120.862 89.7859 120.947 89.2735 120.889 88.7673C120.831 88.261 120.633 87.7809 120.317 87.381C119.145 85.6267 113.546 86.3146 108.988 88.104L108.985 90.2468Z" fill="#5C4FC4"/>
<path d="M100.489 60.9502C99.1678 60.9502 97.901 61.4749 96.967 62.4089C96.033 63.3429 95.5083 64.6097 95.5083 65.9306V91.4186H135.938V61.2373C135.938 61.1612 135.907 61.0881 135.853 61.0343C135.8 60.9804 135.727 60.9502 135.65 60.9502H100.489Z" fill="#F5F5F5"/>
<path d="M137.109 92.5904H94.3364V65.9306C94.3383 64.2995 94.9871 62.7357 96.1404 61.5823C97.2938 60.429 98.8576 59.7802 100.489 59.7783H135.65C136.037 59.7788 136.408 59.9326 136.682 60.2062C136.955 60.4797 137.109 60.8505 137.109 61.2373V92.5904ZM96.6801 90.2467H134.766V62.122H100.489C99.479 62.1233 98.511 62.5249 97.797 63.2389C97.0831 63.9529 96.6814 64.9209 96.6801 65.9306V90.2467Z" fill="#5C4FC4"/>
<path d="M141.211 91.4186H131.25V65.9306C131.25 64.6097 131.775 63.3429 132.709 62.4089C133.643 61.4749 134.91 60.9502 136.23 60.9502C137.551 60.9502 138.818 61.4749 139.752 62.4089C140.686 63.3429 141.211 64.6097 141.211 65.9306V91.4186Z" fill="#5C4FC4"/>
<path d="M142.383 92.5904H130.079V65.9306C130.079 64.2989 130.727 62.7341 131.881 61.5803C133.034 60.4265 134.599 59.7783 136.231 59.7783C137.863 59.7783 139.427 60.4265 140.581 61.5803C141.735 62.7341 142.383 64.2989 142.383 65.9306V92.5904ZM132.422 90.2467H140.039V65.9306C140.039 64.9205 139.638 63.9518 138.924 63.2375C138.21 62.5233 137.241 62.122 136.231 62.122C135.221 62.122 134.252 62.5233 133.538 63.2375C132.824 63.9518 132.422 64.9205 132.422 65.9306V90.2467Z" fill="#5C4FC4"/>
<path d="M122.439 78.5281C122.827 78.5282 123.21 78.4519 123.569 78.3036C123.927 78.1553 124.252 77.9378 124.526 77.6637C124.801 77.3896 125.018 77.0641 125.166 76.7059C125.315 76.3478 125.391 75.9639 125.391 75.5762V65.9306C125.391 64.6097 125.916 63.3429 126.85 62.4089C127.784 61.4749 129.05 60.9502 130.371 60.9502H105.176C103.855 60.9502 102.589 61.4749 101.655 62.4089C100.721 63.3429 100.196 64.6097 100.196 65.9306V75.5762C100.196 75.9638 100.272 76.3477 100.42 76.7058C100.569 77.0639 100.786 77.3894 101.06 77.6635C101.334 77.9376 101.659 78.155 102.018 78.3034C102.376 78.4518 102.76 78.5281 103.147 78.5281H122.439Z" fill="#F0ECFF"/>
<path d="M122.439 79.7H103.148C102.054 79.6987 101.006 79.2639 100.233 78.4908C99.46 77.7177 99.0252 76.6695 99.0239 75.5762V65.9306C99.0258 64.2995 99.6746 62.7357 100.828 61.5823C101.981 60.429 103.545 59.7802 105.176 59.7783H130.371V62.122C129.362 62.1233 128.394 62.5249 127.68 63.2389C126.966 63.9529 126.564 64.9209 126.563 65.9306V75.5762C126.561 76.6695 126.127 77.7177 125.353 78.4908C124.58 79.2639 123.532 79.6987 122.439 79.7ZM105.176 62.122C104.166 62.1233 103.198 62.5249 102.485 63.2389C101.771 63.9529 101.369 64.9209 101.368 65.9306V75.5762C101.368 76.0481 101.556 76.5005 101.89 76.8342C102.223 77.1679 102.676 77.3556 103.148 77.3562H122.439C122.911 77.3556 123.363 77.1679 123.697 76.8342C124.031 76.5005 124.218 76.0481 124.219 75.5762V65.9306C124.217 64.548 124.684 63.2057 125.543 62.122H105.176Z" fill="#5C4FC4"/>
<path d="M110.96 75.0127H115.212C115.736 75.013 116.238 75.2212 116.608 75.5916C116.978 75.962 117.186 76.4642 117.186 76.9879V80.0681C117.186 80.3276 117.135 80.5845 117.036 80.8242C116.936 81.0639 116.791 81.2817 116.607 81.4652C116.424 81.6486 116.206 81.7942 115.966 81.8935C115.727 81.9928 115.47 82.0439 115.21 82.0439H110.958C110.434 82.0437 109.932 81.8355 109.561 81.465C109.191 81.0945 108.983 80.592 108.983 80.0681V76.9879C108.983 76.7284 109.034 76.4714 109.134 76.2317C109.233 75.992 109.379 75.7742 109.562 75.5908C109.746 75.4073 109.964 75.2619 110.204 75.1627C110.443 75.0635 110.7 75.0125 110.96 75.0127Z" fill="#AEA7E0"/>
<path d="M115.212 83.2157H110.961C110.126 83.2148 109.326 82.8829 108.736 82.2928C108.146 81.7027 107.814 80.9026 107.813 80.0681V76.9884C107.814 76.1539 108.146 75.3539 108.736 74.7638C109.326 74.1737 110.126 73.8418 110.961 73.8408H115.212C116.047 73.8418 116.847 74.1737 117.437 74.7638C118.027 75.3539 118.359 76.1539 118.36 76.9884V80.0681C118.359 80.9026 118.027 81.7027 117.437 82.2928C116.847 82.8829 116.047 83.2148 115.212 83.2157ZM110.961 76.1845C110.747 76.1847 110.543 76.2694 110.392 76.4202C110.242 76.5709 110.157 76.7753 110.157 76.9884V80.0681C110.157 80.2813 110.242 80.4856 110.392 80.6364C110.543 80.7871 110.747 80.8718 110.961 80.872H115.212C115.425 80.8718 115.63 80.7871 115.78 80.6364C115.931 80.4856 116.016 80.2813 116.016 80.0681V76.9884C116.016 76.7753 115.931 76.5709 115.78 76.4202C115.63 76.2694 115.425 76.1847 115.212 76.1845H110.961Z" fill="#5C4FC4"/>
<path d="M124.805 62.122H107.813V57.3941C107.814 56.3174 108.242 55.2852 109.004 54.5238C109.765 53.7625 110.797 53.3342 111.874 53.333H120.744C121.821 53.3342 122.853 53.7625 123.614 54.5238C124.375 55.2852 124.804 56.3174 124.805 57.3941V62.122ZM110.157 59.7782H122.461V57.3941C122.461 56.9388 122.279 56.5024 121.958 56.1804C121.636 55.8585 121.199 55.6774 120.744 55.6767H111.874C111.419 55.6772 110.982 55.8583 110.66 56.1802C110.338 56.5022 110.157 56.9388 110.157 57.3941V59.7782Z" fill="#5C4FC4"/>
</g>
<defs>
<clipPath id="clip0">
<rect width="150" height="92.5905" fill="white"/>
</clipPath>
</defs>
</svg>
