<svg width="150" height="94" viewBox="0 0 150 94" fill="none" xmlns="http://www.w3.org/2000/svg">
<g clip-path="url(#clip0)">
<path d="M30.7195 2.9248H118.695C119.693 2.9248 120.651 3.32006 121.358 4.02361C122.064 4.72716 122.461 5.68138 122.461 6.67636V54.2839H26.9531V6.67636C26.9531 5.68138 27.3499 4.72716 28.0563 4.02361C28.7626 3.32006 29.7206 2.9248 30.7195 2.9248Z" fill="#F5F5F5"/>
<path d="M150 91.0522H0V93.3868H150V91.0522Z" fill="#5C4FC4"/>
<path d="M11.5477 68.291H137.866C137.976 68.291 138.082 68.3345 138.16 68.412C138.238 68.4895 138.281 68.5946 138.281 68.7042V73.7135C138.281 73.8231 138.238 73.9282 138.16 74.0057C138.082 74.0832 137.976 74.1267 137.866 74.1267H11.5482C11.4381 74.1267 11.3324 74.0831 11.2545 74.0055C11.1766 73.9279 11.1328 73.8226 11.1328 73.7129V68.7036C11.133 68.5942 11.1767 68.4892 11.2545 68.4118C11.3323 68.3345 11.4377 68.291 11.5477 68.291Z" fill="#F0ECFF"/>
<path d="M137.866 75.2943H11.5483C11.1275 75.2938 10.7241 75.1272 10.4266 74.8309C10.129 74.5346 9.96156 74.1329 9.96094 73.7138V68.704C9.96156 68.2849 10.129 67.8832 10.4266 67.5869C10.7241 67.2906 11.1275 67.124 11.5483 67.1235H137.866C138.287 67.124 138.69 67.2906 138.987 67.5869C139.285 67.8832 139.452 68.2849 139.453 68.704V73.7138C139.452 74.1329 139.285 74.5346 138.987 74.8309C138.69 75.1272 138.287 75.2938 137.866 75.2943ZM12.3047 72.9598H137.109V69.458H12.3047V72.9598Z" fill="#5C4FC4"/>
<path d="M27.4792 39.9243L37.4401 28.6043L41.5417 32.106L50.3905 20.9062V53.1166H27.2085L27.4792 39.9243Z" fill="#F0ECFF"/>
<path d="M57.4219 15.7646H55.0781V28.0208H57.4219V15.7646Z" fill="#AEA7E0"/>
<path d="M63.8672 7.59375H61.5234V28.0207H63.8672V7.59375Z" fill="#AEA7E0"/>
<path d="M70.3125 20.4336H67.9688V28.0207H70.3125V20.4336Z" fill="#AEA7E0"/>
<path d="M76.7578 18.0991H74.4141V28.0208H76.7578V18.0991Z" fill="#AEA7E0"/>
<path d="M83.2031 12.2627H80.8594V28.0206H83.2031V12.2627Z" fill="#AEA7E0"/>
<path d="M89.6484 14.0137H87.3047V28.0207H89.6484V14.0137Z" fill="#AEA7E0"/>
<path d="M96.0938 6.42676H93.75V28.0209H96.0938V6.42676Z" fill="#AEA7E0"/>
<path d="M122.461 74.1274H27.5391V92.2199H122.461V74.1274Z" fill="#F0ECFF"/>
<path d="M123.633 93.3869H26.3672V72.96H123.633V93.3869ZM28.7109 91.0524H121.289V75.2945H28.7109V91.0524Z" fill="#5C4FC4"/>
<path d="M123.633 54.284H25.7812V5.50914C25.7826 4.20502 26.3034 2.95471 27.2292 2.03255C28.155 1.1104 29.4103 0.591722 30.7195 0.590332H118.695C120.004 0.591722 121.259 1.1104 122.185 2.03255C123.111 2.95471 123.631 4.20502 123.633 5.50914V54.284ZM28.125 51.9495H121.289V5.50914C121.288 4.82397 121.015 4.1671 120.528 3.68261C120.042 3.19813 119.382 2.92561 118.695 2.92484H30.7195C30.0317 2.92561 29.3722 3.19813 28.8858 3.68261C28.3994 4.1671 28.1258 4.82397 28.125 5.50914V51.9495Z" fill="#5C4FC4"/>
<path d="M122.732 53.1167H27.2238L11.9771 67.3152C11.7997 67.4926 11.6796 67.7187 11.6321 67.9646C11.5846 68.2104 11.612 68.4648 11.7106 68.6951C11.8093 68.9254 11.9748 69.1211 12.1858 69.2571C12.3969 69.393 12.644 69.4631 12.8953 69.4583H137.07C137.321 69.463 137.568 69.3928 137.779 69.2568C137.99 69.1208 138.156 68.9251 138.254 68.6948C138.353 68.4646 138.38 68.2102 138.333 67.9644C138.285 67.7186 138.165 67.4925 137.988 67.3152L122.732 53.1167Z" fill="#AEA7E0"/>
<path d="M137.07 70.6253H12.8954C12.4082 70.6275 11.9314 70.4853 11.5256 70.2166C11.1199 69.9479 10.8037 69.565 10.6173 69.1166C10.4344 68.6755 10.3875 68.1903 10.4825 67.7226C10.5774 67.2549 10.81 66.8259 11.1505 66.4903L26.7616 51.9492H123.194L138.788 66.4623C139.137 66.798 139.377 67.2305 139.477 67.7037C139.577 68.1769 139.532 68.6691 139.348 69.1166C139.161 69.5649 138.845 69.9478 138.44 70.2165C138.034 70.4852 137.557 70.6275 137.07 70.6253ZM12.7782 68.1676C12.7782 68.1676 12.7659 68.1828 12.7835 68.226C12.792 68.2479 12.8077 68.2662 12.828 68.2781C12.8483 68.29 12.8721 68.2946 12.8954 68.2913H137.07C137.093 68.2946 137.117 68.29 137.137 68.2783C137.157 68.2665 137.173 68.2483 137.182 68.2266C137.19 68.2127 137.192 68.1963 137.188 68.1807C137.184 68.1651 137.175 68.1517 137.161 68.1431L122.269 54.2837H27.6862L12.7782 68.1676Z" fill="#5C4FC4"/>
<path d="M51.5625 1.75781H49.2188V53.1169H51.5625V1.75781Z" fill="#5C4FC4"/>
<path d="M122.461 26.8535H50.3906V29.188H122.461V26.8535Z" fill="#5C4FC4"/>
<path d="M101.953 1.75781H99.6094V28.021H101.953V1.75781Z" fill="#5C4FC4"/>
<path d="M87.8906 28.021H85.5469V53.1169H87.8906V28.021Z" fill="#5C4FC4"/>
<path d="M110.742 28.021H108.398V53.1169H110.742V28.021Z" fill="#5C4FC4"/>
<path d="M28.1053 40.6937L26.3428 39.1547L37.0678 26.9668L41.1213 30.4277L49.2148 20.1851L51.0564 21.6284L41.4518 33.7847L37.3021 30.2421L28.1053 40.6937Z" fill="#5C4FC4"/>
<path d="M111.599 22.1845C109.578 22.1845 107.641 21.3852 106.212 19.9623C104.784 18.5395 103.981 16.6096 103.981 14.5974C103.981 12.5852 104.784 10.6553 106.212 9.23248C107.641 7.80961 109.578 7.01025 111.599 7.01025V9.34476C110.556 9.34476 109.536 9.65282 108.669 10.23C107.802 10.8072 107.126 11.6275 106.727 12.5873C106.327 13.5471 106.223 14.6032 106.427 15.6221C106.63 16.6411 107.132 17.577 107.87 18.3116C108.607 19.0462 109.547 19.5464 110.57 19.7491C111.593 19.9518 112.653 19.8478 113.617 19.4502C114.58 19.0526 115.404 18.3794 115.983 17.5156C116.563 16.6518 116.872 15.6363 116.872 14.5974H119.216C119.213 16.6089 118.41 18.5374 116.982 19.9598C115.554 21.3821 113.618 22.1822 111.599 22.1845Z" fill="#5C4FC4"/>
<path d="M119.531 7.01025H113.672V9.34476H119.531V7.01025Z" fill="#5C4FC4"/>
<path d="M117.188 10.5122H113.672V12.8467H117.188V10.5122Z" fill="#5C4FC4"/>
<path d="M97.8516 46.1132C100.764 46.1132 103.125 43.7615 103.125 40.8605C103.125 37.9596 100.764 35.6079 97.8516 35.6079C94.9391 35.6079 92.5781 37.9596 92.5781 40.8605C92.5781 43.7615 94.9391 46.1132 97.8516 46.1132Z" fill="#AEA7E0"/>
<path d="M97.8516 47.2802C96.5768 47.2802 95.3307 46.9037 94.2707 46.1983C93.2108 45.4928 92.3847 44.4902 91.8969 43.3171C91.409 42.144 91.2814 40.8532 91.5301 39.6079C91.7788 38.3625 92.3926 37.2186 93.294 36.3208C94.1954 35.4229 95.3439 34.8115 96.5941 34.5638C97.8444 34.3161 99.1404 34.4432 100.318 34.9291C101.496 35.415 102.502 36.2379 103.211 37.2936C103.919 38.3494 104.297 39.5906 104.297 40.8603C104.295 42.5624 103.615 44.1941 102.407 45.3976C101.199 46.6012 99.5603 47.2782 97.8516 47.2802ZM97.8516 36.7749C97.0403 36.7749 96.2474 37.0145 95.5729 37.4634C94.8984 37.9124 94.3726 38.5504 94.0622 39.2969C93.7518 40.0434 93.6706 40.8648 93.8288 41.6573C93.9871 42.4498 94.3777 43.1778 94.9513 43.7491C95.5249 44.3205 96.2557 44.7096 97.0514 44.8672C97.847 45.0248 98.6717 44.9439 99.4212 44.6347C100.171 44.3255 100.811 43.8019 101.262 43.13C101.713 42.4582 101.953 41.6683 101.953 40.8603C101.952 39.7772 101.519 38.7388 100.75 37.9729C99.9815 37.207 98.939 36.7762 97.8516 36.7749Z" fill="#5C4FC4"/>
<path d="M97.6537 42.3944L94.7158 39.4681L96.3734 37.8176L97.6537 39.0928L104.325 32.4482L105.982 34.0987L97.6537 42.3944Z" fill="#5C4FC4"/>
<path d="M118.359 32.6899H114.258V36.7753H118.359V32.6899Z" fill="#5C4FC4"/>
<path d="M118.359 39.6934H114.258V43.7787H118.359V39.6934Z" fill="#5C4FC4"/>
<path d="M60.9375 32.106H54.4922V38.5259H60.9375V32.106Z" fill="#5C4FC4"/>
<path d="M71.4844 32.106H65.0391V38.5259H71.4844V32.106Z" fill="#AEA7E0"/>
<path d="M82.0312 32.106H75.5859V38.5259H82.0312V32.106Z" fill="#AEA7E0"/>
<path d="M60.9375 41.4443H54.4922V47.8642H60.9375V41.4443Z" fill="#5C4FC4"/>
<path d="M71.4844 41.4443H65.0391V47.8642H71.4844V41.4443Z" fill="#AEA7E0"/>
<path d="M82.0312 41.4443H75.5859V47.8642H82.0312V41.4443Z" fill="#5C4FC4"/>
<path d="M69.7266 56.6187H66.2109V60.1204H69.7266V56.6187Z" fill="#5C4FC4"/>
<path d="M76.1719 56.6187H72.6562V60.1204H76.1719V56.6187Z" fill="#5C4FC4"/>
<path d="M82.6172 56.6187H79.1016V60.1204H82.6172V56.6187Z" fill="#5C4FC4"/>
<path d="M69.7266 62.4546H66.2109V65.9563H69.7266V62.4546Z" fill="#5C4FC4"/>
<path d="M76.1719 62.4546H72.6562V65.9563H76.1719V62.4546Z" fill="#5C4FC4"/>
<path d="M82.6172 62.4546H79.1016V65.9563H82.6172V62.4546Z" fill="#5C4FC4"/>
<path d="M52.9455 70.6257H49.1452C48.5558 70.6257 47.9839 70.4258 47.5238 70.059C47.0636 69.6922 46.7425 69.1803 46.6133 68.6075L42.6459 51.0024C42.4451 50.1117 41.9458 49.3157 41.2302 48.7453C40.5147 48.1749 39.6255 47.8642 38.709 47.8643H23.1231C22.8496 47.8643 22.5796 47.9256 22.3331 48.0436C22.0866 48.1616 21.8699 48.3332 21.699 48.5459C21.5281 48.7585 21.4074 49.0067 21.3458 49.2721C21.2841 49.5375 21.2832 49.8133 21.343 50.0791L26.5819 73.3238C26.7827 74.2146 27.2821 75.0107 27.9978 75.5811C28.7135 76.1515 29.6028 76.4621 30.5194 76.462H53.0709C53.48 76.462 53.8845 76.3768 54.2585 76.2118C54.6325 76.0467 54.9676 75.8055 55.2423 75.5036C55.517 75.2017 55.7252 74.8459 55.8535 74.459C55.9818 74.0721 56.0273 73.6627 55.9872 73.2573C55.8953 72.5222 55.5339 71.8468 54.9725 71.3611C54.411 70.8753 53.6891 70.6134 52.9455 70.6257Z" fill="#5C4FC4"/>
<path d="M53.0706 77.629H30.519C29.335 77.6344 28.1849 77.2353 27.2605 76.4984C26.3361 75.7614 25.6931 74.7311 25.439 73.5792L20.2007 50.3346C20.1023 49.8981 20.1037 49.4451 20.2048 49.0092C20.3059 48.5734 20.5041 48.1657 20.7847 47.8164C21.0653 47.4671 21.4212 47.1851 21.826 46.9914C22.2308 46.7976 22.6742 46.6969 23.1233 46.6968H38.7093C39.8933 46.6914 41.0433 47.0905 41.9677 47.8274C42.892 48.5644 43.5348 49.5947 43.7888 50.7466L47.7573 68.3517C47.8262 68.6669 48.0016 68.9491 48.2543 69.1509C48.5069 69.3528 48.8215 69.4621 49.1454 69.4606H52.9452C53.9795 69.4516 54.9807 69.8228 55.7573 70.5033C56.5338 71.1838 57.0312 72.1256 57.154 73.1485C57.2094 73.7158 57.1449 74.2883 56.9649 74.8292C56.7848 75.3702 56.4931 75.8676 56.1086 76.2896C55.724 76.7116 55.255 77.0487 54.7318 77.2794C54.2086 77.5101 53.6428 77.6292 53.0706 77.629ZM23.1233 49.0313C23.0256 49.0313 22.9291 49.0532 22.841 49.0954C22.7529 49.1375 22.6755 49.1989 22.6144 49.2749C22.5533 49.3508 22.5101 49.4395 22.4881 49.5344C22.466 49.6292 22.4657 49.7277 22.487 49.8227L27.7253 73.068C27.8653 73.7013 28.2189 74.2677 28.7273 74.6729C29.2356 75.078 29.868 75.2974 30.519 75.2945H53.0706C53.3163 75.2946 53.5593 75.2434 53.784 75.1441C54.0086 75.0449 54.2098 74.8999 54.3746 74.7184C54.5395 74.5369 54.6643 74.323 54.7411 74.0905C54.8178 73.858 54.8448 73.6121 54.8202 73.3686C54.7566 72.9223 54.5303 72.515 54.1845 72.2244C53.8387 71.9338 53.3975 71.7801 52.9452 71.7928H49.1454C48.2888 71.7966 47.4568 71.5079 46.7881 70.9748C46.1193 70.4416 45.6543 69.6963 45.4704 68.863L41.5024 51.2579C41.3627 50.6245 41.0091 50.0579 40.5007 49.6527C39.9923 49.2476 39.3598 49.0282 38.7087 49.0313H23.1233Z" fill="#5C4FC4"/>
<path d="M42.0027 76.462H26.4168C25.5003 76.462 24.6111 76.1513 23.8956 75.5809C23.18 75.0105 22.6807 74.2145 22.4799 73.3238L17.2416 50.082C17.1813 49.816 17.1819 49.5399 17.2432 49.2742C17.3046 49.0084 17.4253 48.7598 17.5962 48.5468C17.7672 48.3338 17.9841 48.1618 18.2308 48.0437C18.4776 47.9255 18.7479 47.8642 19.0217 47.8643H34.6076C35.5241 47.8642 36.4133 48.1749 37.1288 48.7453C37.8444 49.3157 38.3437 50.1117 38.5445 51.0024L43.7834 74.2471C43.8432 74.5129 43.8423 74.7888 43.7806 75.0542C43.7189 75.3197 43.5982 75.5679 43.4272 75.7806C43.2562 75.9932 43.0394 76.1649 42.7929 76.2828C42.5463 76.4008 42.2762 76.462 42.0027 76.462Z" fill="#F5F5F5"/>
<path d="M42.0029 77.629H26.417C25.233 77.6344 24.0829 77.2353 23.1584 76.4984C22.234 75.7614 21.5911 74.7311 21.3369 73.5792L16.0986 50.3346C16.0002 49.898 16.0017 49.445 16.1028 49.0091C16.2039 48.5732 16.4021 48.1655 16.6828 47.8162C16.9635 47.4669 17.3195 47.1849 17.7244 46.9912C18.1293 46.7974 18.5727 46.6968 19.0219 46.6968H34.6078C35.7919 46.6914 36.942 47.0906 37.8664 47.8277C38.7907 48.5647 39.4334 49.5952 39.6873 50.7472L44.9268 73.9913C45.0253 74.4279 45.0239 74.881 44.9228 75.317C44.8217 75.753 44.6234 76.1608 44.3426 76.5101C44.0619 76.8595 43.7058 77.1414 43.3008 77.3351C42.8958 77.5288 42.4522 77.6292 42.0029 77.629ZM19.0219 49.0313C18.9241 49.0313 18.8277 49.0532 18.7396 49.0954C18.6515 49.1375 18.574 49.1989 18.5129 49.2749C18.4519 49.3508 18.4087 49.4395 18.3866 49.5344C18.3646 49.6292 18.3642 49.7277 18.3855 49.8227L23.6238 73.068C23.7638 73.7013 24.1174 74.2677 24.6258 74.6729C25.1341 75.078 25.7665 75.2974 26.4176 75.2945H42.0035C42.1013 75.2946 42.1979 75.2728 42.2861 75.2307C42.3743 75.1885 42.4519 75.1271 42.513 75.051C42.5741 74.975 42.6173 74.8862 42.6392 74.7912C42.6612 74.6962 42.6614 74.5976 42.6398 74.5025L37.401 51.2579C37.2612 50.6245 36.9076 50.0579 36.3992 49.6527C35.8908 49.2476 35.2583 49.0282 34.6072 49.0313H19.0219Z" fill="#5C4FC4"/>
<path d="M56.8359 59.5366H46.875C46.2534 59.5366 45.6573 59.7826 45.2177 60.2204C44.7782 60.6582 44.5312 61.252 44.5312 61.8711C44.5312 62.4903 44.7782 63.0841 45.2177 63.5219C45.6573 63.9597 46.2534 64.2056 46.875 64.2056H56.8359C57.4575 64.2056 58.0537 63.9597 58.4932 63.5219C58.9328 63.0841 59.1797 62.4903 59.1797 61.8711C59.1797 61.252 58.9328 60.6582 58.4932 60.2204C58.0537 59.7826 57.4575 59.5366 56.8359 59.5366Z" fill="#F5F5F5"/>
<path d="M56.8359 65.3727H46.875C45.9426 65.3727 45.0484 65.0037 44.3891 64.347C43.7298 63.6903 43.3594 62.7996 43.3594 61.8709C43.3594 60.9422 43.7298 60.0515 44.3891 59.3948C45.0484 58.7381 45.9426 58.3691 46.875 58.3691H56.8359C57.7683 58.3691 58.6625 58.7381 59.3218 59.3948C59.9812 60.0515 60.3516 60.9422 60.3516 61.8709C60.3516 62.7996 59.9812 63.6903 59.3218 64.347C58.6625 65.0037 57.7683 65.3727 56.8359 65.3727ZM46.875 60.7036C46.5642 60.7036 46.2661 60.8266 46.0464 61.0455C45.8266 61.2644 45.7031 61.5613 45.7031 61.8709C45.7031 62.1805 45.8266 62.4774 46.0464 62.6963C46.2661 62.9152 46.5642 63.0382 46.875 63.0382H56.8359C57.1467 63.0382 57.4448 62.9152 57.6646 62.6963C57.8843 62.4774 58.0078 62.1805 58.0078 61.8709C58.0078 61.5613 57.8843 61.2644 57.6646 61.0455C57.4448 60.8266 57.1467 60.7036 56.8359 60.7036H46.875Z" fill="#5C4FC4"/>
<path d="M58.5938 59.5366H48.6328C48.0112 59.5366 47.4151 59.7826 46.9755 60.2204C46.536 60.6582 46.2891 61.252 46.2891 61.8711C46.2891 62.4903 46.536 63.0841 46.9755 63.5219C47.4151 63.9597 48.0112 64.2056 48.6328 64.2056H58.5938C59.2154 64.2056 59.8115 63.9597 60.251 63.5219C60.6906 63.0841 60.9375 62.4903 60.9375 61.8711C60.9375 61.252 60.6906 60.6582 60.251 60.2204C59.8115 59.7826 59.2154 59.5366 58.5938 59.5366Z" fill="#F0ECFF"/>
<path d="M58.5938 65.3727H48.6328C47.7004 65.3727 46.8062 65.0037 46.1469 64.347C45.4876 63.6903 45.1172 62.7996 45.1172 61.8709C45.1172 60.9422 45.4876 60.0515 46.1469 59.3948C46.8062 58.7381 47.7004 58.3691 48.6328 58.3691H58.5938C59.5262 58.3691 60.4203 58.7381 61.0797 59.3948C61.739 60.0515 62.1094 60.9422 62.1094 61.8709C62.1094 62.7996 61.739 63.6903 61.0797 64.347C60.4203 65.0037 59.5262 65.3727 58.5938 65.3727ZM48.6328 60.7036C48.322 60.7036 48.024 60.8266 47.8042 61.0455C47.5844 61.2644 47.4609 61.5613 47.4609 61.8709C47.4609 62.1805 47.5844 62.4774 47.8042 62.6963C48.024 62.9152 48.322 63.0382 48.6328 63.0382H58.5938C58.9046 63.0382 59.2026 62.9152 59.4224 62.6963C59.6421 62.4774 59.7656 62.1805 59.7656 61.8709C59.7656 61.5613 59.6421 61.2644 59.4224 61.0455C59.2026 60.8266 58.9046 60.7036 58.5938 60.7036H48.6328Z" fill="#5C4FC4"/>
<path d="M36.3281 76.4619H43.3594V80.7154C43.3594 81.4447 43.0685 82.1442 42.5507 82.66C42.0329 83.1757 41.3307 83.4654 40.5984 83.4654H39.0885C38.726 83.4654 38.367 83.3943 38.0321 83.2561C37.6972 83.118 37.3929 82.9154 37.1366 82.6601C36.8803 82.4048 36.677 82.1017 36.5382 81.7681C36.3995 81.4346 36.3281 81.077 36.3281 80.716V76.4619Z" fill="#5C4FC4"/>
<path d="M40.5985 84.6324H39.0891C38.0465 84.6314 37.0468 84.2184 36.3095 83.4841C35.5723 82.7498 35.1575 81.7542 35.1562 80.7157V75.2944H44.5312V80.7157C44.53 81.7542 44.1152 82.7498 43.3779 83.4841C42.6406 84.2184 41.6411 84.6314 40.5985 84.6324ZM37.5 77.6289V80.7157C37.5006 81.1353 37.6683 81.5374 37.9662 81.8341C38.264 82.1307 38.6679 82.2975 39.0891 82.2979H40.5985C41.0197 82.2975 41.4235 82.1307 41.7214 81.8341C42.0193 81.5374 42.1869 81.1353 42.1875 80.7157V77.6289H37.5Z" fill="#5C4FC4"/>
<path d="M41.0156 83.4653H38.6719V88.718H41.0156V83.4653Z" fill="#5C4FC4"/>
<path d="M32.2014 88.7178H48.0721C48.5316 88.7178 48.9723 88.8996 49.2972 89.2232C49.6221 89.5469 49.8047 89.9858 49.8047 90.4436V92.2195H30.4688V90.4436C30.4688 89.9858 30.6513 89.5469 30.9762 89.2232C31.3012 88.8996 31.7418 88.7178 32.2014 88.7178Z" fill="#5C4FC4"/>
<path d="M50.9766 93.387H29.2969V90.4438C29.2978 89.6768 29.6041 88.9415 30.1486 88.3992C30.6931 87.8568 31.4313 87.5517 32.2014 87.5508H48.0721C48.8421 87.5517 49.5803 87.8568 50.1248 88.3992C50.6693 88.9415 50.9756 89.6768 50.9766 90.4438V93.387ZM31.6406 91.0525H48.6328V90.4438C48.6327 90.2957 48.5735 90.1538 48.4684 90.049C48.3633 89.9443 48.2208 89.8854 48.0721 89.8853H32.2014C32.0527 89.8854 31.9102 89.9443 31.805 90.049C31.6999 90.1538 31.6408 90.2957 31.6406 90.4438V91.0525Z" fill="#5C4FC4"/>
<path d="M33.9844 53.1167H22.2656V55.4512H33.9844V53.1167Z" fill="#5C4FC4"/>
<path d="M35.7422 59.5366H24.0234V61.8711H35.7422V59.5366Z" fill="#5C4FC4"/>
<path d="M37.5 65.9565H25.7812V68.2911H37.5V65.9565Z" fill="#5C4FC4"/>
<path d="M97.0104 70.6257H100.811C101.4 70.6257 101.972 70.4258 102.432 70.059C102.892 69.6922 103.213 69.1803 103.343 68.6075L107.31 51.0024C107.511 50.1118 108.01 49.3159 108.725 48.7455C109.441 48.1751 110.33 47.8643 111.246 47.8643H126.832C127.106 47.864 127.377 47.9252 127.623 48.0433C127.87 48.1614 128.087 48.3333 128.258 48.5463C128.43 48.7594 128.55 49.008 128.612 49.2739C128.673 49.5397 128.674 49.8159 128.613 50.082L123.375 73.3267C123.173 74.217 122.673 75.0126 121.958 75.5824C121.242 76.1522 120.353 76.4624 119.437 76.462H96.8844C96.4754 76.462 96.0709 76.3767 95.697 76.2116C95.3231 76.0465 94.988 75.8052 94.7134 75.5034C94.4387 75.2015 94.2306 74.8457 94.1024 74.4588C93.9741 74.072 93.9286 73.6627 93.9687 73.2573C94.0606 72.5222 94.422 71.8468 94.9834 71.3611C95.5449 70.8753 96.2668 70.6134 97.0104 70.6257Z" fill="#5C4FC4"/>
<path d="M119.437 77.629H96.885C96.3126 77.6291 95.7466 77.5099 95.2233 77.2791C94.7 77.0482 94.231 76.7108 93.8464 76.2886C93.4619 75.8664 93.1704 75.3687 92.9905 74.8275C92.8106 74.2863 92.7465 73.7136 92.8022 73.1462C92.925 72.1234 93.4222 71.1816 94.1987 70.5012C94.9751 69.8207 95.9762 69.4494 97.0104 69.4583H100.811C101.135 69.4594 101.45 69.35 101.702 69.1482C101.955 68.9464 102.13 68.6645 102.199 68.3494L106.167 50.7443C106.421 49.5929 107.064 48.5631 107.989 47.8266C108.913 47.0902 110.063 46.6914 111.246 46.6968H126.832C127.281 46.6968 127.725 46.7974 128.13 46.9912C128.535 47.1849 128.891 47.4669 129.171 47.8162C129.452 48.1655 129.65 48.5732 129.751 49.0091C129.852 49.445 129.854 49.898 129.755 50.3346L124.517 73.5787C124.263 74.7305 123.62 75.7609 122.695 76.4979C121.771 77.235 120.621 77.6342 119.437 77.629ZM97.0104 71.7928C96.558 71.78 96.1168 71.9336 95.7709 72.2243C95.4251 72.5149 95.1988 72.9223 95.1354 73.3686C95.1108 73.6121 95.1378 73.858 95.2145 74.0905C95.2913 74.323 95.4161 74.5369 95.5809 74.7184C95.7458 74.8999 95.947 75.0449 96.1716 75.1441C96.3962 75.2434 96.6392 75.2946 96.885 75.2945H119.437C120.088 75.2974 120.72 75.078 121.229 74.6727C121.737 74.2674 122.09 73.7008 122.23 73.0674L127.469 49.8233C127.49 49.7283 127.49 49.6297 127.468 49.5348C127.446 49.4399 127.402 49.3513 127.341 49.2752C127.28 49.1992 127.203 49.1379 127.115 49.0957C127.026 49.0534 126.93 49.0315 126.832 49.0313H111.246C110.595 49.0284 109.963 49.2478 109.455 49.653C108.947 50.0581 108.593 50.6246 108.454 51.2579L104.486 68.863C104.302 69.6962 103.837 70.4415 103.168 70.9746C102.5 71.5077 101.668 71.7965 100.811 71.7928H97.0104Z" fill="#5C4FC4"/>
<path d="M107.953 76.462H123.539C124.455 76.462 125.344 76.1513 126.06 75.5809C126.775 75.0105 127.275 74.2145 127.476 73.3238L132.715 50.082C132.775 49.8159 132.775 49.5397 132.713 49.2739C132.652 49.008 132.531 48.7594 132.36 48.5463C132.189 48.3333 131.972 48.1614 131.725 48.0433C131.478 47.9252 131.208 47.864 130.934 47.8643H115.348C114.431 47.8642 113.542 48.1749 112.827 48.7453C112.111 49.3157 111.612 50.1117 111.411 51.0024L106.172 74.2471C106.112 74.5129 106.113 74.7888 106.175 75.0542C106.237 75.3197 106.357 75.5679 106.528 75.7806C106.699 75.9932 106.916 76.1649 107.163 76.2828C107.409 76.4008 107.679 76.462 107.953 76.462Z" fill="#F5F5F5"/>
<path d="M123.539 77.629H107.953C107.503 77.6291 107.06 77.5285 106.655 77.3347C106.25 77.141 105.894 76.859 105.614 76.5097C105.333 76.1604 105.135 75.7526 105.034 75.3167C104.933 74.8808 104.931 74.4278 105.03 73.9913L110.269 50.7472C110.523 49.5954 111.165 48.565 112.09 47.828C113.014 47.0909 114.164 46.6917 115.348 46.6968H130.934C131.383 46.6968 131.826 46.7974 132.231 46.9912C132.636 47.1849 132.992 47.4669 133.273 47.8162C133.553 48.1655 133.752 48.5732 133.853 49.0091C133.954 49.445 133.955 49.898 133.857 50.3346L128.618 73.5787C128.364 74.7305 127.721 75.7609 126.797 76.4979C125.873 77.235 124.723 77.6342 123.539 77.629ZM115.348 49.0313C114.697 49.0284 114.065 49.2478 113.556 49.653C113.048 50.0581 112.695 50.6246 112.555 51.2579L107.316 74.5025C107.294 74.5976 107.295 74.6961 107.317 74.791C107.339 74.8859 107.382 74.9746 107.443 75.0506C107.504 75.1266 107.582 75.188 107.67 75.2302C107.758 75.2725 107.854 75.2944 107.952 75.2945H123.538C124.189 75.2974 124.821 75.078 125.329 74.6727C125.838 74.2674 126.191 73.7008 126.331 73.0674L131.57 49.8233C131.591 49.7283 131.591 49.6298 131.569 49.5349C131.547 49.4401 131.503 49.3515 131.442 49.2755C131.381 49.1995 131.304 49.1381 131.216 49.0958C131.128 49.0536 131.031 49.0315 130.934 49.0313H115.348Z" fill="#5C4FC4"/>
<path d="M93.75 59.5366H103.711C104.333 59.5366 104.929 59.7826 105.368 60.2204C105.808 60.6582 106.055 61.252 106.055 61.8711C106.055 62.4903 105.808 63.0841 105.368 63.5219C104.929 63.9597 104.333 64.2056 103.711 64.2056H93.75C93.1284 64.2056 92.5323 63.9597 92.0927 63.5219C91.6532 63.0841 91.4062 62.4903 91.4062 61.8711C91.4062 61.252 91.6532 60.6582 92.0927 60.2204C92.5323 59.7826 93.1284 59.5366 93.75 59.5366Z" fill="#F5F5F5"/>
<path d="M103.711 65.3727H93.75C92.8176 65.3727 91.9234 65.0037 91.2641 64.347C90.6048 63.6903 90.2344 62.7996 90.2344 61.8709C90.2344 60.9422 90.6048 60.0515 91.2641 59.3948C91.9234 58.7381 92.8176 58.3691 93.75 58.3691H103.711C104.643 58.3691 105.538 58.7381 106.197 59.3948C106.856 60.0515 107.227 60.9422 107.227 61.8709C107.227 62.7996 106.856 63.6903 106.197 64.347C105.538 65.0037 104.643 65.3727 103.711 65.3727ZM93.75 60.7036C93.4392 60.7036 93.1411 60.8266 92.9214 61.0455C92.7016 61.2644 92.5781 61.5613 92.5781 61.8709C92.5781 62.1805 92.7016 62.4774 92.9214 62.6963C93.1411 62.9152 93.4392 63.0382 93.75 63.0382H103.711C104.022 63.0382 104.32 62.9152 104.54 62.6963C104.759 62.4774 104.883 62.1805 104.883 61.8709C104.883 61.5613 104.759 61.2644 104.54 61.0455C104.32 60.8266 104.022 60.7036 103.711 60.7036H93.75Z" fill="#5C4FC4"/>
<path d="M91.4062 59.5366H101.367C101.989 59.5366 102.585 59.7826 103.024 60.2204C103.464 60.6582 103.711 61.252 103.711 61.8711C103.711 62.4903 103.464 63.0841 103.024 63.5219C102.585 63.9597 101.989 64.2056 101.367 64.2056H91.4062C90.7846 64.2056 90.1885 63.9597 89.749 63.5219C89.3094 63.0841 89.0625 62.4903 89.0625 61.8711C89.0625 61.252 89.3094 60.6582 89.749 60.2204C90.1885 59.7826 90.7846 59.5366 91.4062 59.5366Z" fill="#F0ECFF"/>
<path d="M101.367 65.3727H91.4062C90.4738 65.3727 89.5797 65.0037 88.9203 64.347C88.261 63.6903 87.8906 62.7996 87.8906 61.8709C87.8906 60.9422 88.261 60.0515 88.9203 59.3948C89.5797 58.7381 90.4738 58.3691 91.4062 58.3691H101.367C102.3 58.3691 103.194 58.7381 103.853 59.3948C104.512 60.0515 104.883 60.9422 104.883 61.8709C104.883 62.7996 104.512 63.6903 103.853 64.347C103.194 65.0037 102.3 65.3727 101.367 65.3727ZM91.4062 60.7036C91.0954 60.7036 90.7974 60.8266 90.5776 61.0455C90.3579 61.2644 90.2344 61.5613 90.2344 61.8709C90.2344 62.1805 90.3579 62.4774 90.5776 62.6963C90.7974 62.9152 91.0954 63.0382 91.4062 63.0382H101.367C101.678 63.0382 101.976 62.9152 102.196 62.6963C102.416 62.4774 102.539 62.1805 102.539 61.8709C102.539 61.5613 102.416 61.2644 102.196 61.0455C101.976 60.8266 101.678 60.7036 101.367 60.7036H91.4062Z" fill="#5C4FC4"/>
<path d="M110.911 83.4653H109.401C108.669 83.4652 107.967 83.1754 107.449 82.6597C106.931 82.1439 106.641 81.4445 106.641 80.7153V76.4618H113.672V80.7153C113.672 81.4446 113.381 82.1441 112.863 82.6599C112.345 83.1756 111.643 83.4653 110.911 83.4653Z" fill="#5C4FC4"/>
<path d="M110.911 84.6324H109.402C108.359 84.6314 107.359 84.2184 106.622 83.4841C105.885 82.7498 105.47 81.7542 105.469 80.7157V75.2944H114.844V80.7157C114.843 81.7542 114.428 82.7498 113.69 83.4841C112.953 84.2184 111.954 84.6314 110.911 84.6324ZM107.812 77.6289V80.7157C107.813 81.1353 107.981 81.5374 108.279 81.8341C108.577 82.1307 108.98 82.2975 109.402 82.2979H110.911C111.332 82.2975 111.736 82.1307 112.034 81.8341C112.332 81.5374 112.499 81.1353 112.5 80.7157V77.6289H107.812Z" fill="#5C4FC4"/>
<path d="M111.328 83.4653H108.984V88.718H111.328V83.4653Z" fill="#5C4FC4"/>
<path d="M119.531 92.2197H100.195V90.4438C100.195 89.986 100.378 89.5471 100.703 89.2234C101.028 88.8998 101.468 88.718 101.928 88.718H117.799C118.258 88.718 118.699 88.8998 119.024 89.2234C119.349 89.5471 119.531 89.986 119.531 90.4438V92.2197Z" fill="#5C4FC4"/>
<path d="M120.703 93.387H99.0234V90.4438C99.0244 89.6768 99.3307 88.9415 99.8752 88.3992C100.42 87.8568 101.158 87.5517 101.928 87.5508H117.799C118.569 87.5517 119.307 87.8568 119.851 88.3992C120.396 88.9415 120.702 89.6768 120.703 90.4438V93.387ZM101.367 91.0525H118.359V90.4438C118.359 90.2957 118.3 90.1538 118.195 90.049C118.09 89.9443 117.947 89.8854 117.799 89.8853H101.928C101.779 89.8854 101.637 89.9443 101.532 90.049C101.426 90.1538 101.367 90.2957 101.367 90.4438V91.0525Z" fill="#5C4FC4"/>
<path d="M127.734 53.1167H116.016V55.4512H127.734V53.1167Z" fill="#5C4FC4"/>
<path d="M125.977 59.5366H114.258V61.8711H125.977V59.5366Z" fill="#5C4FC4"/>
<path d="M124.219 65.9565H112.5V68.2911H124.219V65.9565Z" fill="#5C4FC4"/>
<path d="M43.3594 6.42676H31.6406V8.76126H43.3594V6.42676Z" fill="#5C4FC4"/>
<path d="M38.0859 10.5122H31.6406V12.8467H38.0859V10.5122Z" fill="#5C4FC4"/>
</g>
<defs>
<clipPath id="clip0">
<rect width="150" height="92.7966" fill="white" transform="translate(0 0.590332)"/>
</clipPath>
</defs>
</svg>
