<svg width="511" height="387" viewBox="0 0 511 387" fill="none" xmlns="http://www.w3.org/2000/svg">
<g filter="url(#filter0_bd)">
<rect x="90.0459" y="26" width="404" height="232" rx="16" transform="rotate(15 90.0459 26)" fill="white" fill-opacity="0.8" shape-rendering="crispEdges"/>
<path fill-rule="evenodd" clip-rule="evenodd" d="M136.235 77.7167C123.432 74.2861 110.271 81.8842 106.841 94.6873C103.41 107.49 111.008 120.651 123.811 124.081C136.614 127.512 149.775 119.914 153.205 107.111C156.636 94.3075 149.038 81.1472 136.235 77.7167ZM104.909 94.1696C108.625 80.2997 122.882 72.0684 136.752 75.7848C150.622 79.5013 158.853 93.7583 155.137 107.628C151.421 121.498 137.164 129.729 123.294 126.013C109.424 122.297 101.192 108.04 104.909 94.1696ZM123.129 85.6793C122.827 84.4906 123.917 83.418 125.1 83.7349L134.768 86.3255C138.308 87.274 140.941 88.9172 142.468 91.1952C144.01 93.4947 144.325 96.2928 143.514 99.3207C142.67 102.469 140.574 105.062 137.537 106.09L139.084 111.687C139.264 112.311 139.366 112.84 139.378 113.351C139.391 113.874 139.311 114.327 139.187 114.79C138.533 117.231 136.137 118.382 133.669 117.72C132.707 117.463 131.917 117.068 131.311 116.279C130.75 115.547 130.421 114.567 130.117 113.345L128.171 105.58L128.156 105.576L126.892 100.567C126.892 100.567 126.892 100.567 126.892 100.567C126.592 99.3801 127.679 98.3066 128.863 98.6238L130.619 99.0944C131.704 99.3852 132.541 99.2719 133.137 98.9436C133.729 98.6184 134.218 98.0093 134.477 97.0418C134.727 96.1125 134.6 95.32 134.231 94.7096C133.86 94.0953 133.182 93.5681 132.153 93.2924L125.451 91.4965C124.889 91.3459 124.454 90.9028 124.311 90.3409L123.129 85.6793C123.129 85.6791 123.129 85.6796 123.129 85.6793ZM125.233 85.8412L126.193 89.6247L132.671 91.3606C134.112 91.7465 135.26 92.5469 135.942 93.6745C136.627 94.8061 136.782 96.1699 136.409 97.5595C136.037 98.9484 135.257 100.06 134.101 100.696C132.951 101.329 131.561 101.417 130.101 101.026L128.996 100.73L129.808 103.948L129.825 103.952L132.058 112.863C132.357 114.065 132.609 114.685 132.898 115.061C133.142 115.378 133.471 115.597 134.186 115.789C135.753 116.208 136.929 115.488 137.255 114.272C137.348 113.925 137.386 113.672 137.379 113.401C137.372 113.121 137.316 112.771 137.161 112.236L137.158 112.225L135.514 106.276C135.292 105.475 135.712 104.544 136.608 104.286C139.05 103.58 140.85 101.536 141.582 98.8031C142.276 96.2139 141.964 94.0358 140.807 92.3089C139.635 90.5605 137.496 89.127 134.25 88.2573L125.233 85.8412ZM125.068 85.1872C125.068 85.187 125.068 85.1874 125.068 85.1872ZM116.387 108.4C117.035 105.984 119.518 104.551 121.934 105.198C124.349 105.845 125.783 108.328 125.136 110.744C124.488 113.16 122.005 114.594 119.59 113.946C117.174 113.299 115.74 110.816 116.387 108.4ZM121.416 107.13C120.067 106.768 118.681 107.569 118.319 108.918C117.958 110.267 118.758 111.653 120.107 112.014C121.456 112.376 122.842 111.575 123.204 110.227C123.565 108.878 122.765 107.491 121.416 107.13Z" fill="url(#paint0_linear)"/>
<path d="M305.451 146.534C305.964 146.671 306.294 146.889 306.441 147.187C306.606 147.474 306.614 147.897 306.465 148.455C306.315 149.014 306.095 149.383 305.804 149.564C305.532 149.734 305.139 149.75 304.626 149.613L287.375 144.99C286.862 144.853 286.523 144.641 286.357 144.354C286.21 144.055 286.212 143.627 286.361 143.069C286.511 142.51 286.722 142.146 286.994 141.976C287.285 141.796 287.687 141.774 288.2 141.911L305.451 146.534Z" fill="url(#paint1_linear)"/>
<path d="M327.247 138.81C328.998 139.279 330.445 140.007 331.588 140.993C332.751 141.967 333.534 143.148 333.939 144.534C334.344 145.921 334.326 147.436 333.885 149.082C333.473 150.621 332.708 151.937 331.59 153.028C330.492 154.109 328.915 155.255 326.859 156.468L317.184 162.15L327.009 164.782L327.774 161.93C327.915 161.401 328.145 161.059 328.462 160.901C328.779 160.743 329.247 160.747 329.866 160.913C330.485 161.079 330.892 161.309 331.088 161.605C331.284 161.9 331.311 162.311 331.17 162.84L329.993 167.232C329.843 167.79 329.623 168.16 329.332 168.34C329.06 168.51 328.667 168.526 328.154 168.389L312.443 164.179C311.929 164.041 311.59 163.829 311.424 163.542C311.278 163.244 311.279 162.816 311.429 162.257C311.582 161.684 311.805 161.307 312.096 161.126L324.763 153.698C326.531 152.651 327.82 151.735 328.629 150.949C329.458 150.152 330.017 149.21 330.308 148.123C330.685 146.72 330.529 145.489 329.842 144.431C329.174 143.363 328.017 142.608 326.372 142.167C324.712 141.722 323.037 141.726 321.346 142.179L320.679 144.669C320.537 145.198 320.308 145.541 319.991 145.698C319.674 145.856 319.206 145.852 318.587 145.686C317.968 145.52 317.561 145.29 317.365 144.995C317.169 144.699 317.142 144.288 317.283 143.759L318.175 140.432C318.333 139.843 318.617 139.474 319.029 139.326C320.345 138.821 321.703 138.522 323.104 138.428C324.508 138.319 325.889 138.446 327.247 138.81Z" fill="url(#paint2_linear)"/>
<path d="M361.819 148.608C362.332 148.745 362.662 148.963 362.809 149.261C362.975 149.548 362.983 149.971 362.833 150.529C362.683 151.088 362.463 151.457 362.172 151.638C361.9 151.808 361.507 151.824 360.994 151.687L350.445 148.86L348.203 156.048C349.939 155.607 351.674 155.619 353.41 156.084C355.221 156.57 356.688 157.375 357.81 158.501C358.932 159.626 359.656 160.969 359.982 162.528C360.327 164.077 360.263 165.734 359.79 167.5C359.317 169.266 358.5 170.745 357.339 171.938C356.182 173.117 354.772 173.912 353.109 174.323C351.446 174.735 349.663 174.686 347.762 174.177C346.313 173.788 344.921 173.157 343.586 172.281C342.252 171.406 341.1 170.394 340.13 169.244C339.747 168.802 339.616 168.354 339.737 167.901C339.826 167.569 340.044 167.24 340.391 166.912C340.957 166.368 341.482 166.161 341.965 166.29C342.206 166.355 342.436 166.522 342.655 166.791C343.45 167.748 344.367 168.584 345.405 169.299C346.443 170.014 347.527 170.523 348.659 170.826C349.882 171.154 351.011 171.197 352.046 170.957C353.085 170.701 353.955 170.199 354.658 169.449C355.379 168.688 355.898 167.719 356.213 166.541C356.513 165.424 356.551 164.375 356.329 163.394C356.122 162.416 355.66 161.573 354.944 160.863C354.244 160.158 353.335 159.655 352.218 159.356C351.192 159.081 350.235 158.97 349.347 159.024C348.463 159.062 347.564 159.249 346.648 159.587C346.366 159.673 345.969 159.647 345.456 159.51C344.822 159.34 344.399 159.105 344.188 158.806C343.992 158.511 343.98 158.103 344.152 157.583L347.638 146.385C347.81 145.865 348.047 145.524 348.349 145.362C348.651 145.201 349.111 145.203 349.73 145.368L361.819 148.608Z" fill="url(#paint3_linear)"/>
<path d="M386.72 154.746C388.033 155.098 388.532 155.862 388.216 157.04L384.364 171.415L388.032 172.398C388.545 172.535 388.875 172.753 389.021 173.051C389.187 173.338 389.195 173.761 389.045 174.32C388.896 174.878 388.675 175.248 388.384 175.428C388.112 175.598 387.72 175.614 387.207 175.477L383.539 174.494L382.18 179.565L385.169 180.366C385.682 180.503 386.012 180.721 386.158 181.019C386.324 181.306 386.332 181.729 386.182 182.288C386.033 182.846 385.812 183.216 385.521 183.396C385.249 183.566 384.857 183.582 384.344 183.445L374.609 180.836C374.096 180.699 373.756 180.487 373.591 180.2C373.444 179.901 373.446 179.473 373.595 178.915C373.745 178.356 373.956 177.992 374.228 177.823C374.519 177.642 374.921 177.62 375.434 177.758L378.785 178.655L380.143 173.584L369.322 170.685C368.809 170.547 368.469 170.335 368.304 170.048C368.157 169.75 368.159 169.321 368.308 168.763C368.442 168.265 368.612 167.93 368.82 167.76L383.859 155.46C384.317 155.081 384.764 154.829 385.202 154.703C385.64 154.578 386.146 154.592 386.72 154.746ZM373.226 168.431L380.968 170.505L384.158 159.325L373.226 168.431Z" fill="url(#paint4_linear)"/>
<path d="M398.045 183.476C398.588 183.622 398.961 183.783 399.165 183.959C399.378 184.129 399.45 184.342 399.382 184.599L398.824 186.682C398.755 186.938 398.585 187.091 398.313 187.139C398.05 187.182 397.648 187.131 397.104 186.985C396.561 186.84 396.183 186.682 395.97 186.511C395.766 186.336 395.699 186.119 395.767 185.863L396.325 183.78C396.394 183.523 396.56 183.374 396.822 183.331C397.094 183.282 397.501 183.331 398.045 183.476Z" fill="url(#paint5_linear)"/>
<path d="M418.62 178.228C418.876 178.297 419.041 178.406 419.114 178.555C419.197 178.698 419.201 178.91 419.126 179.189C419.078 179.37 419.015 179.515 418.937 179.624L410.915 190.273C410.801 190.429 410.657 190.528 410.484 190.57C410.316 190.623 410.131 190.621 409.927 190.567C409.655 190.494 409.448 190.378 409.304 190.218C409.167 190.068 409.122 189.902 409.171 189.721C409.199 189.615 409.243 189.526 409.303 189.453L416.928 179.425L411.563 177.987L411.12 179.64C411.049 179.904 410.934 180.075 410.776 180.154C410.617 180.233 410.383 180.231 410.074 180.148C409.764 180.065 409.561 179.95 409.463 179.802C409.365 179.655 409.351 179.449 409.422 179.185L410.071 176.763C410.146 176.483 410.251 176.301 410.387 176.216C410.533 176.126 410.734 176.115 410.99 176.184L418.62 178.228Z" fill="url(#paint6_linear)"/>
<path d="M429.423 193.874C429.679 193.942 429.844 194.051 429.918 194.2C430 194.344 430.004 194.555 429.93 194.835C429.855 195.114 429.745 195.299 429.599 195.389C429.463 195.474 429.267 195.482 429.01 195.413L421.381 193.369C421.124 193.3 420.955 193.194 420.872 193.051C420.798 192.901 420.799 192.687 420.874 192.408C420.949 192.129 421.054 191.947 421.19 191.862C421.336 191.772 421.537 191.761 421.793 191.829L424.838 192.645L427.441 182.933L424.152 183.933C424.004 183.974 423.876 183.98 423.771 183.952C423.529 183.887 423.363 183.677 423.273 183.321C423.215 183.111 423.209 182.924 423.254 182.758C423.322 182.501 423.492 182.336 423.762 182.263L428.733 180.78C428.909 180.73 429.072 180.725 429.223 180.766C429.389 180.81 429.509 180.903 429.585 181.045C429.669 181.181 429.686 181.347 429.633 181.543L426.536 193.1L429.423 193.874Z" fill="url(#paint7_linear)"/>
<path d="M79.1652 207.316C79.2935 207.351 79.376 207.405 79.4126 207.48C79.454 207.551 79.456 207.657 79.4186 207.797C79.3812 207.936 79.3261 208.029 79.2534 208.074C79.1854 208.116 79.0872 208.12 78.959 208.086L75.1443 207.064C75.016 207.029 74.9312 206.976 74.8897 206.905C74.8531 206.83 74.8535 206.723 74.8909 206.583C74.9283 206.444 74.981 206.353 75.049 206.31C75.1217 206.265 75.2223 206.26 75.3505 206.294L76.873 206.702L78.1742 201.846L76.5299 202.346C76.4556 202.366 76.3921 202.369 76.3392 202.355C76.2185 202.323 76.1355 202.218 76.0901 202.04C76.0616 201.935 76.0584 201.841 76.0807 201.758C76.115 201.63 76.1998 201.547 76.335 201.511L78.8205 200.77C78.9081 200.744 78.9896 200.742 79.0651 200.762C79.1481 200.785 79.2084 200.831 79.2461 200.902C79.2885 200.97 79.2966 201.053 79.2703 201.151L77.722 206.929L79.1652 207.316Z" fill="#8C8C8C"/>
<path d="M86.4804 202.767C86.8087 202.855 86.9334 203.047 86.8545 203.341L85.8916 206.935L86.8084 207.18C86.9367 207.215 87.0192 207.269 87.0558 207.344C87.0973 207.416 87.0993 207.521 87.0619 207.661C87.0245 207.8 86.9694 207.893 86.8966 207.938C86.8286 207.98 86.7305 207.985 86.6022 207.95L85.6853 207.704L85.3456 208.972L86.0927 209.172C86.221 209.207 86.3035 209.261 86.3401 209.336C86.3815 209.408 86.3835 209.513 86.3461 209.653C86.3087 209.792 86.2536 209.885 86.1809 209.93C86.1129 209.972 86.0147 209.977 85.8865 209.942L83.4528 209.29C83.3245 209.256 83.2396 209.203 83.1982 209.131C83.1615 209.056 83.1619 208.949 83.1993 208.81C83.2367 208.67 83.2894 208.579 83.3574 208.537C83.4302 208.491 83.5307 208.486 83.659 208.52L84.4967 208.745L84.8364 207.477L82.131 206.752C82.0027 206.718 81.9179 206.665 81.8764 206.593C81.8398 206.518 81.8402 206.411 81.8776 206.272C81.9109 206.147 81.9536 206.064 82.0054 206.021L85.7654 202.946C85.8797 202.851 85.9916 202.788 86.1011 202.757C86.2106 202.725 86.3371 202.729 86.4804 202.767ZM83.107 206.189L85.0426 206.707L85.8401 203.912L83.107 206.189Z" fill="#8C8C8C"/>
<path d="M94.6141 205.08C94.7423 205.115 94.8248 205.169 94.8615 205.244C94.9029 205.315 94.9049 205.421 94.8675 205.561C94.8432 205.651 94.8117 205.724 94.7729 205.778L90.7619 211.103C90.7047 211.181 90.6328 211.23 90.5462 211.251C90.4624 211.277 90.3695 211.277 90.2677 211.25C90.1318 211.213 90.0281 211.155 89.9565 211.075C89.8876 211 89.8653 210.917 89.8896 210.827C89.9038 210.774 89.9258 210.729 89.9558 210.693L93.7683 205.679L91.0856 204.96L90.8641 205.786C90.8288 205.918 90.7714 206.004 90.6921 206.043C90.6128 206.083 90.4958 206.082 90.3411 206.04C90.1864 205.999 90.0846 205.941 90.0356 205.867C89.9866 205.794 89.9798 205.691 90.0152 205.559L90.3397 204.347C90.3771 204.208 90.4298 204.117 90.4978 204.074C90.5706 204.029 90.6711 204.024 90.7994 204.058L94.6141 205.08Z" fill="#8C8C8C"/>
<path d="M102.023 207.065C102.151 207.1 102.233 207.154 102.27 207.229C102.311 207.301 102.313 207.406 102.276 207.546L101.876 209.04C101.84 209.172 101.783 209.258 101.704 209.297C101.624 209.337 101.507 209.336 101.353 209.294C101.198 209.253 101.096 209.195 101.047 209.121C100.998 209.047 100.991 208.945 101.027 208.812L101.324 207.703L98.296 206.892L97.7031 209.105L99.1407 209.49L99.2787 208.975C99.314 208.843 99.3676 208.756 99.4394 208.715C99.5149 208.674 99.6281 208.674 99.7791 208.715C99.93 208.755 100.026 208.811 100.068 208.883C100.113 208.956 100.118 209.058 100.082 209.19L99.6001 210.99C99.5647 211.122 99.5092 211.208 99.4337 211.249C99.3619 211.29 99.2506 211.291 99.0997 211.25C98.9487 211.21 98.8507 211.153 98.8055 211.08C98.764 211.009 98.761 210.907 98.7964 210.775L98.9344 210.26L97.4968 209.875L96.9084 212.07L98.2215 212.422C98.3498 212.457 98.4322 212.511 98.4689 212.586C98.5103 212.657 98.5123 212.763 98.4749 212.903C98.4375 213.042 98.3824 213.135 98.3096 213.18C98.2417 213.222 98.1435 213.226 98.0152 213.192L95.1061 212.413C94.9779 212.378 94.893 212.325 94.8516 212.253C94.8149 212.179 94.8153 212.072 94.8527 211.932C94.8901 211.793 94.9428 211.702 95.0108 211.659C95.0836 211.614 95.1841 211.608 95.3124 211.643L96.0595 211.843L97.4471 206.664L96.7 206.464C96.5717 206.43 96.4869 206.377 96.4454 206.305C96.4088 206.23 96.4092 206.123 96.4466 205.984C96.484 205.844 96.5367 205.753 96.6047 205.711C96.6774 205.665 96.778 205.66 96.9062 205.694L102.023 207.065Z" fill="#8C8C8C"/>
<path d="M114.397 210.229C114.808 210.34 115.16 210.535 115.453 210.816C115.749 211.097 115.955 211.446 116.071 211.861C116.228 212.437 116.201 213.115 115.992 213.896C115.817 214.549 115.512 215.129 115.077 215.635C114.646 216.142 114.075 216.509 113.363 216.734C112.657 216.958 111.83 216.964 110.883 216.755C110.78 216.732 110.708 216.676 110.667 216.588C110.629 216.501 110.636 216.362 110.688 216.169C110.719 216.052 110.759 215.974 110.806 215.934C110.858 215.891 110.918 215.877 110.987 215.891C112.005 216.108 112.846 216.056 113.51 215.736C114.174 215.413 114.667 214.866 114.987 214.094C114.722 214.298 114.427 214.431 114.103 214.494C113.779 214.557 113.455 214.545 113.13 214.458C112.715 214.347 112.363 214.157 112.075 213.89C111.791 213.624 111.596 213.303 111.49 212.927C111.388 212.551 111.394 212.153 111.507 211.73C111.617 211.323 111.81 210.984 112.089 210.715C112.368 210.442 112.708 210.262 113.107 210.175C113.51 210.089 113.94 210.107 114.397 210.229ZM114.172 211.067C113.885 210.99 113.62 210.976 113.377 211.024C113.134 211.072 112.927 211.178 112.758 211.343C112.589 211.504 112.47 211.713 112.402 211.97C112.332 212.23 112.327 212.473 112.388 212.7C112.452 212.928 112.576 213.124 112.758 213.29C112.944 213.454 113.185 213.575 113.479 213.654C113.755 213.727 114.015 213.743 114.262 213.699C114.509 213.652 114.717 213.555 114.886 213.406C115.06 213.254 115.179 213.06 115.243 212.822C115.314 212.558 115.316 212.306 115.251 212.066C115.19 211.827 115.065 211.62 114.878 211.444C114.694 211.27 114.459 211.144 114.172 211.067Z" fill="#8C8C8C"/>
<path d="M121.222 212.058C121.66 212.176 122.022 212.357 122.308 212.604C122.598 212.848 122.794 213.143 122.895 213.489C122.996 213.836 122.992 214.215 122.882 214.626C122.779 215.011 122.587 215.34 122.308 215.613C122.033 215.883 121.639 216.17 121.125 216.473L118.706 217.893L121.163 218.551L121.354 217.838C121.389 217.706 121.447 217.62 121.526 217.581C121.605 217.542 121.722 217.543 121.877 217.584C122.032 217.625 122.133 217.683 122.182 217.757C122.231 217.831 122.238 217.934 122.203 218.066L121.909 219.164C121.871 219.303 121.816 219.396 121.743 219.441C121.675 219.483 121.577 219.487 121.449 219.453L117.521 218.401C117.393 218.366 117.308 218.313 117.267 218.241C117.23 218.167 117.23 218.06 117.268 217.92C117.306 217.777 117.362 217.682 117.434 217.637L120.601 215.78C121.043 215.519 121.365 215.29 121.568 215.093C121.775 214.894 121.915 214.658 121.988 214.387C122.082 214.036 122.043 213.728 121.871 213.464C121.704 213.196 121.415 213.008 121.003 212.898C120.588 212.786 120.17 212.787 119.747 212.901L119.58 213.523C119.545 213.655 119.487 213.741 119.408 213.78C119.329 213.82 119.212 213.819 119.057 213.777C118.902 213.736 118.801 213.678 118.752 213.604C118.703 213.531 118.696 213.428 118.731 213.296L118.954 212.464C118.994 212.316 119.065 212.224 119.168 212.187C119.497 212.061 119.836 211.986 120.186 211.963C120.537 211.936 120.883 211.967 121.222 212.058Z" fill="#8C8C8C"/>
<path d="M130.544 214.556C130.699 214.598 130.8 214.655 130.849 214.729C130.898 214.803 130.905 214.906 130.87 215.038L130.369 216.905C130.334 217.037 130.277 217.123 130.197 217.163C130.118 217.202 130.001 217.201 129.846 217.16C129.692 217.118 129.59 217.06 129.541 216.987C129.492 216.913 129.485 216.81 129.52 216.678C129.589 216.421 129.593 216.172 129.533 215.929C129.476 215.687 129.346 215.473 129.142 215.284C128.938 215.092 128.661 214.949 128.31 214.855C127.903 214.746 127.512 214.757 127.137 214.887C126.766 215.018 126.439 215.26 126.154 215.612C125.873 215.966 125.661 216.41 125.518 216.946C125.374 217.482 125.332 217.972 125.391 218.416C125.45 218.857 125.604 219.226 125.852 219.523C126.1 219.82 126.428 220.023 126.836 220.132C127.209 220.232 127.58 220.273 127.949 220.255C128.318 220.236 128.666 220.159 128.994 220.025C129.072 219.989 129.149 219.981 129.224 220.002C129.337 220.032 129.418 220.132 129.465 220.303C129.503 220.434 129.51 220.543 129.487 220.63C129.456 220.743 129.371 220.826 129.232 220.877C128.816 221.029 128.383 221.111 127.935 221.124C127.49 221.138 127.049 221.087 126.611 220.97C126.023 220.812 125.546 220.531 125.181 220.126C124.822 219.718 124.591 219.219 124.49 218.63C124.393 218.042 124.437 217.401 124.623 216.706C124.808 216.016 125.094 215.441 125.48 214.983C125.866 214.52 126.32 214.203 126.839 214.03C127.362 213.859 127.908 213.85 128.478 214.003C128.833 214.098 129.132 214.242 129.375 214.437C129.618 214.631 129.804 214.865 129.933 215.138L130.021 214.81C130.056 214.678 130.114 214.592 130.193 214.553C130.272 214.514 130.389 214.515 130.544 214.556Z" fill="#8C8C8C"/>
<path d="M136.09 216.042C136.419 216.13 136.543 216.321 136.464 216.616L135.501 220.21L136.418 220.455C136.547 220.49 136.629 220.544 136.666 220.619C136.707 220.69 136.709 220.796 136.672 220.936C136.634 221.075 136.579 221.168 136.507 221.213C136.439 221.255 136.34 221.259 136.212 221.225L135.295 220.979L134.956 222.247L135.703 222.447C135.831 222.482 135.913 222.536 135.95 222.611C135.991 222.682 135.993 222.788 135.956 222.928C135.919 223.067 135.864 223.16 135.791 223.205C135.723 223.247 135.625 223.251 135.496 223.217L133.063 222.565C132.934 222.53 132.85 222.477 132.808 222.406C132.771 222.331 132.772 222.224 132.809 222.084C132.847 221.945 132.899 221.854 132.967 221.811C133.04 221.766 133.141 221.761 133.269 221.795L134.107 222.02L134.446 220.752L131.741 220.027C131.613 219.993 131.528 219.939 131.486 219.868C131.45 219.793 131.45 219.686 131.487 219.547C131.521 219.422 131.563 219.338 131.615 219.296L135.375 216.221C135.49 216.126 135.602 216.063 135.711 216.032C135.821 216 135.947 216.004 136.09 216.042ZM132.717 219.463L134.653 219.982L135.45 217.187L132.717 219.463Z" fill="#8C8C8C"/>
<path d="M152.502 220.44C152.657 220.481 152.758 220.539 152.807 220.613C152.856 220.686 152.863 220.789 152.828 220.921L152.327 222.789C152.292 222.921 152.235 223.007 152.155 223.046C152.076 223.086 151.959 223.085 151.804 223.043C151.65 223.002 151.548 222.944 151.499 222.87C151.45 222.797 151.443 222.694 151.478 222.562C151.547 222.305 151.551 222.055 151.491 221.813C151.434 221.571 151.304 221.356 151.1 221.168C150.896 220.976 150.619 220.833 150.268 220.739C149.861 220.63 149.47 220.64 149.095 220.77C148.724 220.902 148.397 221.143 148.112 221.496C147.831 221.849 147.619 222.294 147.476 222.83C147.332 223.365 147.29 223.856 147.349 224.3C147.408 224.741 147.562 225.109 147.81 225.406C148.058 225.703 148.386 225.906 148.794 226.016C149.167 226.116 149.538 226.157 149.907 226.138C150.276 226.12 150.624 226.043 150.952 225.908C151.03 225.873 151.107 225.865 151.182 225.885C151.295 225.916 151.376 226.016 151.423 226.186C151.461 226.318 151.468 226.427 151.445 226.514C151.414 226.627 151.329 226.709 151.19 226.761C150.774 226.912 150.341 226.994 149.893 227.008C149.448 227.022 149.007 226.971 148.569 226.853C147.981 226.696 147.504 226.414 147.139 226.009C146.78 225.601 146.549 225.103 146.448 224.514C146.351 223.925 146.395 223.284 146.581 222.59C146.766 221.9 147.052 221.325 147.438 220.866C147.824 220.404 148.277 220.086 148.797 219.914C149.32 219.743 149.866 219.733 150.436 219.886C150.791 219.981 151.09 220.126 151.333 220.321C151.576 220.515 151.762 220.749 151.891 221.022L151.979 220.694C152.014 220.562 152.072 220.476 152.151 220.437C152.23 220.397 152.347 220.398 152.502 220.44Z" fill="#8C8C8C"/>
<path d="M158.418 226.75C158.572 226.792 158.674 226.849 158.723 226.923C158.772 226.997 158.779 227.1 158.744 227.232L158.293 228.913C158.256 229.052 158.201 229.145 158.128 229.19C158.06 229.233 157.962 229.237 157.834 229.202L152.774 227.846C152.645 227.812 152.561 227.759 152.519 227.687C152.483 227.613 152.483 227.506 152.52 227.366C152.558 227.226 152.61 227.135 152.678 227.093C152.751 227.048 152.852 227.042 152.98 227.077L153.557 227.231L154.945 222.053L154.368 221.898C154.239 221.864 154.155 221.811 154.113 221.739C154.076 221.664 154.077 221.557 154.114 221.418C154.152 221.278 154.204 221.187 154.272 221.145C154.345 221.099 154.446 221.094 154.574 221.128L159.52 222.454C159.649 222.488 159.731 222.543 159.768 222.617C159.809 222.689 159.811 222.795 159.774 222.934L159.389 224.372C159.353 224.504 159.296 224.59 159.217 224.629C159.137 224.668 159.02 224.667 158.866 224.626C158.711 224.584 158.609 224.527 158.56 224.453C158.511 224.379 158.504 224.276 158.54 224.144L158.822 223.092L155.794 222.28L155.231 224.38L156.691 224.771L156.829 224.256C156.865 224.124 156.918 224.037 156.99 223.996C157.066 223.956 157.179 223.956 157.33 223.996C157.481 224.036 157.577 224.093 157.618 224.164C157.664 224.237 157.669 224.34 157.633 224.472L157.151 226.271C157.116 226.403 157.06 226.49 156.985 226.53C156.913 226.572 156.801 226.572 156.65 226.532C156.5 226.491 156.402 226.435 156.356 226.362C156.315 226.29 156.312 226.188 156.347 226.056L156.485 225.541L155.025 225.15L154.406 227.459L157.547 228.301L157.895 227.004C157.93 226.872 157.987 226.787 158.067 226.747C158.146 226.708 158.263 226.709 158.418 226.75Z" fill="#8C8C8C"/>
<path d="M165.724 224.116C165.852 224.15 165.934 224.205 165.971 224.279C166.012 224.351 166.014 224.457 165.977 224.596C165.94 224.736 165.884 224.828 165.812 224.874C165.744 224.916 165.646 224.92 165.517 224.886L162.88 224.179L162.319 225.976C162.753 225.866 163.187 225.869 163.621 225.985C164.074 226.106 164.441 226.308 164.721 226.589C165.002 226.871 165.183 227.206 165.264 227.596C165.351 227.983 165.335 228.397 165.216 228.839C165.098 229.28 164.894 229.65 164.604 229.949C164.314 230.243 163.962 230.442 163.546 230.545C163.13 230.648 162.685 230.635 162.209 230.508C161.847 230.411 161.499 230.253 161.165 230.034C160.832 229.815 160.544 229.562 160.301 229.275C160.205 229.164 160.173 229.053 160.203 228.939C160.225 228.856 160.28 228.774 160.366 228.692C160.508 228.556 160.639 228.504 160.76 228.537C160.82 228.553 160.878 228.594 160.933 228.662C161.131 228.901 161.36 229.11 161.62 229.289C161.879 229.467 162.151 229.595 162.434 229.67C162.739 229.752 163.021 229.763 163.28 229.703C163.54 229.639 163.758 229.514 163.933 229.326C164.114 229.136 164.243 228.894 164.322 228.599C164.397 228.32 164.406 228.058 164.351 227.812C164.299 227.568 164.184 227.357 164.005 227.18C163.83 227.003 163.602 226.878 163.323 226.803C163.067 226.734 162.827 226.707 162.605 226.72C162.385 226.729 162.16 226.776 161.931 226.861C161.86 226.882 161.761 226.876 161.633 226.841C161.474 226.799 161.369 226.74 161.316 226.665C161.267 226.592 161.264 226.49 161.307 226.36L162.178 223.56C162.221 223.43 162.28 223.345 162.356 223.305C162.431 223.264 162.547 223.265 162.701 223.306L165.724 224.116Z" fill="#8C8C8C"/>
<path d="M171.31 225.613C171.751 225.731 172.106 225.907 172.375 226.141C172.644 226.375 172.819 226.65 172.9 226.967C172.986 227.281 172.98 227.621 172.882 227.987C172.805 228.274 172.67 228.511 172.479 228.698C172.292 228.883 172.059 229.012 171.78 229.087C172.146 229.323 172.396 229.612 172.53 229.955C172.669 230.296 172.683 230.676 172.571 231.095C172.464 231.491 172.288 231.809 172.041 232.051C171.795 232.292 171.488 232.447 171.123 232.514C170.757 232.582 170.343 232.554 169.883 232.431L166.674 231.571C166.546 231.537 166.461 231.484 166.419 231.412C166.383 231.337 166.383 231.23 166.421 231.091C166.458 230.951 166.511 230.86 166.579 230.818C166.651 230.772 166.752 230.767 166.88 230.801L167.571 230.986L168.958 225.808L168.268 225.623C168.14 225.588 168.055 225.535 168.013 225.463C167.977 225.389 167.977 225.282 168.014 225.142C168.052 225.003 168.105 224.912 168.173 224.869C168.245 224.824 168.346 224.819 168.474 224.853L171.31 225.613ZM169.246 228.129L170.418 228.443C170.852 228.559 171.204 228.557 171.475 228.435C171.747 228.314 171.927 228.087 172.016 227.755C172.109 227.408 172.069 227.116 171.898 226.88C171.727 226.644 171.42 226.467 170.979 226.349L169.807 226.035L169.246 228.129ZM168.42 231.214L169.92 231.616C170.384 231.74 170.767 231.736 171.07 231.602C171.376 231.47 171.578 231.221 171.676 230.855C171.885 230.078 171.515 229.562 170.568 229.308L169.04 228.899L168.42 231.214Z" fill="#8C8C8C"/>
<path d="M187.456 229.957C187.584 229.992 187.667 230.046 187.703 230.121C187.745 230.192 187.747 230.298 187.709 230.438C187.672 230.577 187.617 230.67 187.544 230.715C187.476 230.757 187.378 230.761 187.25 230.727L184.612 230.02L184.052 231.817C184.486 231.707 184.92 231.71 185.354 231.826C185.806 231.948 186.173 232.149 186.454 232.431C186.734 232.712 186.915 233.048 186.997 233.437C187.083 233.825 187.067 234.239 186.949 234.68C186.83 235.122 186.626 235.492 186.336 235.79C186.047 236.085 185.694 236.283 185.278 236.386C184.863 236.489 184.417 236.477 183.942 236.349C183.579 236.252 183.231 236.095 182.898 235.876C182.564 235.657 182.276 235.404 182.034 235.116C181.938 235.006 181.905 234.894 181.935 234.781C181.958 234.698 182.012 234.615 182.099 234.533C182.24 234.397 182.372 234.346 182.492 234.378C182.553 234.394 182.61 234.436 182.665 234.503C182.864 234.742 183.093 234.951 183.352 235.13C183.612 235.309 183.883 235.436 184.166 235.512C184.472 235.594 184.754 235.605 185.013 235.545C185.272 235.481 185.49 235.355 185.666 235.168C185.846 234.977 185.976 234.735 186.054 234.441C186.129 234.161 186.139 233.899 186.083 233.654C186.032 233.409 185.916 233.199 185.737 233.021C185.562 232.845 185.335 232.719 185.056 232.644C184.799 232.576 184.56 232.548 184.338 232.561C184.117 232.571 183.892 232.618 183.663 232.702C183.593 232.724 183.493 232.717 183.365 232.683C183.207 232.64 183.101 232.582 183.048 232.507C182.999 232.433 182.996 232.331 183.039 232.201L183.911 229.402C183.954 229.272 184.013 229.186 184.088 229.146C184.164 229.106 184.279 229.106 184.434 229.147L187.456 229.957Z" fill="#8C8C8C"/>
<path d="M193.316 237.903C193.444 237.937 193.527 237.992 193.563 238.066C193.605 238.138 193.607 238.244 193.569 238.383C193.532 238.523 193.477 238.615 193.404 238.661C193.336 238.703 193.238 238.707 193.11 238.673L189.295 237.651C189.167 237.616 189.082 237.563 189.041 237.491C189.004 237.417 189.004 237.31 189.042 237.17C189.079 237.03 189.132 236.939 189.2 236.897C189.273 236.852 189.373 236.846 189.501 236.881L191.024 237.289L192.325 232.433L190.681 232.932C190.606 232.953 190.543 232.956 190.49 232.942C190.369 232.91 190.286 232.804 190.241 232.626C190.212 232.522 190.209 232.428 190.231 232.345C190.266 232.217 190.351 232.134 190.486 232.098L192.971 231.356C193.059 231.331 193.14 231.329 193.216 231.349C193.299 231.371 193.359 231.418 193.397 231.488C193.439 231.556 193.447 231.64 193.421 231.738L191.873 237.516L193.316 237.903Z" fill="#8C8C8C"/>
<path d="M199.856 233.146C200.248 233.252 200.581 233.43 200.853 233.681C201.13 233.929 201.321 234.22 201.425 234.556C201.53 234.891 201.536 235.23 201.444 235.574C201.362 235.879 201.202 236.13 200.964 236.325C200.725 236.52 200.446 236.655 200.127 236.731C200.435 236.984 200.657 237.28 200.793 237.619C200.928 237.959 200.946 238.314 200.847 238.683C200.743 239.072 200.549 239.396 200.265 239.656C199.982 239.912 199.642 240.081 199.243 240.164C198.845 240.248 198.427 240.231 197.989 240.113C197.551 239.996 197.181 239.802 196.877 239.531C196.574 239.259 196.364 238.942 196.247 238.579C196.131 238.212 196.125 237.835 196.229 237.446C196.328 237.076 196.521 236.778 196.808 236.552C197.095 236.325 197.434 236.179 197.823 236.114C197.584 235.888 197.411 235.631 197.302 235.343C197.197 235.056 197.185 234.76 197.267 234.454C197.359 234.111 197.534 233.82 197.792 233.582C198.05 233.344 198.359 233.186 198.719 233.109C199.085 233.029 199.463 233.041 199.856 233.146ZM199.631 233.984C199.397 233.921 199.176 233.909 198.968 233.946C198.765 233.98 198.589 234.063 198.441 234.193C198.293 234.323 198.191 234.494 198.134 234.705C198.082 234.897 198.088 235.087 198.151 235.274C198.215 235.461 198.327 235.624 198.487 235.764C198.652 235.905 198.847 236.006 199.073 236.067C199.3 236.127 199.517 236.137 199.727 236.096C199.94 236.056 200.12 235.971 200.268 235.841C200.416 235.711 200.516 235.55 200.568 235.357C200.624 235.146 200.621 234.947 200.558 234.76C200.495 234.573 200.382 234.414 200.219 234.281C200.061 234.146 199.865 234.047 199.631 233.984ZM198.863 236.853C198.587 236.78 198.33 236.765 198.091 236.811C197.853 236.856 197.648 236.955 197.478 237.107C197.313 237.257 197.199 237.449 197.136 237.683C197.073 237.917 197.076 238.142 197.143 238.358C197.214 238.575 197.341 238.765 197.524 238.927C197.708 239.086 197.938 239.202 198.213 239.276C198.489 239.35 198.746 239.364 198.985 239.319C199.224 239.27 199.427 239.168 199.594 239.015C199.764 238.862 199.88 238.669 199.943 238.435C200.006 238.201 200.001 237.977 199.929 237.764C199.861 237.548 199.736 237.36 199.552 237.202C199.368 237.043 199.138 236.927 198.863 236.853Z" fill="#8C8C8C"/>
<path d="M206.773 235.133C207.365 235.292 207.849 235.567 208.226 235.959C208.603 236.347 208.846 236.829 208.954 237.404C209.068 237.976 209.033 238.606 208.849 239.293C208.665 239.979 208.381 240.542 207.996 240.981C207.615 241.421 207.164 241.717 206.642 241.868C206.121 242.016 205.565 242.01 204.973 241.851L202.307 241.137C202.178 241.103 202.094 241.05 202.052 240.978C202.016 240.903 202.016 240.796 202.053 240.657C202.091 240.517 202.143 240.426 202.211 240.384C202.284 240.338 202.385 240.333 202.513 240.367L203.147 240.537L204.535 235.358L203.901 235.189C203.772 235.154 203.687 235.101 203.646 235.029C203.609 234.955 203.61 234.848 203.647 234.708C203.685 234.569 203.737 234.478 203.805 234.435C203.878 234.39 203.979 234.385 204.107 234.419L206.773 235.133ZM203.996 240.765L205.049 241.047C205.498 241.167 205.914 241.174 206.299 241.066C206.685 240.955 207.02 240.732 207.304 240.395C207.589 240.055 207.806 239.608 207.955 239.053C208.103 238.498 208.139 238.004 208.061 237.571C207.984 237.134 207.806 236.771 207.527 236.482C207.249 236.193 206.885 235.988 206.436 235.868L205.383 235.586L203.996 240.765Z" fill="#8C8C8C"/>
<path d="M223.354 239.576C223.482 239.61 223.564 239.665 223.601 239.739C223.643 239.811 223.645 239.917 223.607 240.056C223.57 240.196 223.515 240.288 223.442 240.334C223.374 240.376 223.276 240.38 223.147 240.346L220.51 239.639L219.95 241.436C220.384 241.326 220.817 241.329 221.251 241.445C221.704 241.567 222.071 241.768 222.351 242.049C222.632 242.331 222.813 242.666 222.894 243.056C222.981 243.443 222.965 243.858 222.846 244.299C222.728 244.741 222.524 245.11 222.234 245.409C221.944 245.703 221.592 245.902 221.176 246.005C220.76 246.108 220.315 246.096 219.839 245.968C219.477 245.871 219.129 245.713 218.795 245.494C218.462 245.276 218.174 245.023 217.931 244.735C217.836 244.625 217.803 244.513 217.833 244.4C217.855 244.316 217.91 244.234 217.997 244.152C218.138 244.016 218.269 243.964 218.39 243.997C218.45 244.013 218.508 244.055 218.563 244.122C218.761 244.361 218.991 244.57 219.25 244.749C219.51 244.928 219.781 245.055 220.064 245.131C220.369 245.213 220.652 245.223 220.91 245.163C221.17 245.099 221.388 244.974 221.563 244.786C221.744 244.596 221.873 244.354 221.952 244.059C222.027 243.78 222.037 243.518 221.981 243.273C221.929 243.028 221.814 242.817 221.635 242.64C221.46 242.464 221.233 242.338 220.953 242.263C220.697 242.194 220.458 242.167 220.236 242.18C220.015 242.19 219.79 242.237 219.561 242.321C219.49 242.342 219.391 242.336 219.263 242.302C219.104 242.259 218.999 242.2 218.946 242.126C218.897 242.052 218.894 241.95 218.937 241.82L219.808 239.02C219.851 238.89 219.911 238.805 219.986 238.765C220.062 238.724 220.177 238.725 220.331 238.766L223.354 239.576Z" fill="#8C8C8C"/>
<path d="M231.221 241.684C231.349 241.718 231.431 241.773 231.468 241.847C231.51 241.919 231.512 242.025 231.474 242.164L231.074 243.659C231.038 243.791 230.981 243.876 230.902 243.916C230.822 243.955 230.705 243.954 230.551 243.913C230.396 243.871 230.294 243.814 230.245 243.74C230.196 243.666 230.189 243.563 230.225 243.431L230.522 242.322L227.494 241.51L226.901 243.723L228.339 244.109L228.477 243.594C228.512 243.462 228.566 243.375 228.637 243.333C228.713 243.293 228.826 243.293 228.977 243.333C229.128 243.374 229.224 243.43 229.266 243.502C229.311 243.574 229.316 243.677 229.28 243.809L228.798 245.609C228.763 245.741 228.707 245.827 228.632 245.867C228.56 245.909 228.449 245.909 228.298 245.869C228.147 245.828 228.049 245.772 228.004 245.699C227.962 245.627 227.959 245.525 227.994 245.393L228.132 244.878L226.695 244.493L226.106 246.689L227.42 247.041C227.548 247.075 227.63 247.13 227.667 247.204C227.708 247.276 227.71 247.382 227.673 247.521C227.636 247.661 227.58 247.753 227.508 247.799C227.44 247.841 227.342 247.845 227.213 247.811L224.304 247.031C224.176 246.997 224.091 246.944 224.05 246.872C224.013 246.797 224.013 246.69 224.051 246.551C224.088 246.411 224.141 246.32 224.209 246.278C224.282 246.233 224.382 246.227 224.51 246.261L225.258 246.462L226.645 241.283L225.898 241.083C225.77 241.048 225.685 240.995 225.643 240.924C225.607 240.849 225.607 240.742 225.645 240.602C225.682 240.463 225.735 240.372 225.803 240.329C225.875 240.284 225.976 240.279 226.104 240.313L231.221 241.684Z" fill="#8C8C8C"/>
<path d="M236.164 249.384C236.292 249.418 236.375 249.473 236.411 249.547C236.453 249.619 236.455 249.725 236.417 249.864C236.38 250.004 236.325 250.096 236.252 250.142C236.184 250.184 236.086 250.188 235.958 250.154L232.143 249.132C232.015 249.097 231.93 249.044 231.888 248.972C231.852 248.898 231.852 248.791 231.889 248.651C231.927 248.512 231.98 248.421 232.048 248.378C232.12 248.333 232.221 248.327 232.349 248.362L233.872 248.77L235.173 243.914L233.528 244.413C233.454 244.434 233.391 244.437 233.338 244.423C233.217 244.391 233.134 244.285 233.089 244.108C233.06 244.003 233.057 243.909 233.079 243.826C233.114 243.698 233.198 243.615 233.334 243.579L235.819 242.837C235.907 242.812 235.988 242.81 236.064 242.83C236.147 242.852 236.207 242.899 236.245 242.97C236.287 243.038 236.295 243.121 236.269 243.219L234.721 248.997L236.164 249.384Z" fill="#8C8C8C"/>
<path d="M245.121 245.409C245.249 245.443 245.332 245.497 245.368 245.572C245.41 245.644 245.412 245.749 245.374 245.889L244.974 247.383C244.939 247.515 244.881 247.601 244.802 247.64C244.723 247.68 244.606 247.679 244.451 247.637C244.296 247.596 244.194 247.538 244.145 247.464C244.097 247.391 244.09 247.288 244.125 247.156L244.422 246.046L241.394 245.235L240.801 247.448L242.239 247.833L242.377 247.318C242.412 247.186 242.466 247.099 242.538 247.058C242.613 247.017 242.726 247.018 242.877 247.058C243.028 247.098 243.125 247.154 243.166 247.226C243.211 247.299 243.216 247.401 243.181 247.534L242.698 249.333C242.663 249.465 242.608 249.552 242.532 249.592C242.46 249.633 242.349 249.634 242.198 249.594C242.047 249.553 241.949 249.496 241.904 249.424C241.862 249.352 241.859 249.25 241.895 249.118L242.033 248.603L240.595 248.218L240.007 250.414L241.32 250.766C241.448 250.8 241.531 250.854 241.567 250.929C241.609 251.001 241.611 251.106 241.573 251.246C241.536 251.386 241.481 251.478 241.408 251.523C241.34 251.566 241.242 251.57 241.114 251.535L238.204 250.756C238.076 250.721 237.991 250.668 237.95 250.597C237.913 250.522 237.914 250.415 237.951 250.275C237.988 250.136 238.041 250.045 238.109 250.002C238.182 249.957 238.282 249.952 238.411 249.986L239.158 250.186L240.545 245.008L239.798 244.807C239.67 244.773 239.585 244.72 239.544 244.648C239.507 244.574 239.507 244.467 239.545 244.327C239.582 244.187 239.635 244.096 239.703 244.054C239.776 244.009 239.876 244.003 240.005 244.038L245.121 245.409Z" fill="#8C8C8C"/>
<path d="M74.9081 215.416C75.3194 215.526 75.6714 215.722 75.9643 216.002C76.2608 216.284 76.4667 216.633 76.582 217.048C76.7391 217.624 76.713 218.302 76.5037 219.083C76.3288 219.736 76.0239 220.315 75.589 220.822C75.1578 221.329 74.5865 221.695 73.8749 221.921C73.168 222.144 72.3412 222.151 71.3943 221.942C71.2914 221.918 71.2194 221.863 71.1782 221.775C71.1409 221.688 71.1479 221.548 71.1995 221.356C71.2309 221.239 71.2701 221.161 71.3172 221.121C71.3691 221.078 71.4295 221.064 71.4984 221.078C72.5162 221.294 73.3571 221.243 74.021 220.923C74.6859 220.6 75.1784 220.052 75.4983 219.281C75.2334 219.485 74.9388 219.618 74.6147 219.681C74.2905 219.744 73.9662 219.732 73.6417 219.645C73.2266 219.533 72.875 219.344 72.5867 219.077C72.3022 218.811 72.1072 218.489 72.0017 218.113C71.9 217.738 71.9057 217.339 72.019 216.917C72.1281 216.509 72.3219 216.171 72.6003 215.902C72.8797 215.629 73.2191 215.449 73.6185 215.362C74.0217 215.276 74.4516 215.294 74.9081 215.416ZM74.6837 216.254C74.3969 216.177 74.1319 216.163 73.8885 216.211C73.6451 216.259 73.4386 216.365 73.2691 216.53C73.1006 216.691 72.9819 216.9 72.9132 217.156C72.8434 217.417 72.8389 217.66 72.8995 217.887C72.9639 218.114 73.0871 218.311 73.269 218.477C73.4558 218.64 73.6963 218.761 73.9906 218.84C74.2661 218.914 74.5269 218.929 74.773 218.886C75.0202 218.839 75.2284 218.741 75.3976 218.593C75.5717 218.441 75.6906 218.246 75.7543 218.009C75.825 217.745 75.8278 217.493 75.7627 217.253C75.7014 217.014 75.5769 216.807 75.3894 216.631C75.2057 216.456 74.9704 216.331 74.6837 216.254Z" fill="#8C8C8C"/>
<path d="M83.071 222.329C83.2257 222.37 83.3275 222.428 83.3765 222.502C83.4255 222.576 83.4323 222.678 83.3969 222.811L82.9465 224.491C82.9091 224.631 82.854 224.723 82.7812 224.769C82.7132 224.811 82.6151 224.815 82.4868 224.781L77.427 223.425C77.2987 223.391 77.2138 223.338 77.1724 223.266C77.1358 223.191 77.1361 223.084 77.1735 222.945C77.211 222.805 77.2637 222.714 77.3316 222.672C77.4044 222.626 77.5049 222.621 77.6332 222.655L78.2105 222.81L79.5981 217.631L79.0208 217.477C78.8926 217.442 78.8077 217.389 78.7663 217.317C78.7296 217.243 78.73 217.136 78.7674 216.996C78.8048 216.857 78.8575 216.766 78.9255 216.723C78.9983 216.678 79.0988 216.673 79.2271 216.707L84.1737 218.032C84.302 218.067 84.3844 218.121 84.4211 218.196C84.4625 218.267 84.4645 218.373 84.4271 218.513L84.0419 219.95C84.0066 220.082 83.9492 220.168 83.8699 220.208C83.7906 220.247 83.6736 220.246 83.5189 220.204C83.3642 220.163 83.2623 220.105 83.2134 220.032C83.1644 219.958 83.1576 219.855 83.193 219.723L83.475 218.67L80.4471 217.859L79.8845 219.959L81.3447 220.35L81.4827 219.835C81.5181 219.703 81.5716 219.616 81.6434 219.575C81.7189 219.534 81.8322 219.534 81.9831 219.575C82.134 219.615 82.2302 219.671 82.2716 219.743C82.3168 219.816 82.3217 219.918 82.2864 220.05L81.8041 221.85C81.7687 221.982 81.7133 222.068 81.6377 222.109C81.566 222.15 81.4546 222.151 81.3037 222.11C81.1528 222.07 81.0547 222.013 81.0095 221.94C80.9681 221.869 80.965 221.767 81.0004 221.635L81.1384 221.12L79.6782 220.728L79.0595 223.037L82.2006 223.879L82.5479 222.583C82.5833 222.451 82.6406 222.365 82.72 222.326C82.7993 222.286 82.9163 222.287 83.071 222.329Z" fill="#8C8C8C"/>
<path d="M89.0128 219.329C89.4542 219.447 89.8094 219.623 90.0784 219.857C90.3473 220.091 90.5223 220.366 90.6032 220.683C90.6888 220.997 90.6826 221.337 90.5846 221.703C90.5077 221.99 90.3735 222.227 90.1818 222.414C89.9948 222.599 89.7619 222.729 89.483 222.803C89.8486 223.039 90.0986 223.328 90.2331 223.672C90.3723 224.012 90.3858 224.392 90.2736 224.811C90.1675 225.207 89.9911 225.526 89.7444 225.767C89.4978 226.008 89.1915 226.163 88.8256 226.231C88.4596 226.298 88.0465 226.271 87.5862 226.147L84.3771 225.287C84.2488 225.253 84.164 225.2 84.1225 225.128C84.0859 225.054 84.0863 224.947 84.1237 224.807C84.1611 224.667 84.2138 224.576 84.2818 224.534C84.3546 224.489 84.4551 224.483 84.5834 224.518L85.2739 224.703L86.6615 219.524L85.971 219.339C85.8427 219.305 85.7578 219.251 85.7164 219.18C85.6798 219.105 85.6801 218.998 85.7175 218.859C85.755 218.719 85.8077 218.628 85.8756 218.585C85.9484 218.54 86.0489 218.535 86.1772 218.569L89.0128 219.329ZM86.9493 221.846L88.1209 222.159C88.5548 222.276 88.9073 222.273 89.1785 222.152C89.4496 222.03 89.6297 221.803 89.7186 221.471C89.8117 221.124 89.7725 220.833 89.6012 220.597C89.4298 220.361 89.1235 220.184 88.682 220.065L87.5104 219.751L86.9493 221.846ZM86.1228 224.93L87.6226 225.332C88.0867 225.456 88.4701 225.452 88.7727 225.319C89.0791 225.186 89.2813 224.937 89.3794 224.571C89.5877 223.794 89.2183 223.278 88.2712 223.025L86.7431 222.615L86.1228 224.93Z" fill="#8C8C8C"/>
<path d="M95.8265 221.021C96.2189 221.126 96.5513 221.304 96.8238 221.555C97.101 221.804 97.2918 222.095 97.396 222.431C97.5003 222.766 97.5065 223.105 97.4145 223.449C97.3326 223.754 97.1725 224.004 96.9342 224.199C96.6959 224.394 96.417 224.53 96.0973 224.606C96.4058 224.859 96.6277 225.155 96.7632 225.494C96.8987 225.834 96.9169 226.189 96.8178 226.558C96.7136 226.947 96.5196 227.271 96.2357 227.531C95.9529 227.786 95.6122 227.956 95.2138 228.039C94.8154 228.123 94.3973 228.106 93.9596 227.988C93.5219 227.871 93.1514 227.677 92.848 227.405C92.5446 227.134 92.3344 226.817 92.2173 226.454C92.1013 226.087 92.0953 225.709 92.1994 225.321C92.2985 224.951 92.4916 224.653 92.7787 224.427C93.0659 224.2 93.4042 224.054 93.7938 223.989C93.555 223.763 93.3812 223.506 93.2724 223.218C93.1673 222.931 93.1557 222.635 93.2376 222.329C93.3296 221.986 93.5046 221.695 93.7625 221.457C94.0204 221.219 94.3296 221.061 94.6901 220.984C95.0553 220.904 95.4341 220.916 95.8265 221.021ZM95.602 221.859C95.3681 221.796 95.147 221.783 94.9389 221.821C94.7356 221.855 94.5598 221.938 94.4117 222.068C94.2636 222.198 94.1612 222.369 94.1046 222.58C94.0531 222.772 94.0589 222.962 94.1221 223.149C94.1852 223.335 94.2971 223.499 94.4578 223.639C94.6222 223.78 94.8176 223.881 95.0439 223.942C95.2703 224.002 95.4881 224.012 95.6972 223.971C95.9102 223.931 96.0907 223.846 96.2388 223.716C96.3869 223.586 96.4867 223.424 96.5383 223.232C96.5949 223.021 96.5916 222.822 96.5285 222.635C96.4653 222.448 96.3524 222.288 96.1897 222.156C96.0319 222.021 95.836 221.922 95.602 221.859ZM94.8331 224.728C94.5577 224.655 94.3007 224.64 94.0621 224.686C93.8235 224.731 93.6191 224.83 93.4488 224.982C93.2833 225.132 93.1692 225.324 93.1065 225.558C93.0438 225.792 93.0462 226.017 93.1136 226.233C93.1848 226.45 93.3119 226.64 93.4949 226.802C93.6789 226.961 93.9086 227.077 94.1841 227.151C94.4595 227.225 94.7165 227.239 94.9551 227.194C95.1947 227.145 95.3978 227.043 95.5643 226.89C95.7346 226.737 95.8511 226.544 95.9137 226.31C95.9764 226.076 95.9717 225.852 95.8994 225.639C95.832 225.423 95.7063 225.235 95.5223 225.077C95.3383 224.918 95.1086 224.802 94.8331 224.728Z" fill="#8C8C8C"/>
<path d="M111.706 225.41C111.834 225.444 111.917 225.499 111.953 225.573C111.995 225.645 111.997 225.751 111.96 225.89C111.922 226.03 111.867 226.122 111.794 226.168C111.726 226.21 111.628 226.214 111.5 226.18L108.862 225.473L108.302 227.27C108.736 227.16 109.17 227.163 109.604 227.279C110.057 227.401 110.423 227.602 110.704 227.883C110.984 228.165 111.165 228.5 111.247 228.89C111.333 229.277 111.317 229.692 111.199 230.133C111.081 230.575 110.876 230.944 110.586 231.243C110.297 231.537 109.944 231.736 109.528 231.839C109.113 231.942 108.667 231.93 108.192 231.802C107.829 231.705 107.482 231.547 107.148 231.328C106.814 231.11 106.526 230.857 106.284 230.569C106.188 230.459 106.155 230.347 106.186 230.234C106.208 230.151 106.262 230.068 106.349 229.986C106.491 229.85 106.622 229.798 106.742 229.831C106.803 229.847 106.86 229.889 106.915 229.956C107.114 230.195 107.343 230.404 107.602 230.583C107.862 230.762 108.133 230.889 108.416 230.965C108.722 231.047 109.004 231.057 109.263 230.997C109.522 230.934 109.74 230.808 109.916 230.62C110.096 230.43 110.226 230.188 110.305 229.893C110.379 229.614 110.389 229.352 110.333 229.107C110.282 228.862 110.166 228.651 109.987 228.474C109.812 228.298 109.585 228.172 109.306 228.097C109.049 228.028 108.81 228.001 108.588 228.014C108.367 228.024 108.142 228.071 107.913 228.155C107.843 228.176 107.743 228.17 107.615 228.136C107.457 228.093 107.351 228.034 107.298 227.96C107.249 227.886 107.246 227.784 107.289 227.654L108.161 224.854C108.204 224.724 108.263 224.639 108.338 224.599C108.414 224.558 108.529 224.559 108.684 224.6L111.706 225.41Z" fill="#8C8C8C"/>
<path d="M118.871 227.196C118.974 227.22 119.044 227.275 119.081 227.362C119.122 227.45 119.117 227.59 119.065 227.782C119.034 227.899 118.993 227.979 118.941 228.022C118.894 228.062 118.836 228.075 118.767 228.06C117.749 227.844 116.907 227.898 116.242 228.221C115.579 228.541 115.087 229.086 114.767 229.858C115.032 229.654 115.326 229.52 115.65 229.458C115.974 229.395 116.299 229.407 116.623 229.494C117.038 229.605 117.388 229.794 117.673 230.06C117.961 230.327 118.156 230.649 118.258 231.024C118.363 231.4 118.359 231.799 118.246 232.222C118.137 232.629 117.943 232.969 117.663 233.242C117.385 233.511 117.044 233.689 116.641 233.775C116.241 233.862 115.813 233.845 115.357 233.722C114.946 233.612 114.592 233.416 114.295 233.134C114.002 232.854 113.798 232.506 113.683 232.091C113.526 231.515 113.552 230.836 113.761 230.055C113.936 229.403 114.239 228.823 114.67 228.315C115.105 227.809 115.676 227.444 116.383 227.221C117.095 226.995 117.924 226.987 118.871 227.196ZM116.274 230.298C115.999 230.224 115.738 230.211 115.49 230.258C115.244 230.301 115.034 230.398 114.86 230.55C114.691 230.699 114.574 230.892 114.511 231.13C114.44 231.394 114.435 231.645 114.497 231.884C114.562 232.124 114.686 232.331 114.87 232.506C115.057 232.681 115.295 232.808 115.581 232.885C115.868 232.961 116.133 232.976 116.377 232.928C116.62 232.88 116.826 232.775 116.994 232.614C117.164 232.449 117.283 232.239 117.352 231.982C117.422 231.722 117.424 231.478 117.36 231.25C117.299 231.024 117.176 230.829 116.989 230.665C116.807 230.499 116.569 230.377 116.274 230.298Z" fill="#8C8C8C"/>
<path d="M124.22 228.763C124.371 228.804 124.483 228.866 124.558 228.951C124.637 229.033 124.682 229.144 124.693 229.284L125.195 235.4L125.541 235.492C125.669 235.527 125.751 235.581 125.788 235.656C125.829 235.728 125.831 235.833 125.794 235.973C125.757 236.112 125.702 236.205 125.629 236.25C125.561 236.293 125.463 236.297 125.334 236.262L123.331 235.725C123.203 235.691 123.118 235.638 123.076 235.566C123.04 235.492 123.04 235.385 123.077 235.245C123.115 235.105 123.167 235.014 123.235 234.972C123.308 234.927 123.409 234.921 123.537 234.956L124.301 235.16L124.198 233.689L121.453 232.953L120.622 234.175L121.307 234.358C121.435 234.392 121.518 234.447 121.555 234.521C121.596 234.593 121.598 234.699 121.561 234.839C121.523 234.978 121.468 235.071 121.395 235.116C121.327 235.158 121.229 235.162 121.101 235.128L119.211 234.621C119.082 234.587 118.997 234.534 118.956 234.462C118.919 234.388 118.92 234.281 118.957 234.141C118.995 234.001 119.047 233.91 119.115 233.868C119.188 233.823 119.289 233.817 119.417 233.852L119.734 233.937L122.995 229.26L121.936 228.976C121.808 228.942 121.723 228.889 121.682 228.817C121.645 228.743 121.645 228.635 121.683 228.496C121.72 228.356 121.773 228.265 121.841 228.223C121.914 228.178 122.014 228.172 122.143 228.207L124.22 228.763ZM123.804 229.477L121.925 232.255L124.144 232.85L123.912 229.506L123.804 229.477Z" fill="#8C8C8C"/>
<path d="M133.235 231.045C133.39 231.087 133.492 231.144 133.541 231.218C133.59 231.292 133.596 231.395 133.561 231.527L133.061 233.395C133.025 233.527 132.968 233.612 132.888 233.652C132.809 233.691 132.692 233.69 132.537 233.649C132.383 233.607 132.281 233.55 132.232 233.476C132.183 233.402 132.176 233.299 132.212 233.167C132.28 232.911 132.284 232.661 132.224 232.418C132.168 232.177 132.037 231.962 131.833 231.774C131.629 231.582 131.352 231.439 131.001 231.345C130.594 231.235 130.203 231.246 129.828 231.376C129.457 231.507 129.13 231.749 128.845 232.101C128.565 232.455 128.352 232.899 128.209 233.435C128.065 233.971 128.023 234.461 128.082 234.906C128.142 235.346 128.296 235.715 128.544 236.012C128.792 236.309 129.119 236.512 129.527 236.621C129.9 236.721 130.272 236.762 130.641 236.744C131.009 236.725 131.358 236.649 131.685 236.514C131.763 236.478 131.84 236.471 131.915 236.491C132.029 236.521 132.109 236.622 132.156 236.792C132.194 236.923 132.201 237.032 132.178 237.119C132.147 237.232 132.063 237.315 131.923 237.367C131.507 237.518 131.074 237.6 130.626 237.613C130.181 237.628 129.74 237.576 129.302 237.459C128.714 237.301 128.237 237.02 127.873 236.615C127.513 236.207 127.282 235.708 127.181 235.119C127.084 234.531 127.129 233.89 127.315 233.196C127.5 232.505 127.785 231.931 128.171 231.472C128.558 231.009 129.011 230.692 129.53 230.52C130.053 230.348 130.6 230.339 131.169 230.492C131.524 230.587 131.823 230.732 132.066 230.926C132.309 231.121 132.495 231.355 132.624 231.628L132.712 231.299C132.747 231.167 132.805 231.082 132.884 231.042C132.963 231.003 133.08 231.004 133.235 231.045Z" fill="#8C8C8C"/>
<path d="M145.651 234.372C146.088 234.489 146.45 234.671 146.736 234.917C147.027 235.161 147.223 235.456 147.324 235.803C147.425 236.149 147.421 236.528 147.31 236.94C147.207 237.324 147.016 237.653 146.737 237.926C146.462 238.196 146.068 238.483 145.554 238.786L143.135 240.207L145.591 240.865L145.782 240.152C145.818 240.02 145.875 239.934 145.954 239.894C146.034 239.855 146.151 239.856 146.305 239.897C146.46 239.939 146.562 239.997 146.611 240.07C146.66 240.144 146.667 240.247 146.631 240.379L146.337 241.477C146.3 241.617 146.245 241.709 146.172 241.754C146.104 241.797 146.006 241.801 145.877 241.766L141.95 240.714C141.821 240.68 141.736 240.626 141.695 240.555C141.658 240.48 141.659 240.373 141.696 240.233C141.735 240.09 141.79 239.996 141.863 239.951L145.03 238.094C145.472 237.832 145.794 237.603 145.996 237.406C146.203 237.207 146.343 236.972 146.416 236.7C146.51 236.349 146.471 236.041 146.299 235.777C146.132 235.51 145.843 235.321 145.432 235.211C145.017 235.1 144.598 235.101 144.176 235.214L144.009 235.836C143.973 235.969 143.916 236.054 143.837 236.094C143.757 236.133 143.64 236.132 143.486 236.091C143.331 236.049 143.229 235.992 143.18 235.918C143.131 235.844 143.124 235.741 143.16 235.609L143.383 234.777C143.422 234.63 143.493 234.538 143.596 234.501C143.925 234.374 144.265 234.3 144.615 234.276C144.966 234.249 145.311 234.281 145.651 234.372Z" fill="#8C8C8C"/>
<path d="M152.907 236.45C153.058 236.49 153.171 236.553 153.245 236.637C153.324 236.719 153.369 236.83 153.38 236.971L153.883 243.086L154.228 243.179C154.356 243.213 154.439 243.268 154.475 243.342C154.517 243.414 154.519 243.52 154.481 243.659C154.444 243.799 154.389 243.891 154.316 243.937C154.248 243.979 154.15 243.983 154.022 243.949L152.018 243.412C151.89 243.377 151.805 243.324 151.764 243.253C151.727 243.178 151.727 243.071 151.765 242.931C151.802 242.792 151.855 242.701 151.923 242.658C151.996 242.613 152.096 242.608 152.224 242.642L152.989 242.847L152.885 241.375L150.14 240.64L149.31 241.861L149.995 242.045C150.123 242.079 150.205 242.133 150.242 242.208C150.283 242.28 150.285 242.385 150.248 242.525C150.211 242.665 150.156 242.757 150.083 242.802C150.015 242.845 149.917 242.849 149.788 242.814L147.898 242.308C147.77 242.273 147.685 242.22 147.643 242.149C147.607 242.074 147.607 241.967 147.645 241.827C147.682 241.688 147.735 241.597 147.803 241.554C147.875 241.509 147.976 241.504 148.104 241.538L148.421 241.623L151.682 236.946L150.624 236.663C150.495 236.628 150.411 236.575 150.369 236.503C150.333 236.429 150.333 236.322 150.37 236.182C150.408 236.043 150.46 235.952 150.528 235.909C150.601 235.864 150.702 235.859 150.83 235.893L152.907 236.45ZM152.491 237.163L150.613 239.941L152.831 240.536L152.599 237.192L152.491 237.163Z" fill="#8C8C8C"/>
<path d="M159.857 238.312C160.008 238.352 160.121 238.415 160.195 238.499C160.274 238.581 160.319 238.692 160.33 238.833L160.833 244.949L161.178 245.041C161.306 245.076 161.389 245.13 161.426 245.205C161.467 245.276 161.469 245.382 161.432 245.522C161.394 245.661 161.339 245.754 161.266 245.799C161.198 245.841 161.1 245.845 160.972 245.811L158.968 245.274C158.84 245.24 158.755 245.187 158.714 245.115C158.677 245.04 158.678 244.933 158.715 244.794C158.752 244.654 158.805 244.563 158.873 244.521C158.946 244.475 159.046 244.47 159.175 244.504L159.939 244.709L159.836 243.238L157.091 242.502L156.26 243.723L156.945 243.907C157.073 243.941 157.155 243.996 157.192 244.07C157.234 244.142 157.236 244.248 157.198 244.387C157.161 244.527 157.106 244.619 157.033 244.664C156.965 244.707 156.867 244.711 156.738 244.677L154.848 244.17C154.72 244.136 154.635 244.083 154.594 244.011C154.557 243.936 154.557 243.829 154.595 243.69C154.632 243.55 154.685 243.459 154.753 243.417C154.826 243.371 154.926 243.366 155.054 243.4L155.371 243.485L158.632 238.809L157.574 238.525C157.446 238.491 157.361 238.438 157.319 238.366C157.283 238.291 157.283 238.184 157.32 238.045C157.358 237.905 157.411 237.814 157.479 237.772C157.551 237.726 157.652 237.721 157.78 237.755L159.857 238.312ZM159.442 239.025L157.563 241.804L159.781 242.398L159.549 239.054L159.442 239.025Z" fill="#8C8C8C"/>
<path d="M167.838 245.042C167.993 245.084 168.095 245.141 168.144 245.215C168.193 245.289 168.2 245.392 168.164 245.524L167.714 247.205C167.677 247.345 167.621 247.437 167.549 247.482C167.481 247.525 167.383 247.529 167.254 247.494L162.194 246.138C162.066 246.104 161.981 246.051 161.94 245.979C161.903 245.905 161.904 245.798 161.941 245.658C161.978 245.518 162.031 245.427 162.099 245.385C162.172 245.34 162.272 245.334 162.401 245.369L162.978 245.523L164.366 240.345L163.788 240.19C163.66 240.156 163.575 240.103 163.534 240.031C163.497 239.956 163.497 239.849 163.535 239.71C163.572 239.57 163.625 239.479 163.693 239.437C163.766 239.391 163.866 239.386 163.995 239.42L168.941 240.746C169.069 240.78 169.152 240.835 169.189 240.909C169.23 240.981 169.232 241.087 169.195 241.226L168.809 242.664C168.774 242.796 168.717 242.882 168.637 242.921C168.558 242.96 168.441 242.959 168.286 242.918C168.132 242.876 168.03 242.819 167.981 242.745C167.932 242.671 167.925 242.568 167.96 242.436L168.242 241.384L165.215 240.572L164.652 242.672L166.112 243.063L166.25 242.548C166.286 242.416 166.339 242.329 166.411 242.288C166.486 242.248 166.6 242.248 166.751 242.288C166.901 242.328 166.998 242.385 167.039 242.456C167.084 242.529 167.089 242.632 167.054 242.764L166.572 244.563C166.536 244.695 166.481 244.782 166.405 244.822C166.333 244.864 166.222 244.864 166.071 244.824C165.92 244.783 165.822 244.727 165.777 244.654C165.736 244.582 165.732 244.48 165.768 244.348L165.906 243.833L164.446 243.442L163.827 245.751L166.968 246.593L167.315 245.297C167.351 245.164 167.408 245.079 167.487 245.039C167.567 245 167.684 245.001 167.838 245.042Z" fill="#8C8C8C"/>
<path d="M181.739 250.569C181.867 250.603 181.95 250.657 181.987 250.732C182.028 250.804 182.03 250.909 181.993 251.049C181.955 251.189 181.9 251.281 181.827 251.326C181.759 251.369 181.661 251.373 181.533 251.338L177.718 250.316C177.59 250.282 177.505 250.229 177.464 250.157C177.427 250.083 177.427 249.975 177.465 249.836C177.502 249.696 177.555 249.605 177.623 249.563C177.696 249.518 177.796 249.512 177.925 249.547L179.447 249.954L180.748 245.098L179.104 245.598C179.03 245.619 178.966 245.622 178.913 245.608C178.792 245.575 178.709 245.47 178.664 245.292C178.636 245.187 178.632 245.094 178.655 245.011C178.689 244.882 178.774 244.8 178.909 244.763L181.394 244.022C181.482 243.997 181.564 243.995 181.639 244.015C181.722 244.037 181.782 244.083 181.82 244.154C181.863 244.222 181.871 244.305 181.844 244.403L180.296 250.182L181.739 250.569Z" fill="#8C8C8C"/>
<path d="M190.458 246.396C190.613 246.437 190.715 246.495 190.764 246.569C190.813 246.643 190.819 246.746 190.784 246.878L190.283 248.745C190.248 248.877 190.191 248.963 190.111 249.002C190.032 249.042 189.915 249.041 189.76 248.999C189.606 248.958 189.504 248.9 189.455 248.827C189.406 248.753 189.399 248.65 189.435 248.518C189.503 248.261 189.507 248.012 189.447 247.769C189.391 247.527 189.26 247.312 189.056 247.124C188.852 246.932 188.575 246.789 188.224 246.695C187.817 246.586 187.426 246.597 187.051 246.727C186.68 246.858 186.353 247.1 186.068 247.452C185.788 247.805 185.575 248.25 185.432 248.786C185.288 249.322 185.246 249.812 185.305 250.256C185.365 250.697 185.519 251.066 185.767 251.363C186.015 251.66 186.342 251.863 186.75 251.972C187.123 252.072 187.495 252.113 187.864 252.094C188.232 252.076 188.58 251.999 188.908 251.865C188.986 251.829 189.063 251.821 189.138 251.842C189.252 251.872 189.332 251.972 189.379 252.143C189.417 252.274 189.424 252.383 189.401 252.47C189.37 252.583 189.286 252.666 189.146 252.717C188.73 252.868 188.297 252.951 187.849 252.964C187.404 252.978 186.963 252.927 186.525 252.81C185.937 252.652 185.46 252.37 185.096 251.965C184.736 251.558 184.505 251.059 184.404 250.47C184.307 249.882 184.352 249.241 184.538 248.546C184.723 247.856 185.008 247.281 185.394 246.822C185.781 246.36 186.234 246.043 186.753 245.87C187.276 245.699 187.822 245.69 188.392 245.842C188.747 245.937 189.046 246.082 189.289 246.277C189.532 246.471 189.718 246.705 189.847 246.978L189.935 246.65C189.97 246.518 190.028 246.432 190.107 246.393C190.186 246.353 190.303 246.355 190.458 246.396Z" fill="#8C8C8C"/>
<path d="M196.374 252.707C196.529 252.748 196.63 252.806 196.679 252.879C196.728 252.953 196.735 253.056 196.7 253.188L196.249 254.869C196.212 255.009 196.157 255.101 196.084 255.146C196.016 255.189 195.918 255.193 195.79 255.158L190.73 253.803C190.602 253.768 190.517 253.715 190.475 253.644C190.439 253.569 190.439 253.462 190.477 253.322C190.514 253.183 190.567 253.092 190.635 253.049C190.707 253.004 190.808 252.999 190.936 253.033L191.514 253.188L192.901 248.009L192.324 247.854C192.196 247.82 192.111 247.767 192.069 247.695C192.033 247.621 192.033 247.514 192.07 247.374C192.108 247.234 192.161 247.143 192.228 247.101C192.301 247.056 192.402 247.05 192.53 247.085L197.477 248.41C197.605 248.444 197.687 248.499 197.724 248.573C197.766 248.645 197.768 248.751 197.73 248.89L197.345 250.328C197.31 250.46 197.252 250.546 197.173 250.585C197.094 250.625 196.977 250.624 196.822 250.582C196.667 250.541 196.565 250.483 196.516 250.409C196.467 250.336 196.461 250.233 196.496 250.101L196.778 249.048L193.75 248.237L193.187 250.336L194.648 250.728L194.786 250.212C194.821 250.08 194.875 249.994 194.946 249.952C195.022 249.912 195.135 249.912 195.286 249.952C195.437 249.993 195.533 250.049 195.575 250.121C195.62 250.193 195.625 250.296 195.589 250.428L195.107 252.228C195.072 252.36 195.016 252.446 194.941 252.486C194.869 252.528 194.758 252.528 194.607 252.488C194.456 252.447 194.358 252.391 194.312 252.318C194.271 252.246 194.268 252.144 194.303 252.012L194.441 251.497L192.981 251.106L192.362 253.415L195.504 254.257L195.851 252.961C195.886 252.829 195.944 252.743 196.023 252.704C196.102 252.664 196.219 252.665 196.374 252.707Z" fill="#8C8C8C"/>
<path d="M202.179 249.537C202.572 249.642 202.904 249.82 203.177 250.071C203.454 250.319 203.645 250.611 203.749 250.946C203.853 251.281 203.859 251.621 203.767 251.964C203.685 252.27 203.525 252.52 203.287 252.715C203.049 252.91 202.77 253.045 202.45 253.121C202.759 253.374 202.981 253.67 203.116 254.01C203.252 254.349 203.27 254.704 203.171 255.074C203.066 255.462 202.872 255.786 202.589 256.046C202.306 256.302 201.965 256.471 201.567 256.555C201.168 256.638 200.75 256.621 200.312 256.504C199.875 256.387 199.504 256.192 199.201 255.921C198.897 255.649 198.687 255.332 198.57 254.969C198.454 254.603 198.448 254.225 198.552 253.836C198.651 253.466 198.844 253.168 199.132 252.942C199.419 252.716 199.757 252.57 200.147 252.504C199.908 252.279 199.734 252.022 199.625 251.734C199.52 251.447 199.509 251.15 199.59 250.845C199.682 250.501 199.857 250.211 200.115 249.972C200.373 249.734 200.682 249.576 201.043 249.499C201.408 249.419 201.787 249.432 202.179 249.537ZM201.955 250.374C201.721 250.312 201.5 250.299 201.292 250.336C201.088 250.371 200.913 250.453 200.765 250.583C200.616 250.713 200.514 250.884 200.457 251.095C200.406 251.288 200.412 251.477 200.475 251.664C200.538 251.851 200.65 252.014 200.811 252.154C200.975 252.296 201.17 252.396 201.397 252.457C201.623 252.518 201.841 252.528 202.05 252.487C202.263 252.447 202.444 252.361 202.592 252.231C202.74 252.101 202.84 251.94 202.891 251.747C202.948 251.536 202.944 251.337 202.881 251.15C202.818 250.964 202.705 250.804 202.543 250.671C202.385 250.536 202.189 250.437 201.955 250.374ZM201.186 253.244C200.911 253.17 200.654 253.156 200.415 253.201C200.176 253.246 199.972 253.345 199.802 253.498C199.636 253.647 199.522 253.839 199.459 254.073C199.397 254.307 199.399 254.532 199.466 254.748C199.538 254.966 199.665 255.155 199.848 255.318C200.032 255.476 200.261 255.592 200.537 255.666C200.812 255.74 201.069 255.754 201.308 255.709C201.548 255.66 201.751 255.559 201.917 255.405C202.087 255.253 202.204 255.059 202.267 254.825C202.329 254.591 202.325 254.368 202.252 254.154C202.185 253.938 202.059 253.751 201.875 253.592C201.691 253.434 201.461 253.318 201.186 253.244Z" fill="#8C8C8C"/>
<path d="M218.286 253.986C218.414 254.02 218.496 254.075 218.533 254.149C218.574 254.221 218.576 254.327 218.539 254.466C218.515 254.557 218.483 254.629 218.444 254.684L214.433 260.009C214.376 260.086 214.304 260.136 214.218 260.157C214.134 260.183 214.041 260.182 213.939 260.155C213.803 260.119 213.7 260.061 213.628 259.981C213.559 259.906 213.537 259.823 213.561 259.732C213.575 259.679 213.597 259.635 213.627 259.598L217.44 254.584L214.757 253.865L214.536 254.692C214.5 254.824 214.443 254.909 214.364 254.949C214.284 254.988 214.167 254.987 214.013 254.946C213.858 254.904 213.756 254.847 213.707 254.773C213.658 254.699 213.651 254.596 213.687 254.464L214.011 253.253C214.049 253.113 214.101 253.022 214.169 252.98C214.242 252.935 214.343 252.929 214.471 252.964L218.286 253.986Z" fill="#8C8C8C"/>
<path d="M223.687 261.809C223.815 261.843 223.898 261.897 223.935 261.972C223.976 262.044 223.978 262.149 223.941 262.289C223.903 262.429 223.848 262.521 223.775 262.566C223.707 262.609 223.609 262.613 223.481 262.578L219.666 261.556C219.538 261.522 219.453 261.469 219.412 261.397C219.375 261.322 219.375 261.215 219.413 261.076C219.45 260.936 219.503 260.845 219.571 260.803C219.644 260.758 219.744 260.752 219.873 260.787L221.395 261.194L222.696 256.338L221.052 256.838C220.978 256.859 220.914 256.862 220.861 256.848C220.74 256.815 220.657 256.71 220.612 256.532C220.584 256.427 220.58 256.334 220.603 256.251C220.637 256.122 220.722 256.04 220.857 256.003L223.343 255.262C223.43 255.237 223.512 255.234 223.587 255.255C223.67 255.277 223.73 255.323 223.768 255.394C223.811 255.462 223.819 255.545 223.792 255.643L222.244 261.422L223.687 261.809Z" fill="#8C8C8C"/>
<path d="M230.035 257.001C230.472 257.118 230.834 257.3 231.12 257.546C231.41 257.79 231.606 258.085 231.708 258.432C231.809 258.778 231.804 259.157 231.694 259.568C231.591 259.953 231.4 260.282 231.12 260.555C230.846 260.825 230.452 261.112 229.938 261.415L227.519 262.835L229.975 263.493L230.166 262.78C230.202 262.648 230.259 262.563 230.338 262.523C230.418 262.484 230.535 262.485 230.689 262.526C230.844 262.568 230.946 262.625 230.995 262.699C231.044 262.773 231.051 262.876 231.015 263.008L230.721 264.106C230.684 264.245 230.628 264.338 230.556 264.383C230.488 264.425 230.39 264.43 230.261 264.395L226.333 263.343C226.205 263.308 226.12 263.255 226.079 263.183C226.042 263.109 226.043 263.002 226.08 262.862C226.118 262.719 226.174 262.625 226.247 262.579L229.413 260.722C229.856 260.461 230.178 260.232 230.38 260.035C230.587 259.836 230.727 259.6 230.8 259.329C230.894 258.978 230.855 258.67 230.683 258.406C230.516 258.139 230.227 257.95 229.816 257.84C229.401 257.728 228.982 257.729 228.559 257.843L228.393 258.465C228.357 258.597 228.3 258.683 228.221 258.722C228.141 258.762 228.024 258.761 227.869 258.719C227.715 258.678 227.613 258.62 227.564 258.547C227.515 258.473 227.508 258.37 227.544 258.238L227.767 257.406C227.806 257.259 227.877 257.167 227.98 257.129C228.309 257.003 228.649 256.928 228.999 256.905C229.35 256.878 229.695 256.91 230.035 257.001Z" fill="#8C8C8C"/>
<path d="M237.953 259.122C238.281 259.21 238.406 259.401 238.327 259.696L237.364 263.289L238.281 263.535C238.409 263.57 238.491 263.624 238.528 263.698C238.569 263.77 238.571 263.876 238.534 264.016C238.497 264.155 238.442 264.248 238.369 264.293C238.301 264.335 238.203 264.339 238.074 264.305L237.157 264.059L236.818 265.327L237.565 265.527C237.693 265.562 237.776 265.616 237.812 265.69C237.854 265.762 237.856 265.868 237.818 266.008C237.781 266.147 237.726 266.24 237.653 266.285C237.585 266.327 237.487 266.331 237.359 266.297L234.925 265.645C234.797 265.61 234.712 265.557 234.67 265.486C234.634 265.411 234.634 265.304 234.671 265.164C234.709 265.025 234.762 264.934 234.83 264.891C234.902 264.846 235.003 264.841 235.131 264.875L235.969 265.099L236.308 263.832L233.603 263.107C233.475 263.072 233.39 263.019 233.349 262.948C233.312 262.873 233.312 262.766 233.35 262.626C233.383 262.502 233.426 262.418 233.478 262.376L237.238 259.301C237.352 259.206 237.464 259.143 237.573 259.111C237.683 259.08 237.809 259.084 237.953 259.122ZM234.579 262.543L236.515 263.062L237.312 260.267L234.579 262.543Z" fill="#8C8C8C"/>
</g>
<defs>
<filter id="filter0_bd" x="0" y="-4" width="510.28" height="392.658" filterUnits="userSpaceOnUse" color-interpolation-filters="sRGB">
<feFlood flood-opacity="0" result="BackgroundImageFix"/>
<feGaussianBlur in="BackgroundImage" stdDeviation="15"/>
<feComposite in2="SourceAlpha" operator="in" result="effect1_backgroundBlur"/>
<feColorMatrix in="SourceAlpha" type="matrix" values="0 0 0 0 0 0 0 0 0 0 0 0 0 0 0 0 0 0 127 0" result="hardAlpha"/>
<feOffset dy="4"/>
<feGaussianBlur stdDeviation="15"/>
<feComposite in2="hardAlpha" operator="out"/>
<feColorMatrix type="matrix" values="0 0 0 0 0 0 0 0 0 0 0 0 0 0 0 0 0 0 0.15 0"/>
<feBlend mode="normal" in2="effect1_backgroundBlur" result="effect2_dropShadow"/>
<feBlend mode="normal" in="SourceGraphic" in2="effect2_dropShadow" result="shape"/>
</filter>
<linearGradient id="paint0_linear" x1="161.761" y1="82.9065" x2="98.0745" y2="119.676" gradientUnits="userSpaceOnUse">
<stop stop-color="#D669FF"/>
<stop offset="1" stop-color="#7161EF"/>
</linearGradient>
<linearGradient id="paint1_linear" x1="436.999" y1="168.452" x2="412.376" y2="219.517" gradientUnits="userSpaceOnUse">
<stop stop-color="#D669FF"/>
<stop offset="1" stop-color="#7161EF"/>
</linearGradient>
<linearGradient id="paint2_linear" x1="436.999" y1="168.452" x2="412.376" y2="219.517" gradientUnits="userSpaceOnUse">
<stop stop-color="#D669FF"/>
<stop offset="1" stop-color="#7161EF"/>
</linearGradient>
<linearGradient id="paint3_linear" x1="436.999" y1="168.452" x2="412.376" y2="219.517" gradientUnits="userSpaceOnUse">
<stop stop-color="#D669FF"/>
<stop offset="1" stop-color="#7161EF"/>
</linearGradient>
<linearGradient id="paint4_linear" x1="436.999" y1="168.452" x2="412.376" y2="219.517" gradientUnits="userSpaceOnUse">
<stop stop-color="#D669FF"/>
<stop offset="1" stop-color="#7161EF"/>
</linearGradient>
<linearGradient id="paint5_linear" x1="436.999" y1="168.452" x2="412.376" y2="219.517" gradientUnits="userSpaceOnUse">
<stop stop-color="#D669FF"/>
<stop offset="1" stop-color="#7161EF"/>
</linearGradient>
<linearGradient id="paint6_linear" x1="436.999" y1="168.452" x2="412.376" y2="219.517" gradientUnits="userSpaceOnUse">
<stop stop-color="#D669FF"/>
<stop offset="1" stop-color="#7161EF"/>
</linearGradient>
<linearGradient id="paint7_linear" x1="436.999" y1="168.452" x2="412.376" y2="219.517" gradientUnits="userSpaceOnUse">
<stop stop-color="#D669FF"/>
<stop offset="1" stop-color="#7161EF"/>
</linearGradient>
</defs>
</svg>
