<svg width="440" height="386" viewBox="0 0 440 386" fill="none" xmlns="http://www.w3.org/2000/svg">
<g opacity="0.5" filter="url(#filter0_bd)">
<rect x="30" y="130.563" width="404" height="232" rx="16" transform="rotate(-15 30 130.563)" fill="white" fill-opacity="0.8" shape-rendering="crispEdges"/>
<path fill-rule="evenodd" clip-rule="evenodd" d="M95.8588 152.257C83.0557 155.687 75.4576 168.847 78.8882 181.651C82.3188 194.454 95.4791 202.052 108.282 198.621C121.085 195.191 128.683 182.03 125.253 169.227C121.822 156.424 108.662 148.826 95.8588 152.257ZM76.9563 182.168C73.2399 168.298 81.4712 154.041 95.3411 150.325C109.211 146.608 123.468 154.84 127.184 168.71C130.901 182.58 122.67 196.836 108.8 200.553C94.9298 204.269 80.6728 196.038 76.9563 182.168ZM88.4904 165.705C87.6347 164.827 88.0421 163.353 89.225 163.036L98.893 160.445C102.433 159.497 105.535 159.603 107.996 160.813C110.481 162.033 112.153 164.299 112.965 167.327C113.808 170.475 113.289 173.769 111.173 176.177L115.312 180.251C115.78 180.701 116.132 181.109 116.399 181.545C116.671 181.991 116.828 182.424 116.952 182.887C117.606 185.328 116.106 187.523 113.639 188.184C112.676 188.442 111.796 188.494 110.876 188.114C110.024 187.761 109.249 187.077 108.375 186.171L102.807 180.419L102.792 180.423L99.1929 176.717C99.1928 176.717 99.193 176.717 99.1929 176.717C98.3399 175.839 98.7443 174.366 99.9282 174.049L101.684 173.578C102.77 173.287 103.437 172.771 103.79 172.188C104.14 171.611 104.259 170.839 104 169.871C103.751 168.942 103.245 168.319 102.62 167.975C101.991 167.628 101.141 167.511 100.112 167.786L93.4098 169.582C92.8478 169.733 92.2492 169.567 91.8447 169.151L88.4904 165.705C88.4902 165.705 88.4905 165.705 88.4904 165.705ZM90.3937 164.793L93.1161 167.59L99.5946 165.854C101.035 165.468 102.43 165.587 103.585 166.223C104.743 166.86 105.559 167.964 105.931 169.354C106.304 170.743 106.184 172.095 105.501 173.224C104.821 174.347 103.661 175.119 102.202 175.51L101.096 175.806L103.408 178.187L103.426 178.182L109.815 184.782C110.675 185.674 111.203 186.085 111.641 186.266C112.011 186.419 112.405 186.444 113.121 186.252C114.687 185.832 115.346 184.62 115.02 183.404C114.927 183.057 114.833 182.819 114.692 182.588C114.546 182.349 114.322 182.074 113.921 181.688L113.913 181.68L109.514 177.35C108.921 176.767 108.82 175.751 109.467 175.079C111.229 173.247 111.765 170.577 111.033 167.844C110.339 165.255 108.981 163.524 107.114 162.608C105.225 161.68 102.656 161.508 99.4106 162.377L90.3937 164.793ZM89.9231 164.31C89.9229 164.31 89.9232 164.31 89.9231 164.31ZM94.0123 188.753C93.3649 186.337 94.7986 183.854 97.2144 183.207C99.6302 182.559 102.113 183.993 102.761 186.409C103.408 188.824 101.974 191.308 99.5585 191.955C97.1427 192.602 94.6596 191.169 94.0123 188.753ZM97.732 185.138C96.3832 185.5 95.5827 186.886 95.9441 188.235C96.3055 189.584 97.692 190.384 99.0408 190.023C100.39 189.662 101.19 188.275 100.829 186.926C100.467 185.577 99.0809 184.777 97.732 185.138Z" fill="url(#paint0_linear)"/>
<path d="M261.17 118.444C261.683 118.306 262.078 118.33 262.354 118.515C262.641 118.681 262.859 119.043 263.009 119.601C263.106 119.963 263.141 120.277 263.116 120.543L259.871 147.011C259.828 147.395 259.678 147.71 259.421 147.957C259.183 148.215 258.86 148.398 258.452 148.508C257.909 148.653 257.433 148.659 257.026 148.526C256.637 148.404 256.394 148.161 256.297 147.799C256.24 147.588 256.228 147.389 256.259 147.203L259.437 122.208L248.706 125.084L249.592 128.389C249.733 128.917 249.706 129.329 249.51 129.624C249.314 129.919 248.907 130.15 248.288 130.315C247.669 130.481 247.201 130.485 246.884 130.328C246.567 130.17 246.337 129.827 246.196 129.299L244.898 124.454C244.748 123.896 244.749 123.475 244.899 123.192C245.061 122.89 245.398 122.67 245.911 122.532L261.17 118.444Z" fill="url(#paint1_linear)"/>
<path d="M295.527 134.74C296.04 134.602 296.435 134.626 296.711 134.811C296.998 134.976 297.216 135.339 297.366 135.897C297.515 136.455 297.509 136.886 297.348 137.188C297.197 137.471 296.865 137.681 296.352 137.819L281.093 141.907C280.58 142.045 280.18 142.031 279.893 141.865C279.617 141.68 279.404 141.308 279.255 140.75C279.105 140.191 279.106 139.771 279.256 139.488C279.418 139.186 279.755 138.966 280.269 138.828L286.358 137.196L281.154 117.772L276.457 122.792C276.241 123.011 276.027 123.15 275.816 123.206C275.333 123.336 274.835 123.137 274.322 122.612C274.013 122.306 273.815 121.987 273.726 121.655C273.588 121.142 273.717 120.687 274.112 120.29L281.24 112.751C281.493 112.489 281.771 112.317 282.073 112.236C282.405 112.148 282.707 112.188 282.979 112.358C283.262 112.508 283.456 112.78 283.561 113.172L289.754 136.287L295.527 134.74Z" fill="url(#paint2_linear)"/>
<path d="M308.669 105.183C310.601 104.665 312.447 104.793 314.207 105.567C315.978 106.322 317.539 107.651 318.89 109.553C320.252 111.437 321.306 113.767 322.05 116.544C322.794 119.321 323.047 121.866 322.809 124.178C322.586 126.486 321.906 128.416 320.769 129.966C319.627 131.501 318.083 132.53 316.136 133.051C314.189 133.573 312.338 133.454 310.581 132.696C308.821 131.922 307.26 130.593 305.898 128.709C304.551 126.822 303.505 124.49 302.761 121.713C302.017 118.936 301.756 116.393 301.979 114.085C302.213 111.757 302.901 109.826 304.042 108.291C305.195 106.736 306.737 105.7 308.669 105.183ZM309.567 108.533C308.374 108.853 307.431 109.559 306.737 110.65C306.054 111.723 305.67 113.128 305.585 114.865C305.497 116.588 305.748 118.551 306.338 120.754C306.929 122.958 307.695 124.791 308.637 126.253C309.574 127.7 310.607 128.717 311.735 129.305C312.878 129.888 314.046 130.02 315.238 129.701C316.431 129.381 317.368 128.685 318.052 127.612C318.75 126.536 319.143 125.136 319.232 123.414C319.316 121.677 319.063 119.706 318.473 117.503C317.882 115.299 317.118 113.474 316.18 112.027C315.239 110.564 314.196 109.541 313.053 108.958C311.921 108.355 310.759 108.214 309.567 108.533Z" fill="url(#paint3_linear)"/>
<path d="M341.983 118.312C343.07 118.021 343.878 117.926 344.406 118.027C344.946 118.109 345.284 118.407 345.422 118.92L346.538 123.085C346.675 123.598 346.533 124.033 346.111 124.389C345.699 124.725 344.951 125.039 343.864 125.331C342.777 125.622 341.964 125.726 341.425 125.644C340.896 125.543 340.563 125.236 340.425 124.723L339.309 120.558C339.172 120.044 339.309 119.62 339.72 119.283C340.142 118.927 340.897 118.604 341.983 118.312Z" fill="url(#paint4_linear)"/>
<path d="M364.27 90.2846C365.84 89.864 367.347 89.8159 368.793 90.1403C370.25 90.4455 371.494 91.0746 372.526 92.0275C373.558 92.9804 374.257 94.1436 374.625 95.517C374.953 96.7395 374.899 97.9267 374.464 99.0787C374.028 100.231 373.333 101.258 372.378 102.161C373.951 102.419 375.312 103 376.461 103.906C377.609 104.811 378.382 106.004 378.778 107.483C379.195 109.037 379.171 110.548 378.706 112.015C378.238 113.467 377.397 114.736 376.184 115.821C374.97 116.907 373.488 117.684 371.737 118.153C369.986 118.622 368.314 118.69 366.721 118.357C365.127 118.024 363.764 117.345 362.633 116.322C361.497 115.284 360.721 113.987 360.305 112.433C359.908 110.954 359.981 109.535 360.523 108.176C361.065 106.818 361.945 105.636 363.164 104.63C361.885 104.326 360.769 103.783 359.816 103.003C358.878 102.22 358.246 101.216 357.918 99.9938C357.55 98.6204 357.574 97.2631 357.992 95.9219C358.409 94.5808 359.164 93.4158 360.258 92.4272C361.363 91.4193 362.7 90.7051 364.27 90.2846ZM365.168 93.6351C364.232 93.8859 363.441 94.2839 362.794 94.8291C362.159 95.3553 361.715 95.9919 361.462 96.7391C361.209 97.4862 361.196 98.2823 361.423 99.1275C361.629 99.8972 362.028 100.542 362.621 101.063C363.213 101.584 363.928 101.926 364.764 102.09C365.616 102.25 366.494 102.209 367.4 101.966C368.306 101.724 369.08 101.322 369.722 100.762C370.38 100.197 370.835 99.5415 371.088 98.7944C371.34 98.0473 371.363 97.2888 371.157 96.5191C370.931 95.6739 370.521 94.991 369.929 94.4703C369.336 93.9497 368.626 93.6224 367.797 93.4885C366.98 93.3355 366.103 93.3844 365.168 93.6351ZM368.243 105.113C367.141 105.408 366.223 105.873 365.487 106.507C364.751 107.141 364.24 107.892 363.955 108.761C363.682 109.611 363.67 110.504 363.921 111.44C364.172 112.375 364.63 113.15 365.296 113.764C365.977 114.375 366.797 114.778 367.755 114.974C368.71 115.155 369.738 115.098 370.839 114.802C371.941 114.507 372.86 114.043 373.596 113.409C374.328 112.76 374.829 112.003 375.099 111.138C375.383 110.269 375.4 109.366 375.15 108.431C374.899 107.495 374.435 106.73 373.758 106.135C373.092 105.52 372.282 105.123 371.327 104.942C370.373 104.761 369.345 104.818 368.243 105.113Z" fill="url(#paint5_linear)"/>
<path d="M406.729 104.943C407.242 104.806 407.637 104.829 407.913 105.014C408.2 105.18 408.418 105.542 408.568 106.1C408.718 106.659 408.712 107.089 408.55 107.391C408.399 107.674 408.067 107.885 407.554 108.022L392.296 112.111C391.783 112.248 391.382 112.234 391.095 112.068C390.819 111.883 390.607 111.512 390.457 110.953C390.307 110.395 390.308 109.974 390.458 109.691C390.62 109.389 390.958 109.169 391.471 109.032L397.561 107.4L392.356 87.9758L387.659 92.9952C387.443 93.2149 387.229 93.3531 387.018 93.4097C386.535 93.5391 386.037 93.3409 385.524 92.8151C385.216 92.5095 385.017 92.1907 384.928 91.8587C384.791 91.3455 384.919 90.8904 385.314 90.4934L392.442 82.9543C392.695 82.6923 392.973 82.5208 393.275 82.4399C393.607 82.351 393.909 82.3914 394.181 82.5611C394.464 82.7118 394.658 82.9833 394.763 83.3757L400.956 106.49L406.729 104.943Z" fill="url(#paint6_linear)"/>
<path d="M108.22 281.775C108.348 281.741 108.447 281.747 108.516 281.793C108.587 281.834 108.642 281.925 108.679 282.064C108.717 282.204 108.715 282.312 108.675 282.387C108.637 282.458 108.554 282.51 108.426 282.545L104.611 283.567C104.483 283.601 104.383 283.598 104.311 283.556C104.242 283.51 104.189 283.417 104.152 283.278C104.114 283.138 104.114 283.033 104.152 282.962C104.192 282.887 104.277 282.832 104.405 282.797L105.928 282.389L104.626 277.533L103.452 278.788C103.398 278.843 103.345 278.878 103.292 278.892C103.171 278.924 103.047 278.875 102.918 278.743C102.841 278.667 102.792 278.587 102.769 278.504C102.735 278.376 102.767 278.262 102.866 278.163L104.648 276.278C104.711 276.212 104.781 276.17 104.856 276.149C104.939 276.127 105.015 276.137 105.083 276.18C105.153 276.217 105.202 276.285 105.228 276.383L106.777 282.162L108.22 281.775Z" fill="#8C8C8C"/>
<path d="M112.281 274.178C112.609 274.09 112.812 274.193 112.891 274.488L113.854 278.082L114.771 277.836C114.899 277.802 114.998 277.807 115.067 277.854C115.139 277.895 115.193 277.986 115.231 278.125C115.268 278.265 115.267 278.372 115.226 278.448C115.189 278.519 115.106 278.571 114.977 278.606L114.06 278.851L114.4 280.119L115.147 279.919C115.276 279.885 115.374 279.89 115.443 279.937C115.515 279.978 115.57 280.069 115.607 280.208C115.644 280.348 115.643 280.455 115.602 280.531C115.565 280.602 115.482 280.654 115.354 280.689L112.92 281.341C112.792 281.375 112.692 281.372 112.62 281.33C112.551 281.284 112.498 281.191 112.46 281.051C112.423 280.912 112.423 280.807 112.461 280.736C112.501 280.66 112.585 280.605 112.714 280.571L113.551 280.347L113.212 279.079L110.506 279.804C110.378 279.838 110.278 279.835 110.206 279.793C110.137 279.747 110.084 279.654 110.046 279.514C110.013 279.39 110.008 279.296 110.032 279.233L111.75 274.69C111.802 274.551 111.868 274.44 111.947 274.359C112.026 274.277 112.137 274.217 112.281 274.178ZM111.07 278.828L113.005 278.309L112.298 275.49L111.07 278.828Z" fill="#8C8C8C"/>
<path d="M120.481 272.114C120.609 272.08 120.708 272.086 120.777 272.132C120.849 272.174 120.903 272.264 120.941 272.404C120.965 272.494 120.974 272.573 120.967 272.639L120.156 279.256C120.145 279.352 120.108 279.431 120.044 279.493C119.984 279.557 119.903 279.603 119.801 279.63C119.666 279.667 119.547 279.668 119.445 279.635C119.348 279.604 119.287 279.544 119.263 279.453C119.248 279.4 119.245 279.351 119.253 279.304L120.048 273.055L117.365 273.774L117.586 274.601C117.622 274.733 117.615 274.836 117.566 274.909C117.517 274.983 117.415 275.041 117.26 275.082C117.106 275.124 116.989 275.125 116.909 275.085C116.83 275.046 116.773 274.96 116.737 274.828L116.413 273.617C116.375 273.477 116.376 273.372 116.413 273.301C116.454 273.226 116.538 273.171 116.666 273.136L120.481 272.114Z" fill="#8C8C8C"/>
<path d="M127.889 270.129C128.018 270.095 128.116 270.101 128.185 270.147C128.257 270.188 128.312 270.279 128.349 270.419L128.75 271.913C128.785 272.045 128.778 272.148 128.729 272.221C128.68 272.295 128.578 272.353 128.424 272.394C128.269 272.436 128.152 272.437 128.073 272.397C127.993 272.358 127.936 272.272 127.901 272.14L127.603 271.031L124.575 271.842L125.168 274.055L126.606 273.67L126.468 273.155C126.433 273.023 126.436 272.921 126.477 272.849C126.522 272.776 126.62 272.72 126.771 272.679C126.922 272.639 127.033 272.639 127.105 272.681C127.181 272.721 127.236 272.808 127.272 272.94L127.754 274.739C127.789 274.871 127.784 274.974 127.739 275.047C127.698 275.118 127.601 275.174 127.451 275.215C127.3 275.255 127.186 275.255 127.111 275.215C127.039 275.174 126.986 275.087 126.95 274.955L126.812 274.44L125.375 274.825L125.963 277.021L127.276 276.669C127.404 276.635 127.503 276.641 127.572 276.687C127.644 276.728 127.698 276.819 127.736 276.958C127.773 277.098 127.772 277.206 127.731 277.281C127.694 277.352 127.611 277.404 127.482 277.439L124.573 278.218C124.445 278.253 124.345 278.249 124.273 278.208C124.204 278.161 124.151 278.069 124.114 277.929C124.076 277.789 124.076 277.684 124.114 277.613C124.154 277.538 124.239 277.483 124.367 277.449L125.114 277.248L123.726 272.07L122.979 272.27C122.851 272.304 122.751 272.301 122.679 272.259C122.61 272.213 122.557 272.12 122.52 271.981C122.482 271.841 122.482 271.736 122.52 271.665C122.56 271.589 122.645 271.535 122.773 271.5L127.889 270.129Z" fill="#8C8C8C"/>
<path d="M140.188 266.682C140.599 266.572 141.002 266.565 141.396 266.662C141.793 266.758 142.146 266.956 142.453 267.258C142.877 267.678 143.194 268.279 143.403 269.06C143.578 269.713 143.604 270.367 143.48 271.023C143.36 271.678 143.049 272.281 142.546 272.832C142.045 273.379 141.332 273.798 140.408 274.091C140.307 274.122 140.217 274.11 140.137 274.054C140.061 273.998 139.998 273.873 139.946 273.681C139.915 273.564 139.909 273.476 139.93 273.418C139.954 273.355 139.999 273.313 140.066 273.291C141.055 272.969 141.758 272.504 142.173 271.895C142.587 271.283 142.74 270.562 142.631 269.734C142.504 270.043 142.315 270.306 142.066 270.522C141.817 270.739 141.53 270.89 141.205 270.977C140.79 271.089 140.391 271.101 140.008 271.013C139.628 270.925 139.299 270.744 139.019 270.471C138.744 270.197 138.549 269.849 138.436 269.426C138.327 269.019 138.326 268.629 138.432 268.257C138.538 267.881 138.741 267.555 139.044 267.28C139.35 267.004 139.731 266.805 140.188 266.682ZM140.412 267.52C140.126 267.597 139.889 267.717 139.702 267.88C139.515 268.043 139.39 268.239 139.325 268.466C139.26 268.69 139.262 268.93 139.33 269.187C139.4 269.447 139.518 269.66 139.684 269.826C139.853 269.991 140.058 270.1 140.299 270.153C140.542 270.201 140.811 270.185 141.105 270.106C141.381 270.033 141.614 269.915 141.806 269.755C141.996 269.591 142.128 269.402 142.2 269.188C142.275 268.97 142.281 268.742 142.217 268.504C142.146 268.24 142.023 268.021 141.846 267.845C141.674 267.669 141.462 267.552 141.212 267.494C140.966 267.434 140.699 267.443 140.412 267.52Z" fill="#8C8C8C"/>
<path d="M147.014 264.853C147.451 264.736 147.855 264.713 148.226 264.783C148.6 264.849 148.917 265.007 149.178 265.256C149.439 265.506 149.624 265.836 149.735 266.247C149.838 266.632 149.837 267.013 149.731 267.389C149.628 267.76 149.43 268.205 149.137 268.725L147.752 271.164L150.209 270.506L150.017 269.793C149.982 269.661 149.989 269.558 150.038 269.484C150.087 269.411 150.189 269.353 150.343 269.311C150.498 269.27 150.615 269.269 150.694 269.308C150.774 269.348 150.831 269.434 150.866 269.566L151.161 270.664C151.198 270.803 151.196 270.911 151.156 270.986C151.118 271.057 151.035 271.11 150.907 271.144L146.979 272.196C146.851 272.231 146.751 272.227 146.679 272.186C146.61 272.14 146.557 272.047 146.52 271.907C146.481 271.764 146.482 271.654 146.523 271.579L148.337 268.387C148.589 267.94 148.753 267.58 148.83 267.309C148.91 267.033 148.913 266.759 148.84 266.487C148.746 266.136 148.559 265.889 148.278 265.746C148 265.598 147.655 265.579 147.244 265.69C146.829 265.801 146.466 266.011 146.157 266.32L146.324 266.943C146.359 267.075 146.352 267.178 146.303 267.252C146.254 267.325 146.153 267.383 145.998 267.425C145.843 267.466 145.726 267.467 145.647 267.428C145.568 267.388 145.51 267.302 145.475 267.17L145.252 266.338C145.213 266.191 145.228 266.076 145.299 265.992C145.521 265.718 145.777 265.484 146.069 265.289C146.359 265.089 146.674 264.944 147.014 264.853Z" fill="#8C8C8C"/>
<path d="M156.335 262.356C156.49 262.314 156.607 262.313 156.686 262.353C156.765 262.392 156.823 262.478 156.858 262.61L157.359 264.478C157.394 264.61 157.387 264.713 157.338 264.786C157.289 264.86 157.187 264.918 157.033 264.959C156.878 265.001 156.761 265.002 156.682 264.962C156.602 264.923 156.545 264.837 156.51 264.705C156.441 264.448 156.32 264.23 156.146 264.05C155.976 263.869 155.756 263.748 155.485 263.688C155.213 263.623 154.901 263.638 154.55 263.732C154.143 263.841 153.809 264.045 153.55 264.345C153.295 264.644 153.132 265.018 153.062 265.465C152.995 265.912 153.034 266.403 153.177 266.939C153.321 267.474 153.529 267.92 153.802 268.275C154.075 268.627 154.392 268.87 154.756 269.003C155.119 269.136 155.504 269.148 155.912 269.039C156.285 268.939 156.627 268.788 156.937 268.588C157.248 268.388 157.511 268.147 157.727 267.867C157.777 267.797 157.84 267.752 157.915 267.731C158.028 267.701 158.148 267.748 158.274 267.872C158.372 267.967 158.433 268.058 158.456 268.145C158.487 268.258 158.455 268.371 158.36 268.486C158.075 268.825 157.741 269.113 157.36 269.348C156.982 269.583 156.574 269.759 156.136 269.876C155.548 270.034 154.994 270.029 154.476 269.86C153.96 269.687 153.511 269.37 153.129 268.911C152.751 268.45 152.469 267.872 152.283 267.178C152.098 266.488 152.058 265.847 152.163 265.257C152.266 264.663 152.5 264.162 152.864 263.753C153.231 263.343 153.7 263.062 154.269 262.909C154.624 262.814 154.955 262.79 155.263 262.837C155.571 262.884 155.849 262.993 156.097 263.166L156.009 262.837C155.974 262.705 155.981 262.602 156.03 262.529C156.079 262.455 156.18 262.397 156.335 262.356Z" fill="#8C8C8C"/>
<path d="M161.882 260.869C162.21 260.782 162.413 260.885 162.492 261.179L163.455 264.773L164.372 264.527C164.5 264.493 164.599 264.499 164.668 264.545C164.74 264.586 164.794 264.677 164.832 264.817C164.869 264.956 164.868 265.064 164.827 265.139C164.79 265.21 164.707 265.263 164.578 265.297L163.662 265.543L164.001 266.81L164.748 266.61C164.877 266.576 164.975 266.582 165.044 266.628C165.116 266.669 165.171 266.76 165.208 266.9C165.245 267.039 165.244 267.147 165.203 267.222C165.166 267.293 165.083 267.346 164.955 267.38L162.521 268.032C162.393 268.066 162.293 268.063 162.221 268.021C162.152 267.975 162.099 267.882 162.061 267.743C162.024 267.603 162.024 267.498 162.062 267.427C162.102 267.352 162.186 267.297 162.315 267.262L163.152 267.038L162.813 265.77L160.107 266.495C159.979 266.529 159.879 266.526 159.807 266.484C159.738 266.438 159.685 266.345 159.648 266.206C159.614 266.081 159.609 265.987 159.633 265.925L161.352 261.382C161.403 261.242 161.469 261.132 161.548 261.05C161.627 260.968 161.738 260.908 161.882 260.869ZM160.671 265.519L162.606 265L161.899 262.181L160.671 265.519Z" fill="#8C8C8C"/>
<path d="M178.293 256.472C178.448 256.431 178.565 256.43 178.644 256.469C178.723 256.508 178.781 256.594 178.816 256.726L179.317 258.594C179.352 258.726 179.345 258.829 179.296 258.903C179.247 258.976 179.145 259.034 178.991 259.076C178.836 259.117 178.719 259.118 178.64 259.079C178.56 259.039 178.503 258.953 178.468 258.821C178.399 258.565 178.278 258.347 178.104 258.167C177.934 257.986 177.714 257.865 177.443 257.804C177.171 257.739 176.859 257.754 176.508 257.848C176.101 257.957 175.767 258.162 175.508 258.462C175.253 258.761 175.09 259.134 175.02 259.582C174.953 260.028 174.992 260.519 175.135 261.055C175.279 261.591 175.487 262.036 175.76 262.392C176.033 262.743 176.35 262.986 176.714 263.119C177.077 263.252 177.462 263.264 177.87 263.155C178.243 263.055 178.585 262.905 178.895 262.704C179.206 262.504 179.469 262.264 179.685 261.983C179.735 261.913 179.798 261.868 179.873 261.848C179.986 261.818 180.106 261.864 180.232 261.988C180.33 262.083 180.391 262.174 180.414 262.261C180.445 262.374 180.413 262.488 180.318 262.602C180.033 262.941 179.699 263.229 179.318 263.465C178.94 263.699 178.532 263.875 178.094 263.993C177.506 264.15 176.952 264.145 176.434 263.977C175.918 263.803 175.469 263.487 175.087 263.027C174.709 262.566 174.427 261.989 174.241 261.294C174.056 260.604 174.016 259.964 174.121 259.373C174.224 258.78 174.458 258.278 174.822 257.869C175.189 257.459 175.658 257.178 176.227 257.026C176.582 256.931 176.913 256.906 177.221 256.953C177.529 257 177.807 257.11 178.055 257.282L177.967 256.954C177.932 256.822 177.939 256.719 177.988 256.645C178.037 256.571 178.138 256.514 178.293 256.472Z" fill="#8C8C8C"/>
<path d="M186.572 258.979C186.726 258.938 186.843 258.937 186.923 258.976C187.002 259.016 187.059 259.101 187.095 259.233L187.545 260.914C187.583 261.054 187.581 261.162 187.541 261.237C187.503 261.308 187.42 261.36 187.292 261.395L182.232 262.751C182.104 262.785 182.004 262.781 181.932 262.74C181.863 262.694 181.81 262.601 181.772 262.461C181.735 262.322 181.735 262.216 181.773 262.146C181.813 262.07 181.897 262.015 182.026 261.981L182.603 261.826L181.215 256.647L180.638 256.802C180.51 256.837 180.41 256.833 180.338 256.792C180.269 256.745 180.216 256.652 180.178 256.513C180.141 256.373 180.141 256.268 180.179 256.197C180.219 256.122 180.304 256.067 180.432 256.032L185.378 254.707C185.507 254.673 185.605 254.679 185.674 254.725C185.746 254.766 185.801 254.857 185.838 254.996L186.223 256.434C186.259 256.566 186.252 256.669 186.203 256.743C186.154 256.816 186.052 256.874 185.897 256.915C185.743 256.957 185.626 256.958 185.546 256.919C185.467 256.879 185.41 256.793 185.374 256.661L185.092 255.609L182.064 256.42L182.627 258.52L184.087 258.128L183.949 257.613C183.914 257.481 183.917 257.379 183.958 257.308C184.003 257.235 184.102 257.178 184.252 257.138C184.403 257.097 184.515 257.098 184.587 257.139C184.662 257.18 184.718 257.266 184.753 257.398L185.235 259.198C185.271 259.33 185.266 259.432 185.22 259.505C185.179 259.577 185.083 259.633 184.932 259.673C184.781 259.714 184.668 259.714 184.592 259.673C184.52 259.632 184.467 259.545 184.431 259.413L184.293 258.898L182.833 259.289L183.452 261.599L186.593 260.757L186.246 259.461C186.21 259.329 186.217 259.226 186.266 259.152C186.315 259.078 186.417 259.021 186.572 258.979Z" fill="#8C8C8C"/>
<path d="M191.582 253.045C191.71 253.011 191.808 253.016 191.877 253.063C191.949 253.104 192.004 253.195 192.041 253.334C192.079 253.474 192.077 253.581 192.037 253.657C191.999 253.728 191.916 253.78 191.788 253.815L189.15 254.521L189.564 256.358C189.884 256.045 190.262 255.831 190.695 255.715C191.148 255.593 191.566 255.585 191.95 255.688C192.334 255.791 192.658 255.992 192.924 256.288C193.192 256.581 193.385 256.947 193.504 257.389C193.622 257.83 193.63 258.253 193.528 258.656C193.425 259.056 193.219 259.404 192.91 259.701C192.602 259.998 192.209 260.211 191.734 260.338C191.372 260.435 190.992 260.472 190.593 260.449C190.195 260.427 189.819 260.352 189.465 260.224C189.327 260.176 189.243 260.096 189.212 259.982C189.19 259.899 189.196 259.801 189.23 259.686C189.285 259.498 189.372 259.387 189.493 259.355C189.554 259.339 189.624 259.346 189.705 259.377C189.997 259.485 190.3 259.551 190.614 259.576C190.928 259.601 191.227 259.576 191.51 259.5C191.815 259.418 192.065 259.287 192.259 259.105C192.452 258.92 192.578 258.702 192.636 258.452C192.697 258.197 192.688 257.923 192.609 257.628C192.535 257.349 192.412 257.117 192.241 256.932C192.074 256.747 191.869 256.622 191.625 256.558C191.385 256.492 191.126 256.497 190.846 256.572C190.59 256.641 190.369 256.737 190.183 256.859C189.997 256.978 189.825 257.131 189.669 257.318C189.619 257.372 189.53 257.416 189.401 257.451C189.243 257.493 189.122 257.495 189.039 257.457C188.96 257.417 188.906 257.331 188.878 257.197L188.233 254.336C188.205 254.202 188.214 254.099 188.259 254.026C188.305 253.953 188.405 253.896 188.559 253.855L191.582 253.045Z" fill="#8C8C8C"/>
<path d="M197.168 251.548C197.609 251.43 198.005 251.405 198.355 251.473C198.704 251.541 198.994 251.692 199.222 251.926C199.453 252.155 199.618 252.453 199.716 252.818C199.793 253.105 199.795 253.378 199.723 253.636C199.653 253.889 199.516 254.118 199.312 254.322C199.747 254.343 200.108 254.469 200.396 254.699C200.687 254.924 200.888 255.246 201.001 255.665C201.107 256.061 201.113 256.425 201.02 256.758C200.927 257.09 200.739 257.377 200.456 257.619C200.173 257.86 199.802 258.043 199.341 258.166L196.132 259.026C196.004 259.06 195.904 259.057 195.832 259.015C195.763 258.969 195.71 258.876 195.673 258.737C195.635 258.597 195.635 258.492 195.673 258.421C195.713 258.346 195.798 258.291 195.926 258.256L196.617 258.071L195.229 252.893L194.538 253.078C194.41 253.112 194.31 253.108 194.238 253.067C194.169 253.021 194.116 252.928 194.079 252.788C194.041 252.649 194.041 252.543 194.079 252.473C194.12 252.397 194.204 252.342 194.332 252.308L197.168 251.548ZM196.639 254.759L197.811 254.445C198.244 254.329 198.548 254.15 198.723 253.91C198.897 253.669 198.939 253.383 198.85 253.051C198.757 252.703 198.577 252.47 198.311 252.352C198.045 252.233 197.691 252.233 197.249 252.351L196.078 252.665L196.639 254.759ZM197.465 257.844L198.965 257.442C199.429 257.317 199.759 257.122 199.955 256.855C200.154 256.588 200.204 256.271 200.106 255.905C199.898 255.127 199.32 254.866 198.373 255.119L196.845 255.529L197.465 257.844Z" fill="#8C8C8C"/>
<path d="M213.323 247.237C213.451 247.203 213.55 247.209 213.619 247.255C213.691 247.297 213.745 247.387 213.783 247.527C213.82 247.666 213.819 247.774 213.778 247.849C213.741 247.92 213.658 247.973 213.529 248.007L210.892 248.714L211.305 250.55C211.626 250.238 212.003 250.024 212.437 249.907C212.89 249.786 213.308 249.777 213.692 249.881C214.075 249.984 214.4 250.184 214.665 250.481C214.934 250.773 215.127 251.14 215.245 251.581C215.364 252.023 215.372 252.445 215.269 252.849C215.166 253.248 214.96 253.597 214.652 253.894C214.343 254.191 213.951 254.403 213.476 254.53C213.113 254.628 212.733 254.665 212.335 254.642C211.936 254.619 211.56 254.544 211.207 254.417C211.069 254.369 210.984 254.288 210.954 254.175C210.932 254.092 210.938 253.993 210.972 253.879C211.026 253.69 211.114 253.58 211.235 253.548C211.295 253.531 211.366 253.539 211.447 253.57C211.739 253.678 212.042 253.744 212.356 253.769C212.67 253.794 212.968 253.769 213.251 253.693C213.557 253.611 213.807 253.479 214.001 253.298C214.194 253.113 214.319 252.895 214.378 252.645C214.439 252.39 214.43 252.115 214.351 251.821C214.276 251.542 214.153 251.31 213.983 251.125C213.816 250.939 213.61 250.814 213.367 250.75C213.127 250.685 212.867 250.69 212.588 250.765C212.331 250.833 212.11 250.929 211.925 251.052C211.738 251.17 211.567 251.323 211.411 251.511C211.361 251.565 211.271 251.609 211.143 251.643C210.985 251.686 210.864 251.688 210.781 251.649C210.701 251.61 210.648 251.523 210.62 251.389L209.975 248.529C209.947 248.395 209.956 248.291 210.001 248.219C210.046 248.146 210.146 248.089 210.301 248.047L213.323 247.237Z" fill="#8C8C8C"/>
<path d="M222.371 251.189C222.499 251.154 222.598 251.16 222.667 251.206C222.738 251.248 222.793 251.338 222.83 251.478C222.868 251.617 222.866 251.725 222.826 251.801C222.788 251.871 222.705 251.924 222.577 251.958L218.762 252.98C218.634 253.015 218.534 253.011 218.462 252.97C218.393 252.924 218.34 252.831 218.303 252.691C218.265 252.551 218.265 252.446 218.303 252.376C218.343 252.3 218.428 252.245 218.556 252.211L220.079 251.803L218.777 246.947L217.603 248.202C217.549 248.256 217.496 248.291 217.443 248.305C217.322 248.338 217.198 248.288 217.069 248.157C216.992 248.08 216.943 248 216.92 247.917C216.886 247.789 216.918 247.675 217.017 247.576L218.799 245.691C218.862 245.626 218.932 245.583 219.007 245.563C219.09 245.54 219.166 245.551 219.234 245.593C219.304 245.631 219.353 245.699 219.379 245.797L220.928 251.575L222.371 251.189Z" fill="#8C8C8C"/>
<path d="M225.656 243.799C226.049 243.694 226.426 243.682 226.787 243.763C227.151 243.84 227.462 243.997 227.72 244.235C227.978 244.473 228.153 244.764 228.245 245.107C228.327 245.413 228.313 245.71 228.205 245.998C228.096 246.286 227.922 246.543 227.683 246.768C228.077 246.833 228.417 246.978 228.704 247.205C228.991 247.431 229.184 247.729 229.283 248.099C229.387 248.488 229.381 248.865 229.265 249.232C229.148 249.595 228.938 249.912 228.635 250.183C228.331 250.455 227.961 250.649 227.523 250.766C227.085 250.884 226.667 250.901 226.269 250.817C225.87 250.734 225.53 250.565 225.247 250.309C224.963 250.049 224.769 249.725 224.665 249.336C224.566 248.967 224.584 248.612 224.719 248.272C224.855 247.933 225.075 247.637 225.38 247.386C225.06 247.31 224.781 247.174 224.543 246.979C224.308 246.783 224.15 246.532 224.068 246.227C223.976 245.883 223.982 245.544 224.087 245.209C224.191 244.873 224.38 244.582 224.653 244.335C224.929 244.083 225.264 243.904 225.656 243.799ZM225.881 244.637C225.647 244.7 225.449 244.799 225.287 244.935C225.128 245.067 225.017 245.226 224.954 245.413C224.891 245.6 224.888 245.799 224.944 246.01C224.996 246.202 225.096 246.364 225.244 246.494C225.392 246.624 225.571 246.71 225.78 246.751C225.993 246.791 226.212 246.78 226.439 246.72C226.665 246.659 226.859 246.559 227.019 246.419C227.184 246.278 227.297 246.114 227.361 245.927C227.424 245.74 227.43 245.55 227.378 245.358C227.321 245.147 227.219 244.976 227.071 244.846C226.923 244.716 226.745 244.634 226.538 244.6C226.334 244.562 226.115 244.574 225.881 244.637ZM226.65 247.506C226.374 247.58 226.144 247.696 225.96 247.855C225.776 248.013 225.649 248.201 225.578 248.418C225.509 248.631 225.506 248.854 225.569 249.088C225.632 249.322 225.746 249.516 225.913 249.669C226.083 249.822 226.288 249.923 226.528 249.972C226.766 250.017 227.023 250.003 227.299 249.929C227.574 249.855 227.804 249.739 227.988 249.58C228.171 249.418 228.296 249.229 228.363 249.013C228.435 248.795 228.439 248.57 228.376 248.336C228.313 248.102 228.197 247.911 228.028 247.762C227.862 247.608 227.659 247.509 227.421 247.464C227.182 247.418 226.925 247.433 226.65 247.506Z" fill="#8C8C8C"/>
<path d="M232.64 242.062C233.232 241.903 233.789 241.899 234.311 242.05C234.832 242.198 235.283 242.494 235.665 242.937C236.049 243.376 236.334 243.939 236.518 244.626C236.702 245.312 236.737 245.942 236.623 246.514C236.513 247.086 236.27 247.567 235.894 247.959C235.517 248.347 235.032 248.621 234.44 248.78L231.774 249.494C231.646 249.528 231.546 249.525 231.474 249.483C231.405 249.437 231.352 249.344 231.314 249.205C231.277 249.065 231.277 248.96 231.315 248.889C231.355 248.814 231.44 248.759 231.568 248.724L232.202 248.554L230.814 243.376L230.18 243.546C230.052 243.58 229.952 243.576 229.88 243.535C229.811 243.489 229.758 243.396 229.721 243.256C229.683 243.117 229.683 243.011 229.721 242.941C229.761 242.865 229.846 242.81 229.974 242.776L232.64 242.062ZM233.051 248.327L234.103 248.045C234.552 247.924 234.917 247.722 235.196 247.437C235.475 247.148 235.653 246.786 235.731 246.353C235.808 245.916 235.772 245.42 235.623 244.865C235.475 244.311 235.258 243.865 234.974 243.529C234.689 243.189 234.353 242.963 233.968 242.852C233.582 242.741 233.165 242.746 232.716 242.866L231.663 243.148L233.051 248.327Z" fill="#8C8C8C"/>
<path d="M249.221 237.619C249.349 237.584 249.448 237.59 249.517 237.636C249.588 237.678 249.643 237.768 249.68 237.908C249.718 238.048 249.716 238.155 249.676 238.231C249.638 238.301 249.555 238.354 249.427 238.388L246.79 239.095L247.203 240.932C247.524 240.619 247.901 240.405 248.335 240.289C248.788 240.167 249.206 240.158 249.589 240.262C249.973 240.365 250.297 240.565 250.563 240.862C250.831 241.154 251.025 241.521 251.143 241.963C251.261 242.404 251.269 242.826 251.167 243.23C251.064 243.63 250.858 243.978 250.549 244.275C250.241 244.572 249.849 244.784 249.373 244.912C249.011 245.009 248.631 245.046 248.232 245.023C247.834 245.001 247.458 244.925 247.104 244.798C246.966 244.75 246.882 244.669 246.852 244.556C246.829 244.473 246.835 244.374 246.869 244.26C246.924 244.072 247.012 243.961 247.132 243.929C247.193 243.913 247.264 243.92 247.345 243.951C247.636 244.059 247.939 244.125 248.253 244.15C248.567 244.175 248.866 244.15 249.149 244.074C249.454 243.992 249.704 243.86 249.898 243.679C250.091 243.494 250.217 243.276 250.275 243.026C250.336 242.771 250.328 242.496 250.249 242.202C250.174 241.923 250.051 241.691 249.88 241.506C249.713 241.32 249.508 241.196 249.264 241.131C249.024 241.066 248.765 241.071 248.486 241.146C248.229 241.215 248.008 241.31 247.822 241.433C247.636 241.552 247.465 241.705 247.309 241.892C247.258 241.946 247.169 241.99 247.041 242.024C246.882 242.067 246.761 242.069 246.678 242.031C246.599 241.991 246.545 241.904 246.518 241.77L245.873 238.91C245.845 238.776 245.853 238.673 245.899 238.6C245.944 238.527 246.044 238.47 246.198 238.428L249.221 237.619Z" fill="#8C8C8C"/>
<path d="M257.088 235.511C257.216 235.476 257.315 235.482 257.384 235.528C257.455 235.57 257.51 235.66 257.547 235.8L257.948 237.294C257.983 237.426 257.976 237.529 257.927 237.603C257.878 237.677 257.777 237.734 257.622 237.776C257.467 237.817 257.35 237.818 257.271 237.779C257.192 237.739 257.134 237.654 257.099 237.522L256.802 236.412L253.774 237.224L254.367 239.437L255.804 239.051L255.666 238.536C255.631 238.404 255.634 238.302 255.675 238.231C255.72 238.158 255.819 238.101 255.969 238.061C256.12 238.02 256.232 238.021 256.304 238.062C256.379 238.103 256.435 238.189 256.47 238.321L256.952 240.121C256.988 240.253 256.983 240.355 256.937 240.428C256.896 240.5 256.8 240.556 256.649 240.596C256.498 240.637 256.385 240.637 256.309 240.596C256.237 240.555 256.184 240.468 256.148 240.336L256.01 239.821L254.573 240.206L255.161 242.402L256.474 242.051C256.603 242.016 256.701 242.022 256.77 242.068C256.842 242.11 256.897 242.2 256.934 242.34C256.971 242.479 256.97 242.587 256.93 242.663C256.892 242.733 256.809 242.786 256.681 242.82L253.772 243.6C253.643 243.634 253.543 243.631 253.471 243.589C253.402 243.543 253.349 243.45 253.312 243.31C253.274 243.171 253.275 243.066 253.312 242.995C253.353 242.919 253.437 242.864 253.565 242.83L254.312 242.63L252.925 237.451L252.178 237.651C252.049 237.686 251.949 237.682 251.878 237.641C251.809 237.595 251.755 237.502 251.718 237.362C251.681 237.222 251.681 237.117 251.718 237.046C251.759 236.971 251.843 236.916 251.971 236.882L257.088 235.511Z" fill="#8C8C8C"/>
<path d="M265.219 239.707C265.347 239.673 265.446 239.679 265.515 239.725C265.586 239.767 265.641 239.857 265.678 239.997C265.716 240.136 265.714 240.244 265.674 240.32C265.636 240.39 265.553 240.443 265.425 240.477L261.61 241.499C261.482 241.534 261.382 241.53 261.31 241.489C261.241 241.443 261.188 241.35 261.151 241.21C261.113 241.07 261.113 240.965 261.151 240.894C261.191 240.819 261.276 240.764 261.404 240.73L262.926 240.322L261.625 235.466L260.451 236.721C260.397 236.775 260.344 236.81 260.291 236.824C260.17 236.856 260.046 236.807 259.917 236.675C259.84 236.599 259.791 236.519 259.768 236.436C259.734 236.308 259.766 236.194 259.865 236.095L261.647 234.21C261.71 234.145 261.78 234.102 261.855 234.082C261.938 234.059 262.013 234.07 262.081 234.112C262.152 234.15 262.201 234.218 262.227 234.316L263.775 240.094L265.219 239.707Z" fill="#8C8C8C"/>
<path d="M270.988 231.786C271.116 231.752 271.215 231.758 271.284 231.804C271.356 231.845 271.41 231.936 271.448 232.075L271.848 233.57C271.883 233.702 271.877 233.805 271.828 233.878C271.779 233.952 271.677 234.01 271.522 234.051C271.368 234.093 271.251 234.094 271.171 234.054C271.092 234.015 271.035 233.929 270.999 233.797L270.702 232.688L267.674 233.499L268.267 235.712L269.704 235.327L269.566 234.812C269.531 234.68 269.534 234.578 269.576 234.506C269.621 234.433 269.719 234.377 269.87 234.336C270.021 234.296 270.132 234.296 270.204 234.338C270.279 234.378 270.335 234.464 270.37 234.597L270.852 236.396C270.888 236.528 270.883 236.631 270.838 236.704C270.796 236.775 270.7 236.831 270.549 236.872C270.398 236.912 270.285 236.912 270.209 236.872C270.138 236.83 270.084 236.744 270.049 236.612L269.911 236.097L268.473 236.482L269.062 238.678L270.375 238.326C270.503 238.292 270.602 238.297 270.671 238.344C270.742 238.385 270.797 238.476 270.834 238.615C270.872 238.755 270.87 238.862 270.83 238.938C270.792 239.009 270.709 239.061 270.581 239.096L267.672 239.875C267.543 239.91 267.443 239.906 267.372 239.865C267.303 239.818 267.25 239.725 267.212 239.586C267.175 239.446 267.175 239.341 267.212 239.27C267.253 239.195 267.337 239.14 267.466 239.105L268.213 238.905L266.825 233.727L266.078 233.927C265.95 233.961 265.85 233.958 265.778 233.916C265.709 233.87 265.656 233.777 265.618 233.637C265.581 233.498 265.581 233.393 265.619 233.322C265.659 233.246 265.743 233.191 265.872 233.157L270.988 231.786Z" fill="#8C8C8C"/>
<path d="M108.583 290.919C108.994 290.808 109.397 290.802 109.791 290.898C110.188 290.994 110.541 291.193 110.848 291.494C111.272 291.915 111.589 292.515 111.798 293.296C111.973 293.949 111.999 294.603 111.875 295.259C111.755 295.914 111.444 296.517 110.941 297.069C110.44 297.615 109.727 298.035 108.803 298.327C108.702 298.358 108.612 298.346 108.532 298.29C108.456 298.234 108.393 298.109 108.341 297.917C108.31 297.8 108.304 297.712 108.325 297.654C108.349 297.591 108.394 297.549 108.461 297.527C109.451 297.205 110.153 296.74 110.568 296.131C110.982 295.519 111.135 294.798 111.026 293.97C110.899 294.279 110.71 294.542 110.461 294.759C110.212 294.975 109.925 295.127 109.6 295.214C109.185 295.325 108.786 295.337 108.403 295.249C108.023 295.161 107.694 294.98 107.414 294.707C107.139 294.434 106.944 294.085 106.831 293.663C106.722 293.255 106.721 292.865 106.827 292.493C106.933 292.117 107.137 291.791 107.439 291.516C107.745 291.24 108.126 291.041 108.583 290.919ZM108.807 291.756C108.521 291.833 108.284 291.953 108.097 292.116C107.91 292.28 107.785 292.475 107.72 292.703C107.655 292.926 107.657 293.166 107.725 293.423C107.795 293.683 107.913 293.897 108.079 294.062C108.248 294.227 108.453 294.336 108.694 294.389C108.937 294.437 109.206 294.422 109.5 294.343C109.776 294.269 110.009 294.152 110.201 293.991C110.391 293.827 110.523 293.638 110.595 293.425C110.67 293.206 110.676 292.978 110.612 292.741C110.541 292.476 110.418 292.257 110.241 292.082C110.069 291.905 109.857 291.788 109.607 291.73C109.361 291.671 109.094 291.679 108.807 291.756Z" fill="#8C8C8C"/>
<path d="M119.109 292.824C119.263 292.782 119.38 292.781 119.46 292.821C119.539 292.86 119.596 292.946 119.632 293.078L120.082 294.759C120.119 294.898 120.118 295.006 120.077 295.081C120.04 295.152 119.957 295.205 119.829 295.239L114.769 296.595C114.64 296.629 114.54 296.626 114.469 296.584C114.4 296.538 114.346 296.445 114.309 296.306C114.272 296.166 114.272 296.061 114.309 295.99C114.35 295.915 114.434 295.86 114.562 295.825L115.14 295.671L113.752 290.492L113.175 290.647C113.047 290.681 112.947 290.677 112.875 290.636C112.806 290.59 112.753 290.497 112.715 290.357C112.678 290.218 112.678 290.112 112.716 290.042C112.756 289.966 112.84 289.911 112.969 289.877L117.915 288.551C118.044 288.517 118.142 288.523 118.211 288.569C118.283 288.611 118.338 288.701 118.375 288.841L118.76 290.278C118.795 290.41 118.789 290.513 118.74 290.587C118.691 290.661 118.589 290.718 118.434 290.76C118.28 290.801 118.162 290.802 118.083 290.763C118.004 290.724 117.947 290.638 117.911 290.506L117.629 289.453L114.601 290.264L115.164 292.364L116.624 291.973L116.486 291.458C116.451 291.326 116.454 291.224 116.495 291.152C116.54 291.079 116.638 291.023 116.789 290.982C116.94 290.942 117.051 290.942 117.123 290.984C117.199 291.024 117.254 291.11 117.29 291.242L117.772 293.042C117.807 293.174 117.802 293.277 117.757 293.35C117.716 293.421 117.62 293.477 117.469 293.518C117.318 293.558 117.204 293.558 117.129 293.518C117.057 293.476 117.004 293.39 116.968 293.258L116.83 292.743L115.37 293.134L115.989 295.443L119.13 294.601L118.783 293.305C118.747 293.173 118.754 293.07 118.803 292.997C118.852 292.923 118.954 292.865 119.109 292.824Z" fill="#8C8C8C"/>
<path d="M122.754 287.255C123.196 287.136 123.591 287.111 123.941 287.179C124.291 287.247 124.58 287.398 124.809 287.632C125.04 287.862 125.205 288.159 125.303 288.525C125.38 288.812 125.382 289.084 125.309 289.342C125.24 289.596 125.103 289.824 124.899 290.029C125.333 290.05 125.694 290.175 125.982 290.406C126.273 290.631 126.475 290.953 126.587 291.372C126.693 291.768 126.7 292.132 126.607 292.464C126.514 292.797 126.326 293.084 126.043 293.325C125.76 293.567 125.388 293.749 124.928 293.873L121.719 294.733C121.591 294.767 121.491 294.763 121.419 294.722C121.35 294.676 121.297 294.583 121.259 294.443C121.222 294.304 121.222 294.199 121.26 294.128C121.3 294.052 121.384 293.997 121.513 293.963L122.203 293.778L120.815 288.599L120.125 288.784C119.997 288.819 119.897 288.815 119.825 288.774C119.756 288.727 119.703 288.635 119.665 288.495C119.628 288.355 119.628 288.25 119.666 288.179C119.706 288.104 119.79 288.049 119.919 288.015L122.754 287.255ZM122.226 290.466L123.397 290.152C123.831 290.036 124.135 289.857 124.309 289.616C124.483 289.376 124.526 289.089 124.437 288.757C124.344 288.41 124.164 288.177 123.898 288.058C123.631 287.94 123.277 287.94 122.836 288.058L121.664 288.372L122.226 290.466ZM123.052 293.55L124.552 293.149C125.016 293.024 125.346 292.829 125.541 292.562C125.74 292.294 125.791 291.977 125.693 291.611C125.485 290.834 124.907 290.572 123.96 290.826L122.432 291.236L123.052 293.55Z" fill="#8C8C8C"/>
<path d="M129.501 285.313C129.894 285.208 130.271 285.196 130.632 285.277C130.996 285.354 131.307 285.511 131.565 285.749C131.823 285.987 131.998 286.278 132.09 286.622C132.172 286.927 132.159 287.224 132.05 287.512C131.941 287.8 131.767 288.057 131.528 288.283C131.922 288.347 132.262 288.492 132.549 288.719C132.836 288.945 133.029 289.243 133.128 289.613C133.232 290.002 133.226 290.379 133.11 290.746C132.993 291.109 132.783 291.426 132.48 291.698C132.176 291.969 131.806 292.163 131.368 292.281C130.93 292.398 130.512 292.415 130.114 292.332C129.716 292.248 129.375 292.079 129.092 291.823C128.808 291.563 128.614 291.239 128.51 290.85C128.411 290.481 128.429 290.126 128.565 289.786C128.7 289.447 128.92 289.151 129.225 288.9C128.905 288.824 128.626 288.688 128.388 288.493C128.153 288.297 127.995 288.046 127.913 287.741C127.821 287.397 127.827 287.058 127.932 286.723C128.036 286.388 128.225 286.096 128.498 285.849C128.775 285.597 129.109 285.419 129.501 285.313ZM129.726 286.151C129.492 286.214 129.294 286.313 129.132 286.45C128.973 286.581 128.862 286.74 128.799 286.927C128.736 287.114 128.733 287.313 128.789 287.524C128.841 287.717 128.941 287.878 129.089 288.008C129.237 288.138 129.416 288.224 129.625 288.265C129.838 288.305 130.057 288.295 130.284 288.234C130.51 288.173 130.704 288.073 130.864 287.933C131.029 287.792 131.142 287.628 131.206 287.441C131.269 287.254 131.275 287.065 131.223 286.872C131.166 286.661 131.064 286.49 130.916 286.36C130.768 286.23 130.59 286.148 130.383 286.114C130.179 286.076 129.96 286.088 129.726 286.151ZM130.495 289.021C130.219 289.094 129.989 289.211 129.805 289.369C129.621 289.528 129.494 289.715 129.423 289.933C129.354 290.145 129.351 290.368 129.414 290.602C129.477 290.836 129.591 291.03 129.758 291.183C129.928 291.336 130.133 291.437 130.373 291.486C130.611 291.531 130.868 291.517 131.144 291.443C131.419 291.369 131.649 291.253 131.833 291.094C132.016 290.932 132.141 290.743 132.208 290.527C132.28 290.31 132.284 290.084 132.221 289.85C132.159 289.616 132.043 289.425 131.873 289.276C131.707 289.122 131.504 289.023 131.266 288.978C131.027 288.933 130.77 288.947 130.495 289.021Z" fill="#8C8C8C"/>
<path d="M145.448 281.174C145.576 281.14 145.675 281.146 145.744 281.192C145.816 281.234 145.87 281.324 145.908 281.464C145.945 281.603 145.944 281.711 145.903 281.786C145.865 281.857 145.783 281.91 145.654 281.944L143.017 282.651L143.43 284.487C143.751 284.175 144.128 283.961 144.562 283.844C145.015 283.723 145.433 283.714 145.817 283.817C146.2 283.921 146.525 284.121 146.79 284.418C147.059 284.71 147.252 285.077 147.37 285.518C147.488 285.96 147.497 286.382 147.394 286.786C147.291 287.185 147.085 287.534 146.777 287.831C146.468 288.128 146.076 288.34 145.601 288.467C145.238 288.564 144.858 288.602 144.46 288.579C144.061 288.556 143.685 288.481 143.332 288.353C143.193 288.306 143.109 288.225 143.079 288.112C143.057 288.029 143.063 287.93 143.097 287.816C143.151 287.627 143.239 287.517 143.36 287.485C143.42 287.468 143.491 287.476 143.572 287.507C143.864 287.614 144.166 287.681 144.481 287.706C144.795 287.731 145.093 287.706 145.376 287.63C145.682 287.548 145.932 287.416 146.126 287.235C146.319 287.05 146.444 286.832 146.503 286.582C146.564 286.327 146.555 286.052 146.476 285.758C146.401 285.479 146.278 285.247 146.107 285.062C145.94 284.876 145.735 284.751 145.491 284.687C145.252 284.622 144.992 284.627 144.713 284.702C144.456 284.77 144.235 284.866 144.05 284.989C143.863 285.107 143.692 285.26 143.536 285.448C143.485 285.502 143.396 285.546 143.268 285.58C143.109 285.623 142.989 285.625 142.906 285.586C142.826 285.547 142.773 285.46 142.745 285.326L142.1 282.466C142.072 282.332 142.081 282.228 142.126 282.156C142.171 282.083 142.271 282.026 142.426 281.984L145.448 281.174Z" fill="#8C8C8C"/>
<path d="M152.546 279.139C152.647 279.108 152.735 279.121 152.811 279.177C152.89 279.233 152.956 279.357 153.008 279.549C153.039 279.666 153.043 279.756 153.019 279.819C152.998 279.877 152.955 279.917 152.888 279.939C151.898 280.261 151.196 280.728 150.782 281.34C150.367 281.949 150.214 282.668 150.322 283.496C150.45 283.187 150.638 282.924 150.888 282.707C151.137 282.491 151.424 282.339 151.748 282.252C152.163 282.141 152.561 282.13 152.94 282.218C153.324 282.305 153.653 282.486 153.929 282.76C154.208 283.033 154.404 283.381 154.518 283.803C154.627 284.211 154.629 284.603 154.523 284.979C154.417 285.351 154.21 285.675 153.904 285.951C153.602 286.226 153.222 286.425 152.766 286.547C152.354 286.658 151.95 286.665 151.552 286.569C151.158 286.473 150.808 286.273 150.5 285.972C150.076 285.551 149.76 284.951 149.551 284.17C149.376 283.517 149.348 282.863 149.468 282.208C149.591 281.552 149.903 280.951 150.404 280.404C150.907 279.853 151.621 279.431 152.546 279.139ZM151.848 283.123C151.573 283.197 151.34 283.316 151.149 283.48C150.958 283.641 150.824 283.83 150.749 284.049C150.677 284.262 150.673 284.488 150.737 284.725C150.807 284.989 150.929 285.21 151.102 285.386C151.278 285.561 151.489 285.678 151.736 285.738C151.986 285.796 152.255 285.787 152.541 285.71C152.828 285.633 153.065 285.513 153.252 285.35C153.438 285.186 153.564 284.993 153.63 284.769C153.694 284.542 153.692 284.299 153.623 284.043C153.554 283.783 153.434 283.57 153.264 283.405C153.099 283.239 152.894 283.132 152.651 283.084C152.41 283.031 152.143 283.044 151.848 283.123Z" fill="#8C8C8C"/>
<path d="M157.962 277.821C158.113 277.781 158.241 277.779 158.348 277.815C158.458 277.846 158.552 277.92 158.632 278.036L162.125 283.081L162.47 282.989C162.599 282.954 162.697 282.96 162.766 283.006C162.838 283.048 162.893 283.138 162.93 283.278C162.967 283.418 162.966 283.525 162.925 283.601C162.888 283.671 162.805 283.724 162.677 283.758L160.673 284.295C160.545 284.33 160.445 284.326 160.373 284.285C160.304 284.238 160.251 284.146 160.213 284.006C160.176 283.866 160.176 283.761 160.214 283.69C160.254 283.615 160.338 283.56 160.467 283.526L161.231 283.321L160.406 282.098L157.661 282.834L157.552 284.307L158.237 284.123C158.365 284.089 158.464 284.095 158.533 284.141C158.604 284.182 158.659 284.273 158.696 284.412C158.734 284.552 158.732 284.66 158.692 284.735C158.654 284.806 158.571 284.858 158.443 284.893L156.553 285.399C156.424 285.434 156.324 285.43 156.253 285.389C156.184 285.342 156.13 285.25 156.093 285.11C156.056 284.97 156.056 284.865 156.093 284.794C156.134 284.719 156.218 284.664 156.346 284.63L156.663 284.545L157.149 278.864L156.091 279.148C155.962 279.182 155.862 279.178 155.791 279.137C155.722 279.091 155.668 278.998 155.631 278.858C155.594 278.719 155.594 278.614 155.631 278.543C155.672 278.467 155.756 278.412 155.885 278.378L157.962 277.821ZM157.958 278.647L157.721 281.993L159.939 281.398L158.066 278.618L157.958 278.647Z" fill="#8C8C8C"/>
<path d="M166.91 275.29C167.065 275.249 167.182 275.248 167.261 275.287C167.341 275.326 167.398 275.412 167.433 275.544L167.934 277.412C167.969 277.544 167.962 277.647 167.913 277.721C167.864 277.795 167.763 277.852 167.608 277.894C167.453 277.935 167.336 277.936 167.257 277.897C167.178 277.857 167.12 277.771 167.085 277.639C167.016 277.383 166.895 277.165 166.721 276.985C166.551 276.804 166.331 276.683 166.06 276.622C165.788 276.557 165.476 276.572 165.125 276.666C164.718 276.775 164.385 276.98 164.125 277.28C163.87 277.579 163.707 277.952 163.637 278.4C163.57 278.846 163.609 279.337 163.752 279.873C163.896 280.409 164.104 280.854 164.378 281.21C164.65 281.562 164.967 281.804 165.331 281.937C165.694 282.07 166.079 282.082 166.487 281.973C166.86 281.873 167.202 281.723 167.513 281.522C167.823 281.322 168.086 281.082 168.302 280.801C168.352 280.731 168.415 280.686 168.49 280.666C168.603 280.636 168.723 280.682 168.849 280.806C168.948 280.901 169.008 280.992 169.032 281.079C169.062 281.192 169.03 281.306 168.935 281.42C168.65 281.76 168.316 282.047 167.935 282.283C167.557 282.517 167.149 282.693 166.711 282.811C166.123 282.968 165.569 282.963 165.051 282.795C164.535 282.621 164.087 282.305 163.705 281.845C163.326 281.384 163.044 280.807 162.858 280.113C162.673 279.422 162.633 278.782 162.738 278.192C162.841 277.598 163.075 277.096 163.439 276.687C163.806 276.278 164.275 275.996 164.844 275.844C165.199 275.749 165.53 275.725 165.838 275.771C166.146 275.818 166.424 275.928 166.672 276.1L166.584 275.772C166.549 275.64 166.556 275.537 166.605 275.463C166.654 275.389 166.756 275.332 166.91 275.29Z" fill="#8C8C8C"/>
<path d="M179.326 271.963C179.764 271.846 180.168 271.822 180.538 271.893C180.912 271.959 181.229 272.116 181.49 272.366C181.751 272.615 181.937 272.946 182.047 273.357C182.15 273.742 182.149 274.122 182.043 274.498C181.941 274.87 181.743 275.315 181.449 275.835L180.064 278.274L182.521 277.616L182.33 276.903C182.294 276.771 182.301 276.668 182.35 276.594C182.399 276.52 182.501 276.463 182.656 276.421C182.81 276.38 182.927 276.379 183.007 276.418C183.086 276.457 183.143 276.543 183.179 276.675L183.473 277.773C183.51 277.913 183.509 278.02 183.468 278.096C183.431 278.167 183.348 278.219 183.219 278.254L179.292 279.306C179.163 279.341 179.063 279.337 178.992 279.296C178.923 279.249 178.869 279.156 178.832 279.017C178.793 278.873 178.794 278.764 178.835 278.688L180.649 275.497C180.901 275.049 181.065 274.69 181.142 274.418C181.222 274.142 181.225 273.868 181.153 273.597C181.059 273.246 180.871 272.999 180.59 272.856C180.312 272.708 179.967 272.689 179.556 272.799C179.141 272.91 178.779 273.121 178.469 273.43L178.636 274.053C178.672 274.185 178.665 274.288 178.616 274.361C178.567 274.435 178.465 274.493 178.31 274.534C178.156 274.576 178.039 274.577 177.959 274.537C177.88 274.498 177.823 274.412 177.787 274.28L177.564 273.448C177.525 273.301 177.54 273.186 177.611 273.102C177.833 272.828 178.089 272.594 178.381 272.398C178.671 272.199 178.986 272.054 179.326 271.963Z" fill="#8C8C8C"/>
<path d="M186.649 270.134C186.8 270.094 186.929 270.092 187.035 270.128C187.145 270.159 187.239 270.233 187.319 270.349L190.812 275.394L191.158 275.302C191.286 275.267 191.384 275.273 191.453 275.319C191.525 275.361 191.58 275.451 191.617 275.591C191.655 275.731 191.653 275.838 191.613 275.914C191.575 275.984 191.492 276.037 191.364 276.071L189.36 276.608C189.232 276.643 189.132 276.639 189.06 276.598C188.991 276.551 188.938 276.459 188.901 276.319C188.863 276.179 188.863 276.074 188.901 276.003C188.941 275.928 189.026 275.873 189.154 275.839L189.918 275.634L189.093 274.411L186.348 275.147L186.239 276.62L186.924 276.436C187.052 276.402 187.151 276.408 187.22 276.454C187.292 276.495 187.346 276.586 187.384 276.725C187.421 276.865 187.42 276.973 187.379 277.048C187.342 277.119 187.259 277.171 187.13 277.206L185.24 277.712C185.112 277.747 185.012 277.743 184.94 277.702C184.871 277.655 184.818 277.563 184.78 277.423C184.743 277.283 184.743 277.178 184.781 277.107C184.821 277.032 184.905 276.977 185.034 276.943L185.351 276.858L185.836 271.177L184.778 271.461C184.65 271.495 184.55 271.491 184.478 271.45C184.409 271.404 184.356 271.311 184.318 271.171C184.281 271.032 184.281 270.927 184.319 270.856C184.359 270.78 184.444 270.725 184.572 270.691L186.649 270.134ZM186.646 270.96L186.408 274.306L188.626 273.711L186.753 270.931L186.646 270.96Z" fill="#8C8C8C"/>
<path d="M193.599 268.272C193.75 268.232 193.879 268.229 193.986 268.266C194.095 268.297 194.19 268.371 194.269 268.487L197.762 273.532L198.108 273.439C198.236 273.405 198.335 273.411 198.404 273.457C198.475 273.499 198.53 273.589 198.567 273.729C198.605 273.868 198.603 273.976 198.563 274.051C198.525 274.122 198.442 274.175 198.314 274.209L196.31 274.746C196.182 274.78 196.082 274.777 196.01 274.735C195.941 274.689 195.888 274.596 195.851 274.457C195.813 274.317 195.813 274.212 195.851 274.141C195.891 274.066 195.976 274.011 196.104 273.976L196.868 273.772L196.043 272.549L193.298 273.284L193.189 274.757L193.874 274.574C194.002 274.539 194.101 274.545 194.17 274.592C194.242 274.633 194.296 274.723 194.334 274.863C194.371 275.003 194.37 275.11 194.329 275.186C194.292 275.257 194.209 275.309 194.08 275.343L192.19 275.85C192.062 275.884 191.962 275.881 191.89 275.839C191.821 275.793 191.768 275.7 191.73 275.561C191.693 275.421 191.693 275.316 191.731 275.245C191.771 275.17 191.856 275.115 191.984 275.08L192.301 274.995L192.787 269.315L191.728 269.598C191.6 269.633 191.5 269.629 191.428 269.588C191.359 269.542 191.306 269.449 191.268 269.309C191.231 269.169 191.231 269.064 191.269 268.993C191.309 268.918 191.394 268.863 191.522 268.829L193.599 268.272ZM193.596 269.098L193.358 272.443L195.577 271.849L193.703 269.069L193.596 269.098Z" fill="#8C8C8C"/>
<path d="M203.876 270.11C204.031 270.069 204.148 270.068 204.227 270.107C204.307 270.147 204.364 270.232 204.399 270.364L204.85 272.045C204.887 272.185 204.886 272.293 204.845 272.368C204.807 272.439 204.724 272.491 204.596 272.526L199.536 273.882C199.408 273.916 199.308 273.912 199.236 273.871C199.167 273.825 199.114 273.732 199.077 273.592C199.039 273.453 199.039 273.347 199.077 273.277C199.118 273.201 199.202 273.146 199.33 273.112L199.907 272.957L198.52 267.779L197.943 267.933C197.814 267.968 197.714 267.964 197.642 267.923C197.573 267.876 197.52 267.783 197.483 267.644C197.445 267.504 197.446 267.399 197.483 267.328C197.524 267.253 197.608 267.198 197.736 267.163L202.683 265.838C202.811 265.804 202.91 265.81 202.979 265.856C203.051 265.897 203.105 265.988 203.143 266.127L203.528 267.565C203.563 267.697 203.556 267.8 203.507 267.874C203.458 267.947 203.357 268.005 203.202 268.047C203.047 268.088 202.93 268.089 202.851 268.05C202.772 268.01 202.714 267.924 202.679 267.792L202.397 266.74L199.369 267.551L199.931 269.651L201.392 269.26L201.254 268.744C201.218 268.612 201.221 268.511 201.263 268.439C201.308 268.366 201.406 268.309 201.557 268.269C201.708 268.228 201.819 268.229 201.891 268.27C201.966 268.311 202.022 268.397 202.057 268.529L202.54 270.329C202.575 270.461 202.57 270.563 202.525 270.636C202.483 270.708 202.387 270.764 202.236 270.804C202.085 270.845 201.972 270.845 201.897 270.805C201.825 270.763 201.771 270.676 201.736 270.544L201.598 270.029L200.138 270.421L200.756 272.73L203.898 271.888L203.55 270.592C203.515 270.46 203.522 270.357 203.571 270.283C203.62 270.209 203.721 270.152 203.876 270.11Z" fill="#8C8C8C"/>
<path d="M218.678 267.946C218.806 267.912 218.905 267.917 218.974 267.964C219.045 268.005 219.1 268.096 219.137 268.235C219.175 268.375 219.173 268.482 219.133 268.558C219.095 268.629 219.012 268.681 218.884 268.716L215.069 269.738C214.941 269.772 214.841 269.769 214.769 269.727C214.7 269.681 214.647 269.588 214.61 269.448C214.572 269.309 214.572 269.204 214.61 269.133C214.65 269.057 214.735 269.002 214.863 268.968L216.386 268.56L215.084 263.704L213.91 264.959C213.856 265.014 213.803 265.048 213.75 265.063C213.629 265.095 213.505 265.045 213.376 264.914C213.299 264.838 213.25 264.758 213.227 264.675C213.193 264.547 213.225 264.433 213.324 264.333L215.106 262.449C215.169 262.383 215.239 262.34 215.314 262.32C215.397 262.298 215.473 262.308 215.541 262.35C215.611 262.388 215.66 262.456 215.686 262.554L217.235 268.333L218.678 267.946Z" fill="#8C8C8C"/>
<path d="M224.142 259.973C224.297 259.931 224.414 259.93 224.493 259.97C224.572 260.009 224.63 260.095 224.665 260.227L225.166 262.095C225.201 262.227 225.194 262.33 225.145 262.403C225.096 262.477 224.994 262.535 224.84 262.576C224.685 262.618 224.568 262.619 224.489 262.579C224.409 262.54 224.352 262.454 224.317 262.322C224.248 262.066 224.127 261.847 223.953 261.667C223.783 261.486 223.563 261.366 223.292 261.305C223.02 261.24 222.708 261.255 222.357 261.349C221.95 261.458 221.617 261.663 221.357 261.963C221.102 262.262 220.939 262.635 220.869 263.082C220.802 263.529 220.841 264.02 220.984 264.556C221.128 265.091 221.336 265.537 221.609 265.893C221.882 266.244 222.199 266.487 222.563 266.62C222.926 266.753 223.311 266.765 223.719 266.656C224.092 266.556 224.434 266.406 224.744 266.205C225.055 266.005 225.318 265.764 225.534 265.484C225.584 265.414 225.647 265.369 225.722 265.349C225.835 265.318 225.955 265.365 226.081 265.489C226.179 265.584 226.24 265.675 226.264 265.762C226.294 265.875 226.262 265.989 226.167 266.103C225.882 266.442 225.548 266.73 225.167 266.965C224.789 267.2 224.381 267.376 223.943 267.493C223.355 267.651 222.801 267.646 222.283 267.477C221.767 267.304 221.319 266.988 220.937 266.528C220.558 266.067 220.276 265.49 220.09 264.795C219.905 264.105 219.865 263.464 219.97 262.874C220.073 262.28 220.307 261.779 220.671 261.37C221.038 260.96 221.507 260.679 222.076 260.526C222.431 260.431 222.762 260.407 223.07 260.454C223.378 260.501 223.656 260.611 223.904 260.783L223.816 260.454C223.781 260.322 223.788 260.219 223.837 260.146C223.886 260.072 223.987 260.014 224.142 259.973Z" fill="#8C8C8C"/>
<path d="M232.421 262.48C232.576 262.439 232.693 262.438 232.772 262.477C232.851 262.516 232.909 262.602 232.944 262.734L233.394 264.415C233.432 264.555 233.43 264.662 233.39 264.738C233.352 264.809 233.269 264.861 233.141 264.896L228.081 266.251C227.953 266.286 227.853 266.282 227.781 266.241C227.712 266.194 227.659 266.102 227.621 265.962C227.584 265.822 227.584 265.717 227.622 265.646C227.662 265.571 227.747 265.516 227.875 265.482L228.452 265.327L227.064 260.148L226.487 260.303C226.359 260.337 226.259 260.334 226.187 260.292C226.118 260.246 226.065 260.153 226.028 260.014C225.99 259.874 225.99 259.769 226.028 259.698C226.068 259.623 226.153 259.568 226.281 259.533L231.228 258.208C231.356 258.173 231.454 258.179 231.523 258.226C231.595 258.267 231.65 258.357 231.687 258.497L232.072 259.935C232.108 260.067 232.101 260.17 232.052 260.243C232.003 260.317 231.901 260.375 231.747 260.416C231.592 260.458 231.475 260.459 231.396 260.419C231.316 260.38 231.259 260.294 231.223 260.162L230.941 259.109L227.913 259.921L228.476 262.021L229.936 261.629L229.798 261.114C229.763 260.982 229.766 260.88 229.807 260.808C229.853 260.736 229.951 260.679 230.102 260.639C230.252 260.598 230.364 260.599 230.436 260.64C230.511 260.681 230.567 260.767 230.602 260.899L231.084 262.699C231.12 262.831 231.115 262.933 231.069 263.006C231.028 263.078 230.932 263.134 230.781 263.174C230.63 263.215 230.517 263.215 230.441 263.174C230.369 263.133 230.316 263.046 230.281 262.914L230.143 262.399L228.682 262.79L229.301 265.099L232.442 264.258L232.095 262.962C232.06 262.83 232.066 262.727 232.115 262.653C232.164 262.579 232.266 262.522 232.421 262.48Z" fill="#8C8C8C"/>
<path d="M235.863 256.832C236.256 256.727 236.633 256.715 236.994 256.796C237.358 256.872 237.669 257.03 237.927 257.268C238.185 257.506 238.36 257.797 238.452 258.14C238.534 258.446 238.521 258.743 238.412 259.031C238.303 259.319 238.129 259.576 237.89 259.801C238.284 259.866 238.624 260.011 238.911 260.237C239.198 260.464 239.391 260.762 239.49 261.132C239.595 261.52 239.589 261.898 239.473 262.265C239.356 262.628 239.145 262.945 238.842 263.216C238.539 263.488 238.168 263.682 237.73 263.799C237.293 263.917 236.875 263.934 236.476 263.85C236.078 263.767 235.737 263.597 235.454 263.342C235.17 263.082 234.976 262.758 234.872 262.369C234.773 261.999 234.791 261.645 234.927 261.305C235.062 260.966 235.282 260.67 235.587 260.418C235.267 260.342 234.988 260.207 234.75 260.012C234.516 259.816 234.357 259.565 234.275 259.259C234.183 258.916 234.19 258.577 234.294 258.241C234.398 257.906 234.587 257.615 234.86 257.368C235.137 257.116 235.471 256.937 235.863 256.832ZM236.088 257.67C235.854 257.732 235.656 257.832 235.495 257.968C235.336 258.1 235.225 258.259 235.161 258.446C235.098 258.633 235.095 258.832 235.152 259.043C235.203 259.235 235.303 259.397 235.451 259.527C235.599 259.657 235.778 259.743 235.987 259.784C236.2 259.824 236.42 259.813 236.646 259.753C236.872 259.692 237.066 259.592 237.226 259.451C237.391 259.31 237.505 259.146 237.568 258.96C237.631 258.773 237.637 258.583 237.585 258.391C237.529 258.179 237.426 258.009 237.278 257.879C237.13 257.748 236.952 257.667 236.745 257.633C236.541 257.595 236.322 257.607 236.088 257.67ZM236.857 260.539C236.581 260.613 236.352 260.729 236.168 260.888C235.984 261.046 235.856 261.234 235.785 261.451C235.716 261.664 235.714 261.887 235.776 262.121C235.839 262.355 235.953 262.549 236.12 262.702C236.29 262.855 236.495 262.955 236.735 263.004C236.973 263.05 237.23 263.035 237.506 262.962C237.781 262.888 238.011 262.772 238.195 262.613C238.378 262.451 238.503 262.262 238.571 262.045C238.642 261.828 238.646 261.603 238.583 261.369C238.521 261.135 238.405 260.943 238.235 260.795C238.069 260.641 237.866 260.542 237.628 260.496C237.389 260.451 237.132 260.465 236.857 260.539Z" fill="#8C8C8C"/>
<path d="M252.037 252.632C252.165 252.598 252.263 252.604 252.332 252.65C252.404 252.691 252.459 252.782 252.496 252.921C252.52 253.012 252.529 253.09 252.523 253.157L251.712 259.774C251.701 259.87 251.664 259.949 251.599 260.01C251.54 260.075 251.459 260.121 251.357 260.148C251.221 260.184 251.102 260.186 251 260.152C250.903 260.122 250.843 260.061 250.818 259.971C250.804 259.918 250.801 259.868 250.809 259.822L251.603 253.573L248.921 254.292L249.142 255.118C249.177 255.25 249.171 255.353 249.122 255.427C249.073 255.501 248.971 255.558 248.816 255.6C248.661 255.641 248.544 255.642 248.465 255.603C248.386 255.563 248.328 255.478 248.293 255.346L247.968 254.135C247.931 253.995 247.931 253.89 247.969 253.819C248.009 253.743 248.094 253.688 248.222 253.654L252.037 252.632Z" fill="#8C8C8C"/>
<path d="M260.626 256.706C260.754 256.672 260.853 256.677 260.922 256.724C260.993 256.765 261.048 256.856 261.085 256.995C261.123 257.135 261.121 257.242 261.081 257.318C261.043 257.389 260.96 257.441 260.832 257.476L257.017 258.498C256.889 258.532 256.789 258.529 256.717 258.487C256.648 258.441 256.595 258.348 256.558 258.208C256.52 258.069 256.52 257.964 256.558 257.893C256.599 257.817 256.683 257.762 256.811 257.728L258.334 257.32L257.032 252.464L255.858 253.719C255.804 253.774 255.751 253.808 255.698 253.823C255.577 253.855 255.453 253.805 255.324 253.674C255.247 253.598 255.198 253.518 255.175 253.435C255.141 253.307 255.173 253.193 255.272 253.093L257.054 251.209C257.117 251.143 257.187 251.1 257.262 251.08C257.345 251.058 257.421 251.068 257.489 251.11C257.559 251.148 257.608 251.216 257.634 251.314L259.183 257.093L260.626 256.706Z" fill="#8C8C8C"/>
<path d="M263.719 249.368C264.156 249.251 264.561 249.228 264.931 249.298C265.305 249.364 265.622 249.521 265.883 249.771C266.144 250.021 266.33 250.351 266.44 250.762C266.543 251.147 266.542 251.528 266.436 251.904C266.334 252.275 266.135 252.72 265.842 253.24L264.457 255.679L266.914 255.021L266.723 254.308C266.687 254.176 266.694 254.073 266.743 253.999C266.792 253.925 266.894 253.868 267.049 253.826C267.203 253.785 267.32 253.784 267.4 253.823C267.479 253.863 267.536 253.948 267.572 254.08L267.866 255.178C267.903 255.318 267.902 255.426 267.861 255.501C267.824 255.572 267.741 255.624 267.612 255.659L263.685 256.711C263.556 256.746 263.456 256.742 263.384 256.701C263.315 256.655 263.262 256.562 263.225 256.422C263.186 256.279 263.187 256.169 263.228 256.094L265.042 252.902C265.294 252.454 265.458 252.095 265.535 251.824C265.615 251.547 265.618 251.274 265.546 251.002C265.452 250.651 265.264 250.404 264.983 250.261C264.705 250.113 264.36 250.094 263.949 250.204C263.534 250.316 263.172 250.526 262.862 250.835L263.029 251.458C263.064 251.59 263.058 251.693 263.009 251.767C262.96 251.84 262.858 251.898 262.703 251.939C262.548 251.981 262.431 251.982 262.352 251.943C262.273 251.903 262.215 251.817 262.18 251.685L261.957 250.853C261.918 250.706 261.933 250.591 262.004 250.507C262.226 250.233 262.482 249.999 262.774 249.803C263.064 249.604 263.379 249.459 263.719 249.368Z" fill="#8C8C8C"/>
<path d="M271.637 247.247C271.965 247.159 272.169 247.262 272.247 247.556L273.21 251.15L274.127 250.904C274.256 250.87 274.354 250.876 274.423 250.922C274.495 250.964 274.55 251.054 274.587 251.194C274.624 251.333 274.623 251.441 274.582 251.516C274.545 251.587 274.462 251.64 274.334 251.674L273.417 251.92L273.756 253.188L274.503 252.987C274.632 252.953 274.73 252.959 274.799 253.005C274.871 253.047 274.926 253.137 274.963 253.277C275.001 253.416 274.999 253.524 274.959 253.599C274.921 253.67 274.838 253.723 274.71 253.757L272.276 254.409C272.148 254.444 272.048 254.44 271.976 254.399C271.907 254.352 271.854 254.26 271.816 254.12C271.779 253.98 271.779 253.875 271.817 253.804C271.857 253.729 271.941 253.674 272.07 253.64L272.907 253.415L272.568 252.147L269.862 252.872C269.734 252.907 269.634 252.903 269.562 252.862C269.493 252.815 269.44 252.722 269.403 252.583C269.369 252.458 269.364 252.365 269.388 252.302L271.107 247.759C271.158 247.62 271.224 247.509 271.303 247.427C271.382 247.345 271.493 247.285 271.637 247.247ZM270.426 251.896L272.361 251.378L271.655 248.558L270.426 251.896Z" fill="#8C8C8C"/>
</g>
<defs>
<filter id="filter0_bd" x="0" y="-3.99988" width="510.28" height="392.658" filterUnits="userSpaceOnUse" color-interpolation-filters="sRGB">
<feFlood flood-opacity="0" result="BackgroundImageFix"/>
<feGaussianBlur in="BackgroundImage" stdDeviation="15"/>
<feComposite in2="SourceAlpha" operator="in" result="effect1_backgroundBlur"/>
<feColorMatrix in="SourceAlpha" type="matrix" values="0 0 0 0 0 0 0 0 0 0 0 0 0 0 0 0 0 0 127 0" result="hardAlpha"/>
<feOffset dy="4"/>
<feGaussianBlur stdDeviation="15"/>
<feComposite in2="hardAlpha" operator="out"/>
<feColorMatrix type="matrix" values="0 0 0 0 0 0 0 0 0 0 0 0 0 0 0 0 0 0 0.15 0"/>
<feBlend mode="normal" in2="effect1_backgroundBlur" result="effect2_dropShadow"/>
<feBlend mode="normal" in="SourceGraphic" in2="effect2_dropShadow" result="shape"/>
</filter>
<linearGradient id="paint0_linear" x1="120.56" y1="143.988" x2="83.7908" y2="207.675" gradientUnits="userSpaceOnUse">
<stop stop-color="#D669FF"/>
<stop offset="1" stop-color="#7161EF"/>
</linearGradient>
<linearGradient id="paint1_linear" x1="401.687" y1="80.4198" x2="406.58" y2="137.162" gradientUnits="userSpaceOnUse">
<stop stop-color="#D669FF"/>
<stop offset="1" stop-color="#7161EF"/>
</linearGradient>
<linearGradient id="paint2_linear" x1="401.687" y1="80.4198" x2="406.58" y2="137.162" gradientUnits="userSpaceOnUse">
<stop stop-color="#D669FF"/>
<stop offset="1" stop-color="#7161EF"/>
</linearGradient>
<linearGradient id="paint3_linear" x1="401.687" y1="80.4198" x2="406.58" y2="137.162" gradientUnits="userSpaceOnUse">
<stop stop-color="#D669FF"/>
<stop offset="1" stop-color="#7161EF"/>
</linearGradient>
<linearGradient id="paint4_linear" x1="401.687" y1="80.4198" x2="406.58" y2="137.162" gradientUnits="userSpaceOnUse">
<stop stop-color="#D669FF"/>
<stop offset="1" stop-color="#7161EF"/>
</linearGradient>
<linearGradient id="paint5_linear" x1="401.687" y1="80.4198" x2="406.58" y2="137.162" gradientUnits="userSpaceOnUse">
<stop stop-color="#D669FF"/>
<stop offset="1" stop-color="#7161EF"/>
</linearGradient>
<linearGradient id="paint6_linear" x1="401.687" y1="80.4198" x2="406.58" y2="137.162" gradientUnits="userSpaceOnUse">
<stop stop-color="#D669FF"/>
<stop offset="1" stop-color="#7161EF"/>
</linearGradient>
</defs>
</svg>
