<svg width="125" height="89" viewBox="0 0 125 89" fill="none" xmlns="http://www.w3.org/2000/svg">
<g clip-path="url(#clip0)">
<path d="M24.4532 23.4118L26.2745 22.587C26.6804 22.4033 27.1461 22.3809 27.5692 22.525C27.9923 22.669 28.3381 22.9676 28.5306 23.3551L38.0993 42.6153C38.2918 43.0027 38.3152 43.4473 38.1643 43.8512C38.0135 44.2552 37.7007 44.5853 37.2948 44.7691L35.4735 45.5938C35.0677 45.7776 34.6022 45.7999 34.1792 45.6559C33.7562 45.5119 33.4105 45.2134 33.218 44.8261L23.6492 25.5654C23.4567 25.178 23.4333 24.7334 23.5841 24.3294C23.735 23.9255 24.0478 23.5953 24.4536 23.4116L24.4532 23.4118Z" fill="#506373"/>
<path d="M32.0222 42.161L36.634 40.0728C37.0849 39.8686 37.6023 39.8438 38.0724 40.0039C38.5424 40.1639 38.9266 40.4956 39.1405 40.9261L53.5468 69.925L45.5911 73.5273L31.158 44.4746C31.0556 44.2685 30.9967 44.0452 30.9847 43.8174C30.9727 43.5896 31.0078 43.3617 31.088 43.1469C31.1683 42.932 31.2921 42.7343 31.4524 42.5652C31.6127 42.396 31.8063 42.2587 32.0222 42.161Z" fill="#34495E"/>
<path d="M34.3584 41.1045L36.9195 39.9448C37.2952 39.7747 37.7264 39.754 38.1181 39.8874C38.5098 40.0207 38.83 40.2971 39.0082 40.6559L53.5497 69.9255L49.5718 71.7267L34.3584 41.1045Z" fill="#506373"/>
<path d="M22.1459 68.7588H72.6766V88.9998H10.1318V80.229C10.1318 78.7227 10.4425 77.2312 11.0462 75.8396C11.6499 74.448 12.5349 73.1835 13.6505 72.1184C14.7661 71.0533 16.0906 70.2084 17.5482 69.6319C19.0059 69.0555 20.5682 68.7588 22.1459 68.7588Z" fill="#6780A1"/>
<path d="M10.1309 80.2288V89.0001H72.6756V72.7549H13.0363C11.1588 74.8321 10.1274 77.4852 10.1309 80.2288Z" fill="white"/>
<path d="M22.1453 68.7588C20.4148 68.7574 18.7045 69.1139 17.1321 69.8037C15.5596 70.4934 14.1623 71.5002 13.0361 72.7546H72.6755V68.7588H22.1453Z" fill="#BEC3C7"/>
<path d="M88.9306 44.7685L90.7519 45.5932C91.5971 45.9759 92.6072 45.632 93.008 44.8252L102.576 25.5648C102.977 24.758 102.617 23.7937 101.772 23.411L99.9505 22.5863C99.1053 22.2036 98.0952 22.5475 97.6944 23.3543L88.1261 42.6147C87.7252 43.4215 88.0854 44.3859 88.9306 44.7685Z" fill="#506373"/>
<path d="M80.6313 73.5273L72.6756 69.9251L87.082 40.9262C87.2958 40.4957 87.68 40.164 88.1501 40.004C88.6201 39.8439 89.1375 39.8687 89.5884 40.0729L94.2006 42.1613C94.6365 42.3586 94.9724 42.7132 95.1344 43.1469C95.2964 43.5807 95.2713 44.0582 95.0646 44.4743L80.6313 73.5273Z" fill="#506373"/>
<path d="M76.6533 71.7275L72.6755 69.9263L87.217 40.6567C87.3952 40.298 87.7154 40.0216 88.1071 39.8882C88.4988 39.7549 88.9299 39.7755 89.3057 39.9457L91.8668 41.1054L76.6533 71.7275Z" fill="#34495E"/>
<path d="M72.6766 85.0039H10.1318V88.9997H72.6766V85.0039Z" fill="#BEC3C7"/>
<path d="M56.7594 79.3141C56.7594 80.1557 56.4092 80.963 55.7859 81.5582C55.1625 82.1534 54.317 82.4878 53.4354 82.488C52.9988 82.488 52.5665 82.4059 52.1631 82.2464C51.7598 82.0869 51.3933 81.8531 51.0846 81.5583C50.7759 81.2636 50.531 80.9137 50.3639 80.5287C50.1968 80.1436 50.1108 79.7309 50.1108 79.3141C50.111 78.4724 50.4613 77.6652 51.0848 77.0701C51.7082 76.475 52.5538 76.1406 53.4354 76.1406C53.8719 76.1406 54.3042 76.2227 54.7074 76.3822C55.1107 76.5417 55.4772 76.7754 55.7858 77.0701C56.0945 77.3648 56.3394 77.7146 56.5064 78.0996C56.6735 78.4847 56.7594 78.8973 56.7594 79.3141Z" fill="#6D7B8A"/>
<path d="M44.7287 79.3141C44.7287 79.7309 44.6427 80.1436 44.4756 80.5287C44.3085 80.9137 44.0636 81.2636 43.7549 81.5583C43.4462 81.8531 43.0797 82.0869 42.6764 82.2464C42.273 82.4059 41.8407 82.488 41.4041 82.488C40.5225 82.4878 39.677 82.1534 39.0536 81.5582C38.4303 80.963 38.0801 80.1557 38.0801 79.3141C38.0801 78.8973 38.1661 78.4847 38.3331 78.0996C38.5001 77.7146 38.745 77.3648 39.0537 77.0701C39.3623 76.7754 39.7288 76.5417 40.1321 76.3822C40.5354 76.2227 40.9676 76.1406 41.4041 76.1406C42.2858 76.1406 43.1313 76.475 43.7548 77.0701C44.3782 77.6652 44.7285 78.4724 44.7287 79.3141Z" fill="#6FB944"/>
<path d="M21.38 79.3141C21.38 80.1557 21.0298 80.963 20.4065 81.5582C19.7831 82.1534 18.9376 82.4878 18.056 82.488C17.6194 82.488 17.1871 82.4059 16.7837 82.2464C16.3804 82.0869 16.0139 81.8531 15.7052 81.5583C15.3965 81.2636 15.1516 80.9137 14.9845 80.5287C14.8174 80.1436 14.7314 79.7309 14.7314 79.3141C14.7316 78.4724 15.0819 77.6652 15.7054 77.0701C16.3288 76.475 17.1744 76.1406 18.056 76.1406C18.4925 76.1406 18.9248 76.2227 19.328 76.3822C19.7313 76.5417 20.0978 76.7754 20.4064 77.0701C20.7151 77.3648 20.96 77.7146 21.127 78.0996C21.2941 78.4847 21.38 78.8973 21.38 79.3141Z" fill="#EE3446"/>
<path d="M89.814 68.7588H72.853C71.1128 68.7587 69.3897 69.0859 67.782 69.7216C66.1743 70.3573 64.7135 71.2892 63.483 72.4639C62.2525 73.6386 61.2765 75.0332 60.6106 76.5681C59.9447 78.103 59.602 79.748 59.6021 81.4093V88.9998H97.6708C99.7333 86.0588 101.497 82.9364 102.938 79.6753C102.499 76.6497 100.929 73.8777 98.5168 71.8712C96.1046 69.8647 93.0134 68.7592 89.814 68.7588Z" fill="#6D7B8A"/>
<path d="M92.3549 20.6251C93.8978 19.0805 95.9213 18.0521 98.125 17.6925C100.383 17.3889 102.683 17.8199 104.654 18.916C106.358 19.8841 107.726 21.3081 108.59 23.0116C108.65 23.1255 108.708 23.2402 108.763 23.3557C108.704 23.2055 108.705 23.2084 108.769 23.3638C108.888 23.6397 108.989 23.9228 109.081 24.2073C109.239 24.7001 109.365 25.2017 109.46 25.7091C109.518 26.0994 109.548 26.4932 109.547 26.8875C109.552 27.1528 109.547 27.4191 109.532 27.6845C109.526 27.7953 109.431 28.633 109.47 28.385C109.262 29.6752 109.813 30.9874 111.241 31.3598C112.441 31.6745 114.149 30.9687 114.357 29.6694C115.312 23.7582 112.705 17.8182 107.211 14.7345C104.286 13.1318 100.886 12.5042 97.5458 12.9506C94.2061 13.3971 91.1171 14.8922 88.766 17.2002C86.4929 19.4366 90.0727 22.8619 92.3509 20.6227L92.3549 20.6251Z" fill="#3898DB"/>
<path d="M16.3425 27.381C16.2904 25.2472 16.9601 23.1541 18.2523 21.4123C19.624 19.6734 21.5688 18.4258 23.7736 17.8703C25.6951 17.4049 27.7175 17.4884 29.5899 18.1102C29.7166 18.1496 29.8412 18.1918 29.9673 18.2364C29.8139 18.1705 29.8172 18.1705 29.9774 18.2364C30.2654 18.3511 30.5468 18.4835 30.8232 18.6203C31.2997 18.8622 31.7605 19.1316 32.2028 19.4268C32.5335 19.6628 32.8458 19.9215 33.1371 20.2007C33.3381 20.3855 33.5306 20.5774 33.7171 20.7765C33.795 20.8586 34.3478 21.5159 34.192 21.3134C35.0007 22.3661 36.3621 22.9222 37.6492 22.225C38.7313 21.6373 39.4163 19.9853 38.6041 18.9249C34.8996 14.1019 28.6581 11.6607 22.4895 13.1884C19.2342 14.0289 16.3647 15.8801 14.3334 18.4499C12.3021 21.0197 11.2247 24.1619 11.271 27.381C11.3212 30.4974 16.3897 30.5026 16.341 27.381H16.3425Z" fill="#3898DB"/>
<path d="M5.02457 23.0042C5.27672 19.2638 6.64874 15.6713 8.97749 12.6537C11.3062 9.63612 14.4937 7.3205 18.1609 5.98218C26.5932 3.00739 35.7225 5.76291 41.3458 12.3003C43.3963 14.6839 46.928 11.2783 44.894 8.91284C38.0429 0.948071 26.3097 -2.18362 16.1893 1.59485C6.7871 5.1051 0.678773 13.4595 0.00632499 23.0042C-0.210286 26.0817 4.80845 26.0687 5.02406 23.0042H5.02457Z" fill="#3898DB"/>
<path d="M84.725 13.5145C87.3842 10.781 90.8037 8.82674 94.5835 7.88029C98.3633 6.93385 102.347 7.03432 106.069 8.16996C114.594 10.8017 120.021 18.611 119.981 27.0354C119.967 30.1186 124.984 30.1225 124.999 27.0354C125.05 21.9615 123.448 16.9977 120.417 12.83C117.385 8.66224 113.072 5.49617 108.075 3.76919C98.6409 0.542024 88.0139 3.2654 81.1768 10.1271C78.9519 12.3606 82.4941 15.7538 84.725 13.5145Z" fill="#3898DB"/>
</g>
<defs>
<clipPath id="clip0">
<rect width="125" height="89" fill="white"/>
</clipPath>
</defs>
</svg>
