<svg width="135" height="82" viewBox="0 0 135 82" fill="none" xmlns="http://www.w3.org/2000/svg">
<path d="M45.325 0H125.928C128.333 0 130.64 0.982326 132.341 2.73088C134.042 4.47943 134.998 6.85098 134.998 9.3238V74.1438H36.2549V9.3238C36.2549 6.85098 37.2105 4.47943 38.9115 2.73088C40.6124 0.982326 42.9195 0 45.325 0V0Z" fill="#20313F"/>
<path d="M37.7452 0H119.03C121.345 0 123.566 0.945501 125.203 2.6285C126.84 4.31151 127.76 6.59415 127.76 8.97427V74.1432H29.0151V8.97427C29.0151 6.59415 29.9349 4.31151 31.5721 2.6285C33.2093 0.945501 35.4299 0 37.7452 0V0Z" fill="#6D7B8A"/>
<path d="M39.9169 7.36523H116.793C117.736 7.36523 118.64 7.75014 119.307 8.43527C119.973 9.1204 120.347 10.0496 120.347 11.0186V67.8257H36.3623V11.0172C36.3626 10.0484 36.7373 9.11944 37.4039 8.43457C38.0705 7.74971 38.9744 7.36506 39.9169 7.36523Z" fill="#38BCDB"/>
<path d="M111.018 81.9995H7.64244C5.61548 81.9993 3.67159 81.1714 2.23837 79.698C0.805155 78.2246 -7.06041e-09 76.2262 0 74.1426H111.018V81.9995Z" fill="#95A5B3"/>
<path d="M97.4466 81.9995H127.357C129.384 81.9993 131.328 81.1714 132.761 79.698C134.195 78.2246 135 76.2262 135 74.1426H89.8042C89.8041 75.1743 90.0017 76.196 90.3858 77.1492C90.7698 78.1024 91.3327 78.9686 92.0424 79.6982C92.7521 80.4278 93.5946 81.0065 94.5219 81.4014C95.4491 81.7962 96.443 81.9995 97.4466 81.9995Z" fill="#20313F"/>
<path d="M48.5404 18.1338H108.298C109.238 18.1338 110.139 18.5177 110.804 19.2011C111.469 19.8845 111.843 20.8114 111.843 21.7779V67.8258H44.9961V21.7773C44.9963 20.811 45.3697 19.8844 46.0344 19.2011C46.6991 18.5179 47.6005 18.134 48.5404 18.1338Z" fill="white"/>
<path d="M103.334 25.3398H52.9633C51.6002 25.3398 50.4951 26.4758 50.4951 27.877V38.7944C50.4951 40.1956 51.6002 41.3316 52.9633 41.3316H103.334C104.697 41.3316 105.802 40.1956 105.802 38.7944V27.877C105.802 26.4758 104.697 25.3398 103.334 25.3398Z" fill="#BEC3C7"/>
<path d="M64.4148 47.3447H51.882C51.116 47.3447 50.4951 47.983 50.4951 48.7704V55.7498C50.4951 56.5371 51.116 57.1754 51.882 57.1754H64.4148C65.1808 57.1754 65.8017 56.5371 65.8017 55.7498V48.7704C65.8017 47.983 65.1808 47.3447 64.4148 47.3447Z" fill="#F29A2B"/>
<path d="M104.535 47.3447H70.6097C69.91 47.3447 69.3428 47.9278 69.3428 48.6471V55.8731C69.3428 56.5923 69.91 57.1754 70.6097 57.1754H104.535C105.235 57.1754 105.802 56.5923 105.802 55.8731V48.6471C105.802 47.9278 105.235 47.3447 104.535 47.3447Z" fill="#6FB944"/>
</svg>
